{
    "asset" : {
        "generator" : "Khronos glTF Blender I/O v1.8.19",
        "version" : "2.0"
    },
    "scene" : 0,
    "scenes" : [
        {
            "name" : "Scene",
            "nodes" : [
                0
            ]
        }
    ],
    "nodes" : [
        {
            "mesh" : 0,
            "name" : "Cylinder.001",
            "rotation" : [
                -0.6532815098762512,
                -0.27059805393218994,
                0.27059805393218994,
                0.6532814502716064
            ],
            "scale" : [
                1,
                2.2730000019073486,
                1
            ]
        }
    ],
    "meshes" : [
        {
            "name" : "Cylinder.001",
            "primitives" : [
                {
                    "attributes" : {
                        "POSITION" : 0,
                        "NORMAL" : 1,
                        "TEXCOORD_0" : 2
                    },
                    "indices" : 3
                }
            ]
        }
    ],
    "accessors" : [
        {
            "bufferView" : 0,
            "componentType" : 5126,
            "count" : 2354,
            "max" : [
                1.328165054321289,
                1.0000001192092896,
                1.3281649351119995
            ],
            "min" : [
                -1.328165054321289,
                -1.0000001192092896,
                -1.3281649351119995
            ],
            "type" : "VEC3"
        },
        {
            "bufferView" : 1,
            "componentType" : 5126,
            "count" : 2354,
            "type" : "VEC3"
        },
        {
            "bufferView" : 2,
            "componentType" : 5126,
            "count" : 2354,
            "type" : "VEC2"
        },
        {
            "bufferView" : 3,
            "componentType" : 5123,
            "count" : 10872,
            "type" : "SCALAR"
        }
    ],
    "bufferViews" : [
        {
            "buffer" : 0,
            "byteLength" : 28248,
            "byteOffset" : 0
        },
        {
            "buffer" : 0,
            "byteLength" : 28248,
            "byteOffset" : 28248
        },
        {
            "buffer" : 0,
            "byteLength" : 18832,
            "byteOffset" : 56496
        },
        {
            "buffer" : 0,
            "byteLength" : 21744,
            "byteOffset" : 75328
        }
    ],
    "buffers" : [
        {
            "byteLength" : 97072,
            "uri" : "data:application/octet-stream;base64,"
        }
    ]
}
