<svg xmlns:xlink="http://www.w3.org/1999/xlink" xmlns="http://www.w3.org/2000/svg" id="boat" viewBox="0 0 1000 2500" width="100%"  height="100%" >
		<g><path d="M264.4936391839131 157.94635450940442 L128.05660203908994 164.7504625429782 L127.82393557477143 148.92083299597158 L136.7726331481342 149.73135523611666 L155.16637870047518 146.1755613276974 L181.858381154606 133.99209515749303 L202.60410255713677 129.45555029963995 L202.08797203294537 125.9255930855459 L200.64804918609656 107.68634657149808 L192.82555006101367 90.95033301520192 L184.5913025634708 75.0442217222337 L173.88179068761184 58.424003147428635 L161.25900369985143 44.522203903698916 L150.1213912874457 35.91666897894049 L132.72418418996642 24.69503750748742 L114.323004124124 18.285319301586323 L113.28249431899697 22.788928374342973 L80.10273376571325 47.3080654373503 L67.23526971360938 65.41692874787624 L48.83665236560209 89.030262806876 L37.96078487796606 106.95275728222072 L31.13906188913216 125.8401762043544 L25.7714953823509 157.65993875216657 L25.708491532589388 157.99228103230914 L29.641236134432543 158.72199894471882 L73.27145293725462 153.79168620914544 L117.84236753307516 150.85466694839948 L120.84938877110537 158.3644091707152 L122.07428129042552 165.0530984491609 L2.3189744469529026 175.62066804433064 L1.2864934574805909 176.25921601447982 L26.56082475062649 244.4875515128038 L28.255769845839833 246.30740561771557 L77.89844265133647 247.95193524497915 L122.94636363134347 248.5108863052041 L220.84791278810283 242.80868769848792 L226.79718192771426 234.04916374235938 L232.0337179395915 224.20341681659903 L257.77391361612695 173.95557027689793 L264.9757071785438 164.39393003882344 L265.2514393477279 161.31480833986353 L266.7211192278108 157.67764898558744 L263.9892038674234 158.46232815564284 M118.53208443319191 32.528398182388784 L129.21289512619413 56.10930478709882 L134.28783391592864 84.94090909462109 L133.10529529107163 112.94215854545962 L125.20809251391333 141.32817060984618 L118.39702533966052 30.813759053295655 M193.31591146586695 102.89340307755147 L196.83098126520352 115.72751985893058 L193.79641387629653 117.52251826875559 L192.47291106102793 124.10078185920582 L153.2343290008174 140.33058390995626 L131.03186070625208 145.3581837592333 L133.67332034212896 128.33950104759538 L136.5805346379429 112.84595584769427 L140.84585734117448 99.03002326496444 L140.4692462748175 82.58069729574113 L135.47142106566875 68.96409588780084 L134.04185215573438 53.83681562703597 L118.6704791593587 23.352286739971376 L142.49721669602332 38.216384293516946 L164.16216493382933 54.37530542922364 L182.0239085615256 76.06916726757106 L192.7900968437244 100.89589956409826 M59.15998690268732 147.45139831384355 L37.544332940056556 151.35840077532248 L33.58249411675588 149.04005891727616 L32.39270428812126 144.93451913361028 L34.398231541658916 137.0859934733162 L36.150105491571736 129.79205830200968 L41.916227767007 107.25604568711837 L50.826590032704644 93.38058822189585 L66.57325925630022 69.78722538980537 L87.76931988930217 46.0684649373324 L112.29973208620669 24.209810194088725 L101.28687156798901 54.020347943515866 L101.09978608777679 84.50600411427831 L104.48904639959957 115.09493777502787 L113.3195881905267 146.58806467815387 L87.87791793617815 145.499984485827 L59.376793114951106 147.98819689668053 M121.41740202132463 145.92132918217902 L109.48775217074241 115.89417649883134 L105.7674530910157 87.5477935207965 L106.95126129715521 58.61571368289838 L113.13309416132427 28.511713526373164 L121.97435343389267 143.57420028694264 M219.32526834339362 238.62688212548545 L32.26628120862974 243.64599193075796 L5.89238660608403 179.7047786706212 L67.87968765074645 176.8174265339403 L257.047509339571 162.61881879778687 L248.07378291321643 183.396539854117 L229.5714070446118 218.80971730270613 L220.1905148590612 238.47252450683993" stroke="none" stroke-width="0px" fill="#1E90FF"></path><path d="M262.5718148495206 158.18247411079105 M263.88 156.908 C216.89527610215575 160.95027381660597, 171.38517926197096 161.34617667593304, 126.14670063853738 165.64741370625836 M265.46470941094515 157.65142614146527 C218.22042517539333 160.33020368144753, 174.31442285707 163.59526002601373, 128.48205030681117 164.86883454475688 M126.94800000000001 164.832 C127.31954343266658 158.78601173552235, 126.03221072823152 155.031008093693, 126.17168453944647 149.89005305943013 M125.4844249781461 163.6294646092795 C126.25984297055702 159.48790594374276, 127.20190563189357 154.06523911238597, 127.19558574214894 149.99188655632688 M126.278 149.13299999999998 C125.56738574991158 148.34118766724703, 126.51906392500018 149.8962272661028, 126.48213859133972 147.8472778623946 M126.35731815997876 149.57314507171262 C125.44609244496652 147.952983926437, 127.31727089894967 149.31966195302164, 125.47367326971285 148.6174693752681 M126.441 149.07299999999998 C153.84368782301232 149.65834871315298, 174.66721419587827 134.56803909586793, 202.45446380212127 128.13800269298162 M125.14802014939235 149.47024745059647 C151.57433720743222 152.48298638302725, 176.79233092070407 134.64956234565784, 203.13512549755572 128.34609862706674 M201.575 128.74699999999999 C204.76899040263294 129.84992222291174, 203.36688280817296 128.07595987699833, 202.07805485081184 126.45360898236353 M200.16515942462578 129.55545799620873 C202.69757519040985 129.34629204311614, 205.42671605780828 126.99529629482058, 204.77442478725314 124.3732954230242 M203.52499999999998 125.31299999999999 C195.52078218303237 74.4116732611758, 163.89663283401987 34.296379249624835, 114.57716453703318 18.800203329148143 M204.84883226961892 124.7164454847306 C197.6068873369822 76.34344654663826, 162.0717933041306 34.80034777400754, 116.00198900977549 19.788658984646922 M115.64299999999997 17.98299999999999 C113.90992161675412 16.262342965126017, 114.16990594768237 17.478315388592364, 114.47248706594112 19.79002651011605 M114.85553265720701 19.023582505354288 C113.61732503014024 18.377929522709113, 112.3921586484825 18.624477719926137, 115.01194862915867 21.114770279592502 M113.47299999999997 20.25899999999999 C114.21362785446041 19.200836317596167, 114.20468185668079 21.91683112158132, 111.84947173753147 22.67968963828983 M112.37831357599714 20.9576932721454 C112.27241142106446 20.837828763265723, 113.5829135111497 20.137252762901173, 112.43603214607282 20.369652890516264 M112.57899999999997 21.15399999999999 C113.6027999879549 21.091070666772072, 110.85555666116836 21.005079269110997, 112.15770692729691 21.489263207973533 M113.28799159713854 20.873867904814155 C113.31059793194406 21.922491060671856, 113.86823580020308 22.815866485650687, 112.00333261949773 21.01637591451245 M112.34699999999997 21.75199999999999 C65.6677523541295 55.863372079040374, 27.1944740230539 96.51605440641755, 23.71912057840476 157.9239293080937 M113.62705751942022 21.282270262794636 C68.06320213145275 56.089226571124875, 29.43972924611275 96.52759380509477, 23.68256107202517 156.83615812212275 M25.011999999999972 156.94599999999997 C25.177656149387936 158.6177212363256, 26.06504242530126 159.26996797660235, 28.56373368252088 158.39538485170468 M26.546688146325433 156.0466488512209 C23.47899507776429 158.0121999315137, 26.651009484831835 161.81818634005555, 27.6734514912978 160.83827966872056 M28.881999999999973 159.89399999999998 C57.59898604938989 154.67256455052564, 86.74163755456732 149.29253029633475, 117.07274260852877 151.55467943214555 M28.81213014781802 159.56841065827672 C58.698962066836046 151.88737634220212, 89.42304741391652 149.68552705546273, 119.5119058969937 149.9605379655256 M117.98099999999998 151.43299999999996 C118.28386437768827 154.77447570022284, 120.09688167381867 156.06363774518232, 120.932993939813 158.26136980136522 M116.89391461314692 152.95629836762416 C120.03977694625388 153.47873147391215, 119.6298802853215 155.07851651753322, 121.89633796756125 158.86952907777547 M121.91299999999998 157.93099999999995 C120.50307049506202 157.00367610635328, 122.19940693163863 157.5813674731777, 121.71401057979938 156.92250900138117 M121.12665965985914 158.64608693843073 C122.1190765319207 159.65334216106535, 122.51672493139725 159.98677667538823, 123.5513730919983 159.9688970875503 M122.30799999999998 158.34299999999996 C123.90523667881081 160.36363818782388, 123.35842093529453 161.76045557559962, 121.89389095372451 166.38196330181782 M123.8582595477997 157.55455761053327 C123.08122077364723 159.27936981042112, 123.46603441085418 164.1511792739902, 122.2726576169958 164.83729860066904 M122.89599999999997 165.08099999999996 C83.2876059008766 166.39477170850665, 43.52210178960033 169.18469881825567, 2.886639458412307 173.64411820642218 M122.80920710176983 164.15675508346018 C82.62371209214157 167.4358302172897, 43.503282418221225 169.24960357584916, 1.9028709308426215 172.3924907496926 M2.5299999999999727 174.09799999999996 C2.1804270594501527 173.87904431320237, 3.1779536616659216 172.76643862343684, 0.4624714295342438 172.7493533985585 M2.0607237665193123 175.30380471485157 C1.7308509491423112 173.17660758338016, 1.1592190555760244 175.9787540942012, 3.032239913220513 175.32223504620424 M1.9139999999999726 174.27899999999997 C1.6506694347091275 174.16982888436428, 3.16542108109451 173.43732384090887, 0.6965177939571215 174.13920572564234 M2.230172162004259 175.22234694503538 C0.6134064457644866 172.97542410228505, -0.037398194716305566 173.17121415130825, 1.5714857034437517 174.95333835498923 M1.4819999999999727 174.40599999999998 C1.8046625049326899 173.86792789232322, 0.980504020333958 176.01585700818327, 0.05909923360449476 175.6899423763651 M1.6216762340877335 173.9936953352537 C1.7799673982227557 175.49457121340615, -1.01941942827036 173.4888432480678, -1.2443162803199412 174.55207298604878 M0.5729999999999726 175.18999999999997 C1.0342829482054903 175.86099116596085, 1.52322963899912 175.64140349312427, -0.39207900315193145 173.64885176101208 M1.610605185719154 175.42361697558525 C-0.7132526232731566 176.7534447182099, -0.10412638180111755 176.49123622323657, -1.006080983273413 174.89269987152642 M0.5709999999999726 175.19499999999996 C-1.0459310111491755 176.34995212753535, -0.5530577513353006 179.93475311765258, 1.765296164311994 179.78623743422287 M1.9387823855375264 174.08866844261263 C-0.19870932577757877 174.79481958662873, 0.3494863066240744 178.0254269935224, 2.1041609750024133 179.3159433945258 M1.2609999999999726 179.11699999999996 C7.527118493966883 201.1185122230036, 16.79549913886516 221.2530290656732, 25.325865374855 241.67149077492306 M1.955907325395391 180.588872135544 C7.671686414017893 199.30729233325297, 16.17993423055188 222.62945081925446, 24.557391553555377 244.19144928575605 M25.833999999999975 243.19899999999996 C26.90557891008191 242.76531369029502, 26.163127705834633 243.10840688950597, 28.05412692754598 244.31839946904748 M26.67483044365615 243.10979699430075 C26.23433406903571 245.4460812617127, 25.563703165877254 243.88653954552373, 28.464750779537965 243.07203406704923 M27.204999999999973 244.75199999999995 C27.35390156240343 245.0123470307826, 28.247254625662837 246.64967900069433, 28.729460939435064 248.83626446150342 M27.59786736648493 244.75449448139034 C25.556222004633106 245.0450687317099, 26.228224180810766 246.04097563733117, 29.846585878893272 245.9106491445385 M29.687999999999974 247.57399999999996 C91.56033981806195 250.93109967628578, 156.08694122845264 250.91452444989275, 219.1370745454427 244.14182872339413 M30.72871336864989 247.13723527903082 C92.06441654848804 252.11131300627474, 157.66253976288448 248.30601788794218, 218.5358241196105 243.34777658008716 M218.06799999999998 243.81399999999996 C217.75037855407635 243.5673797930107, 218.89973151499137 245.84175108937168, 221.9590563934588 243.2173036788223 M217.6213148598454 243.69587635088766 C219.78296855051053 244.17849130252668, 219.18933397908444 244.6158203789658, 221.94826500208026 242.44906594163857 M220.61499999999998 243.87499999999997 C242.18223562487262 222.14155524821606, 246.21004378797568 190.02828442398427, 264.0776144585143 162.2977507852594 M221.69711041194003 242.42036935759947 C239.45387352073766 220.0842214577143, 245.61118306323368 189.59613600094002, 262.0046839171049 163.2211974461135 M263.441 163.74099999999999 C263.90111707641006 163.61548755589257, 263.4199409243706 165.21570990857353, 264.46878891406544 162.11763279364737 M263.6026531809463 165.31777327053334 C261.899266150081 162.28848579365405, 263.71074369422024 165.31392576468238, 264.7408265279377 164.06911612449733 M263.881 163.712 C267.23027742567075 162.6043175982958, 266.99298212131833 155.2593551064023, 264.36552483055897 155.79661329480703 M263.5932598171718 164.05463644492417 C267.74259212272113 161.97116524078612, 266.9214390620124 154.95771946259725, 263.8022564374999 157.8643060605408 M263.88 156.908 C263.88 156.908, 263.88 156.908, 263.88 156.908 M263.88 156.908 C263.88 156.908, 263.88 156.908, 263.88 156.908 M117.48031764849746 32.37466829380115 M118.778 31.156 C136.01746867977934 64.5912079482761, 140.10567359311943 103.12228226296125, 124.69978612167446 140.671811655317 M118.94501306888131 30.454248130206764 C138.8202116758633 65.90953684554684, 141.7072895297196 103.119970864558, 126.88115646144324 139.85018525493953 M125.89200000000001 140.108 C123.82309633418707 104.45643934339495, 122.31795989765588 66.48515662450468, 117.60756083629084 29.835049954629394 M124.80405202249221 138.68023856942565 C124.09542495704706 104.32781552751464, 120.32792212503789 68.05586298550956, 119.58942444857183 31.294672702723176 M118.778 31.156 C118.778 31.156, 118.778 31.156, 118.778 31.156 M118.778 31.156 C118.778 31.156, 118.778 31.156, 118.778 31.156 M194.2094958654141 102.98027101156252 M192.671 102.289 C198.94296213268646 123.76941075493326, 192.5827932049792 122.42443845228337, 174.88327850317728 130.5553689468388 M191.80138347813286 100.96394826835339 C198.0683793461159 123.90904981104761, 195.8394295276267 121.8504824187621, 176.13558705926246 130.09452408177907 M175.226 130.466 C160.74872997533134 138.21071599543393, 145.12385698265925 141.43107924167202, 130.55522509966812 144.41028239053318 M174.61848293137177 130.27221612714706 C158.69316787543318 136.41320396064017, 145.94042831017103 142.510811866253, 129.82281702121082 143.72879060321884 M129.496 143.928 C147.10473809532584 104.76796312068464, 142.7723119176719 60.47325132195923, 117.04705698873036 24.173666303670686 M129.03804574898135 143.0457886123745 C144.8945262246849 103.44810797042665, 142.3439609668943 60.59776646412533, 119.328403954307 26.236721829787555 M118.266 24.462999999999994 C116.64525670382987 23.860692134589243, 119.32645630449686 24.70960811947014, 119.0363289044016 23.348865393155577 M117.07318660126393 25.335189764846085 C119.22264841802216 24.809848051351423, 118.39884033454611 22.703286371392142, 117.12956797381007 24.16458977758288 M118.19300000000001 23.514999999999993 C118.03016556812787 24.351224194746443, 118.71544023458625 23.063353430340477, 117.41766401724077 23.682262996503592 M117.57161578418916 22.266795631065538 C119.96181633330654 23.85787016524408, 117.92913888525914 21.529135182886424, 118.98178511196238 22.321995839917776 M118.08000000000001 23.096999999999994 C152.74096588324775 36.559319258709884, 180.03994836897098 65.09561356798324, 192.4300927461483 101.33532085265561 M119.00666238843473 23.03458619970749 C154.4063641915675 37.8080092512136, 179.59656020194072 66.0975363370056, 192.78840280388596 101.3772415418092 M192.671 102.289 C192.671 102.289, 192.671 102.289, 192.671 102.289 M192.671 102.289 C192.671 102.289, 192.671 102.289, 192.671 102.289 M57.16297904432774 146.8894853496095 M58.477 148.097 C54.70800216449702 148.4890123020087, 38.142918309554226 152.53718981419598, 36.61995005239703 152.01054284636186 M58.86781216070553 149.69426145753076 C54.96064085172991 147.50764152826218, 37.13172149825154 154.39057715560944, 38.114565266984684 153.0738904947167 M37.324 151.756 C28.941800419558383 144.47037383705802, 34.41522976500659 128.22326963726795, 37.55740630056324 121.63585231822316 M36.63599886036203 152.24513827203137 C27.22802322983455 144.16854682077587, 33.4210068479919 128.99860626213064, 38.97650060039218 120.45421278630295 M37.413 121.806 C49.12766328842988 84.0081800502282, 81.58595426135015 52.95602250838867, 111.83216108477026 23.312362326289456 M38.60494908059099 122.6469567698622 C49.01408767835466 80.93982203484414, 80.05528484351933 53.971826569363884, 112.93782968513736 26.093366983441577 M111.164 24.801999999999992 C95.50845791385032 63.863168520882915, 96.57054759852056 106.78530197957458, 113.79807642573911 144.45554862355687 M110.57140768474103 23.277880229749822 C96.52005949871773 65.04410851345672, 95.49623836064204 107.44622967847907, 113.5809927351248 143.55742352272605 M114.57900000000001 145.035 C95.19858035294219 143.9769646335779, 77.74105285536513 145.33147568774396, 58.54529319591565 147.62766319267453 M115.82231250383145 144.42512598832525 C97.19203679580859 144.197590375305, 77.6703663636122 146.31839463845105, 57.06926411858496 147.6453505528504 M58.477 148.097 C58.477 148.097, 58.477 148.097, 58.477 148.097 M58.477 148.097 C58.477 148.097, 58.477 148.097, 58.477 148.097 M119.22305015872422 143.95801322953344 M120.502 145.164 C103.21029232352748 106.06502218912364, 101.2225248181689 68.53450861331027, 113.00183841144735 29.201358414404385 M121.052447375976 145.15250415809882 C103.93053797624839 107.66524648809667, 98.06371134413685 67.44803561274496, 114.1778482567956 29.36142293135323 M113.53399999999999 28.44099999999999 C114.42571707353602 66.3281963523112, 118.74196207247756 105.29958663212385, 120.3484695863097 145.73646711360377 M113.84687210829401 29.032571835527087 C114.31158032613425 65.75208257976479, 119.03445572927176 105.71086513452452, 122.80703074478818 144.59061575569658 M121.18199999999999 145.322 C119.5200670246804 145.59304329268912, 121.76091345002297 146.66324471656742, 121.51145713340736 144.95466312726447 M122.42627901379025 145.53599212949487 C120.74819925106777 146.631745090464, 121.71698187136512 144.5098527530798, 121.84187506445274 146.55993264694175 M120.502 145.164 C120.502 145.164, 120.502 145.164, 120.502 145.164 M120.502 145.164 C120.502 145.164, 120.502 145.164, 120.502 145.164 M221.267427796305 236.72163030972 M219.963 238.134 C219.81767394282326 238.2186064402775, 220.53020734801595 238.20609346977523, 219.24520470991177 236.53975577076397 M219.8183562976415 237.4572813565226 C220.46881642075965 237.55341114870268, 219.9997151997724 238.83111491002185, 218.49556342870298 238.8786601899595 M219.21599999999998 238.011 C155.17835019737572 239.72806042208677, 95.79319343677739 239.70444479109733, 33.46394338882235 243.06819335545325 M218.15283844608214 239.40606254543547 C155.00857971262528 240.57279012164463, 92.87389063413448 241.70208056800547, 31.52956245927097 243.89606682988187 M31.98799999999997 242.321 C31.164070916305626 242.05743205975665, 31.01102214275377 241.552157733659, 30.37537356762899 240.42155500506036 M31.36364470835173 241.11981333646207 C32.56530547938248 241.11406040814126, 31.57226826972212 240.10461338312209, 30.922039492066215 241.02617117219603 M31.848999999999972 241.54 C22.05896610108584 219.63218604759783, 16.513488290947013 200.44969936428956, 6.2237128788473 179.57342674951522 M30.418445572404437 240.4048815042816 C23.76367882473013 221.1812804510783, 16.398623589131365 198.87170950903052, 5.459959675403688 180.20979928242332 M5.9679999999999715 179.26999999999998 C89.43369351512267 178.16288982319045, 172.9844209463969 171.01052480829847, 256.4369434168016 164.8581793845952 M6.5703026263301565 179.9680762256509 C91.23838805901832 178.24252134193574, 171.43253938382696 169.3782704203704, 256.657930075602 164.3967464513271 M256.551 164.189 C240.0612838997707 188.5839134475371, 234.1103751720487 215.63294155008685, 221.24751484751008 237.52662995670886 M255.36842960895535 165.11508576572456 C242.97507842103323 187.3067528192246, 235.8992307895177 213.98410310510715, 220.0678491486316 237.2668843453299 M219.963 238.134 C219.963 238.134, 219.963 238.134, 219.963 238.134 M219.963 238.134 C219.963 238.134, 219.963 238.134, 219.963 238.134" stroke="#000000" stroke-width="2px" fill="none"></path></g><g><path d="M48.224784586001 199.60422695405245 L39.65221759513359 200.0105078355391 L38.146861133564826 209.5453970540899 L41.30219531671108 213.18142770518392 L44.39301609268637 218.58283701228703 L53.06401980513775 214.19282908537457 L56.47903241208146 207.265872231442 L52.75239666009606 199.38247351196887 L47.42754030581118 197.5101715148091" stroke="none" stroke-width="0px" fill="#BE9F52"></path><path d="M47.4977858606771 199.35917181590776 M46.305 198.333 C41.3008593415517 198.69646364091915, 36.704742260975884 202.21541188344705, 36.861305304904015 209.30368568345816 M45.72937624116977 199.99250674089737 C41.44840100401958 197.8720264126998, 36.01487383854249 205.09736342389837, 36.715102409328594 208.0253713992572 M36.846000000000004 207.891 C37.175313139631506 214.07049957469147, 39.4553818564934 217.2804373240421, 45.276954678390965 218.72743901899753 M38.24137888324011 206.13215540441624 C38.1117960463274 212.51981329200015, 41.039719068960245 218.02662277994503, 45.0581287633935 215.9212622128801 M46.293000000000006 217.70499999999998 C50.660109672797866 219.38809427965182, 54.28343961745623 215.47862577746014, 53.75772064938959 210.67193722147806 M44.30443748232675 217.6151633463735 C52.16329174685305 219.0683729696006, 51.58188637111698 214.5410854739322, 52.529025908067574 211.07128306363796 M54.56 211.63799999999998 C56.307415726301556 205.93428071592433, 52.47179718231146 197.70164389741825, 44.36890308819548 197.57120741541937 M52.56437702049236 212.86557324221405 C58.45874376564349 208.16566452355417, 55.52931578464335 197.01531623912834, 45.917006850277 198.84833551362107 M46.305 198.333 C46.305 198.333, 46.305 198.333, 46.305 198.333 M46.305 198.333 C46.305 198.333, 46.305 198.333, 46.305 198.333" stroke="#000000" stroke-width="3px" fill="none"></path></g><g><path d="M110.76506000364704 197.71316158149358 L101.14963250123202 198.46614964918913 L94.73458546870013 201.21727017603814 L93.02257807747695 208.88379603537024 L99.50368206422006 215.11189987414681 L102.5423952376325 214.95993594968238 L110.3425337898616 210.72221664978846 L112.40256462809295 205.22103410919686 L109.72982632089025 198.560225188119" stroke="none" stroke-width="0px" fill="#8CD49C"></path><path d="M109.1313414745237 196.75351824592275 M109.55 198.542 C105.43889867940662 196.254095517598, 100.86476690285701 197.15111781175602, 99.24560551542804 199.79912580100756 M109.64673420790298 199.19973325682167 C104.89746953642762 194.881833403467, 101.4173909987748 194.83236239416212, 100.44892637967453 196.89706102350928 M98.31099999999999 198.663 C96.09788145856449 198.536168475993, 97.8763749357425 198.49767253520767, 95.01367431920728 199.42259450115083 M99.97107098815671 196.82854666186128 C95.46858572255309 200.52989803189396, 95.05038320690886 200.62620813184375, 95.31377031557581 197.4102794707899 M96.47099999999999 199.424 C91.24192902545312 206.1764423039497, 95.07241883436441 215.77015072269978, 105.14208273986627 216.56866061537445 M94.65973272867073 198.18367276383097 C91.79538459691067 206.68206276867932, 95.64662816570522 218.0894372817115, 104.78699811934125 216.10433910407696 M103.737 215.559 C111.51003661092996 214.2170834799478, 116.7044081966792 204.62645564310017, 111.37055496170964 199.54041151585372 M103.91220154193434 213.91504531339373 C112.95809993319521 215.17251124644267, 118.9391597260202 202.07624866630252, 110.21196990335885 197.51813327553864 M109.55 198.542 C109.55 198.542, 109.55 198.542, 109.55 198.542 M109.55 198.542 C109.55 198.542, 109.55 198.542, 109.55 198.542" stroke="#000000" stroke-width="3px" fill="none"></path></g><g><path d="M176.84736558624047 201.4593066457595 L171.58572015727577 198.30673273577855 L161.8634765498589 196.6292971672846 L159.80151884123478 201.9061837907164 L160.2724278593795 208.51719690563064 L163.9462069311266 214.63871734675723 L172.3069960577468 213.423619579645 L175.6473342620869 206.4578943729445 L173.98972743027502 200.79291728292074" stroke="none" stroke-width="0px" fill="#BE9F52"></path><path d="M176.451733261318 201.20836906886376 M174.993 200.749 C171.3273249173318 198.24679893838078, 172.01077797415132 197.8418633988686, 166.53827536028342 197.06785503508738 M174.93050149647266 200.05030891451895 C172.74930151117576 200.02012998391115, 172.64595925181985 197.22513449408876, 166.01261442909157 198.65970375346467 M167.551 197.194 C166.2350628890097 197.5625133922405, 166.04453456091352 196.71576575797516, 166.12273992249297 197.2094891716338 M168.40332943250235 195.6189669047601 C169.19013780651392 194.62510171996274, 166.13754197592132 196.49740535785003, 166.52167303030635 194.8138850381235 M165.194 196.51999999999998 C158.0601308024715 199.132020710669, 157.74040843208226 208.33389755219662, 163.43188881732564 214.34199631574705 M163.24273033442788 198.46610879301318 C157.24956393284472 199.49350402958908, 154.19255559193093 209.78940377923516, 165.91932896044364 214.4169035155172 M163.96599999999998 213.42 C171.1041024520521 215.20556258807648, 179.65899544565633 207.95790421886298, 176.20195609671308 200.6841076402153 M163.30448270601798 213.06431919830936 C170.85280399122917 217.6238686005117, 177.7802101557986 206.45169537431747, 173.03094453537304 201.85297469603537 M174.993 200.749 C174.993 200.749, 174.993 200.749, 174.993 200.749 M174.993 200.749 C174.993 200.749, 174.993 200.749, 174.993 200.749" stroke="#000000" stroke-width="3px" fill="none"></path></g><g><path d="M212.2805455020804 198.62938349178958 L205.78034207362745 201.1327833682265 L206.77582868027505 209.30027575065796 L214.86819337406268 212.01273366619472 L222.2086154189619 214.5017292306897 L223.33968719852166 209.72303458240015 L224.7438457389158 198.7335264224756 L220.57625534986826 196.19739401428333 L212.40219240933914 195.43744328343644" stroke="none" stroke-width="0px" fill="#8CD49C"></path><path d="M212.39648664271 196.51850003118685 M212.688 196.705 C205.7916917588552 196.89827713440167, 204.12352115408788 206.71760096554527, 209.84509268295946 209.260336661965 M210.69444623512814 198.47820961940042 C207.4004102445069 200.26073763635634, 204.10880838843056 203.79538932617882, 208.92334963752964 208.8032433202361 M208.743 210.29600000000002 C213.06389628218452 217.4328577742708, 225.38152018427388 213.23052326153334, 227.2152072506438 203.93848563944314 M206.82984914873296 211.60477566962467 C216.2845531282956 218.758924983596, 224.31010885560752 212.94288023324523, 227.3888345058718 203.46236429263254 M226.136 205.27100000000002 C225.9010908893632 197.02072163666477, 216.5896586193471 191.77693558695023, 211.85058874366402 197.484055925249 M225.33768310348427 204.2805049193223 C228.56355637089004 197.56349915918693, 220.3298643171691 193.0423204212, 214.84850965666195 197.43024758639072 M212.688 196.705 C212.688 196.705, 212.688 196.705, 212.688 196.705 M212.688 196.705 C212.688 196.705, 212.688 196.705, 212.688 196.705" stroke="#000000" stroke-width="2px" fill="none"></path></g></svg>