<svg xmlns:xlink="http://www.w3.org/1999/xlink" xmlns="http://www.w3.org/2000/svg" id="cloud" viewBox="0 0 900 500" width="100%"  height="100%" >
		<g><path d="M12.469663714913722 169.8412724942601 C12.469663714913722 169.8412724942601, 12.469663714913722 169.8412724942601, 12.469663714913722 169.8412724942601 M12.469663714913722 169.8412724942601 C12.469663714913722 169.8412724942601, 12.469663714913722 169.8412724942601, 12.469663714913722 169.8412724942601 M2.3328495287190663 193.2101065743371 C20.18503773973163 186.93365830562695, 34.22332128582214 168.77563532657854, 40.620006951671485 157.09078597735967 M5.203810421023775 196.65459419307155 C15.107327930670897 186.86471723018022, 24.059010201415454 178.75714394044098, 45.724880883062525 155.63762467421898 M9.310887893964548 228.76074032079984 C40.03678783839354 181.61263820501318, 82.65767092152115 139.81507282506809, 117.40144052312799 99.9630729572464 M8.04169045897353 226.75458107138425 C32.247405634420936 191.16269923831308, 61.96388563883362 155.0571339642404, 115.17288927996594 101.45980113492932 M8.863598823029493 239.86755360995875 C54.32029742312414 189.15989618767884, 90.69020671588103 147.04531982464823, 133.64874283519802 96.7907504543369 M11.93292401312435 242.66445810455696 C40.09909876310025 213.51347070886433, 65.25159285665194 180.59286610015224, 139.26340171207067 96.25073165443251 M22.0618877127044 258.41230701894926 C76.16322729023967 192.23533184171117, 130.47015472304852 143.54350830953868, 155.97374747078305 109.63182582975787 M25.66293528088624 253.85114574310245 C58.956243425961915 219.1184159738683, 93.72297286857594 181.30143800543306, 151.78787397184396 105.1704271336358 M45.1316230023146 253.66165426149166 C74.06027240145073 219.43741209583598, 119.4095507092101 179.27559883761273, 169.2400852902211 114.27987225209945 M43.22020866930468 257.3684836208601 C81.75329520248557 218.17469477614918, 118.41601183739434 178.0635080156939, 171.76125121994068 109.90157714981348 M59.18963564923089 263.7289307166458 C95.3263592507028 233.94535451249013, 125.87492646320415 185.59856273217326, 181.98689410802845 119.20652289921354 M52.48866248894384 265.93902059856623 C88.60747012309349 227.53606746057318, 123.7091656950168 186.08998939786522, 183.62201517129049 124.06554917660178 M78.27993725016847 273.2632437887479 C115.80603839125416 216.7877673351478, 166.6488476708017 165.79357166159912, 198.6841450108517 129.8143588721794 M74.57716716083345 267.98498361233817 C105.23126951753352 235.5448601460702, 130.84831207833201 202.78060430242306, 191.10341729023187 129.93778632431162 M100.6514202106124 267.1534799841061 C125.01831621391729 240.3418526776004, 150.56249304049598 207.33147443866565, 196.38909723886354 150.38376281979035 M94.69704843774397 268.5688259221926 C137.08577207569434 224.66290696680812, 174.5240908847707 182.3596882490378, 199.00835070531485 152.18404513123795 M121.2665639767516 272.650479539669 C161.29239458897408 228.99207671878818, 204.46460217793 181.07674710019955, 218.02354280865205 156.8349695395891 M116.74444905671619 265.85852073631537 C152.50032797174666 226.35843775662013, 188.27655950779007 185.24927332206155, 218.5888274636786 154.3548804372248 M137.06463600122757 270.3166139880407 C157.9868412255273 234.2448331584427, 183.11326067079045 217.55236163108077, 234.5820964426982 158.85664369895315 M136.9775839450622 271.576139150447 C157.8075395631892 246.23251004081163, 175.4237742940108 226.73674104653026, 234.16512187706093 156.83691424752325 M155.93264710372299 262.8504162842999 C187.9802728385669 244.6735993972332, 208.01163896591243 217.72040741660797, 252.98721676379392 161.84356420225743 M160.4440277804518 266.7979181544751 C186.56561676908132 238.91297254716852, 214.19960439889118 209.91545173017738, 252.22744843973192 167.52718014925946 M186.16279430687382 268.4390688055988 C200.97223914382653 248.17090553983425, 223.8897727993262 222.64532540257258, 255.76362577269302 181.02876735427105 M179.76344912086512 270.0972929199758 C203.62732544431762 243.70831047986485, 219.6956249731961 220.514176453592, 260.78002276031503 178.89502515165876 M202.00956255971533 267.72340535262117 C214.15409173663096 254.16987259614757, 232.89048731037354 238.8512050828916, 266.98489267222647 192.464203064534 M203.990463809043 272.0121371440489 C224.64053431444606 246.22927974165341, 241.74360720395663 224.01994378287654, 274.6640652168894 188.02382747782818 M236.69445184192173 263.53093188868723 C237.97490956280475 247.1111224145748, 252.1293707552096 241.19982623136, 266.72043134871564 219.86450003332254 M232.48923541284236 258.3187281929941 C244.34258682321808 244.2892816773676, 257.78551838133126 227.9533912212182, 269.22479108733404 217.0404473769821" stroke="#77B5FE" stroke-width="2px" fill="none"></path><path d="M205.54253622774894 144.11123627159392 M211.37 149.26 C207.49759208930118 143.82943530639005, 208.89421676691217 148.61491400382647, 200.33972913756588 148.24531065041205 M212.0774308770988 151.20674629916334 C214.66021293029058 149.16890898972102, 200.30505985895036 147.8011535070912, 204.06344137731452 157.0919332241201 M200.70000000000002 150.296 C200.04544748846368 145.46515955685948, 199.0927967324734 146.32023081546572, 195.24343641578065 154.8896952472662 M195.95251665163636 146.6476192628674 C201.4696871601053 149.70469436317038, 191.12930757331895 155.1452807940244, 196.12424621124882 150.93170121584802 M195.716 149.267 C192.91563919754716 143.53836114542045, 189.9528538149132 144.2660235407933, 190.32566713565646 149.59213114498556 M201.09898678951302 151.04495139914965 C197.03740473254553 149.4865200764665, 191.61518532873367 150.84408379722805, 196.41548561083945 143.04245609491832 M192.94500000000002 144.998 C190.07242548029308 117.15565127689943, 163.3921182999958 99.45537711022612, 129.14163311998107 94.5741840290584 M192.6577406096038 139.8329362478761 C189.17206837437715 113.90548473816102, 168.5876058491472 91.1067898429098, 135.52467718662416 101.26739377420776 M133.52300000000002 95.445 C108.36258868184963 93.97905487832145, 80.93311594535122 117.47099752053434, 72.96774829646894 146.68151877335433 M134.13082248818264 99.4916448288368 C107.05364069189686 97.92020196437005, 82.37216081032007 120.64577967376835, 71.52620508441198 144.96471817597802 M74.10100000000003 144.998 C75.52725852502206 149.33178171114253, 69.18264778465999 152.8050611139019, 69.12064694138697 144.54317453043367 M78.9985251681282 146.4175045299696 C76.5944130891448 148.14278676139435, 68.40872587639868 151.2169381973281, 71.93618186575434 146.22686746267695 M71.33100000000003 149.268 C74.2421014197277 152.6317031819559, 64.5664325073863 155.34994521094993, 71.23189976712493 144.33113253003637 M67.92732668803644 145.73631021808492 C63.12643789704692 154.5239395604528, 63.70512650868951 153.43824312002533, 66.79976042573456 156.81452072267473 M66.34700000000004 150.297 C67.52861450735098 152.65385484683614, 61.72821685961654 152.3068932521793, 55.97875367390651 154.08792598261232 M67.58110931155801 149.2267044771595 C59.316949104688725 147.5325263841202, 61.504719111189004 151.87217489715042, 54.88379853176777 151.5109619470043 M55.677000000000035 149.261 C22.100626070754103 154.59999477940286, -2.7487977390207705 171.75613284401402, 4.397523566920682 204.1602709087702 M53.80915447088866 150.95573225851754 C25.287902894013445 143.14417720332287, -4.921332849697876 180.1760262809148, -0.7640964930931502 204.9937001558015 M0 204.937 C-0.7447786386176363 237.05604454538255, 28.769575160429433 260.7202882182829, 54.567523389716484 265.4570444198313 M0.7314231839923533 202.50523242677096 C-0.7570300162498529 230.8062557911021, 31.086495280210947 258.76867070051105, 62.29855603045333 260.98022140386155 M52.69000297280893 257.1594621027384 C98.22382139001793 254.18715972542765, 145.25147746797572 260.4240334300404, 212.27360397756084 261.7270704412179 M58.57446746407721 262.49578830472075 C116.79534294062228 259.5082114529711, 172.13064070987616 261.7581023943746, 211.87037080470665 261.75484985615645 M211.37 260.615 C236.45932433865 263.57984556224693, 263.7737144460614 236.77170339536156, 268.18808000886133 210.3438839904483 M208.71730801036634 265.8317194190501 C241.47474690483054 264.615589953788, 263.00257459025977 239.3786858225596, 266.2219699204894 205.75516169116017 M267.047 204.937 C262.09579994540354 169.6716873890976, 241.7315755533559 152.72001559907437, 210.3523478823967 145.55781572987684 M269.7481404515406 200.1452377609014 C264.62316450420985 172.86856017749426, 243.62681363860938 153.89282036350627, 211.9411798316032 143.9503208376734 M211.37 149.26 C211.37 149.26, 211.37 149.26, 211.37 149.26 M211.37 149.26 C211.37 149.26, 211.37 149.26, 211.37 149.26" stroke="#000000" stroke-width="4px" fill="none"></path></g></svg>