<svg xmlns:xlink="http://www.w3.org/1999/xlink" xmlns="http://www.w3.org/2000/svg" id="cloud2" viewBox="0 0 900 500" width="900"  height="500" >
		<g><path d="M23.104320915482305 258.58661856086485 C23.104320915482305 258.58661856086485, 23.104320915482305 258.58661856086485, 23.104320915482305 258.58661856086485 M23.104320915482305 258.58661856086485 C23.104320915482305 258.58661856086485, 23.104320915482305 258.58661856086485, 23.104320915482305 258.58661856086485 M0.6088720902984912 302.3451000319321 C15.000370467630624 287.76483620988444, 34.70464848929567 268.8208164489799, 64.59579247052899 239.5302811555358 M1.582992771747831 306.0931477267511 C25.109902028430344 282.2840648799469, 45.32229089364049 259.4027666347519, 68.20152050733238 235.77518505301288 M84.22036784465895 208.10697441139976 C116.11722722879708 178.0809884700715, 152.41367404306808 135.4286028636424, 169.6104762111909 110.00401915444807 M89.14837065201834 208.28946121997407 C109.05966368928371 177.2611433277624, 140.093704371218 150.95938233197597, 166.41253437411467 117.02581117041476 M6.179050072326671 328.17939231475617 C80.7233117115954 241.30567027586073, 153.58525961238624 159.45292423816994, 196.74978595942846 103.24718148348927 M2.756886169372967 332.30605909032835 C77.32094881606244 239.59618358954972, 152.49939419837995 150.35633427245284, 198.60148572943143 105.5781426455355 M9.55812341306725 348.9284876110574 C64.33131970809558 285.93170297898604, 127.52362314319221 214.76014648089347, 222.06705606522306 107.33081007528797 M5.756122550992557 352.3025021049769 C65.13362421889957 275.6130827419741, 124.62224137325235 206.58226291847484, 219.47550696144143 105.57987185041705 M13.223136044206978 367.9635468236198 C80.04369623282902 293.1182514109182, 140.1874336303025 219.1131820919403, 241.06162175856736 98.01537445073328 M13.232638070777652 366.8779284533485 C67.17061808133585 302.63916879531047, 116.31509691097925 246.89584386312558, 246.5489058020881 99.42116201159655 M24.2121928840555 380.2668529969722 C104.35892104434363 277.4313710430582, 186.6177228718657 183.88985435653277, 259.9584816347987 109.58125990546544 M22.75733265752487 379.0004116626108 C89.19542464197778 301.8989210354965, 160.74319658479703 221.86902141844934, 257.735902626492 109.47916124223995 M34.97265959403679 388.1558889435534 C119.00171616619303 303.0019047938242, 201.3822590495446 209.96826661843548, 284.4360303966375 109.84359183010753 M36.07892215629074 390.7233602138536 C98.70834806961486 313.93615469527487, 162.10893965261243 237.94716216507305, 280.0663385427168 109.54364303731967 M47.79137178450648 401.7876837117177 C139.67125173856726 298.6973146063137, 231.94285769380767 194.167896523211, 297.1228959549512 109.5780274814627 M47.88584909392687 401.84700887895457 C99.4329613709009 334.61377811741653, 156.79545113282842 266.67347924612216, 297.8252318138862 112.92249394346072 M58.04854905683776 412.2875494167416 C136.92076625628584 323.0006302925154, 211.0672885211256 238.1664761349415, 311.5941722087866 117.46731628640453 M60.839692129002145 410.9537512556705 C116.90459451864312 352.5257161992357, 169.17470134978188 291.06774476935783, 314.1394854107034 121.1553397622466 M79.19056520056995 415.1153853884276 C144.2800118833011 342.7967664841875, 200.62377079557137 274.04369161745245, 324.0100882290881 128.31543713057033 M78.35236891817458 414.1276854470853 C157.34734586080938 319.3508729043947, 236.0029290055351 231.09570624068968, 326.6013612819927 128.51390296123336 M98.63732607845708 414.24488981192314 C153.11084225280163 350.64151015530956, 206.2723221103891 279.3388087552926, 341.2354423512239 139.20433868147 M97.68017518811322 418.06585170489876 C158.11139556433946 353.58922740153054, 209.88426058484245 291.33954936966194, 337.0327888106357 137.77194710492816 M115.44762652804157 420.8399476367796 C161.55325695003714 353.9492031856031, 211.21824207161572 301.7436028909826, 352.941592694341 150.5919723446164 M118.99522436628146 415.8971807556614 C168.11252770307505 357.1023584230969, 213.79631634630383 305.2813105218118, 350.18054852453446 150.64371254575337 M143.40686873316807 414.3175516213417 C233.8746510691209 307.8789842264826, 323.2967734886634 212.93717916902347, 370.7246166036791 151.28870648531273 M139.77959478853845 416.9111850004758 C195.58530861382886 357.8631277469175, 250.32568557053332 293.8725782246892, 373.6706242585226 150.14991666066817 M159.78433193133347 414.40942484701634 C234.6873719435114 325.2646887405754, 317.1058275192494 229.8911571614247, 397.2470850617008 148.5899459165033 M160.75598113552633 417.4300742206291 C226.78605309794688 343.3366187765679, 286.24969826122435 271.1818331150131, 395.3820748598835 143.7871988453731 M184.48734058158925 417.85543490102276 C239.78592855389277 343.64818337178787, 305.97285650427006 266.3322401680942, 413.52129264935604 148.99219249850705 M181.0826625990705 416.6773888113667 C226.78998003742004 360.5645607451097, 273.4583370978649 307.5690715027059, 412.25962429267685 150.9858487666869 M200.2048138676451 419.6887055826518 C263.98704961390894 346.92224513315733, 322.3922787687764 283.5741217249166, 426.8647559525393 157.35914007773562 M202.8455748730894 417.1874828479228 C291.1932383612236 315.1786604692015, 378.55833532705765 213.6840504942878, 431.8972816318418 156.72494980403292 M227.4752997172354 420.4286722546823 C290.2385967347461 339.6884082368376, 354.7399532318503 266.5230013401887, 445.3191535124519 165.6256589990813 M225.83350671624507 417.97866443987743 C272.6238750307216 360.6352892422482, 327.0242726939642 301.65645040040494, 445.35464829324644 164.61200322762582 M246.95272950929865 417.144119884558 C320.8244243832295 329.0436910531103, 398.3472533790336 245.49935797318446, 455.0093036790933 170.0594821495353 M244.7090424393246 417.40456466217233 C313.8362268733876 337.64369561814345, 382.868961719117 258.0481661825926, 457.2244033621129 170.83323429305256 M263.74187222182854 414.1594889232624 C326.1792990129368 346.06533588538196, 395.41454254651615 273.0260831645434, 474.08571112305106 184.4701043728311 M267.49051211247667 418.6837647262924 C329.4993770339381 358.7537663180105, 385.0727048962632 292.096745462663, 474.52117342895303 179.2839718908097 M290.19833415105484 412.167568478778 C349.05530652626464 337.4089650844166, 410.2665010619011 259.61800683766455, 484.32449447875086 197.76508261828465 M286.5426844010609 416.93266249504603 C338.71678231010964 352.8280845828811, 390.6194169325112 293.1965837202068, 480.87606727885975 195.1886401917232 M311.727681504449 412.9146745626217 C383.8247029933573 343.1813407041165, 452.7951899727863 263.40645203409736, 493.7554698875322 204.954489750462 M310.5483421122498 416.147976978016 C370.876257681318 353.2174589066119, 430.2292077802712 289.98589166080205, 492.6290814384578 209.22314475501048 M329.79972102139124 415.91500297451427 C386.01740181500645 359.9929228190835, 440.2531751029731 291.7893093112239, 502.9625207149376 219.60841486549396 M332.0120886318204 417.5434297877055 C365.3425049259475 370.0437288654411, 405.89273480372856 325.39490094325146, 502.445186610491 217.8660262613175 M352.2302790410369 416.11090153589885 C400.8399783668342 350.85547752160016, 458.82481103344554 289.9738797526669, 504.98719188407273 233.97136171957936 M354.1466915190574 415.42307617361035 C403.69586569433676 360.04652457134006, 456.7675184381255 297.65330207994555, 506.1340663828134 238.22068002832543 M377.46916186065204 417.6704938926831 C431.29437473339954 351.51450196694606, 481.9408337883603 286.93345506447463, 512.8031720299268 254.77390183083017 M374.9304149697533 417.92139413084846 C429.2376681841092 359.4066578196541, 475.72216337984065 299.4540886160918, 515.1886625697299 257.3631606743478 M393.8729741321492 412.7095698467048 C429.72733893822186 380.73414480335845, 468.70627869847254 337.18845522416615, 520.7993495662314 268.24561578352717 M396.1451202136284 416.7366925728269 C426.62932779159786 373.0065682855501, 461.5589910382543 334.21772633506066, 520.4258018216619 271.6912362988811 M421.2546406290943 411.23979766397144 C450.3311925520919 374.8274547695325, 470.04815278370893 346.4286924397, 523.3041259905101 300.6084885994215 M417.9922797683799 409.11450571581076 C443.1540505369561 387.94070813844513, 462.4197061137579 363.12023202763356, 518.9526524294631 296.3307790194609" stroke="#77B5FE" stroke-width="2px" fill="none"></path><path d="M346.30650745700325 149.63212889963953 M344.355 143.77 C257.90591883946485 55.57803709231743, 107.63491634171994 99.91842406322093, 76.29400549915684 227.7398684338837 M347.8121901968422 147.5963295878437 C256.0601059424516 56.97658457607094, 102.35611029736312 106.44004778672277, 73.34071032413887 230.6779411006601 M79.757 227.715 C34.54518398290167 234.26784434161192, -5.828418733338046 269.46961773825177, 4.8252837090611695 324.1867453567627 M85.25628632174458 232.96802870183478 C40.048840786934996 230.55237963542226, -3.353016128125083 272.8233718667153, -6.8492341867935185 313.8993635393429 M0 319.952 C-1.6057439189577636 371.667281754152, 42.897968849026405 415.04399151175693, 91.89522129490582 414.52464401778036 M4.486777607848045 324.7179486366341 C-1.1147167425771711 366.4213451862044, 46.32974571060698 417.0930945652162, 98.4020622501923 412.5028300066599 M90.97610738784105 409.4142942194779 C195.27096070732753 415.58492996812953, 298.2773979725385 418.39253953220447, 378.5843259080567 408.94860275411367 M94.6482312706376 413.36366730109853 C162.72620278424986 407.9479088087419, 236.35406627725047 411.62136336848175, 377.26204749907697 414.024450162602 M375.515 413.156 C452.4491612349136 417.86117203328655, 511.9669911934839 350.8242574747671, 516.5503677906316 281.27415390068154 M380.6455980363679 412.437764449842 C455.01039114418165 409.67533901235936, 513.9829456551093 346.03463814559876, 514.9672164558906 282.288974422048 M511.999 276.673 C513.6652148616996 188.62683705054775, 424.38682634600525 126.9934519766572, 340.3158945235665 138.02706325874354 M517.8956101037444 281.74498692501277 C506.37497218568154 184.01762457987257, 429.93324489690923 128.73181164067185, 350.58322804530684 142.19729484563373 M344.355 143.77 C344.355 143.77, 344.355 143.77, 344.355 143.77 M344.355 143.77 C344.355 143.77, 344.355 143.77, 344.355 143.77" stroke="#000000" stroke-width="4px" fill="none"></path></g></svg>