<?xml version="1.0" encoding="utf-8"?>
<svg id="ghost1" viewBox="0 0 300 300" version="1.1" xmlns="http://www.w3.org/2000/svg" x="0px" y="0px" style="enable-background:new 0 0 336 235.2;" width="100%" height="100%"><g transform="matrix(0.48770639300346375, 0, 0, 0.48770639300346375, 27.512677189889814, 17.133825439562457)"><g><path d="M470.87553688065174 59.317495419800686 L463.83221306118486 59.88484464515466 L454.5486031862272 62.763962027482854 L357.67693517525686 104.67724562790642 L355.4934241216445 81.12439173379603 L349.6876221562789 61.200819323559585 L339.7013247908997 44.04460386356013 L326.50045231311975 29.97073582703572 L311.8187363839659 17.18538437868988 L295.0632801838072 7.782739109249783 L275.7900345930104 2.3014999185577336 L255.28080243161835 -0.012989046332526843 L235.99738032769972 2.850838137127273 L217.2634028175864 7.1073146189487755 L199.08711799498198 16.555610599451004 L184.08414444414603 29.396711680391768 L172.9796274628323 44.31797179025928 L163.72204027314183 62.4573849966885 L157.1808109228471 79.6726483755233 L155.618745802396 105.25358153959377 L49.66624927585407 60.72908637495977 L41.26374958009076 60.4134083741518 L33.49424267026948 61.536331128968726 L24.494789320489183 62.649961833050504 L17.317461286144972 67.27430523081051 L11.285398448612934 70.90091664627855 L7.150231234077904 78.72291074303907 L2.840465212140507 85.29532902251462 L0.9697407339888657 92.13053552157689 L0.22747809393589868 99.8390869466769 L-0.047963854126239824 104.44504506469671 L4.363767274247344 108.70782336628251 L32.618314598449274 109.23196379240052 L33.459809116846415 265.2609458088062 L34.961784595375164 270.2018614934811 L39.86385339685869 272.45615341950923 L46.5717053402779 269.46902031473127 L48.75091061736829 263.4460146093186 L48.83730473357917 100.41786816040477 L49.35565110339211 97.43581313149649 L43.563722945090035 94.18355210205918 L16.96419253140816 91.70455219543331 L24.720950602162866 83.38501959121402 L33.48810656721602 77.61011090708388 L41.478940866734504 76.32555761574488 L50.13005190818626 78.88602298991425 L160.14885686041927 125.38840185118963 L166.69791732762874 124.88662021081812 L169.4956273315176 122.0543258886306 L170.7742354904155 119.81129607632069 L172.5998066122379 92.3143434833259 L176.05491382187148 75.73065806950903 L181.97832324400576 61.22574807046854 L190.68744357894641 46.18255373458593 L202.22481505721817 35.789006868636314 L209.5890695820027 30.537114667972876 L223.88657499826135 22.83606267422855 L239.25871817947984 17.493828104064406 L255.62289965408516 16.2703110501886 L272.50207833154167 17.99755829068216 L288.06552759583604 23.620305748706286 L303.98682605151197 30.526863462777733 L310.3282785490035 36.45738771833461 L321.3660966579187 46.66815838437153 L330.657874461093 60.191167811655 L336.9384731758248 74.70444137111261 L340.6872862360443 92.02860501310204 L341.2770902776849 119.05060897803696 L341.60124012072976 122.77836509015752 L345.26471322815615 125.32648722234872 L352.27001053153936 124.67257395400355 L466.87148650506464 76.08530628115113 L474.2997191610083 76.63895013170918 L482.6170492710831 79.11239777259976 L490.2322726752229 85.60734351228771 L494.8587412373573 92.68734358239936 L467.33240314623936 93.39972886692287 L464.4966438336724 96.68367292970356 L462.92357948612334 99.79076982140069 L463.6466120002517 459.84991765353766 L460.3899772637621 474.11425198069867 L451.92485561586864 485.79313053510873 L441.64211042525864 493.6230526013508 L434.3387163314196 495.48540166259903 L427.77863829484863 496.353379470004 L413.6058734244965 492.52502835586745 L408.5004647928793 490.574575484567 L399.89337163743227 480.1459883034731 L394.72962131902017 468.2355598930183 L392.44709817622027 457.3476066226084 L389.1945189652936 452.4365509928708 L385.03719631627837 452.1440672154931 L380.94569359468693 453.71522017079326 L376.8953889076625 457.53867655800144 L374.63633408450283 475.1381229758735 L367.48783521440083 486.03449762597126 L356.3965446618166 493.1607301683237 L349.35660389676895 494.4487397951212 L334.394019427349 495.2921225615755 L327.7322466757096 493.0172062384386 L317.1328423498501 485.2257572239171 L309.480954801708 474.49899322531115 L307.506228057912 457.9322409948498 L302.0387725554046 452.79967961018286 L299.7751709885158 453.3932111289817 L296.27180087173605 452.76820665323964 L291.4036475241537 458.15047738510094 L288.2189273125914 473.4775945755193 L280.23153472711016 484.4634563876363 L269.0576906539143 492.27412757878494 L262.63024025000067 494.3574648965788 L249.39917067051945 494.4912178210159 L241.54286653968768 493.13382811280377 L232.23112050025185 486.36943536799737 L224.76045556890426 474.8488279114625 L220.26978638709576 457.8790819223967 L215.5870071467277 453.8539121526897 L213.91829171722637 451.813039222457 L208.99063054986044 452.9903448021882 L205.88249592471746 457.5368687922104 L202.0779863675582 474.64509890301787 L195.4890586869134 486.0742002088046 L182.9722609369031 493.67159629295264 L169.7795339030686 496.5703726145185 L157.2075153673563 493.6579357942399 L145.59647238274104 486.19305404097463 L137.71900317824037 474.571261315737 L134.25035696230384 457.2283525657635 L130.94427143895575 454.2047944240145 L127.61308028368528 452.3306956234581 L123.71896754756413 453.8406404897542 L119.74626328103349 457.5520459182835 L116.71134328679011 474.11305555843114 L112.25951695043983 479.3179825271251 L103.86045837993304 489.4348354456757 L91.70811702191462 494.103216592988 L84.40424142647491 495.05567110136695 L69.89338649585122 493.8322893443473 L63.83980414694974 489.11972413331284 L55.18782891450468 479.76746764399655 L49.63374618393399 468.35101201656073 L49.578625253179176 297.58764984932554 L47.172000176323884 291.445481092886 L41.45884838692521 288.1933951552157 L35.96591783124753 291.07223173925956 L32.720613381170494 296.265330597683 L32.524791096940326 460.2097631667033 L34.396784388517425 470.2275480976213 L36.753666307638134 481.00412270795346 L41.65438640384806 489.71802950346597 L47.63457146437996 497.1655732001542 L55.69192466128876 503.57903007920333 L68.36867741639087 510.0321472441297 L78.91985090460652 512.119641656875 L90.74339403885212 510.8385680796381 L97.29245046046151 509.5090059586733 L109.30775815882978 504.9158211737591 L119.65083838288565 498.3676838619833 L126.68806277473968 487.64027412492663 L134.30447381583613 497.6683492560524 L144.3958404756908 505.45144288114903 L157.60961030712747 509.5648026123984 L170.35618119345125 512.9308920778973 L183.28827249718725 509.3566745462605 L194.2775420994383 506.0482771236953 L204.76093899703332 498.09827953847525 L212.93017680579752 488.38345666310363 L220.9471623001483 497.858116120744 L231.32010654105122 505.03567537441796 L242.60614446410864 511.0926510567826 L256.84917267854706 512.1313473276376 L269.0009171627003 510.61093675049375 L279.9582673050369 505.8723147913127 L291.14144444755954 497.2999693710285 L298.9823642002428 487.868850388601 L306.38139358376526 499.0886010078065 L317.8495471370855 506.2105880765202 L328.87480200130665 510.4167617205934 L342.83499366000177 511.1821089914737 L355.0578515768597 510.9077479353505 L367.10619088016807 505.6714049044905 L376.91578634685516 498.1114983982806 L385.444043416912 488.7558635876415 L392.56466814844714 498.78178931378693 L403.20384946260083 504.8192360272907 L415.8384840234402 509.8291174534916 L421.28732209190764 512.0238318419991 L433.8114571795508 511.82821495566367 L442.4147932625908 510.61205492671894 L456.87120654715164 503.6141699370384 L465.0696440194338 496.4534171834584 L470.6578264848352 488.71475147377123 L475.5142922548683 480.3899332966784 L477.9790376381845 471.1644879584801 L479.91874035660146 461.02375746770196 L478.4447995793777 108.94328156017308 L506.2466220987224 107.63452290064248 L511.4828392791905 103.17709862087487 L512.6907440646111 100.24142166058658 L510.20286487160035 93.0327522612079 L508.41223751369495 85.27291669702213 L505.42808574574104 78.0070769114603 L499.3978012678701 71.33340061867662 L494.41776987884765 66.63109078669311 L487.38158005548206 62.99739616402117 L479.140524760235 61.01026216250403 L471.52623361319695 59.58964262976776" stroke="none" stroke-width="0px" fill="#228B22"/><path d="M471.5924822488982 59.526217648382534 M471.149 59.915 C465.2257530347181 58.93729819154431, 459.83899392528355 61.445476132519275, 454.65136492144023 62.46381829069244 M471.3789712665953 59.69323573768558 C465.6191599461556 60.482993050439035, 460.4225801316117 59.874903221360476, 454.1604273262601 63.96085727522413 M455.7285277395379 63.93691445815985 C434.91027911438687 70.91211673065129, 415.65769310777347 79.12340683928552, 357.23490945213257 104.34086028492611 M455.658370623361 63.532508699250826 C417.39050075439474 78.81070365915899, 379.6513718738014 95.56516116900546, 356.46333635808463 104.62976623905026 M356.5879213805603 104.56092844120121 C356.6597731591231 103.50995757405943, 356.8373494243485 102.91134274790896, 356.80063649496435 100.67476133268205 M356.7919854142151 104.5906275619177 C356.75556717683986 103.76328124443171, 356.7659138484051 102.85251868497951, 356.7959775299032 100.69281270905655 M356.767 100.767 C355.91132232610425 45.271663915885426, 310.7910930349461 0.9874516535756972, 256.734358645958 0.594522488420814 M357.736397097141 100.77727071767534 C357.4311728898646 44.68083070549847, 312.71201964744165 -0.1669191914166962, 255.9243393894674 0.7143903034452934 M256 0 C200.14623394857048 0.3765906048365921, 154.4169042412178 44.53453713978717, 154.25990526814795 100.89136907029852 M256.6335546785227 0.9559469233922084 C199.37580180963718 -0.7247365225298512, 154.94638278028526 44.986999670731336, 154.47864980434605 101.79217095937489 M155.2397341131854 100.63456381819894 C155.09515409927832 102.19755369456742, 155.09161136136098 103.69236881910084, 155.3756283867431 104.68947315897276 M155.14097578544067 100.71402463424859 C155.2891205677049 101.750881768097, 155.19835937860324 102.56948226234145, 155.32526566414901 104.59621906284066 M154.36153825740055 104.47463129536892 C119.84562836657871 88.85458627732982, 84.00363144756761 73.73777358888157, 56.665797267368006 63.956542948301255 M155.40889813298597 104.49041421735228 C116.05299453259732 88.46693110570389, 77.14583341600645 72.21095786507689, 56.88300570007506 63.36953240182697 M56.693 63.103 C50.72924213255014 60.76239015948193, 45.608235127184855 59.87372257427997, 39.88299786435188 59.733796725306135 M56.356874161163574 63.865076332853285 C52.705087100549584 60.518442976508204, 46.43957136431259 60.420732533760635, 41.28552488836155 60.37924626381458 M40.852 59.914 C18.83237322262367 60.55102143945, 0.685415929310706 78.04764660397254, -0.7767042669145576 100.43712563651286 M40.02265969576365 60.34829607636019 C17.62535231391175 59.727715374248156, -0.45303094567058977 77.68076718443882, 0.37958025644216375 101.37459458390323 M0 100.766 C0.0719050554614622 105.28357589907127, 2.8255524981137854 109.47452351118608, 7.5392028849042205 108.9266559142352 M0.7911842361568806 100.78655111810721 C-0.9200556735162267 104.2068186441115, 3.134592250189857 110.03755180120665, 8.665457193319341 107.94486593162071 M8.356751717626988 109.66301052946265 C15.677688078965458 108.80435237393431, 23.96326333172893 108.01580011244633, 33.64859069335879 109.01484680445465 M8.068110570358202 108.76730143592941 C14.733904322154588 109.35239760257912, 20.653221352296754 109.12957616844022, 32.78052268365273 108.53954879804866 M33.37602033440589 108.52329610606253 C32.6068186177385 151.0821162601823, 32.376780889226765 191.91572584153928, 32.82205458839772 264.155059360108 M32.951469709535594 108.99810242115707 C31.55878388250694 160.93546094454, 32.15794593403007 213.6120865037379, 32.62025822980677 264.3501814122006 M32.681 264.442 C32.249226299876376 269.7998357911718, 35.78550426306413 272.4394463978996, 40.43594432533486 273.2821686302327 M32.89672990280378 263.75453024419244 C33.782718748230664 268.9250692513305, 36.96712901818194 272.0667108351574, 41.53219404582764 273.0171357974778 M40.851 272.612 C45.33026655547666 272.7060357186607, 48.75051213517404 268.7373794850606, 48.173599235237475 264.59694245577344 M40.8349971706638 272.87972611955877 C46.0291718658418 271.83659729908777, 50.02500583872361 269.72610571470835, 49.75304644119853 265.50062728501916 M49.728337359300575 263.5908060925919 C49.54833772108498 216.07511513103643, 49.5414978392662 169.32392591220267, 48.915159378654835 101.65919966478941 M48.68828645276612 264.2274410398816 C48.09112621644162 203.55995435050357, 48.359222100446566 141.75237790006437, 49.28466782408527 100.71309743740281 M49.021 100.766 C48.17320705443049 96.44598411427418, 45.683406469437266 92.24859203510415, 40.957673297168164 92.02481292960616 M48.96429083171958 100.63053491972093 C48.517367891794684 97.20594627430705, 46.15690269079772 91.73833931945141, 41.555569845806154 93.74131872987499 M41.40401394443288 92.6027560981784 C31.48792356328426 91.9318862905174, 21.902567412937984 92.53875358843067, 17.014648312763104 93.43485829517667 M40.67989050565663 92.46602930340516 C33.47719458486261 92.72926570120492, 26.23836375497362 92.47857488756317, 18.099789111015486 92.29015530446542 M17.74 92.596 C20.60610768346343 83.89797652603218, 29.293369371203646 75.7166551686751, 40.528701885875925 76.73094718037302 M17.100653900348654 92.88783237396363 C20.33126747794291 83.0720019536044, 30.409200801548707 76.48356517034765, 40.80913577860939 75.96059823127577 M40.851 76.256 C44.710642637989636 75.76978638934716, 48.16891788308877 77.3875134186267, 50.579816718719044 78.71960170620686 M41.304139526066855 76.35923155822213 C43.51767259068345 76.53742738178, 46.91291970824797 78.03332751091047, 50.91788964914967 78.08498094324453 M49.53685896674347 77.99821875099872 C74.12530815322442 88.88566310978725, 95.84093495679497 98.93815306657034, 159.703982606768 125.1225348069904 M50.69100342991336 77.99710460924653 C80.11901519063098 91.54764505110394, 109.70378901288713 103.92069731684538, 159.9321246268025 124.78164059850093 M160.234 124.428 C162.4078841629134 126.41530155927103, 164.7427034694208 125.93034546539435, 168.76433643713997 122.95461649171448 M159.26030611190353 124.84855998511257 C163.46936509829385 126.08398683841875, 165.72630932770917 125.2085068623114, 167.79344327316608 124.76012343021327 M167.924 123.705 C170.32936595242833 121.81877790355135, 172.23101477152835 120.46988767502069, 172.36553029459765 117.14439542635839 M167.685955582466 122.98733472918818 C170.22722088274912 123.22392854493087, 172.15454946631797 119.32957996005362, 172.2355184761259 118.01144622505564 M171.83050027601377 116.63864824481242 C171.82061386400542 113.26471305258693, 171.4890762481959 108.76021107345218, 170.92174239589565 100.46582045310387 M171.54158992310713 116.5632655540444 C171.44101110792894 112.52514437004477, 171.20968641923452 107.18078939936109, 171.73900932734335 101.11806887895968 M171.576 100.767 C172.04802758945877 54.056945786281744, 210.10658927303209 17.26431654753292, 256.59097676291213 15.871595160923249 M170.8818114098418 101.37306816093837 C172.52569868865731 54.961398863775386, 209.0025676664633 17.175460364668158, 256.44023020608313 16.86173916990447 M256.002 16.340999999999994 C301.72089465432293 15.990990602581688, 340.4895155116601 54.01066161446949, 340.6041517692673 100.5901500870032 M255.69707425557732 16.13619637758829 C303.4441978760954 16.073460577495183, 340.9212084681019 55.07377964512826, 340.47442047334323 99.93760377057463 M339.92736117337745 101.39714658408671 C340.8387517666959 104.54057716164588, 340.9445790148844 107.21233684356694, 340.1600477858954 117.29462124890456 M340.56636718955554 101.10499319406553 C340.43722975034444 105.76865467383202, 340.3708715177116 111.53553006445793, 340.2373590574881 116.99305547252614 M340.428 116.899 C339.90073477233227 119.80296034924993, 342.1475447682256 122.327239209167, 344.8736258867354 123.71774108321084 M340.8080822621387 117.4693232072648 C340.46159051874827 119.00845303840278, 342.8866111355458 122.23269867545956, 343.7117667983875 124.55627481005986 M344.08 123.705 C346.82113381607144 125.3764618679947, 350.1817038633005 126.33097111970525, 351.7665159911773 125.17494207748074 M344.9938686441538 123.36514344537257 C345.8999273079692 125.60720289358224, 348.2970581240489 125.55732392607982, 350.80756985912336 124.05439885023516 M351.95616766172134 124.2228329133758 C392.6386837388473 107.62473407304286, 432.314746539825 90.13760298517569, 461.8150383780621 78.09121008475194 M351.43876493042137 124.29737305068576 C379.2006054423724 112.36452502804981, 407.2650225996535 100.52251753386025, 461.5785664010839 78.66348676761794 M461.65 78.164 C465.0707566916504 76.90336352902769, 468.1422462174763 76.53963494937923, 470.73774174319294 76.56281914655919 M462.1900320929154 77.24678523004872 C463.5470501145367 75.99034760791542, 468.2031396736439 75.59097044439483, 472.2936269201254 76.02144835825635 M471.149 76.255 C482.67694381292523 76.63450010326044, 491.2863411662682 83.39586889435093, 495.00167807214297 92.70122844600921 M471.8948886600183 76.6665461819983 C481.1870677570224 77.15370797976482, 491.10821240467635 84.17470327402478, 493.3354188813083 92.88667003917224 M495.15847251673136 92.23695978003198 C488.7110250119757 93.15513360851774, 480.8197227847264 93.27701299928216, 470.50237683589825 92.86816791082214 M493.9027319004087 92.10816961645486 C487.3257363863891 92.30223607578749, 481.15631880475684 92.87724790749377, 471.475821419266 92.24710582367044 M471.149 92.595 C465.79696847546035 92.16996349545113, 462.76537962908225 96.30221833750517, 463.1299240623999 101.62214872934575 M470.7246763623046 92.7156339007022 C467.7269450469992 93.64451571358533, 463.8803133645925 96.47082325847133, 462.36510079016057 100.91379662113388 M462.7186408256185 101.33001896215347 C462.16685546059557 231.6355099964665, 461.8393457407914 362.713329854029, 463.05523038397365 460.5919785140205 M463.11139307933786 100.97393363510601 C462.5123912432598 187.7759138403787, 462.50174113004505 274.8211746153587, 463.1553175215568 460.9506749332588 M462.979 460.8 C463.72951859158275 479.78956209365373, 446.7495883408674 495.84150037646657, 428.12872151254453 495.1626475167923 M463.1602870989225 461.6301195896287 C463.42806832545796 479.9398852740164, 448.07439953450887 495.1834014790427, 427.81027592981064 496.10967088142695 M428.11899999999997 495.66 C408.0895468111332 496.3116625324203, 393.9302665838441 480.4624231895259, 393.84815121875073 459.9249231234238 M428.2030799180825 496.00310978447277 C409.6265806117585 495.85970993201454, 394.06158550914796 479.4533453963326, 392.2481413350404 460.76700003713535 M393.25899999999996 460.8 C393.1224873836399 456.1560896141829, 389.40448811230203 452.2028431349556, 384.6273443506733 453.09976607338706 M394.1383062856687 461.00468762882457 C392.7034405500004 455.2114908366222, 390.5157215937725 452.1381758355112, 385.4014287845011 451.7148492637879 M385.08899999999994 452.63 C379.9834917869751 453.1932709281956, 377.07966155634455 455.99434627982663, 376.7395573014189 460.7826131738239 M384.3668408354249 453.6143207635268 C379.52229556317724 452.5641875213198, 377.69310437756894 455.7053455605937, 377.6882435273267 460.01407529211485 M376.9189999999999 460.8 C376.08499334041585 480.4914735952861, 360.62753747589596 494.6651955142065, 342.67271735437777 495.3137298280991 M377.56889614474574 461.4977555852703 C375.9147771206688 479.7828347737057, 361.90404855362334 495.43729447941683, 342.4036919496677 496.64110991882035 M342.0589999999999 495.66 C322.1628327911656 495.8607573183647, 307.59307325020205 480.5252841969846, 307.0037134330831 460.87193315868785 M342.5673123920893 495.44618917414186 C322.1516463838195 495.9131381685128, 306.7188763201394 480.2390952446016, 307.62464629283 460.5144825154647 M307.1989999999999 460.8 C306.54692189936344 456.2610582755184, 304.2734100860647 453.2478682876223, 299.011575837572 452.4393484289013 M307.54949360846865 460.7140107847808 C306.51561888877114 456.89706111016125, 302.98409095150964 453.0577961869519, 299.0442114039412 452.8134532109202 M299.0289999999999 452.63 C295.2941016129014 453.0976485810162, 290.3369299251352 456.3050877024959, 290.95867002400433 459.8702059675276 M298.9926167924206 452.2768686272449 C293.95574312524343 453.04213992070623, 290.8442719559532 455.14738298600867, 291.5294987098577 461.3543240237538 M290.85899999999987 460.8 C291.7687786306021 480.3238618824474, 275.5995500253022 495.82470039241485, 255.00388460060734 496.3050678885258 M290.1344070815868 460.3988340330755 C291.59866137934415 480.88894568782405, 275.93401933253307 496.0135723717343, 256.978102072471 495.2816817984163 M255.99899999999985 495.66 C236.67421474138396 494.71478435895773, 221.98906751968445 480.24806145510445, 220.4392455964754 460.20891831125175 M255.28298354768143 496.4836349391319 C236.0220747582138 496.6632386501245, 220.81757515446552 479.3561276655066, 222.2306764704716 460.1288605377819 M221.13899999999984 460.8 C220.8880989579896 456.3147217817995, 216.6319663610315 453.0613083058663, 212.0027923593198 452.8346927618893 M221.4729309830691 461.0258282913122 C221.8797038773871 457.2805793106885, 216.7567356851563 451.92594912085326, 213.4695691126238 453.25942829000485 M212.96899999999985 452.63 C209.2567176336503 452.8423849739639, 205.3295942879965 455.47168394605643, 204.55579552379933 460.48870902933055 M213.54336993524925 453.3707770164706 C207.92973791769595 452.12741908194903, 204.89660130852175 455.93604259343783, 204.95931179529404 460.6409013627977 M204.79899999999986 460.8 C205.40255870768365 479.86912164622123, 189.39198331387 495.9350597771227, 169.7696762505002 494.82208628402054 M204.72585873063824 459.85478854717974 C204.56296081423355 479.4174054358319, 189.8360711456919 496.70906040786724, 170.78869235349438 495.22473943575557 M169.93899999999985 495.66 C151.42579636336527 495.3664701646773, 134.24803795810854 479.8398122410341, 135.2459372718262 460.0806652211039 M169.3399392991314 494.85876247882635 C150.51492248380094 494.82704619268935, 135.58548398154113 480.87885166281495, 136.12760440490263 460.14739402103874 M135.07899999999984 460.8 C135.9726038170025 455.5648559740627, 132.04116299221576 452.9730462553843, 126.2646514480348 453.25117892256446 M135.34441442185522 461.3190543610432 C134.0922143536135 455.8933360113517, 131.98615578460405 453.66208970026605, 127.73981553273788 451.5307660804694 M126.90899999999984 452.63 C122.53336824333101 453.41840563426626, 119.02712737902466 457.08451132784455, 119.69095453415612 460.3005303129166 M126.84221113884321 452.58018265684757 C121.55921542815365 453.54260004580675, 118.62422732507261 456.25330369605524, 119.12775042061597 460.0235076734561 M118.73899999999983 460.8 C119.35194416065875 479.28921634172235, 102.16787614769804 495.90179737668745, 84.04350872465925 495.64759188434954 M117.75219708656361 460.8326142566618 C117.63548327851782 479.53694982072557, 103.60744231118379 495.0464056246354, 83.58776149641788 495.82320571435133 M83.87899999999983 495.66 C65.17543002605609 495.61343737538186, 48.98645866864549 479.3727197324505, 48.84132854762863 460.88455940349354 M84.72432707464768 494.69216547220043 C65.3408567642072 496.7343667747571, 48.80234335450416 480.8970080008363, 49.470051474751116 461.58779390766796 M48.28041706881409 461.7548496368176 C47.36513170680956 412.7967027209786, 49.070827781651765 366.44178288104024, 49.7185284325012 298.0931614355648 M49.35806338962646 460.5043411649116 C49.65040918587767 422.714758670897, 49.35342831026118 383.86911599735197, 49.39215220947457 296.655462311468 M49.018999999999835 297.123 C49.19019860456774 292.673331168411, 45.5134747624929 288.0615081339031, 40.14557767922507 289.07399018951173 M48.93160168954503 296.3730012751682 C50.05454104248032 293.4561118710531, 45.21876248452608 288.9665139022854, 41.13576129888243 289.04662421997824 M40.84899999999983 288.953 C36.54048914769931 288.45455472164855, 31.715175935151052 292.36537644507047, 33.43702923802027 296.4008900294501 M40.89108871843386 288.5811825802452 C35.18836517787329 289.09353215227037, 33.06124752339695 292.986657959661, 32.32992285387988 296.5835120505736 M32.64974841270404 297.7060448254645 C31.985430445511618 341.22843460306325, 32.76632413962337 385.12956657153234, 32.67733066855589 461.5111769687785 M32.63283477839312 296.96363057468585 C31.472536596348505 347.26175034843214, 31.636794360755893 398.4895127440916, 32.72081855544634 460.72862191012103 M32.67899999999983 460.8 C32.60760332095018 489.876575404703, 56.37689041327002 511.00441961167525, 83.97306314326217 511.79133165346235 M33.6347972323749 460.97163811553844 C33.713524215936026 489.2530566166332, 55.96345870227716 511.37278819253066, 84.11110767679749 511.1872242062283 M83.87899999999983 512 C101.45784647906333 511.8762110760611, 117.8061367852116 502.2804871261453, 127.63919916237536 488.6642815688317 M84.53250985811401 512.9426902470357 C100.8270231421721 511.9209203927461, 117.76209860908527 501.98766840044703, 127.44543023970537 488.0508617694654 M126.90899999999984 488.521 C135.0933442979571 502.5576129227316, 152.5114308625471 511.24375883392275, 169.7532632095925 511.03404673558737 M126.74190999543359 488.8462472542745 C134.94923471458964 503.7419395208829, 152.94893560080445 512.9753925031271, 169.8732268936782 512.0637686460153 M169.94 512 C187.01053273263494 511.81040335166966, 202.956691029682 503.0338593730664, 213.65989557588495 488.3125547653663 M169.86127842577173 512.141766627338 C188.031882966051 511.5070838475088, 203.56752666598726 501.9898154834432, 213.60788270931286 487.70776694880664 M212.97 488.521 C222.07236972260102 503.4969370880134, 238.62611657757256 511.6435192668392, 255.13778502441625 511.0274458283914 M213.6098115909453 489.13264624797546 C222.22939618620907 503.2003175893964, 238.12213451340043 511.93874057390315, 255.56040345733 512.2468707364557 M256 512 C274.18152363658703 511.24272719112565, 289.8069693536543 502.2736124730317, 299.88390091340324 487.8624444325859 M256.60825250968577 511.88012192770896 C274.9985053703105 511.91588501006845, 290.06615223956237 502.81724832152105, 299.3569155175352 489.20737907758667 M299.03 488.521 C308.1047024567787 502.94412313252775, 323.8718508834983 512.5581104855615, 342.559942237503 511.1739330866349 M299.0870841233852 489.14712856934165 C308.86825051996715 501.7104968791137, 324.78118246041913 512.351935205631, 341.6037137051642 512.4028015431439 M342.06 512 C359.3465390356425 511.95232639510266, 375.4833028692433 503.30688657241603, 385.2648151515977 487.9036413170542 M342.36195741483687 512.8028940166018 C359.04418563063285 511.32840937266474, 376.00005614930495 502.10865276916826, 385.7026718388617 488.7777241681406 M385.09000000000003 488.521 C394.82117012071376 502.15619533634606, 410.6307436176997 512.0620718020627, 427.40319451683604 512.2223823047018 M386.03132369383775 489.06894519551656 C395.2563298697104 503.7419989363983, 410.655737342415 512.6665125705437, 427.2181434988009 511.2067184503594 M428.12 512 C455.7430392325841 511.4801099010545, 478.5047460501464 489.7451402358419, 479.75204444943546 461.6718627868065 M428.09001712095534 511.06990949769965 C456.92495297593115 510.9846163503239, 478.6696583950093 488.6900537161547, 479.42889249265943 460.2143194642489 M479.5222767334231 460.69385435055693 C480.015924665356 376.19986032038577, 480.2452928001171 291.3626805539512, 479.63474589893957 108.77072725485208 M479.0388229120813 460.83440550363406 C479.22545293999303 386.2939925045821, 479.3034538149156 311.8828235220647, 479.2604053936587 108.8488763078446 M478.6210702619299 108.99826450048641 C487.03508767224423 108.44200852043002, 495.14136990368706 108.12410601512927, 503.33823123440163 109.405597316419 M479.0095779853444 109.09790207764081 C485.5905799892028 109.38130400981169, 490.793310779811 108.89894117723419, 503.4614271482052 109.10495114759867 M503.831 108.936 C508.8361651407599 109.36677959007685, 512.4899489920684 105.28383923704648, 512.4711111820143 100.81902037452087 M504.347130443874 108.5178126283964 C507.5014622159886 107.79412554128817, 511.462606612454 104.62436052135958, 511.8645319750308 100.82437204409844 M512.001 100.766 C511.6008321250572 78.5568910773547, 493.9312559290509 60.31254956460818, 471.63360645710287 59.72016360533886 M512.668854017877 101.47823419597874 C511.31293881049766 78.99930308115964, 492.5930232665309 59.107703116302076, 472.1598666645926 60.12681079043417 M471.149 59.915 C471.149 59.915, 471.149 59.915, 471.149 59.915 M471.149 59.915 C471.149 59.915, 471.149 59.915, 471.149 59.915" stroke="#000000" stroke-width="4px" fill="none"/></g><g><path d="M220.734117454734 68.86552247801104 C224.7740407447823 68.47641193007826, 229.31295418081302 70.64507550169742, 232.7357366120538 73.31844342472712 C236.1585190432946 75.99181134775682, 240.13400558907858 80.57199611314337, 241.27081204217876 84.90573001618924 C242.40761849527894 89.2394639192351, 241.79080149908378 95.45291929434315, 239.55657533065488 99.32084684300236 C237.32234916222598 103.18877439166157, 231.91115896717116 106.64867336715633, 227.86545503160534 108.11329530814449 C223.8197510960395 109.57791724913264, 219.31990539342536 109.44539362988874, 215.28235171725996 108.10857848893126 C211.24479804109455 106.77176334797377, 206.0245274157366 103.76939981787675, 203.64013297461298 100.0924044623996 C201.25573853348936 96.41540910692245, 200.26888644624742 90.34547629822036, 200.97598507051833 86.04660635606834 C201.68308369478925 81.74773641391631, 204.24122770461267 77.33053176784757, 207.8827247202384 74.29918480948746 C211.52422173586413 71.26783785112734, 220.14250204408918 68.65548498606444, 222.82496716427272 67.8585246059076 C225.50743228445626 67.06156422575077, 223.9882738980705 69.06532117961032, 223.97751544133968 69.51742252854649 M229.6308864256897 70.4721644694087 C233.2174923886039 71.75032043510765, 236.44407424468255 75.94341145201024, 238.29519530876436 79.99831088241892 C240.14631637284617 84.0532103128276, 241.65209416370632 90.29504771556995, 240.7376128101805 94.80156105186082 C239.8231314566547 99.30807438815168, 236.427890505286 104.85113668320247, 232.80830718760944 107.03739090016408 C229.1887238699329 109.2236451171257, 223.29149337036284 108.37876550340009, 219.02011290412122 107.91908635363052 C214.7487324378796 107.45940720386095, 210.17462119645108 107.06605114026527, 207.18002439015976 104.27931600154668 C204.18542758386843 101.49258086282808, 201.2904256598888 95.92499267176709, 201.0525320663732 91.1986755213189 C200.8146384728576 86.47235837087072, 203.15022465120776 79.4200850558294, 205.75266282906628 75.92141309885761 C208.3551010069248 72.42274114188582, 212.50315877801938 71.1807052229186, 216.6671611335243 70.20664377948815 C220.83116348902922 69.23258233605769, 228.68881359099265 69.86899403007436, 230.73667696209577 70.07704443827484 C232.7845403331989 70.28509484647532, 229.35543615968407 70.98254838660728, 228.95434136014308 71.45494622869099" stroke="none" stroke-width="0px" fill="#FFFFFF"/><path d="M214.1128980104186 69.04464046706508 C218.09069090024082 67.46365677280171, 224.33983778612236 68.84103202605608, 228.51573409408564 70.50603426104595 C232.69163040204893 72.17103649603582, 237.13371636409107 75.21931718931714, 239.16827585819837 79.03465387700432 C241.20283535230567 82.8499905646915, 241.57395857385484 89.06784873879478, 240.72309105872947 93.39805438716903 C239.8722235436041 97.72826003554327, 237.46437657304338 102.53135820357444, 234.0630707674462 105.01588776724978 C230.661764961849 107.50041733092512, 224.78174577747865 108.32747392277074, 220.31525622514627 108.30523176922107 C215.8487666728139 108.2829896156714, 210.33051750938012 107.48582090085337, 207.2641334534519 104.88243484595179 C204.1977493975237 102.27904879105022, 202.62974515651834 96.90887894477869, 201.9169518895771 92.68491543981163 C201.20415862263584 88.46095193484457, 200.6297603845284 83.4040826317405, 202.98737385180442 79.5386538161494 C205.34498731908045 75.67322500055832, 213.48111311006582 71.32795087874838, 216.06263269323324 69.49234254626506 C218.64415227640066 67.65673421378175, 218.5130805081963 68.2892645174945, 218.47649135080897 68.52500382124948 M218.6802580190312 70.39434207438305 C222.79184830680174 69.14612697773448, 226.69399952055235 68.86461593036492, 230.37435804871075 70.72142306062875 C234.05471657686914 72.57823019089258, 239.15522856944406 77.40854107253747, 240.76240918798158 81.535184855966 C242.3695898065191 85.66182863939451, 241.47081100427988 91.5703904383532, 240.01744175993588 95.48128576119983 C238.56407251559187 99.39218108404646, 235.68355808746676 102.81882199746322, 232.04219372191758 105.00055679304572 C228.4008293563684 107.18229158862822, 222.47697944454865 108.97433894122707, 218.1692555666408 108.57169453469484 C213.86153168873295 108.16905012816261, 208.8917381677594 106.06739740184383, 206.19585045447045 102.5846903538523 C203.4999627411815 99.10198330586076, 201.91052218420973 92.12219661935349, 201.99392928690713 87.6754522467456 C202.07733638960454 83.22870787413773, 204.28483628427585 79.03851630186028, 206.69629307065492 75.90422411820504 C209.10774985703398 72.76993193454979, 214.64280117745514 69.87245007038501, 216.46267000518156 68.86969914481408 C218.282538832908 67.86694821924314, 217.51525037367733 69.30480180935133, 217.6155060370135 69.88771856477945" stroke="#000000" stroke-width="3px" fill="none"/></g><g><path d="M220.4574665529098 88.3151834958787 C220.79988824246618 88.50374518507974, 222.62377182612693 88.5523212215592, 222.93646198037905 88.77552109483355 C223.24915213463117 88.9987209681079, 222.33953064968114 89.60462198018956, 222.33360747842258 89.65438273552485 C222.32768430716402 89.70414349086013, 223.16562903768832 89.08907894426925, 222.90092295282773 89.07408562684522 C222.63621686796714 89.05909230942119, 221.14618514557162 89.30903491028592, 220.74537096925903 89.56442283098066 C220.34455679294643 89.8198107516754, 220.57333638274156 90.50064941694492, 220.49603789495214 90.60641315101371 C220.41873940716272 90.7121768850825, 220.3574868193199 90.37022721995743, 220.2815800425226 90.19900523539343 C220.2056732657253 90.02778325082943, 219.96333990250542 90.00769406602278, 220.0405972341683 89.57908124362976 C220.11785456583118 89.15046842123674, 220.39536755459338 87.89827549264827, 220.7451240324998 87.62732830103533 C221.09488051040623 87.3563811094224, 221.90945448740817 87.99249720078744, 222.1391361016068 87.95339809395215 C222.36881771580542 87.91429898711685, 222.41775174845884 87.46157040525937, 222.12321371769156 87.39273366002354 M221.3864566363773 87.50317269022781 C221.93248223764738 87.3042673677261, 223.0828822410726 87.05318814683912, 223.23202379817243 87.55035521393077 C223.38116535527226 88.04752228102242, 222.49626869034597 90.08972718200911, 222.28130597897626 90.48617509277774 C222.06634326760656 90.88262300354637, 222.2093184818155 89.8176319611818, 221.94224752995416 89.92904267854254 C221.67517657809282 90.04045339590328, 221.2122957411746 91.27203790901373, 220.67888026780827 91.1546393969422 C220.14546479444195 91.03724088487067, 218.82796247123747 89.5401806850208, 218.74175468975628 89.22465160611333 C218.65554690827508 88.90912252720585, 219.97791736352755 89.2863876682533, 220.1616335789211 89.26146492349734 C220.34534979431467 89.23654217874139, 219.84105880806771 89.38211130501597, 219.84405198211758 89.07511513757757 C219.84704515616744 88.76811897013917, 220.04901912611365 87.76405300293803, 220.17959262322037 87.41948791886698 C220.3101661203271 87.07492283479593, 220.44878223192697 87.03733406339371, 220.627492964758 87.00772463315126 C220.80620369758904 86.9781152029088, 221.1091792817377 87.04897743593102, 221.25185702020653 87.24183133741222" stroke="#000000" stroke-width="3px" fill="none"/></g><g><path d="M281.4084982182427 71.41546892638841 C284.89509860842765 69.52510845662097, 291.5234543347463 69.8640588897774, 295.573630363769 70.98988569546803 C299.62380639279166 72.11571250115867, 303.51889803462086 74.9984814294053, 305.7095543923789 78.17042976053223 C307.9002107501369 81.34237809165916, 308.93634254336916 86.01175960941957, 308.71756851031716 90.02157568222964 C308.49879447726516 94.0313917550397, 307.2230839751719 99.17602147075614, 304.396910194067 102.22932619739265 C301.5707364129621 105.28263092402916, 295.9287560826254 107.94226459871794, 291.7605258236879 108.34140404204872 C287.5922955647504 108.7405434853795, 282.80119484280385 107.20783672154798, 279.3875286404418 104.62416285737739 C275.9738624380798 102.0404889932068, 272.6069598106792 96.72206880446092, 271.2785286095157 92.83936085702517 C269.95009740835224 88.95665290958942, 269.48445480425084 84.90105795845633, 271.4169414334611 81.32791517276286 C273.34942806267134 77.75477238706938, 280.49544380256464 73.17295978520279, 282.8734483847772 71.40050414286432 C285.25145296698975 69.62804850052585, 285.4557740318661 70.54324816865248, 285.6849689267365 70.693181318732 M286.22788745294656 71.81153214076137 C290.12229986198145 70.48356613515601, 295.74864752395797 69.14539922740451, 299.5773641221646 70.8994067021466 C303.4060807203713 72.6534141768887, 307.51695136085743 78.52292094111681, 309.2001870421865 82.33557698921395 C310.88342272351554 86.14823303731109, 311.15887717666715 90.2203176952462, 309.67677821013893 93.77534299072943 C308.1946792436107 97.33036828621266, 304.1218665707376 101.18034067749221, 300.3075932430173 103.66572876211333 C296.49331991529704 106.15111684673445, 290.6601288485639 108.85519064110683, 286.7911382438172 108.68767149845613 C282.92214763907054 108.52015235580542, 279.65874214739864 105.6455080341663, 277.0936496145371 102.66061390620914 C274.5285570816756 99.67571977825197, 271.7355343722894 95.06364017045203, 271.40058304664825 90.77830673071317 C271.0656317210071 86.4929732909743, 272.90043328158583 80.126847935751, 275.08394166069 76.94861326777597 C277.2674500397942 73.77037859980094, 283.0313643109896 72.56067832585666, 284.5016333212734 71.70889872286297 C285.9719023315572 70.85711911986928, 283.70987510901745 71.87577559210241, 283.9055557223929 71.83793564981386" stroke="none" stroke-width="0px" fill="#FFFFFF"/><path d="M287.37650117966984 69.42214446521068 C291.163840696256 68.54652509365644, 296.81633963350305 69.26540435283997, 300.36175751940846 71.57816335264987 C303.90717540531386 73.89092235245977, 307.41253468484973 79.32335098966557, 308.6490084951021 83.29869846407004 C309.8854823053545 87.27404593847452, 309.4086364648198 91.66227008964714, 307.7806003809228 95.43024819907669 C306.15256429702583 99.19822630850624, 302.5045245123836 103.97184538869283, 298.8807919917204 105.90656712064731 C295.2570594710572 107.84128885260179, 290.22316853230075 107.82974152145066, 286.0382052569434 107.03857859080362 C281.85324198158605 106.24741566015659, 276.2927207571776 104.33562174771801, 273.7710123395764 101.1595895367651 C271.2493039219751 97.98355732581219, 270.82860226885975 92.25959915791037, 270.9079547513359 87.98238532508616 C270.9873072338121 83.70517149226194, 271.1915516442027 78.49669642694252, 274.2471272344334 75.4963065398198 C277.30270282466404 72.49591665269708, 286.5533480716199 70.84573821793896, 289.24140829271994 69.98004600234987 C291.92946851382 69.11435378676077, 290.4918852767214 70.05845112937902, 290.3754885610338 70.30215324628523 M290.0864875551118 68.99172031496434 C294.0143837080478 68.93590603714884, 299.9702872967913 72.37815334130934, 303.16617064398537 75.25391548067022 C306.36205399117944 78.12967762003109, 308.8371593309128 82.41987308393882, 309.2617876382762 86.24629315112959 C309.68641594563957 90.07271321832036, 308.02699838759384 94.79158759474925, 305.7139404881657 98.2124358838148 C303.40088258873755 101.63328417288037, 299.14192303943764 105.47173271835216, 295.3834402417075 106.771382885523 C291.62495744397734 108.07103305269383, 286.85343173974456 107.15426744585402, 283.1630437017849 106.01033688683987 C279.4726556638252 104.86640632782571, 275.581981664347 103.09578846527438, 273.2411120139493 99.90779953143807 C270.9002423635516 96.71981059760176, 268.47664102632024 91.3404060367292, 269.11782579939876 86.88240328382201 C269.7590105724773 82.42440053091482, 273.63509958614986 75.7840652218562, 277.0882206524203 73.1597830139949 C280.5413417186908 70.5355008061336, 287.7433197168672 71.5202646376723, 289.8365521970213 71.13671003665421 C291.92978467717546 70.75315543563612, 289.64944782619455 70.8499530316736, 289.6476155333451 70.85845540788634" stroke="#000000" stroke-width="3px" fill="none"/></g><g><path d="M290.8510866631916 87.28522136073201 C291.0720926680438 87.34527657742419, 289.85761831702496 88.03330426978494, 290.0586012759978 88.19356325044286 C290.2595842349706 88.35382223110079, 291.99236064214097 87.97270130860045, 292.0569844170287 88.24677524467954 C292.1216081919164 88.52084918075863, 290.8173110138042 89.53320689691799, 290.446343925324 89.83800686691745 C290.0753768368438 90.14280683691692, 289.85771657556853 90.06845639203257, 289.83118188614736 90.07557506467629 C289.8046471967262 90.08269373732, 290.64012008185557 89.83413931016241, 290.2871357887969 89.88071890277973 C289.9341514957382 89.92729849539705, 287.91005617578264 90.68010793262977, 287.71327612779544 90.35505262038016 C287.51649607980823 90.02999730813056, 288.8932176749535 88.35742952443722, 289.1064555008735 87.93038702928212 C289.31969332679347 87.50334453412701, 288.7517166002255 87.71938587416852, 288.9927030833153 87.79279764944951 C289.2336895664051 87.8662094247305, 290.4015624188316 88.3500655431127, 290.5523743994121 88.37085768096807 C290.7031863799926 88.39164981882344, 289.9484101339876 87.89171323032112, 289.89757496679835 87.91755047658171 M289.0890790079662 88.1958037676666 C289.3262477374933 87.95439384911755, 290.50699488793646 86.72030161014015, 291.1694094504939 86.691684233518 C291.83182401305135 86.66306685689585, 292.98922257617306 87.68159275059595, 293.0635663833108 88.02409950793366 C293.1379101904485 88.36660626527136, 292.1991853349604 88.14559746408813, 291.6154722933202 88.74672477754419 C291.03175925167994 89.34785209100025, 289.8044986662664 91.2458743990934, 289.56128813346936 91.63086338866998 C289.3180776006723 92.01585237824656, 290.1931826060589 91.31678603096563, 290.156209096538 91.05665871500366 C290.11923558701716 90.7965313990417, 289.48732693105353 90.40259690422378, 289.3394470763442 90.07009949289814 C289.19156722163484 89.73760208157249, 289.14026303564185 89.67247766480416, 289.26892996828195 89.06167424704977 C289.39759690092205 88.45087082929537, 290.1649570139328 86.42670481056294, 290.11144867218485 86.40527898637175 C290.0579403304369 86.38385316218057, 289.1411570173616 88.89102075105134, 288.9478799177944 88.93311930190264 C288.7546028182272 88.97521785275393, 288.5561701071274 86.82766848611638, 288.9517860747816 86.65787029147953" stroke="#000000" stroke-width="3px" fill="none"/></g></g></svg>