<svg xmlns="http://www.w3.org/2000/svg" id= 'ghost6' viewBox="0 0 800 800" fill="none" xmlns:v="https://vecta.io/nano"><path d="M88.363 48.985c4.879-3.23 7.566-7.023 19.806-19.733M89.156 49.544c4.339-5.078 8.937-9.562 18.557-20.676M89.436 55.094c5.003-6.011 9.675-11.218 22.894-25.154M89.233 55.871c7.453-8.568 15.039-16.828 22.201-25.77M91.566 60.284c6.756-9.121 13.381-17.117 22.752-26.804M91.059 60.383c5.557-5.947 10.872-12.24 23.111-26.93m-20.987 28.94c8.659-7.983 15.225-15.988 21.429-23.522m-21.158 24.4c5.442-6.991 11.588-13.126 20.955-23.983M98.465 63.374c4.649-4.241 9.466-11.031 16.125-17.218M98.873 63.271c3.901-4.801 7.726-9.875 15.41-17.699M98.556 62.66l-10.291-9.232m11.19 9.118c-3.927-2.815-7.697-5.804-11.608-9.734m13.783 7.268c-2.857-2.922-4.819-3.874-12.89-10.742m14.04 10.863c-4.046-3.455-8.286-7.117-14.092-11.276m17.221 9.039c-4.093-4.424-7.15-6.07-14.952-13.291m14.531 13.064c-4.21-3.888-7.814-6.577-14.721-12.59m17.447 8.319c-5.116-4.021-10.018-6.514-16.324-12.126m15.886 13.387c-4.935-4.706-10.003-9.405-15.25-13.627m16.956 10.389c-5.108-5.502-9.267-8.118-14.879-13.052m14.954 12.533c-5.431-5.143-10.248-9.689-15.088-13.555m16.913 8.799c-4.136-1.311-6.445-4.323-15.131-11.81m14.364 12.189c-4.724-4.373-9.281-8.383-13.899-12.344m15.581 8.506c-3.221-3.207-6.187-7.076-11.115-10.162m11.218 10.228c-2.633-2.939-5.851-5.579-12.131-10.84m12.378 5.619c-2.169-1.44-5.055-3.965-9.552-8.124m10.081 8.443l-9.848-8.638m9.906 3.678c-1.967-1.53-3.301-3.567-5.931-5.304m6.139 4.961c-2.406-1.97-4.783-3.661-6.322-4.967" stroke="#98817b" stroke-width=".5"/><path d="M112.065 31.364c-.412-1.009-.236-2.276-.99-2.257m1.31 1.449c-1.39.237-1.47-1.815-1.562.039m-.224-.996c.337-.231-1.526-.723-.863-1.137m1.296.521c-1.318.376-1.969-.992-.838-.98m-.703.887c.124-.605-1.649-.891-2.888-.786m3.771 1.434c-1.89-1.473-3.043-1.276-2.002-2.246m-1.045.607c-7.766 2.663-13.009 8.286-17.802 16.723m18.387-15.974c-8.209 2.962-14.846 8.102-16.775 15.348m-.86.035c-2.868 5.52-5.11 14.772 1.738 17.231m-2.217-16.639C87.453 50.5 84.98 57.7 92.497 62.14m-.396-.095c6.072 4.25 11.854-.827 15.587-7.189m-15.416 6.668c5.253 4.469 12.311-2.072 13.979-6.814m.548.812c3.791-6.483 6.039-15.724 4.874-23.912m-5.404 23.657c3.653-6.182 6.47-15.681 4.648-24.949m1.148 1.045" stroke="#000"/><path d="M116.573 37.763l9.28-10.612m-9.351 10.49l9.256-10.564m-10.165 17.888c3.212-4.148 6.646-7.732 14.297-16.88m-14.357 16.674c3.159-3.44 6.21-7.029 14.585-16.561m-13.634 21.546c3.695-4.098 7.17-8.153 17.267-19.753m-17.124 19.801L133.634 30.1m-18.018 26.604c6.498-7.037 13.014-14.409 21.961-24.54m-21.74 24.714l21.569-24.856m-19.909 28.986l22.933-26.331m-23.001 26.34l22.926-26.335m-21.05 30.537l23.529-27.26m-23.689 27.21l23.564-27.095m-20.486 29.538l23.495-26.865m-23.513 27.022l23.621-27.075m-20.007 28.943l22.351-25.585M125.816 69.69l22.257-25.723m-18.702 27.699l20.984-24.164m-20.898 24l21.01-24.187m-15.766 24.616L153.04 50.67m-18.441 21.3l18.329-21.252m-11.609 19.381c2.973-3.404 6.276-7.048 11.917-13.83m-11.761 13.796l11.739-13.662m-21.27 14.338c-3.224-3.226-6.818-6.069-16.438-14.804m16.521 14.547l-16.442-14.326m20.633 12.608l-21.151-18.218m21.092 18.3l-21.049-18.364m27.611 18.687l-27.234-23.549m27.102 23.538l-27.128-23.75m30.377 21.322l-29.45-25.574m29.592 25.678l-29.422-25.643m32.135 22.441l-31.765-27.249m31.732 27.374l-31.694-27.63m34.362 24.569l-33.464-28.925m33.466 28.917l-33.202-28.824m34.243 24.503l-32.417-28.114m32.529 28.224L120.024 28.18m34.034 24.713c-11.032-10.094-22.147-19.897-31.609-27.889m31.765 27.693l-31.651-27.482m29.777 20.378c-8.374-7.03-16.461-14.017-21.981-19.036m22.089 19.254l-22.082-19.139" stroke="#98817b" stroke-width=".5"/><path d="M123.355 25.289c-1.373-.332-2.815 1.209-2.537 2.343m2.672-2.543c-1.547-.016-2.904 1.431-2.921 2.614m.195-.05c.005-.044-.224.077-.472.26m.396-.228c-.03.012-.118.265-.517.233m.203.178c-.342.192-.467.538-.692 1.095m.561-1.045c-.124.317.002.765-.331 1.156m-.055-.124c-3.33 1.8-4.509 7.799-4.715 11.165m4.739-11.218c-3.346 1.834-4.553 7.768-4.815 11.396m-.025-.194c-.099.707-.221 1.796-.15 2.757m.229-2.904c-.251.977-.291 2.036-.025 2.565m-.151.197c-1.245 6.071-1.287 12.712 1.833 18.457m-1.979-18.568c-1.175 6.481-1.066 12.523 2.249 18.518m-.079.094c4.488 8.795 15.547 12.687 24.427 8.491m-24.255-8.543c4.359 8.609 15.454 12.592 24.54 8.619m-.125-.166c24.936-11.421-.981-41.335-18.332-44.398m18.336 44.34c25.23-11.496-1.166-41.051-18.311-44.277m.106-.222" stroke="#000"/><path d="M85.629 101.952c-.071.167.249.527.367.561s.277-.45.342-.355-.092.882.046.93.979-.498.78-.641-1.652-.189-1.974-.212-.084.088.042.076.443-.13.71-.148.907-.053.892.039-.779.43-.983.514-.437-.069-.239-.013m.788.851c.486.216 1.341-.314 1.225-.602s-1.69-1.053-1.924-1.128.594.385.52.681-.863.997-.966 1.098.152-.314.345-.487.487-.216.812-.553 1.172-1.478 1.142-1.468-1.222 1.079-1.323 1.529.749 1.302.715 1.17-.875-1.468-.921-1.958m-.073 4.717c.082.235-.04.512.211.726s1.309.608 1.294.559-1.293-.81-1.383-.856.629.563.847.579.43-.285.464-.486.037-.575-.26-.716-1.519-.286-1.521-.133 1.408 1.008 1.509 1.049-.924-.75-.904-.803.807.363 1.027.484m-1.618-.786c.243.297 1.05 1.005 1.425.933s.695-1.18.825-1.367-.041.161-.047.245.196.292.012.262-.748-.602-1.118-.444-.779 1.235-1.102 1.395-1.152-.353-.837-.434 2.353-.143 2.723-.052-.209.738-.503.598-1.294-1.512-1.258-1.438m.582 4.19c.121.145.178.332.17.541s-.105.543-.216.712-.321.465-.452.299-.355-1.194-.335-1.295.474.501.456.688-.325.636-.565.435-.948-1.566-.876-1.644 1.252.957 1.309 1.174-.934.286-.967.133.69-.936.769-1.051m.374 1.029c.072-.025-.691.035-.555-.198s1.379-1.173 1.375-1.197-1.228.809-1.403 1.051.383.409.354.405-.573-.286-.527-.43.684-.467.804-.432.005.821-.081.641-.175-1.493-.431-1.722-1.064.314-1.105.351.848-.465.863-.13m5.407-15.966c.069.149.044.591-.121.564s-.721-.795-.868-.725-.196.929-.013 1.148.93.221 1.111.167.02-.2-.024-.491-.03-1.052-.235-1.257-.895-.178-.994.023.158 1.241.4 1.186.997-1.535 1.057-1.519-.533 1.516-.696 1.615m.916-2.164c.154.323-1.264 1.659-1.566 1.963s-.171-.029-.245-.141-.268-.438-.202-.531.307-.011.596-.031 1.191.072 1.138-.087-1.204-.709-1.456-.867-.113-.385-.053-.081l.412 1.905c.064.437.062.908-.026.719s-.399-1.767-.502-1.854m1.035 4.015c.22.065-.028-.584.08-.513s.628.886.572.936-.838-.498-.91-.635.519-.392.477-.189-.667 1.233-.729 1.406.424-.235.356-.37-.628-.327-.768-.44-.156-.259-.073-.241.363.223.575.351.542.605.694.413m-.612.489l.693-2.432c.11-.115.116 1.7-.032 1.74s-.766-1.328-.855-1.498.193.288.32.478.411.362.445.66-.16 1.207-.241 1.133-.265-1.306-.247-1.579.223-.219.355-.061.302.74.436 1.01.707.498.372.609m-.744 2.028c.066.032.053.635.074.844s.254.488.053.408-1.23-.754-1.256-.888 1.124.101 1.098.085-.913-.118-1.253-.181-.788-.425-.788-.195.589 1.547.789 1.571.224-1.438.41-1.427.638 1.331.71 1.492-.152-.383-.282-.524m.527.678c.17-.459-.551-2.356-.582-2.594s.563.999.392 1.163-1.141-.55-1.418-.178-.411 2.123-.243 2.406 1.135-.677 1.248-.707-.223.738-.571.526-1.564-1.656-1.52-1.799 1.722.734 1.784.942-1.2.571-1.416.31-.156-1.739.119-1.875m.515 5.341c.17-.212 1.073-.432 1.233-.185s-.386 1.49-.271 1.667.988-.385.962-.605-.915-.721-1.114-.712-.119.524-.08.765.341.8.319.679-.386-1.25-.451-1.402.135.57.057.486-.589-1.051-.522-.986.787 1.214.922 1.376m.401-1.048c.323.041.675.151.426.423s-1.778 1.092-1.923 1.212.964-.512 1.053-.495-.636.688-.516.601 1.061-.85 1.231-1.127-.195-.497-.213-.537.476.394.106.296-2.408-.757-2.328-.883 2.539.039 2.813.122-1.124.451-1.174.38m-.208 2.695c-.041.043.167.808.341.946s.743-.064.703-.118-.985-.198-.943-.205.964.031 1.195.162.253.544.191.624-.528-.101-.566-.144.388.041.336-.109-.733-.561-.65-.793 1.096-.763 1.145-.6-.634 1.324-.853 1.578m.678-1.026c.01.101-1.208 1.068-1.302.885s.548-1.856.738-1.984.415.902.404 1.216-.39.739-.47.672.22-1.139-.012-1.071-1.455 1.283-1.377 1.481 1.937-.152 1.848-.296-2.11-.486-2.383-.568.42.028.749.075 1.23.324 1.225.211m.104 5.304c.19.025.524-.857.608-.934s.097.275-.105.474-.826.838-1.107.721-.519-1.443-.576-1.425.267 1.397.238 1.531-.668-.474-.413-.723 1.74-.532 1.941-.771-.515-.674-.735-.661-.539.669-.581.739.365-.37.329-.319m1.571.478c.404.098-.443-.798-.48-.502s.21 1.935.262 2.279.43-.125.051-.211-2.327.116-2.322-.302 2.259-2.229 2.351-2.202-1.584 2.353-1.801 2.36.297-1.97.496-2.319.613-.186.695.224-.331 2.358-.203 2.237.996-2.516.974-2.961m2.156-23.766c.192-.132.043.228-.039.198s-.327-.388-.457-.382-.403.341-.319.414.791-.17.822.023-.37 1.039-.634 1.135-.81-.29-.947-.558.162-1.094.124-1.046-.485 1.25-.348 1.334.896-.72 1.174-.827.601.069.493.185m-.156.828c.445-.204.473-.769.535-.707s.195 1.091-.167 1.079-1.638-.842-2.003-1.151-.385-.944-.191-.706 1.07 1.966 1.356 2.137.521-.913.357-1.112-1.261.159-1.342-.085.518-1.126.853-1.377 1.291-.389 1.162-.128-1.734 1.712-1.938 1.696m1.194 4.179c.122-.131-.749.462-.941.544s-.386-.14-.211-.055l1.259.564c.099.086-.652-.124-.666-.048s.602.515.579.502-.686-.513-.716-.578.482.057.535.186-.227.718-.221.588.421-1.315.253-1.365-1.173.947-1.265 1.069m1.205-.394c.008.328-1.249.821-1.158.831s1.503-.906 1.702-.771-.285 1.732-.509 1.582-.984-2.061-.836-2.478 1.526-.293 1.726-.022-.14 1.61-.529 1.646-1.458-1.195-1.804-1.428-.545.027-.27.027 1.781-.203 1.918-.023-.94.838-1.095 1.1m1.082 3.216c.037.137-.599-.605-.733-.668s-.168.203-.069.289.723.165.664.226-.931.11-1.019.14.426.143.491.039.051-.601-.104-.666-.915.199-.825.278 1.25.147 1.365.194-.691.315-.674.091.726-1.386.779-1.432m.607.131c.175-.22.076.664-.186.55s-1.482-1.42-1.381-1.235 2.051 1.935 1.986 2.345-2.197.078-2.377.115 1.423.367 1.294.109-1.887-1.279-2.067-1.657.942-.609.984-.612-.771.653-.728.595.721-.954.987-.94.32 1.032.611 1.023m1.631 4.359c-.088.12-.658.488-.72.501s.413-.412.351-.426-.561.342-.724.345-.328-.456-.259-.329.49.951.674 1.09.346-.166.433-.254.174-.12.084-.277-.544-.625-.625-.663.21.316.138.435-.479.513-.569.279m-.2-1.157c.058-.277-.048-.46-.033-.527s-.086-.208.121.122l1.119 1.859c.181.152-.166-.734-.034-.945s.73-.179.826-.322.126-.773-.25-.538-2.015 2.058-2.004 1.949 1.703-2.31 2.069-2.603.226.45.129.844-.591 1.309-.71 1.522m-1.509 3.85c.143.139 1.274.187 1.325.352s-.823.571-1.021.638.008-.055-.167-.236-.915-.755-.883-.847.901.328 1.075.293-.117-.56-.031-.5.572.985.548.861-.755-1.602-.69-1.607.881 1.402 1.077 1.581.164-.382.1-.509m-1.321-.511c.019.296.398.689.555.94l.392.566c.035.021.001-.281-.181-.437s-.969-.265-.912-.5 1.358-.708 1.257-.911-1.74-.508-1.868-.308.798 1.545 1.101 1.509.703-1.743.719-1.729-.57 1.774-.624 1.816.274-1.627.304-1.559m-.204 4.557c-.011.164-.029 1.224-.276 1.427s-1.232-.244-1.205-.21 1.338.367 1.363.413-1.108.08-1.217-.137.377-1.223.562-1.165.458 1.436.551 1.512.247-.877.004-1.058-1.327-.149-1.459-.026.46.795.667.764.584-.707.574-.95m.19-.542c.207-.069-.616.151-.606.04s.485-.758.666-.706.631.664.416 1.019-1.683 1.111-1.705 1.11 1.379-.809 1.573-1.116-.342-.694-.407-.727-.075.382.021.529.583.384.554.354-.67-.677-.729-.532.621 1.495.377 1.404m-.349 3.01c.114.234 1.631.639 1.742.73s-.932-.096-1.079-.186.208-.378.197-.352-.292.55-.265.508.328-.764.426-.756.276.666.164.806-.86.217-.835.036.892-1.005.986-1.119-.361.2-.425.44a2.73 2.73 0 0 0 .045 1.001m.537-1.065c.065-.142-.88.721-.979.714s.221-.779.383-.759.777.754.589.877-1.672-.012-1.72-.141 1.512-.389 1.432-.634-1.832-1.046-1.91-.837 1.327 2.005 1.443 2.091-.901-1.494-.744-1.578 1.442.766 1.683 1.079-.052.862-.235.796m3.715-27.344c-.057.058-1.214 1.61-1.057 1.632s1.971-1.356 2-1.5-1.752.374-1.825.633 1.197.723 1.39.921.052.514-.234.267-1.243-1.727-1.483-1.749-.22 1.601.042 1.614 1.532-1.501 1.534-1.538-1.542 1.328-1.522 1.315 1.36-1.104 1.642-1.392m-.374-.426c.043.174-.646 1.718-.412 1.943s1.748-.455 1.816-.596-1.096-.132-1.408-.248-.461-.499-.464-.446.399.517.447.763.145.992-.16.709-1.702-2.172-1.669-2.403 1.785.993 1.865 1.015-1.124-.734-1.385-.884-.302-.08-.18-.013M98.22 92.8c.138.01-.307 1.035-.231 1.121s.707-.564.686-.603-.499.242-.813.371-.898.44-1.069.399.107-.454.047-.647a1.66 1.66 0 0 0-.405-.512c.053.075.689.796.723.961s-.597-.002-.521.028.764.335.977.15.201-1.223.3-1.261m-1.21.927c-.157-.04.469-1.471.547-1.466s-.019 1.405-.081 1.494-.157-1-.288-.96-.405.986-.498 1.199-.19.315-.059.078.51-1.135.848-1.504 1-.75 1.179-.71-.051.498-.104.954l-.216 1.78c.019.293.25.171.327-.021m-2.052 1.571c.019.152.535.399.631.469s-.087-.169-.057-.045.196.888.237.789-.014-1.183.011-1.382.365.21.137.19-1.479-.485-1.505-.308 1.207 1.416 1.348 1.367-.462-1.533-.503-1.661.239.671.257.891-.126.393-.154.429m.732-.924c.041-.151-.132-.201-.147-.047s.196.732.058.971-.673.337-.891.465-.688.623-.42.302 2.108-2.047 2.027-2.225-2.246.818-2.513 1.153.564.954.915.857 1.009-1.235 1.191-1.438.113.117-.1.223-.88.193-1.178.414m1.491 4.971c.272-.029 1.095.093 1.209.297s-.267 1.044-.528.926-.979-1.588-1.04-1.638.694 1.108.675 1.338-.828.072-.786.044 1.068-.038 1.042-.213-1.169-.779-1.2-.84 1.029.458 1.012.472-1.069-.452-1.114-.389.722.776.845.763m1.086-2.136c-.131-.358-1.617.009-1.854.204s.161.878.431.965 1.143-.655 1.188-.439-.93 1.417-.915 1.732.953.445 1.004.157-.571-1.544-.703-1.885.24-.346-.088-.157-2.032 1.155-1.879 1.293 2.721-.432 2.799-.463-2.18.418-2.333.276m2.089 2.355c.209.04.497 1.314.494 1.361s-.377-.997-.51-1.082-.298.293-.284.572.49 1.077.364 1.098-.898-.682-1.121-.97-.176-.728-.222-.756-.114.362-.055.586.124.734.412.76 1.18-.443 1.314-.601-.331-.374-.511-.35m-.648 1.182c.198.197 1.715-1.181 1.925-1.367s-.335-.081-.663.251-1.185 1.462-1.307 1.741.455.14.576-.069.049-1.185.151-1.182.41 1.263.461 1.199-.095-1.2-.155-1.58-.398-.633-.204-.703 1.506.132 1.367.283-1.986.618-2.202.621m-.061 3.824c.264-.01.672-1.394.561-1.441s-1.313.833-1.232 1.161 1.464.903 1.72.809.098-1.273-.182-1.375-1.271.592-1.498.759.043.15.138.242.391.609.435.313-.172-1.935-.172-2.09.091.883.177 1.161.293.707.342.504m-.807-1.447c.315-.258.712-.361 1.056-.417s1.01-.08 1.005.08-.824.776-1.033.88.135-.207-.222-.256-1.899.069-1.923-.036 1.707-.883 1.777-.589-1.302 2.373-1.355 2.353.627-2.494 1.035-2.473 1.606 2.218 1.413 2.599-2.52.054-2.568-.311m1.161 3.526c.025-.206-.229-1.417-.323-1.381s-.086 1.465-.24 1.597-.548-.777-.685-.803-.359.528-.139.648 1.251.259 1.459.073-.062-1.177-.207-1.19-.649.992-.666 1.111.594-.23.565-.396-.569-.491-.739-.597-.234.061-.285-.036m1.672.427c-.039-.362-.964-1.367-1.119-1.299s.386 1.337.19 1.704-1.482.593-1.367.502 1.835-1.144 2.057-1.05-.594 1.678-.723 1.613.151-1.721-.054-2.005-1.226.288-1.176.3 1.273-.287 1.477-.226-.105.625-.254.591-.435-.711-.641-.791m5.36-25.167c-.168-.149.046.025.059.08s-.082.178.019.248.391.066.589.172.558.591.598.463-.02-1.244-.36-1.231-1.682 1.34-1.684 1.313 1.482-1.262 1.672-1.474-.444.146-.529.205-.137.25.015.15.949-.813.893-.749m-.281.316c-.285-.012-1.716 1.328-1.651 1.496s1.857-.384 2.044-.491-.798-.095-.922-.152.183-.091.177-.189-.198-.25-.212-.396.147-.603.129-.479-.08.994-.235 1.223-.469.365-.693.155-.598-1.126-.651-1.413.102-.249.331-.311m.306 5.883c.082-.181.058-.541.011-.445s-.282.92-.29 1.019.408-.239.244-.427-1.037-.785-1.227-.704-.019.996.085 1.187.41.007.535-.042.156-.095.219-.254.224-.597.155-.702-.68.086-.573.076 1.259-.323 1.216-.139m-.632-1.054c.014-.074-1.627 1.563-1.563 1.686s1.926-1 1.946-.946-1.755 1.19-1.825 1.269 1.397-.575 1.41-.795-1.399-.515-1.332-.524 1.467.234 1.738.47-.091.916-.114.944.028-.702-.02-.774-.063.113-.268.342-.991 1.197-.96 1.033m1.65 4.269c.032.232-.147.65-.122.608s.164-.802.272-.864.589.59.376.494-1.302-.964-1.654-1.073-.519.303-.455.415.72.36.84.259-.328-.887-.123-.864 1.392 1.03 1.354 1.004l-1.58-1.156c-.172-.036.395.794.55.939m-.037-1.243c.105-.266 1.328.24 1.327.68s-1.151 1.791-1.332 1.958.137-.879.251-.959.329.409.434.479.444-.145.196-.062-1.385.685-1.682.563-.153-1.249-.096-1.297.006 1.121.439 1.013 1.896-1.261 2.156-1.663-.592-.791-.593-.746m-.908 3.076c.159.086.442.246.456.395s-.498.284-.371.504 1.024.874 1.129.812-.345-1.098-.5-1.184-.338.654-.43.665.049-.606-.121-.599-.974.462-.898.641 1.219.665 1.352.435-.55-1.516-.554-1.819.455-.207.534-.003m-.847-.408c.249-.033 2.128 1.396 2.155 1.826s-1.984.748-1.989.755 1.941-.567 1.962-.713-1.443-.27-1.835-.159-.667.906-.519.824 1.348-1.071 1.41-1.317-.968-.391-1.04-.154.616 1.704.61 1.576-.742-2.102-.642-2.346 1.174.779 1.242.878m.006 3.219c.114.012.936 1.255.988 1.513s-.445.238-.673.034-.791-1.374-.696-1.258 1.277 1.655 1.268 1.957-1.015-.085-1.323-.147-.586-.139-.527-.221.751.046.878-.271-.227-1.651-.119-1.633.66 1.484.763 1.736-.019-.052-.144-.224m-.007.568c.071.374-.986-.021-.86-.394s1.531-1.691 1.62-1.842-.662.487-1.085.936-1.163 1.571-1.454 1.758-.318-.546-.288-.637.231.38.47.093 1.063-1.739.967-1.815-1.323 1.326-1.544 1.36-.196-1.265.215-1.16 2.081 1.825 2.251 1.794m-1.967 2.083c.118.151 1.416 1.595 1.58 1.647s-.364-1.098-.594-1.338-.825-.165-.789-.099.858.46 1.005.497-.109-.472-.122-.273.041 1.528.04 1.468.077-1.645-.044-1.826-.697.615-.684.737.566.135.765-.007.599-.657.43-.843m-.161-.124c-.076-.014-.445 1.133-.768 1.04s-1.174-1.527-1.174-1.6 1.016 1.006 1.174 1.165-.464-.478-.226-.212l1.652 1.806c.155.326-.395.345-.722.148s-.972-1.088-1.236-1.332-.478-.186-.35-.135 1.102.625 1.115.438-1.058-1.451-1.039-1.56m.689 4.835c.306-.227.929-.857 1.114-.72s.228 1.384-.009 1.544-1.217-.452-1.415-.584.013-.046.229-.209l1.066-.768c.025-.028-.708.339-.916.602a2.2 2.2 0 0 0-.329.974c.026.062.229-.475.484-.599s1.146-.185 1.043-.147-1.519.366-1.661.375m-.471-1.491c-.003-.11-.235.827-.169 1.013s.381.049.564.107.205.113.536.242l1.45.534c-.061-.081-1.536-.99-1.815-1.018s.219.602.139.849-.805.685-.617.631 1.494-.867 1.745-.958-.164.587-.241.408-.058-1.531-.219-1.48m5.078-24.339c.008.212-1.222 1.069-1.22 1.221s1.077-.068 1.232-.306-.282-.954-.298-1.118.295.141.197.133-.526-.334-.784-.179-.841.92-.763 1.113 1.226.277 1.228.046-1.024-1.276-1.213-1.432-.005.242.08.493.389.878.426 1.011m-.379-1.619c-.043-.195.823-.629.787-.573s-1.184.74-1.004.909 1.883.107 2.083.103-.789-.257-.886-.124.506.838.303.921-1.186-.254-1.522-.424-.529-.581-.495-.594.745.39.698.517-.922.202-.978.245.614.169.641.018m.434 5.411c-.25.218-.979-.189-.956-.328s.813-.348 1.093-.505.801-.607.585-.437-1.635 1.449-1.884 1.458.189-1.289.386-1.402.833.628.794.724-1.081-.206-1.023-.148 1.382.443 1.37.499-1.492-.154-1.44-.164 1.455.115 1.749.105m-.302.577c-.438.165-1.926-1.015-2.115-1.385s.56-1.146.98-.835 1.349 2.572 1.536 2.701-.116-1.633-.417-1.926-1.398-.077-1.39.167 1.468 1.059 1.44 1.297-1.673.544-1.608.132 2.03-2.422 2.001-2.606-1.739 1.424-2.176 1.503-.515-.958-.446-1.027m1.707 3.213c.079-.043-.056.925-.076 1.134s-.238.09-.042.12.984-.078 1.216.063.186.811.179.781-.003-.695-.219-.961-.872-.753-1.076-.636-.255 1.377-.15 1.335.747-1.485.781-1.587-.656.808-.577.975.921.098 1.051.026m-1.66-1.291c.174-.129.234 1.27.606 1.527s1.779.152 1.627.014-2.116-.781-2.54-.839-.369.599-.005.487 2.127-1.091 2.188-1.157-1.654.351-1.822.757.84 1.588.811 1.676-1.093-.845-.982-1.145 1.623-.813 1.651-.653-1.364 1.473-1.485 1.615m.121 2.886c-.027-.093.008-.982-.044-.962s-.314 1.043-.269 1.081.32-.737.542-.851.988-.066.789.168-1.884 1.221-1.981 1.235 1.275-.959 1.4-1.15-.473-.061-.646.003-.396.324-.393.38.236-.112.413-.043.465.406.651.456m-.51.292c.05-.337 1.451-2.007 1.529-2.065s-.818 1.605-1.059 1.716-.265-.943-.389-1.05-.402.185-.355.403.816.835.634.907-1.429-.63-1.724-.472-.468 1.677-.045 1.419 2.378-2.685 2.579-2.97-1.196.908-1.373 1.258.102.643.313.846m.425 3.726c.181.067 1.322-.589 1.508-.624s-.265.272-.387.415-.17.558-.347.444-.747-.93-.715-1.126.753-.246.908-.05-.042 1.009.018 1.226.574.245.341.078-1.588-1.04-1.736-1.08.618.739.847.842.44-.071.527-.227m.223-.515c.114.016.934.451 1.073.593s.189.097-.239.257-1.886.645-2.327.708-.673.109-.317-.331 2.316-2.217 2.455-2.311-1.18 1.51-1.62 1.749-1.166-.017-1.022-.316 1.875-1.209 1.885-1.476-1.67-.181-1.826-.125.511.038.892.463m1.145 5.021c.118.066-.813 1.507-.941 1.764s.188-.105.172-.221-.234-.495-.266-.473.153.69.074.604-.547-.931-.546-1.117.58-.161.554.002-.724.939-.711.974.766-.782.786-.761-.636.928-.669.882.499-1.065.472-1.156m.945.67c.153-.076-.045.438.132.41s.81-.521.931-.578.249.287-.203.236-2.232-.536-2.51-.542.491.328.842.505 1.477.658 1.264.554-2.508-.861-2.541-1.177 2.062-.847 2.344-.72-.592 1.302-.656 1.486.124-.216.272-.381m-1.791 2.546c.053.03-.24 1.263-.354 1.394s-.335-.695-.33-.608.446 1.002.358 1.129-.754-.171-.884-.37-.061-.6.103-.821.894-.482.881-.505-.841.148-.959.365.179.935.252.94.118-.96.189-.911.182 1.203.237 1.202m-.202.13c-.179.328-.551-.31-.24-.36s2.017.15 2.106.059-1.353-.395-1.572-.604.088-.537.257-.652.678-.021.755-.037-.329-.217-.291-.056.866.927.516 1.022-2.583-.484-2.616-.447 1.962.62 2.418.672.686-.155.32-.359m4.034-27.171c.096.103.258.828.42 1.077s.642.371.553.417-.862-.046-1.091-.142-.243-.449-.279-.436-.041.446.062.515.419.059.557-.096.269-.636.275-.835-.192-.484-.238-.359.076 1.152-.04 1.107-.792-1.442-.658-1.377m2.022 2.153c-.367.246-2.132.462-2.49.182s.021-1.839.342-1.863 1.444 1.411 1.581 1.72-.718.314-.761.132.712-.928.501-1.224-1.489-.391-1.768-.553.064-.453.095-.42.073.446.095.619-.152.575.038.419.66-1.273 1.105-1.352m-.751 5.069a4.22 4.22 0 0 1 .746.355c.022.042-.554-.231-.613-.103s.138.923.256.869.633-1.214.455-1.191-1.446 1.265-1.523 1.33.84-.676 1.063-.938.307-.577.274-.638-.41.033-.468.27.14 1.052.12 1.154-.228-.407-.24-.544m-.168-1.805c.322.235.927 2 .779 2.475s-1.537.527-1.671.373.801-.992.869-1.299-.407-.561-.461-.544 0 .377.134.646.4 1.158.672.965.809-2.085.959-2.121.149 1.825-.06 1.906-.802-1.237-1.192-1.42-1.287.005-1.149.321m-.106 5.495c-.022-.088 1.061-1.044 1.152-.851s-.621 1.925-.61 2.01.627-1.524.68-1.499-.356 1.46-.363 1.652.342-.258.321-.497-.396-.842-.446-.939.131.149.149.356-.035.842-.041.882.108-.397.007-.642-.437-.868-.61-.828m1.091-.949c.092-.001.681 1.771.364 2.286s-2.055.931-2.264.803.779-1.288 1.01-1.571.251-.097.379-.124.457-.19.391-.038-.819.769-.785.952 1.17.484.988.147-1.874-1.839-2.084-2.165.641-.049.826.207.055 1.057.283 1.327m.928 3.471c.01.093-1.239-.717-1.128-.615s1.571 1.028 1.794 1.223-.264.048-.456-.051a2.67 2.67 0 0 1-.7-.54c-.197-.225-.544-.942-.482-.812s.654 1.461.85 1.591.304-.512.326-.815-.141-.973-.198-1.003-.038.822-.143.827-.442-.873-.491-.798m1.571 1.435c-.168.214-1.06.68-1.38.516s-.792-1.445-.542-1.5 2.179 1.121 2.042 1.173-2.657-.796-2.862-.864 1.51.656 1.63.454-.718-1.825-.912-1.669-.348 2.553-.25 2.603.451-2.171.836-2.302 1.514 1.321 1.469 1.514-1.315-.371-1.742-.354m-.438 3.534c.329-.185 1.15-.979 1.321-1.09s-.016.311-.298.424-1.274.135-1.391.25.653.37.687.439-.598-.007-.482-.024 1.309-.111 1.18-.079-1.677.366-1.959.271.052-.79.265-.842.923.482 1.01.528-.524-.062-.489-.253m.125-.509c-.24.302-.945 1.611-.677 1.571s2.157-1.761 2.281-1.812-1.352 1.432-1.536 1.507.428-.841.436-1.054-.487-.379-.388-.225.915.977.986 1.152-.161.271-.563-.103-1.59-2.267-1.849-2.137-.049 2.728.298 2.917 1.707-1.408 1.785-1.785m.746 4.959c-.07-.039-1.033-.862-.958-.844s1.146.961 1.405.954.141-.757.15-.995.266-.551-.097-.434-2.033 1.104-2.082 1.133 1.697-1.067 1.788-.961-1.142 1.569-1.242 1.597.645-1.195.646-1.432-.613-.062-.642.013.298.254.47.435m.489-1.605c.311.026.335 2.511.294 2.571s-.321-1.973-.542-2.211-.623.464-.783.781-.091.874-.179 1.123-.585.661-.35.372l1.762-2.109c.35-.244.408.526.339.647s-.716.236-.75.079.773-1.199.546-1.022-1.82 1.998-1.907 2.082m1.493 3.841c-.16-.146-1.805-.457-1.803-.464s1.509.263 1.815.417.298.499.021.508-1.331-.247-1.683-.458-.513-.731-.426-.808.977.386.952.348-1.23-.498-1.106-.578 1.573.002 1.851.096-.234.329-.184.464.514.389.485.345m-.73.958c-.063.186-.118-1.227-.149-1.499s-.273-.395-.035-.134l1.461 1.699c.156.131-.101-.976-.525-.91s-1.585 1.201-2.016 1.302-.848-.674-.568-.695 1.762.615 2.244.569.545-.772.644-.846.172.671-.045.401-1.093-2.02-1.258-2.023m3.621-23.221c-.129.235.509.703.794.59s.906-1.218.918-1.271-.649.712-.846.949-.41.415-.335.474.803-.075.786-.124-.767-.096-.885-.171.193-.268.178-.281-.444.208-.267.199 1.377-.068 1.329-.253-1.445-.857-1.617-.853m2.14-.548c-.184.284-1.891 1.592-2.248 1.625s-.152-1.281.103-1.425 1.346.387 1.424.56-.644.487-.957.479-.737-.349-.921-.525-.483-.815-.185-.527 1.519 2.13 1.97 2.255.833-1.326.737-1.504-.958.421-1.313.434-.998-.331-.819-.355m.686 4.627c.177.257 1.092.854 1.31.79s.21-1.164.001-1.176-1.175.928-1.255 1.108.581.043.774-.028.592-.203.381-.395-1.48-.64-1.648-.754.556-.086.639.069-.14.679-.139.863.105.352.146.24-.082-.77.1-.91m.874.277c-.216-.229-1.934-.119-1.942-.275s1.546-.836 1.896-.664.462 1.513.207 1.695-1.799-.782-1.737-.603 1.852 1.638 2.109 1.679-.417-1.273-.567-1.434-.299.371-.334.468.033.135.123.111.648-.146.417-.259-1.855-.406-1.8-.418m1.125 4.583c.265-.106 1.032.105 1.026-.043s-.747-.773-1.059-.843-.808.382-.812.42.749-.276.79-.192-.489.668-.543.699.299-.57.217-.512-.721.671-.713.861.524.391.761.279.664-.905.659-.951-.769.743-.686.672m-.986-1.382c-.107-.397.579-.496 1.04-.512s1.529.19 1.731.415-.171.724-.519.936-1.306.178-1.571.336.035.483-.019.616-.552.506-.306.178 1.917-1.735 1.782-2.15-2.644-.553-2.592-.341 2.606 1.339 2.905 1.617-.977.056-1.11.054m-.033 2.85c.058-.171-.247-1.365-.407-1.562s-.713.06-.552.38 1.441 1.422 1.513 1.539-1.087-.717-1.081-.834 1.012-.011 1.116.136-.19.767-.492.749-1.155-.807-1.315-.858.175.753.351.552.555-1.562.707-1.759.341.302.207.575m.274-.939c.169.109.899 1.849.76 1.889s-1.652-1.589-1.592-1.651 2.132 1.047 1.954 1.276-2.519.149-3.024.097-.222-.345-.007-.411 1.205.043 1.294.016-.529-.362-.758-.175-.914 1.368-.616 1.294 2.417-1.465 2.404-1.739-2.119.207-2.483.091m.779 5.553c-.016.039-.035.325.127.265s.661-.574.847-.625.353.276.266.317-.612-.193-.785-.073-.086.767-.251.798-.606-.427-.742-.613-.322-.564-.072-.503 1.351.78 1.571.867-.324-.137-.252-.343.84-.937.684-.896m-.648-.1a2.11 2.11 0 0 0-1.003-.768c-.206-.047-.432.323-.235.484s1.062.469 1.419.477.617-.771.723-.429.36 2.439-.091 2.481-2.433-2.063-2.616-2.232 1.202 1.299 1.518 1.216.474-1.639.377-1.712-.924 1.298-.959 1.273.738-1.59.749-1.423m1.681 5.376c.097.304-1.424-.107-1.447-.07s1.06.313 1.306.293.442-.232.172-.415-1.435-.641-1.792-.681-.526.277-.348.439 1.112.459 1.413.532.364.173.395-.097.016-1.307-.208-1.527-1.135.154-1.138.204 1.116-.037 1.121.092m-2.009 1.57c.337.16 2.001.009 2.392-.246s.099-1.313-.044-1.28-.686 1.213-.814 1.48.152.283.045.122l-.689-1.088c.036.079.952 1.806.904 1.559s-1.114-2.986-1.191-3.042.805 2.349.726 2.707-1.198-.495-1.199-.559.752.576 1.195.178m-.536 4.169c.051.205.434.051.462.096s-.467.39-.296.177 1.365-1.494 1.321-1.456-1.239 1.601-1.586 1.684-.579-.909-.498-1.184.899-.352.989-.465-.422-.113-.452-.214.097-.538.274-.391.671 1.188.786 1.273.109-.847-.098-.763m-1.337-.285c.053.048 1.367-.099 1.76-.109s.728-.072.598.049-1.022.706-1.374.681-.938-.797-.733-.834 1.77.174 1.963.615-.728 2.04-.802 2.031.462-1.743.354-2.083-.764.181-1.002.043-.669-.707-.427-.871 1.676-.563 1.879-.111m2.135-20.956c-.077.139-1.019.107-.961.204s1.238.391 1.312.378-.899-.208-.868-.455 1.047-.93 1.051-1.027-.723.157-1.03.444-.69 1.335-.813 1.281.056-1.517.077-1.605-.055 1.155.05 1.072.225-1.587.575-1.568 1.463 1.488 1.525 1.684m-1.353-1.28c-.359.349-.984 1.524-1.002 1.772s.556-.235.896-.286.896-.135 1.142-.022.622.558.338.703-1.713.208-2.044.165.024-.06.062-.424l.166-1.759c-.068-.129-.437 1.065-.576.985s-.545-1.447-.256-1.461 1.866 1.344 1.986 1.377m.721 5.085c.297.025.252-1.074.154-1.176s-.656.394-.738.562.152.248.249.446l.335.74-.671-1.617c-.079-.124.262.826.196.871s-.414-.369-.588-.601-.662-.835-.456-.789 1.479.791 1.693 1.069-.305.655-.411.596m-1.837-.814c-.003-.015 1.751-.889 1.776-.652s-1.663 2.108-1.622 2.076 1.491-2.097 1.869-2.27.53 1.099.397 1.229-.775-.431-1.195-.445-1.44.109-1.329.36 1.676 1.39 1.996 1.151.039-2.529-.076-2.587-.472 2.075-.617 2.235-.431-1.207-.254-1.278m.837 2.756c.271-.02.007.352-.097.632s-.296 1.027-.53 1.053-.862-.713-.874-.899.77-.312.802-.216-.537.527-.61.791.127.848.169.788.163-.801.087-1.151-.438-.964-.547-.95-.148.864-.105 1.032.358-.129.359-.026m-.604-.761c.062-.227 2.643.153 2.723.482s-2.18 1.355-2.244 1.489 1.778-.566 1.859-.684-1.042.046-1.374-.022-.785-.47-.618-.387 1.43.973 1.621.889-.285-1.005-.473-1.39-.835-.852-.654-.92 1.47.149 1.741.515-.064 1.74-.114 1.684m-.547 3.196c-.188-.152-1.513.462-1.528.473s1.229-.411 1.442-.406-.051.225-.162.437-.531.609-.505.833.777.464.658.508-1.046-.154-1.373-.243-.663.024-.593-.292.965-1.474 1.012-1.607-.912.743-.727.809 1.535-.35 1.836-.412m-.895 1.472c.497-.321 1.429-1.689 1.581-1.933s-.587.423-.664.465.58-.495.197-.214l-2.496 1.903c.016.023 2.268-1.708 2.594-1.762s-.134 1.557-.636 1.438-2.487-2.133-2.377-2.15 2.664 1.97 3.037 2.046-.365-1.422-.8-1.594-1.765.633-1.811.564m.575 2.494c-.123.039.74.211.758.325s-.755.37-.652.359 1.05-.7 1.268-.424.066 1.781.038 2.078-.23-.22-.207-.295.609.153.346-.151-1.849-1.546-1.926-1.669 1.231.968 1.467.932-.153-1.217-.053-1.149.859 1.39.658 1.554m-1.829-.62c-.017-.081.653-.17.841.116s.236 1.421.288 1.6.113-.392.025-.526-.411-.396-.551-.279-.23 1.219-.287.976-.202-2.054-.051-2.431.98.155.961.173-1.104-.321-1.078-.065 1.052 1.64 1.233 1.599.107-1.525-.152-1.844m.424 4.13c-.167-.275-1.16-1.193-1.311-1.094s.373 1.619.405 1.688-.286-1.04-.212-1.27.473-.09.658-.113.465-.003.45-.029-.514-.137-.54-.128.321-.069.385.182-.008 1.254-.001 1.323.112-.721.045-.913-.408-.395-.446-.239m-.827.856c.127.026 1.405.467 1.63.468s.075-.403-.281-.464-1.627.133-1.854.097.4-.495.495-.315.259 1.525.073 1.396-1.295-1.836-1.192-2.173 1.334.266 1.812.153.946-.93 1.061-.83-.418 1.076-.374 1.428.705.586.638.682m-1.583 3.672c.132.023 1.526-.716 1.748-.748s-.175.535-.416.551-.916-.359-1.031-.459.335-.091.339-.136-.163-.289-.312-.135-.467.867-.581 1.061-.298.183-.106.102l1.257-.59c.031-.046-1.023.28-1.069.315s.731-.13.788-.107m1.291-1.575c.368.238-.23 1.387-.306 1.71s.062.241-.15.229-1.004-.413-1.123-.3.521 1.106.408.979-1.009-1.779-1.085-1.737.75 1.881.625 1.991-1.492-1.092-1.376-1.328 1.832.195 2.071-.088-.54-1.663-.633-1.611.186 1.765.07 1.923m2.734-26.551c.038-.124.998.603 1.299.844s.629.594.506.603-1.171-.541-1.241-.55.742.546.824.497-.287-.904-.335-.793.243 1.366.043 1.459-1.282-.706-1.239-.906 1.255-.17 1.497-.292-.148-.407-.049-.44.79.189.642.245m-1.926-.496c-.014.104.534.759.614.98s-.349.237-.133.346 1.443.473 1.43.309-1.097-1.391-1.507-1.291-.895 1.889-.953 1.888.401-1.714.602-1.894.659.832.601.815-1.184-.701-.948-.916 1.901-.63 2.367-.373.801 1.699.426 1.914m-1.185 3.172c-.056-.155 0-.256.058-.322s.243-.192.292-.073.138.767 0 .787-.764-.66-.828-.665.383.611.443.636-.034-.385-.086-.488-.357-.21-.226-.128l1.012.623c-.064.005-1.205-.42-1.394-.591s.077-.414.26-.434m.514 1.371c.359-.034 1.312.426 1.163.327s-1.659-.594-2.055-.917-.627-.813-.325-1.02 2.204-.62 2.14-.221-2.184 2.666-2.527 2.618.345-2.423.47-2.907-.037-.23.285.003a25.78 25.78 0 0 1 1.65 1.395c.215.221-.379.12-.36-.068s.794-.841.477-1.058m.047 4.356c.354.153.945 1.556 1.128 1.563s.239-1.484-.031-1.518-1.35 1.244-1.592 1.316.098-.897.14-.885.02.777.115.957.436.144.459.127-.232-.073-.322-.228-.368-.607-.219-.701 1.076.113 1.114.137-.825.174-.882.005m-.033-.236c.244.117.619.789.829.733s.568-1.063.432-1.073-1.212 1.006-1.248 1.013.769-.892 1.034-.971.702.409.558.498-1.082.134-1.417.033-.429-.714-.594-.64-.723 1.026-.396 1.08 2.357-.632 2.361-.755-2.278.222-2.336.015m-.472 4.539c.286-.055.76-.092.744.011s-.761.55-.844.611.411-.14.348-.243-.73-.493-.728-.377.794.978.743 1.074-.76-.323-1.05-.496-.637-.559-.688-.54.12.759.38.65 1.124-1.038 1.182-1.303-.861-.509-.837-.283m-.191-.221c-.128.264.43 1.357.81 1.4s1.541-1.367 1.47-1.144-1.7 2.323-1.897 2.478.64-1.222.71-1.547-.361-.348-.289-.402.629.11.721.073-.138-.446-.171-.291-.084 1.364-.027 1.219.656-1.98.367-2.087-1.866 1.275-2.101 1.445m2.425 4.388c-.151.221-.843.432-.726.299s1.378-.984 1.43-1.092-.909.428-1.117.444-.027-.491-.135-.35-.594 1.163-.513 1.197.766-.803 1.001-.993.343-.286.412-.15.09.855.004.965-.586-.137-.518-.307.977-.576.925-.713m-1.708-.947c.139.164 1.148.371 1.394.762s-.048 1.725.082 1.582.65-2.268.699-2.441-.277 1.239-.402 1.403.023-.404-.345-.419-1.721.474-1.861.333 1.072-1.301 1.018-1.182-1.332 1.742-1.34 1.898 1.264-.565 1.293-.961-1.104-1.643-1.118-1.415m2.327 4.687c.216.232.34.081.197-.017s-.967-.386-1.056-.576.568-.645.522-.56-.606.929-.799 1.069-.362-.332-.364-.226.221.891.353.862.377-.774.438-1.039-.056-.512-.067-.55-.026.241.001.321.304.021.163.157m.15-.016c.003.272.276 1.423.436 1.393s.446-1.54.522-1.575.138 1.149-.066 1.366-.976.116-1.157-.063.178-.894.074-1.012-.72.433-.697.303.797-.881.837-1.081-.506-.144-.599-.116-.203.164.045.289 1.503.164 1.445.461m-1.718 4.33c.135.108.196.755.399.922s.935.186.819.077-1.387-.596-1.514-.729.786-.303.752-.072-.86 1.298-.956 1.457.416-.229.377-.505-.569-1.164-.607-1.149.13 1.165.378 1.237 1.21-.77 1.107-.806-1.569.447-1.728.592m.891.717c.135-.218 1.052-2.51.998-2.503s-1.085 2.083-1.32 2.548-.292.21-.092.244 1.223-.073 1.288-.043-.853.49-.896.224.606-1.626.639-1.821-.147.404-.441.652-1.315.995-1.326.833 1.071-1.813 1.262-1.808-.299 1.878-.114 1.84m1.119 3.475c-.176.148-1.487.269-1.518.23s1.205-.263 1.328-.463-.544-.857-.59-.735.444 1.21.31 1.468-1.055.202-1.112.076.701-.595.771-.833-.257-.576-.35-.594-.411.357-.211.488 1.21.339 1.409.298-.147-.421-.212-.546m-2.042 1.229c.048-.188 2.025-1.583 2.16-1.92s-1.341-.128-1.348-.102 1.392.036 1.308.26-1.608.861-1.813 1.087.351.295.58.27.536-.385.796-.417.595.207.761.229.263-.214.23-.1-.096.889-.429.785-1.202-1.347-1.57-1.411m4.089-24.154c.375-.319 1.421-1.571 1.696-1.764s.169.484-.049.606-1.046.019-1.256.123-.098.518-.002.5.435-.511.578-.609.421.054.28.019-.948-.418-1.127-.232-.075 1.349.054 1.348.619-1.32.72-1.358-.205.938-.118 1.128m-.083.291c.19.055 1.296.042 1.437-.173s-.607-.991-.587-1.118.783.044.704.354-1.122 1.178-1.18 1.504.863.602.828.449-.817-1.183-1.037-1.368-.168.124-.282.261-.3.841-.401.56-.256-1.853-.204-2.242.42-.019.514-.09m-1.348 4.481l.589-.844c-.033.082-.918 1.247-.788 1.337s1.266-.727 1.565-.798.267.151.229.372-.279 1.052-.459.953-.57-1.288-.618-1.546.348-.173.328-.003-.547.964-.445 1.02.965-.582 1.06-.685-.453.228-.491.067m.083-.009c.399.378.825.972.938.745s-.019-1.872-.258-2.108-1.201.451-1.177.696 1.528.401 1.319.777-2.193 1.56-2.575 1.477-.078-1.559.282-1.976 1.887-.35 1.875-.527-1.669-.629-1.945-.533.237.808.286 1.11-.055.463.005.706m.992 2.786c-.061.005.59-.132.817-.196s.663-.36.544-.189-1.296 1.067-1.256 1.214 1.346-.336 1.497-.33-.538.295-.593.365.339.078.262.057-.73-.085-.721-.179.93-.397.774-.389-1.622.578-1.709.437.891-1.054 1.186-1.284m-1.306 1.6c.329-.136 2.313-.133 2.391-.066s-1.814.484-1.927.47 1.049-.459 1.251-.55-.019.259-.037.003l-.068-1.536c-.06.122-.041 1.976-.289 2.268s-1.364-.458-1.202-.519 1.922.374 2.172.156-.526-1.276-.668-1.465.081.276-.187.331m.722 4.838c-.059-.046-.366.027-.586.136s-.866.531-.737.519 1.236-.586 1.508-.591.236.714.123.563-.486-1.388-.804-1.468-.862.844-1.105.989-.523.07-.353-.123 1.278-.987 1.374-1.033-.817.601-.798.756.908.256.909.175m-.764.256c.167-.032.92-.32 1.23-.34s.662.356.631.223-.626-.803-.818-1.025-.095-.247-.332-.308-1.165-.087-1.087-.058 1.322-.036 1.56.23.243 1.294-.137 1.366-2.152-1.024-2.14-.937 1.793 1.192 2.208 1.459.316.198.28.143m-.028 3.281c.181.025.002.04.016-.052l.07-.497c.02-.115-.003-.182.05-.19s.211-.075.264.144.215 1.202.053 1.173-.879-1.212-1.021-1.347.237.492.17.533-.641-.274-.571-.288.752.289.989.205.583-.71.431-.711m-1.066-.804c.18.307 1.055 2.216 1.127 2.442s-.752-1.136-.694-1.089 1.108 1.294 1.046 1.375-1.009-.54-1.414-.89-1.065-1.242-1.019-1.212 1.299 1.22 1.295 1.396-1.11-.352-1.321-.34-.282.511.055.41 1.899-1.057 1.968-1.013-1.512 1.374-1.555 1.279m-1.896 4.623c-.093-.206.715-1.581.898-1.694s.006.815.196 1.017.989.272.942.197-1.135-.685-1.224-.648.594.737.691.872.097.011-.11-.064-1-.451-1.136-.389.172.821.318.757.378-.914.561-1.14.515-.353.539-.215m.743 1.488c-.045.035-1.634-1.836-1.87-1.88s.485 1.531.458 1.614-.527-1.304-.621-1.116-.152 2.343.058 2.244 1.172-2.384 1.202-2.84-1.048-.081-1.027.108 1.178.661 1.154 1.026-1 1.155-1.296 1.164-.431-.749-.482-1.11-.133-1.031.177-1.054m1.994 3.954c.136-.3-.298-.121-.524-.133s-.962-.306-.828.06 1.495 1.823 1.629 2.133-.617-.285-.823-.275-.201.417-.413.333-.964-.576-.856-.836 1.368-.699 1.508-.722-.704.476-.67.587.883.188.874.076-.937-.796-.931-.744m-.264-.747c-.219.042-.221.536.012.625s1.303-.211 1.39-.093-.881.769-.867.802 1.078-.512.955-.607-1.608.051-1.694.036 1.132.003 1.178-.128-.899-.542-.905-.66.742-.326.871-.047-.18 1.499-.093 1.718.767-.078.614-.406m-.158 3.021c.084.135-.239.796-.272.922s-.009.031.072-.17.178-.827.418-1.038 1.081-.215 1.022-.227-1.254.038-1.376.156.568.304.647.552.009.927-.169.936-.981-.667-.897-.88 1.254-.471 1.399-.399-.54.773-.53.831m-1.097-1.355a3.54 3.54 0 0 1 .98-.571c.131-.008-.236.492-.195.523s.53-.433.44-.336-.738.759-.979.917-.469.102-.464.03.247-.655.491-.459.735 1.285.97 1.636.326.861.437.47.54-2.579.229-2.813-2.105 1.251-2.091 1.408m5.042-28.81c.085 0-.5-.628-.653-.437s-.257 1.419-.263 1.58.313-.548.23-.613-.842.207-.728.218 1.418-.034 1.412-.153-1.344-.679-1.447-.559.723 1.19.832 1.278-.185-.564-.176-.75.187-.223.229-.365-.105-.611.02-.49m1.229 1.93c-.212.294-1.206.368-1.467.122s-.228-1.364-.103-1.594.926-.004.853.214-.983 1.28-1.292 1.097-.542-1.979-.56-2.195.184.643.452.9.937.831 1.159.643.141-1.596.172-1.767-.036.704.017.741.532-.412.298-.522m-1.254 5.586c-.036-.258 1.166-.571 1.287-.454s-.628 1.085-.559 1.16 1.054-.638.971-.712-1.256.029-1.466.271.063 1.223.209 1.178.679-1.314.664-1.446-.665.582-.756.654.161-.045.214-.224-.084-.773.103-.851 1.106.203 1.017.387m-2.228.918c.035.222 2.005.036 2.484-.193s.592-1.085.39-1.179-1.235.43-1.603.611-.487.292-.605.475-.369.554-.099.627 1.8-.009 1.722-.19-2.155-.552-2.191-.897 1.764-1.072 1.973-1.176-.335.142-.723.554-1.563 1.795-1.605 1.917m1.44 3.11c.173-.223-.28-.544-.24-.439s.572.958.485 1.069-.789-.321-1.01-.406-.365-.045-.321-.103.571-.272.585-.248-.353.182-.501.392-.477.873-.389.867.967-.837.922-.898-1.232.458-1.191.531 1.356.083 1.439-.094m-1.263-1.454c.151-.318.668-.059.88-.067s.441-.472.391.017-.815 2.506-.693 2.918 1.406-.123 1.421-.447-1.127-1.135-1.33-1.495.135-.566.113-.669-.391-.104-.246.051 1.121.797 1.117.88-.833-.342-1.137-.383-.654.249-.688.139m2.196 2.739c.22-.03.436.636.584.696s.427-.308.3-.336-.769-.01-1.058.165-.678.893-.676.885.765-.817.693-.938-1.091.21-1.128.209.9-.31.911-.215-.927.859-.844.787 1.092-1.175 1.339-1.218.292.867.145.957m-.978.02c.047-.227-.1-1.589.079-1.43s.784 2.367.996 2.389.178-2.256.281-2.256.603 2.178.332 2.251-1.777-1.803-1.958-1.81.741 1.707.873 1.765.017-1.02-.084-1.414-.656-.84-.522-.947 1.461.094 1.325.305-1.994 1.007-2.142.961m1.621 4.668c-.153.027-.831-.433-1.017-.436s-.077.338-.102.419-.213-.072-.047.07.958.774 1.042.781-.455-.679-.54-.739.206.446.031.378-1.028-.539-1.08-.788.541-.809.769-.705.426 1.21.597 1.327.599-.459.431-.625m-.008-1.242c.238-.255-.871.243-.865.402s.904.321.901.548-.951.799-.918.812 1.055-.871 1.117-.735-.589 1.329-.741 1.551-.293-.166-.171-.22.838.061.903-.105-.524-.565-.515-.889.806-.861.567-1.051-1.816-.264-1.997-.091m1.946 4.178c-.056-.115-1.012-.588-.918-.352s1.266 1.728 1.481 1.766.097-1.27-.193-1.541-1.526-.119-1.546-.088 1.434.255 1.429.276-1.454-.061-1.458-.15 1.196-.536 1.434-.388.167 1.307-.002 1.275-1.047-1.384-1.012-1.468 1.189.677 1.224.966m-.482-1.082c-.062-.154-1.121.395-1.296.569s.231.183.245.478-.561 1.224-.162 1.294 2.531-.793 2.556-.873-2.317.356-2.404.389 1.777-.244 1.88-.189-.91.582-1.265.516-1.048-.846-.869-.912 1.697.589 1.943.519-.544-.691-.468-.938m-2.087 3.794c.042.264.565.909.819.943s.91-.482.704-.739-1.874-.832-1.938-.803 1.356.733 1.555.976-.178.496-.358.479-.753-.346-.725-.582.917-.972.888-.829-1.119 1.426-1.065 1.686 1.45.052 1.39-.124-1.618-.76-1.751-.928m.423.554c.007.013-.217.499-.342.624s-.551.439-.41.127 1.233-1.842 1.258-1.999-.868.701-1.106 1.055-.651 1.28-.323 1.071 2.236-1.998 2.291-2.326-1.878-.015-1.963.359 1.112 2.013 1.455 1.883.703-2.523.604-2.667-1.081 1.644-1.202 1.805m.442 4.104c.334-.129.835.011.884-.107s-.33-.722-.595-.604-.824 1.133-.992 1.317-.191-.185-.012-.212 1.064-.001 1.088.05-.814.394-.942.257.029-.813.172-1.084.56-.633.691-.538.206 1.099.096 1.112-.682-.813-.758-1.036m1.668 1.061c.12-.018-.786.651-1.116.515s-.661-1.215-.867-1.326-.644.637-.371.657 1.733-.353 2.01-.537-.292-.757-.345-.566.426 1.802.027 1.714-2.169-1.916-2.417-2.244.619-.067.931.273.859 1.789.94 1.768-.2-1.65-.453-1.893m1.825 4.411c-.071.025-.055.548-.06.485s-.007-.928.026-.862.351.987.176 1.258-1.047.386-1.224.369-.04-.514.161-.47.975.87 1.05.731-.513-1.386-.602-1.562.156.604.069.507-.746-1.203-.592-1.09 1.476 1.668 1.513 1.765m-2.349-.348c.202.167 1.801-.273 2.212-.089s.588 1.274.255 1.192-2.33-1.523-2.251-1.684 2.724.623 2.727.72-2.222.011-2.712-.141-.401-.733-.226-.772.918.579 1.28.537.902-.505.893-.785-1.047-.749-.949-.898 1.678-.045 1.534.007m2.109-29.519c-.012.009.016-.31.146-.278s.44.341.635.469.484.107.533.295.002.694-.239.833-1.209.057-1.208 0 1.172-.404 1.217-.339-.879.712-.948.728.266-.3.535-.629l1.079-1.346c.112-.197-.247-.004-.409.164m-.393 1.398c-.298.016-1.174-.232-1.275-.274s.624-.131.669.019-.367.733-.394.879.121.047.228-.001.32-.365.412-.288-.1.66.141.75 1.105.111 1.306-.209.042-1.486-.1-1.71-.813.145-.753.366 1.101 1.082 1.112.961m-2.915 2.046c-.108-.017-.591-.677-.437-.558s1.028 1.077 1.361 1.274.715-.012.64-.089-.728-.232-1.09-.372-.886-.585-1.084-.472-.344 1.033-.107 1.152 1.537-.256 1.529-.44-1.512-.681-1.582-.663.894.735 1.164.77.398-.49.456-.556m-.468.842c.307.046.733-.95.636-.957s-.953.706-1.221.917-.428.5-.388.349.293-1.135.629-1.251 1.374.527 1.39.553-1.279-.242-1.294-.402 1.361-.605 1.205-.558-1.828.89-2.141.839.075-1.256.262-1.146.907 1.82.861 1.803m.753 4.673c.176-.148.53-1.242.567-1.165s-.316 1.383-.344 1.627.232-.148.173-.162-.317.252-.523.077-.585-1.032-.718-1.129-.11.613-.078.548.265-.876.272-.937-.231.609-.232.573.067-.803.227-.789.556.828.73.875m-1.302-1.051c-.052-.118 1.112-.562 1.339-.355s.118 1.244.023 1.595-.564.448-.593.513.237-.23.416-.124.51.853.659.759.31-1.216.231-1.323-.465.696-.705.677-.873-.455-.738-.788 1.487-1.39 1.549-1.212-1.057 1.988-1.176 2.279m-.412 2.068c.151.119-.077 1.085.073 1.295s.697.097.824-.036-.062-.678-.064-.767.362.241.053.236-1.566-.447-1.904-.265-.229 1.239-.125 1.356.661-.484.751-.652-.295-.301-.213-.358.707.111.706.013-.662-.505-.714-.601m.646-.82c.117.12-.733 1.995-.742 2.168s.743-.935.689-1.131-.935-.235-1.013-.044.288.942.544 1.189 1.152.511.987.295-1.833-1.235-1.979-1.592 1.051-.794 1.102-.555-1.062 1.597-.797 1.986 2.406.443 2.388.346-2.223-.708-2.495-.928m.512 2.462c.008.088-.014.696.176.85s.816.033.965.075.045.145-.072.175-.418.132-.627.001-.592-.587-.627-.791.306-.343.417-.43.303-.237.246-.095-.54.836-.587.944.196-.155.305-.297.297-.559.348-.553m.836 1.222c-.121.047-2.03-.448-1.912-.477s2.267.327 2.621.299-.49-.396-.498-.466.721.162.454.043-1.97-.766-2.056-.756 1.53.922 1.54.816-1.443-1.175-1.482-1.449 1.435-.454 1.246-.196-2.334 1.581-2.383 1.745 1.893-.765 2.086-.763m1.007 5.922c-.039.207-.505.395-.616.375s-.136-.321-.05-.495.513-.745.563-.547-.216 1.554-.262 1.736-.152-.373-.014-.647.866-.762.843-.998-.747-.544-.985-.417-.569 1.061-.441 1.178 1.092-.539 1.211-.474-.43.934-.499.865m-1.209.534c.081-.103.63-1.614.882-1.909s.801.04.632.141-1.7.415-1.643.465 1.979-.199 1.984-.167-1.626.313-1.955.355-.168-.146-.02-.101.75.238.91.37.183.745.048.426l-.857-2.345c-.095-.198-.161.68.288 1.158m1.339 3.568c.305.067.38 1.397.243 1.379s-.796-1.409-1.068-1.488-.441.85-.566 1.013-.243.002-.185-.036.339-.232.531-.192.652.265.624.43-.618.59-.789.557-.302-.637-.235-.75.402.028.633.074.919.264.758.198m-1.217-1.442c-.084.289.481 1.257.389 1.304s-.863-1.202-.943-1.025.252 1.922.46 2.086.507-1.045.789-1.103.76.976.899.755.33-1.986-.069-2.078-1.933 1.409-2.325 1.526-.34-.461-.027-.825 1.509-1.204 1.908-1.358.735.161.491.436m-2.485 3.431c-.073-.017.261-.1.433.076s.644.711.602.979-.594.571-.855.625-.567-.187-.714-.3-.271-.318-.165-.379.53.137.8.014.915-.55.815-.748-1.31-.537-1.411-.437.484 1.082.806 1.036 1.011-1.405 1.126-1.311m-1.044.147c-.07.198.052 1.164-.129 1.224s-.824-.636-.958-.862.06-.454.155-.492.242.15.411.267.741.086.602.433-1.206 1.397-1.437 1.65-.373.222.049-.134 2.341-1.592 2.482-2.002-1.653-.602-1.634-.459 1.846.932 1.75 1.318m-.164 4.814c-.012.004.505-.043.462-.181s-.767-.831-.719-.65 1.064 1.491 1.007 1.737-1.348-.264-1.352-.262 1.334.193 1.329.274-1.215.388-1.364.212.282-1.071.469-1.269.641.262.654.085-.597-.958-.575-1.146.746-.055.706.019m-.693-.19c-.146-.249-.738.656-.62.806s.995-.153 1.33.098.845 1.425.683 1.407-1.449-1.591-1.655-1.514.367 1.913.423 1.979-.208-1.308-.09-1.581.792-.232.799-.056-.622.877-.758 1.113.035.338-.059.3-.71-.109-.503-.526m4.929-29.466c-.171.115-1.059 1.559-1.01 1.704s1.04-.591 1.304-.832.474-.796.281-.615a23.53 23.53 0 0 0-1.441 1.699c-.126.21.838-.422.686-.44s-1.605.316-1.601.33 1.447.034 1.625-.248-.52-1.435-.561-1.445.395 1.417.318 1.381-.717-1.343-.782-1.595m1.189 1.583c.004-.281-.121-1.771-.338-1.961s-.999.537-.965.825.91.969 1.164.904.39-1.404.36-1.295-.345 1.995-.543 1.948-.699-1.893-.641-2.228 1.041-.082.985.218-1.024 1.6-1.319 1.582-.571-1.416-.45-1.688 1.042-.349 1.174.053m-.497 4.257c.034-.211-.128-.057.207.241s1.529 1.539 1.799 1.546.093-1.357-.179-1.504-1.158.538-1.457.62-.401-.312-.338-.131.502 1.17.714 1.22.571-.771.554-.918-.718.254-.653.037 1.075-1.192 1.042-1.336-1.221.327-1.238.476m.106 1.835c.321-.429.817-2.119 1.027-2.446s.205.191.236.483.104 1.293-.049 1.269-.454-1.212-.87-1.414-1.523.16-1.623.199.979.097 1.022.035-.629-.743-.767-.406-.245 2.207-.058 2.429.729-.714 1.178-1.1 1.404-1.336 1.517-1.211m-3.23 4.96c.102.111 1.16 1.426 1.461 1.783s.269.323.347.36.39-.08.121-.138-1.488.026-1.735-.211.341-1.169.25-1.213-.917.93-.796.946 1.379-.717 1.525-.847-.579-.007-.649.066.024.292.229.374 1 .263.998.118m-1.231-1.117c.051.046.948.61 1.089.891s-.193.937-.243.797-.146-1.341-.056-1.632.653-.451.594-.112-.754 1.807-.948 2.146-.303.117-.215-.108.98-1.021.739-1.247-1.873.026-2.186-.108.051-.644.308-.7 1.237.457 1.233.366m.408 3.808c.006.129-.266.376-.288.502s.018.379.159.257.738-.801.687-.991-.914-.165-.993-.15.446.186.517.239-.018.161-.092.077-.327-.687-.35-.582.009 1.186.215 1.209.908-1.007 1.019-1.073-.351.621-.357.676m.635-.569c-.115-.179-.376.059-.525.29s-.286 1.066-.367 1.097-.32-.839-.119-.91 1.135.577 1.323.483.038-.873-.196-1.048-1.223-.137-1.208-.002 1.46.735 1.301.812-1.89-.35-2.258-.35-.398.142.052.351 2.223.99 2.652.901m-.787 4.086c-.177-.038-1-1.186-1.172-1.395s.216-.06.141.145-.554.859-.593 1.086.278.391.36.276.174-.993.135-.965-.233 1.011-.372 1.131-.589-.261-.461-.412 1.045-.4 1.232-.491-.172-.018-.112-.057.394-.218.47-.178m.981.218c.053.173-1.963 1.112-2.094 1.024s1.077-1.396 1.306-1.551.227.46.072.617-.706.417-1.006.326-.722-1.066-.797-.868.209 1.756.347 2.052.422-.05.481-.275-.036-.99-.128-1.08-.306.381-.425.541-.238.604-.289.42m1.394.697c-.002.086.653.707.549.785s-.942-.362-1.169-.319-.301.292-.196.58.807.92.829 1.145-.594.226-.699.208.139-.19.069-.313-.68-.21-.487-.426 1.578-.903 1.648-.867-1.123 1.195-1.229 1.082.515-1.741.596-1.757m-1.297-.488c.26.041 1.403.443 1.539.777s-.727 1.265-.722 1.224.782-1.442.752-1.466-1.122.947-.936 1.324 1.719.916 2.051.935.399-.61-.06-.821-2.475-.158-2.695-.442 1.21-1.243 1.375-1.259-.252 1.016-.386 1.165-.701-.398-.419-.274m-.199 4.147c.255-.018 1.14-.418 1.181-.286s-.868 1.021-.935 1.076.467-.631.53-.743-.135-.127-.152.074.199 1.008.047 1.13-.706-.406-.959-.394-.484.465-.561.464-.073-.3.098-.472.881-.53.929-.558-.659.548-.639.387m1.937.424c-.128-.066-2.658-1.748-2.693-1.976s2.204.327 2.484.605-.828.738-.808 1.064 1.275.892.926.891-2.612-.617-3.021-.898.143-.769.567-.788 1.959.624 1.977.676-1.547-.315-1.872-.362-.376.209-.081.084l1.849-.832m-.63 4.492c.146-.022.178.258.305.49s.37.944.457.899.156-1.141.07-1.171-.552.769-.585.987.594.367.389.32-1.325-.362-1.62-.602-.186-.83-.152-.837.049.717.357.793 1.284-.183 1.492-.34-.182-.63-.242-.602m-.927 1.044c.186-.265 1.603-.916 1.647-.95s-1.417.76-1.384.745 1.628-1.08 1.581-.839-1.782 2.316-1.865 2.285 1.382-2.198 1.368-2.472-1.015.47-1.453.826-1.373 1.434-1.178 1.312 1.959-1.601 2.346-2.045.157-.69-.024-.619-1.118.85-1.066 1.044m4.809-25.586l.3 1.572c.1.204.35-.11.302-.345s-.315-.949-.592-1.065-.947.185-1.071.368.296.798.33.732-.218-1.01-.127-1.133.486.257.673.391.541.394.448.415-.98-.261-1.006-.286.811.231.848.139m-1.361.928c-.307.058-.282.712-.005.377s1.469-2.012 1.666-2.387-.204-.279-.48.137-1.086 2.039-1.177 2.36.578-.046.631-.429-.386-1.644-.311-1.871.694.353.764.511-.507.341-.346.435 1.143.259 1.311.13-.021-1.013-.305-.903m-.34 4.312c.243.324.583.825.412.782s-1.325-.965-1.437-1.037a6.65 6.65 0 0 0 .766.606c.091.03-.137-.559-.218-.429s-.259 1.291-.27 1.212.136-1.359.203-1.686.014-.181.202-.275 1.045-.507.929-.29-1.615 1.541-1.627 1.589 1.287-1.305 1.557-1.299m-.775-.706c.068-.029.852.92.73 1.359s-1.165 1.265-1.465 1.276-.531-1.194-.339-1.213 1.486 1.156 1.495 1.1-1.1-1.539-1.44-1.438-.65 1.76-.598 2.047.6-.006.909-.326.608-1.199.942-1.594 1.181-.767 1.065-.78-1.566.513-1.762.702m-.46 4.934c.097-.049.909-1.269 1.076-1.426s.078.274-.072.484-.841.82-.825.775.833-.991.921-1.05-.115.475-.393.698-1.309.71-1.274.64 1.454-.9 1.483-1.061-1.257.141-1.312.095.892-.304.982-.374-.596-.201-.445-.045m.824.373c-.05.291-.058.831.039.926s.367-.079.541-.355.614-1.468.506-1.299-.877 1.957-1.158 2.312-.432.184-.524-.18.088-1.707-.027-2-.726.337-.66.247.859-.625 1.055-.786-.034-.43.122-.176.974 1.536.811 1.705m.438 4.584c-.145.156-.964.422-.974.251s.693-1.32.913-1.278.377 1.279.409 1.526.001.073-.218-.041-1.002-.628-1.099-.638.416.553.517.578.048-.315.086-.427.194-.128.139-.247-.426-.574-.466-.463.044 1.207.224 1.131m1.606.26c.099-.235-1.346-2.018-1.705-2.007s-.68 2.011-.449 2.073 1.823-1.484 1.839-1.701-1.341.315-1.745.396-.667-.03-.677.09.503.823.614.633-.185-1.657.05-1.774 1.192.967 1.359 1.068-.337-.259-.354-.457.388-.955.254-.726m-1.147 5.752c.167.009.991.923 1.173.96s-.1-.545-.084-.737.212-.494.184-.418-.153.625-.357.873-.756.508-.865.613.064.186.211.02.584-1.019.67-1.014-.126 1.07-.154 1.043.169-.89-.009-1.207-1.082-.777-1.06-.693m.608 2.133c-.006.085-.811-1.829-.908-1.797s.063 2.072.325 1.989 1.174-2.242 1.243-2.49-.605.958-.829 1.001-.47-1.017-.515-.742.361 2.151.246 2.389-.855-.805-.933-.962.066.33.463.019 2.034-1.622 1.92-1.887-2.329-.16-2.604.297m.873 4.431c.263-.062 1.282 1.013 1.32 1.071s-1.051-.62-1.089-.724.83.11.861.102-.605-.372-.673-.15.148 1.207.263 1.483.489.27.428.173-.746-.649-.793-.755.324.128.51.12.771-.225.605-.166-1.337.644-1.598.518m2.316-.948c.095.36-1.909.66-2.158.79s.727.058.665-.01-1.296-.17-1.04-.399 2.376-1.194 2.575-.974-1.246 2.351-1.381 2.292.581-2.351.566-2.645-.374.688-.653.879-.948.242-1.021.268.494-.263.579-.112-.268.864-.064 1.019m.726 2.081c-.056.077-1.67.229-1.624.008s1.563-1.229 1.902-1.335.22.629.13.698-.536-.5-.671-.283-.118 1.632-.141 1.581-.046-1.613-.001-1.886.379.164.271.249-.887.309-.917.258.702-.52.739-.566-.377.111-.512.293m.339.24c.083-.222.182-.684.036-.759s-.786.107-.917.312.246.65.127.918-1.044.807-.84.688 1.74-1.187 2.066-1.401-.024-.085-.114.116-.297 1.161-.43 1.091-.408-1.355-.369-1.513.423.518.6.568.66-.131.462-.267m2.244-20.45c-.113.228.096 1.071.398 1.08s1.209-.968 1.414-1.026-.078.563-.184.683-.281-.051-.452.036-.5.504-.575.488.07-.385.124-.583.274-.644.195-.606-.628.92-.668.834.249-1.236.428-1.349.582.559.645.67m-1.903 1.5c.122-.402 1.098-2.148 1.535-2.509s1.248.265 1.088.338-1.653-.056-2.052.105-.335.684-.339.86.212.389.317.196.036-1.398.308-1.355 1.232 1.476 1.327 1.613-.731-.6-.755-.791.74-.218.611-.351-1.501-.637-1.383-.447m.488 4.518c-.143-.135-1.235.395-1.174.545s1.287.112 1.542.353.166 1.118-.013 1.096-1.021-1.2-1.061-1.226.789 1.033.822 1.073-.463-.631-.623-.829-.455-.281-.339-.362 1.001-.125 1.035-.124-.684.175-.835.132-.156-.532-.072-.386m1.51.684c-.307-.161-2.019.095-2.292-.067s.274-.966.65-.906 1.751.803 1.606 1.271-2.354 1.47-2.475 1.538 1.668-.998 1.747-1.133-1.24.308-1.274.324.903-.239 1.073-.228-.117.362-.052.291.496-.775.44-.718-.472.914-.778 1.063m1.234 1.692c.129.035.876-.327 1.091-.327s.321.033.198.328-.744 1.307-.936 1.442-.36-.362-.216-.63 1.183-.915 1.083-.978-1.424.666-1.682.596-.084-1.07.136-1.015 1.12 1.378 1.185 1.347-.782-1.406-.797-1.53.766.65.705.788m-1.438-.424c.319.126 1.827 1.852 1.82 1.795s-1.874-2.027-1.863-2.136 1.86 1.139 1.93 1.486-1.518.636-1.513.596 1.363-.457 1.542-.835-.099-1.377-.47-1.432-1.453.901-1.759 1.101-.288-.118-.077.1 1.141 1.186 1.342 1.209-.048-1.052-.134-1.07m.421 3.661c-.262.002-.949-.795-.837-.743s1.361.819 1.512 1.053-.466.4-.606.352-.355-.665-.233-.636.875.723.967.811-.193-.296-.411-.286-.95.551-.899.347 1.034-1.495 1.204-1.571-.198.931-.185 1.113.229-.112.265-.024m-.966-.741c-.211.251-.947 1.238-1.083 1.228s.107-1.042.264-1.287.535-.536.676-.184.373 2.156.171 2.296-1.49-1.385-1.38-1.456 1.692.915 2.044 1.031-.021-.185.066-.332.372-.614.457-.549.094 1.124.057.943.115-1.917-.277-2.032m-2.598 5.137c.205.076 1.134-.62 1.052-.855s-1.326-.6-1.545-.555.068.503.23.822.684.958.741 1.093-.398-.186-.398-.285.402-.217.399-.312-.271-.304-.418-.257-.564.578-.463.54.944-.559 1.074-.767-.213-.515-.298-.483m.192-.869c-.22 0-.818.438-.83.639s.878.209.757.565-1.569 1.532-1.48 1.57 1.943-.996 2.017-1.338-1.227-.592-1.571-.717-.37-.309-.494-.034-.389 1.718-.248 1.685.881-1.579 1.096-1.882.244.132.195.067-.504-.664-.49-.457m.159 6.633c-.106.172-.1.088-.065.028s.285-.175.278-.391-.52-.954-.32-.905 1.499 1.026 1.522 1.199-1.194-.121-1.382-.159.156-.12.255-.069.365.504.342.374-.551-.99-.481-1.154.839 0 .903.168-.29.773-.521.842m.682-.853c.104-.302 1.13-.37.849-.155s-2.323 1.14-2.532 1.445 1.032.767 1.281.386.141-2.355.214-2.672.449.445.221.77-1.243 1.27-1.585 1.183-.618-1.667-.466-1.708 1.08 1.464 1.377 1.461.479-1.151.401-1.476-.928-.697-.868-.469" stroke="#b31b1b" stroke-width=".5"/><path d="M82.8 112.294c.878-.557 1.631 1.862.886.063m-2.361 1.026c3.212.509 2.668-1.491 5.126-.993m-1.96 1.017c-1.442-.306.671 1.766 2.338 3.548m-1.093-2.646c-.468 1.76-1.354.902.039-.882m.257 2.005c-.895-.034.19.918 2.44.943m-1.828-.593c-1.768 1.119 1.948-1.994-1.058 1.676m1.375-1.541c2.867.14 5.384 2.286 7.999 4.567m-7.343-4.425c-.002.159 5.319 1.375 8.215 2.198m-1.423.264c3.323.466 7.687-3.829 10.934-5.048m-11.962 5.62c5.446.562 6.168-1.292 9.161-3.482m.878-.635c8.359-2.335 13.011.662 20.852 6.022m-21.916-4.644c12.108-4.405 14.043.423 20.297 4.948m2.128-.193c9.304 11.45 26.381 6.526 24.281-10.066m-23.233 10.796c7.822 10.798 23.761 3.498 22.793-9.116m.649-1.304c-.154-38.689-71.606-40.859-64.53-.398m65.462-1.572c-3.102-36.23-69.99-40.541-69.626 2.377m2.223.468" stroke="#000"/><path d="M17.733 33.885c1.904.205 3.946.006 5.941-.272m-5.731.38c1.182-.04 2.643-.201 5.625-.478m.119.088c-.546-2.034-.388-3.728-.66-5.444m.551 5.516c-.332-1.858-.309-3.807-.478-5.593m-.238-.324c2.525-.132 4.646.124 5.609-.396m-5.407.667l5.615-.325m.296-.303c-.482-1.308-.658-3.342-.74-5.645m.499 5.859c-.096-2.161-.437-4.083-.28-5.597m-7.41 20.095c1.72-.128 3.719-.057 5.911-.445m-5.727.749l5.592-.377m.185-.327c-.312-1.598-.139-3.365-.758-5.182m.772 5.294l-.573-5.538m-.21-.146c1.668.263 3.457.161 5.798-.185m-5.509.408c1.55-.236 3.327-.341 5.725-.44m-.18-.05c.218-1.032-.08-2.778-.386-5.89m.454 5.83c-.257-1.948-.246-4.328-.434-5.695m-.196.231c1.613-.36 2.958-.565 5.655-.492m-5.562.309l5.697-.349m.254.032l-.47-5.635m.372 5.62c-.263-1.22-.384-2.559-.495-5.775m.213-.003c1.123.21 2.969-.008 5.458-.285m-5.574.431c1.232-.248 2.604-.145 5.435-.415m.102.032c-.011-1.966-.393-3.421-.413-5.631m.46 5.589c-.256-2.037-.307-4.093-.406-5.733M24.775 50.522c2.261-.001 4.126-.115 5.438-.446m-5.469.592a32.44 32.44 0 0 1 5.587-.372m-.094.139c.071-1.818-.352-2.974-.183-6.06m.197 5.928l-.396-5.855m-.055.246c1.697-.501 2.793-.271 5.502-.502m-5.281.228c1.594.003 3.541-.124 5.458-.273m-.007.072c.205-2.1-.043-4.414-.392-5.635m.464 5.452c-.291-1.93-.343-3.89-.536-5.614m.356.355c2.125-.433 4.265-.712 5.306-.729m-5.606.477l5.701-.432m.258-.078c-.618-2.034-.826-3.948-.843-5.468m.481 5.444l-.277-5.59m.17.222c1.186-.159 2.756-.431 5.225-.356m-5.516.123c1.4-.085 2.57-.005 5.689-.354m.119-.028c-.417-1.682-.093-3.589-.149-5.736m.235 5.825c-.169-1.634-.492-3.357-.489-5.721m.099.17c2.174-.382 4.349-.536 5.265-.356m-5.376.272l5.49-.416m-.021-.268c-.014-1.593.035-3.67-.409-5.134m.687 5.489c-.378-1.932-.45-3.941-.634-5.691M26.672 60.562c1.822-.46 3.049-.43 5.805-.731m-5.789.536c1.14-.198 2.449-.329 5.629-.452m-.14-.174c.264-1.317-.196-3.273-.212-5.593m.405 5.856c-.186-1.884-.129-3.68-.243-5.607m.092-.184c.939.156 2.827-.359 5.307-.212m-5.656.346c1.759-.239 3.399-.215 5.689-.383m-.092.078c.125-1.938-.326-4.429-.215-5.986m.475 5.98l-.46-5.875m5.084-6.185c2.434.323 4.634.143 5.702.06m-5.491.086l5.673-.412m.18.189c-.533-1.91-.786-4.307-.562-5.438m.317 5.5c.004-1.501-.114-2.583-.432-5.645m-.155-.301c1.964.294 3.497-.325 5.738-.065m-5.588.246c1.642.001 3.235-.311 5.563-.488m-.034-.12c.164-1.53-.129-3.241-.191-5.578m.291 5.833l-.447-5.586M28.781 70.186c1.944.035 3.82-.552 5.613-.708m-5.604.666l5.734-.438m-.041-.192c-.312-1.777-.354-3.806-.166-5.198m.201 5.289l-.538-5.505m.22-.002l5.513-.198m-5.579.259l5.637-.369m-.302-.34c.333-1.873.088-3.46.077-5.591m.12 5.76l-.28-5.659m-.147.211l5.542-.467m-5.31.337c1.809-.217 3.761-.095 5.619-.329m-.359-.018c.317-2.102-.233-4.055-.311-5.958m.527 5.801c-.173-1.637-.281-3.133-.262-5.551M34.194 75.953c1.853-.185 4.043-.01 5.401-.488m-5.426.537l5.654-.134m.202.038l-.724-5.712m.436 5.471l-.167-5.586m-.159-.123c2.072.238 4.073-.145 5.967-.233m-6 .392l5.781-.343m-.297.127l.123-5.63m.145 5.313c-.226-1.61-.194-3.338-.328-5.644m8.648-9.665c2.081.019 4.08-.357 5.492-.267m-5.812.359l5.64-.566m.334-.161c-.6-1.861-.531-3.925-.616-5.598m.494 5.868l-.509-5.624m.087.059c1.087-.306 2.168-.282 5.338-.678m-5.36.499c1.82-.167 3.353-.09 5.75-.213m.091-.288c-.164-1.279-.747-3.108-.532-5.56m.279 5.803c-.008-1.506-.029-2.802-.37-5.837m.224.278c1.154-.53 2.547-.623 5.421-.519m-5.633.375c1.803-.279 3.832-.279 5.602-.536m-.038.059c-.258-1.272-.37-2.272-.378-5.533m.533 5.623l-.618-5.702M41.192 80.642c1.043.077 2.544.015 5.27-.176m-5.576.207l5.634-.479m-.002.046c-.098-1.33-.083-3.039-.471-5.557m.513 5.652c.011-2.153-.362-3.857-.479-5.656m-.024-.061l5.81-.441m-5.738.53l5.789-.459m-.251.042c-.169-1.235-.243-2.247-.477-5.87m.755 5.818c-.277-1.778-.448-3.772-.414-5.591m.146-.133c.643-.297 2.05.008 5.41-.233m-5.551.295l5.604-.422m-.13.088a47.02 47.02 0 0 1-.468-5.485m.462 5.272c.105-1.125-.222-2.546-.323-5.625m-.02.201c1.326-.41 2.306-.045 5.399-.342m-5.352.216l5.649-.23m-.136.039c-.214-1.798-.134-3.679-.511-5.824m.744 5.583l-.473-5.523m38.268-43.741c1.311-.31 2.683-.196 5.108-.513m-5.26.421c1.283.089 2.572-.089 5.38-.245m.086-.371c-.102-1.441-.057-3.465-.394-5.655m.437 5.864l-.388-5.485M48.74 83.36l5.689.02m-5.363.171c1.321.028 2.788-.076 5.418-.387m-.03-.183l-.377-5.664m.385 5.909c.148-1.456.071-2.702-.258-5.564m.002-.097c1.183-.243 2.438-.37 5.379-.294m-5.36.242l5.554-.411m.103.159c-.328-2.035-.149-4.236-.281-5.449m.175 5.316c-.006-1.284-.093-2.306-.477-5.602m52.344-60.373c2.292-.296 4.533-.066 5.915-.391m-5.745.477c1.497-.256 2.507-.361 5.853-.422m.065-.098c-.272-1.288-.358-2.513-.322-5.361m.178 5.346l-.553-5.676M50.374 93.903c2.168.276 4.286-.127 5.441-.233m-5.494.394l5.766-.321m-.308-.248l-.203-5.621m.311 5.97c-.111-1.225-.117-2.331-.129-5.812m67.858-78.187c1.247-.156 2.752-.653 5.994-.689m-5.825.467c1.22-.231 2.518-.11 5.678-.312m-.21-.306c.066-1.647-.229-3.525.092-5.52m.119 5.848l-.333-5.803M51.806 104.69c1.639-.156 3.158-.005 5.849-.259m-5.761.213l5.592-.456m.11.109c-.453-1.63-.142-3.033-.539-5.796m.375 5.737l-.455-5.649m77.625-88.896c1.484-.37 2.655-.394 5.267-.522m-5.395.524l5.77-.55m.135.02c-.195-1.268-.571-2.374-.721-5.504m.38 5.644c.041-1.962-.12-3.401-.257-5.774M54.38 113.492c1.922-.022 3.712.199 6.101-.328m-5.997.589l5.668-.404m-.162-.27c.353-1.753.094-3.79.09-5.573m.236 5.669c-.333-1.426-.194-3.189-.447-5.525m84.846-97.394c1.361.096 2.605.003 5.581-.168m-5.804.219l5.558-.45m-.064.163c.057-1.549-.338-3.375-.247-5.612m.23 5.487l-.307-5.689m2.786 8.8c1.833.257 3.823.067 5.572-.337m-5.488.527c1.378.112 2.827-.075 5.719-.312m.045-.251L157.53 7.3m.602 5.725l-.335-5.883M60.125 131.771c1.331.093 2.579.061 5.803-.465m-5.761.557c1.075-.176 2.244-.201 5.71-.581m-.223.119c-.097-1.618-.029-2.992-.045-5.521m.239 5.535c-.379-2.007-.27-3.92-.498-5.586m94.523-108.89l5.863-.141m-6.027.176c1.865-.014 3.323-.301 5.683-.372m.316-.166c-.427-.956-.397-2.238-.549-5.564m.239 5.792l-.254-5.625m1.168 10.3c1.61.212 2.912.219 5.696-.021m-5.359.149c1.561.029 2.966-.232 5.415-.257m.068.099c-.084-1.534-.407-2.665-.642-6.038m.526 5.928l-.219-5.592M68.267 159.023c1.828-.319 3.995-.461 5.633-.51m-5.582.195l5.813-.257m-.184-.049c.062-1.227.038-2.732-.31-5.35m.329 5.222c-.064-1.355-.302-2.497-.251-5.53M175.683 35.048c1.639-.396 3.542-.231 5.783-.65m-5.581.612l5.703-.372m.236.088c-.079-2.045-.522-3.788-.534-5.63m.417 5.447c-.056-.972-.351-2.239-.502-5.669M70.07 169.158c1.125.057 2.955-.119 5.189-.164m-5.385.432l5.535-.409m-.233.173c.427-2.397-.149-4.644-.041-5.913m.446 5.783c-.344-1.449-.204-2.826-.427-5.707M179.116 43.066a38.08 38.08 0 0 0 6.012-.275m-5.834.393l5.673-.41m.009.035c-.316-1.46-.235-2.901-.629-5.603m.554 5.7l-.261-5.666M74.012 176.883l5.49-.47m-5.611.328c1.206-.01 2.259.022 5.524-.247m-.143-.139c.175-1.305-.069-2.387.095-5.663m.254 5.644a34.48 34.48 0 0 1-.413-5.479M182.292 52.478c1.521-.241 3.047-.241 5.544-.597m-5.768.434c1.52.044 2.868-.159 5.599-.373m.349-.186c-.218-2.017-.731-4.385-.364-5.599m.103 5.637c-.036-1.103-.273-2.246-.497-5.417m7.503-8.5c1.882-.09 4.068.089 5.528-.493m-5.565.615c1.598-.036 3.252-.335 5.396-.423m.297.052l-.462-5.826m.389 5.862c-.281-1.457-.353-2.831-.615-5.644M72.145 190.974l5.494.005m-5.652.237c1.471-.182 3.108-.29 5.714-.318m-.274-.275c.041-1.608-.133-3.094-.353-5.249m.683 5.455c-.297-2.127-.216-4.323-.59-5.808M197.995 46.268c2.477-.027 4.15-.337 5.545-.578m-5.593.462c1.441.058 2.539.039 5.579-.221m.17 0c-.006-1.498-.17-3.265-.694-5.893m.748 5.679l-.629-5.449m-.005-.314c1.678.069 3.17.084 5.978-.166m-5.891.524c2.088-.311 3.839-.395 5.74-.463m-.078-.147c-.039-1.398-.127-2.447-.639-5.329m.644 5.568c.026-1.472-.25-2.912-.287-5.698M46.047 233.266c1.836.038 4.078-.032 5.277-.48m-5.423.576c2.054.031 4.075-.315 5.623-.406m.239.268c-.354-1.734-.314-2.797-.471-5.682m.278 5.459l-.488-5.63m.122-.131c1.847.177 3.309-.163 5.657-.468m-5.728.662l5.603-.585m-.103.074c.004-.97.08-2.45-.237-5.752m.44 5.66c.048-1.063-.19-2.269-.405-5.471M203.133 52.038l6.071-.071m-5.833.275c1.19.006 2.434-.031 5.712-.345m.139.04c-.553-1.446-.502-3.01-.59-5.795m.533 5.849c-.287-1.502-.343-3.102-.485-5.84m.18.05c1.393-.376 2.445-.452 5.258-.47m-5.407.394l5.683-.209m-.199-.268c-.042-1.13-.301-2.372-.412-5.646m.378 5.948l-.303-5.862m-.154-.165c1.841.198 3.534.174 5.814-.387m-5.517.611l5.666-.249m.141.151c-.503-1.787-.297-2.994-.515-5.869m.334 5.68c-.065-1.359-.382-2.335-.516-5.696m-.043.243c1.426-.611 3.608-.741 5.519-.557m-5.411.263c1.121-.007 2.339.011 5.584-.476m.292-.027l-.556-5.303m.344 5.361l-.504-5.504M47.417 244.175c1.73-.439 3.472-.397 5.667-.455m-5.804.325c2.017-.296 3.86-.405 5.701-.42m.033-.065l-.553-5.669m.68 5.581l-.557-5.53M179.171 92.475c2.023-.342 3.163-.327 5.482-.614m-5.347.292c1.47.058 3.306-.013 5.51-.306m-.007.14c-.03-1.891.135-3.04-.197-5.895m.205 5.646c-.167-1.644-.181-3.66-.245-5.435m26.961-30.939l5.431-.485m-5.441.49l5.557-.621m.132.306c-.191-1.174-.56-2.751-.422-6.058m.137 5.863l-.231-5.672m-.303.201c1.896-.242 3.352-.6 6.037-.758m-5.896.584l5.71-.387m.13.123c-.022-1.608-.382-3.212-.479-5.87m.356 5.772c.016-1.652-.328-3.183-.306-5.607m.228-.249c1.236.024 3.13-.246 5.178.029m-5.414.051l5.723-.268m.154.225c-.304-1.784-.304-2.644-.618-5.924m.369 5.736l-.405-5.783M53.811 248.632c1.575-.336 2.564-.272 5.892-.337m-5.615.092l5.585-.425m.226.142l-.475-5.604m.194 5.428l-.193-5.618M173.03 111.639c1.398-.266 3.691.106 5.231-.249m-5.383.307c1.741.084 3.452-.175 5.473-.416m-.033.008c.156-1.77-.067-3.01-.387-5.485m.53 5.516l-.527-5.563m.266-.006c1.436-.343 2.768-.046 5.419-.656m-5.664.812l5.739-.496m-.147.099c-.033-1.757.029-2.847-.329-5.888m.426 5.648c.064-1.742-.07-3.414-.302-5.432m-.678.864c2.401-.58 4.267-.364 5.672-.411m-5.713.259l5.76-.548m-.056-.089c-.019-1.185-.413-2.232-.312-5.299m.266 5.424l-.24-5.474m-.134-.231c2.378-.266 4.538-.281 5.824-.002m-5.892.082c2.046-.217 4.305-.143 5.674-.281m.114-.323c-.359-1.691-.526-4.061-.716-5.35m.743 5.671c-.348-1.734-.478-3.707-.524-5.82m.223.129c.828-.229 2.119-.286 5.558-.663m-5.647.498c1.357.054 2.693-.13 5.489-.355m-.093-.106c.233-1.776-.077-3.768-.229-5.194m.403 5.368c.01-1.212-.09-2.393-.381-5.626m-.011.207c1.299-.256 3.057-.348 5.482-.417m-5.612.144l5.599-.228m.158.076c.073-1.513-.023-2.328-.58-6.077m.49 5.92l-.249-5.782m-.321-.089c1.41.054 2.961.255 5.679-.352m-5.466.668c1.269-.044 2.714-.367 5.784-.368m-.314-.123c.359-1.465.24-2.291-.364-5.773m.519 5.883c-.004-1.291-.044-2.62-.48-5.678m.309.009c1.868.067 3.791-.359 5.397-.494m-5.599.52l5.784-.565m-.137-.12c-.003-1.294-.092-2.32-.459-5.316m.454 5.558l-.442-5.845m-.163-.112c1.482.036 2.69.075 6.167-.244m-5.983.468l5.841-.468m.078.312c-.152-1.746-.479-2.836-.649-6.114m.451 5.787l-.438-5.492m-.129.099c2.059-.127 3.901-.603 5.796-.37m-5.78.256l5.722-.321m.237.04c-.525-1.705-.514-3.653-.436-5.613m.38 5.432l-.633-5.543m-.056.18l5.618-.892m-5.427.753l5.546-.513m.116.024l-.506-5.457m.536 5.45l-.51-5.7m-.087-.193c1.327.421 2.886-.023 5.665-.186m-5.422.554c1.344-.255 2.974-.195 5.624-.556m-.259.259c.031-1.925-.255-3.414-.33-5.57m.368 5.497l-.172-5.771m-68.004 90.244c1.181.309 2.095-.033 5.662-.347m-5.889.618c1.43-.028 2.443-.171 5.735-.475m-.077-.145l-.446-5.434m.581 5.792l-.451-5.746m-.291.26c1.935-.434 4.147-.705 5.967-.543m-5.79.212l5.649-.406m-.188-.136c.367-.973-.085-1.92-.318-5.19m.683 5.512l-.398-5.815m14.039-16.396c1.436-.293 3.147-.125 5.731-.687m-5.442.532l5.532-.404m.366-.198c-.139-1.373-.595-3.034-.785-5.546m.435 5.837l-.319-5.664m.24-.331l5.339-.367m-5.439.675l5.611-.536m.029-.041c-.314-.946-.503-2.469-.602-5.279m.521 5.408c-.217-1.579-.216-3.329-.415-5.721m-.197.139c1.808.029 4.033-.58 5.657-.71m-5.453.79c.99-.307 2.234-.202 5.533-.516m-.16-.058c.226-1.481-.167-2.355-.272-5.626m.599 5.675l-.467-5.637m-.074-.176c1.464.023 2.696.023 5.511-.24m-5.505.494c2.068-.065 3.998-.207 5.771-.479m-.322-.074c-.137-1.534.039-3.525-.223-5.722m.413 5.912c.013-2.283-.341-4.32-.268-5.786m-.115.193c2.295-.089 4.142-.398 5.876-.754m-5.947.598c2.158-.022 4.291-.272 5.678-.52m.078.129c-.366-2.306-.613-4.204-.551-5.495m.566 5.543c-.263-1.706-.396-3.341-.507-5.844m-.156.243c2.021-.032 3.386-.456 5.715-.579m-5.603.609l5.758-.55m.006.266c-.047-2.662-.528-4.631-.448-6.026m.442 5.7l-.405-5.454m.056-.185c2.072-.259 3.547.071 5.506-.319m-5.515.514c1.136-.172 2.471-.248 5.547-.476m.307-.073l-.707-5.527m.54 5.436c-.018-1.138-.268-2.331-.494-5.376m.148-.268c1.729.257 3.144-.031 5.789-.299m-6.025.291l5.743-.327m-.047.131c.194-2.508-.05-4.202-.191-5.511m.302 5.363c-.297-1.912-.337-3.569-.306-5.691m.071-.116c1.788.025 3.871.228 5.433-.181m-5.551.404l5.684-.444m.139.038c-.354-1.332-.216-3.08-.811-5.41m.613 5.468l-.493-5.598m-.013.164c1.863-.614 4.295-.76 5.911-.897m-5.817.693c2.119-.068 4.327-.412 5.575-.509m.047.094c.052-1.982-.048-4.421-.35-5.861m.213 5.72c-.106-1.929-.022-4.031-.399-5.415M71.905 252.073l5.563-.23m-5.461.345l5.661-.502m.239.081c-.6-1.523-.502-2.88-.667-5.701m.545 5.52l-.429-5.627m83.739-96.272c1.937-.419 4.304-.732 5.846-.592m-5.557.51l5.493-.626m.145.127c-.474-2.036-.176-3.778-.558-5.674m.447 5.716c.029-1.568-.045-2.78-.265-5.804m-.19.231c1.923-.379 4.231-.309 5.853-.255m-5.785.071c1.688.004 3.432-.238 5.705-.471m-.239-.158c.103-1.764-.009-3.195-.252-5.486m.522 5.681c-.371-1.857-.279-4.008-.542-5.629m35.733-40.561c1.609-.524 4.105-.278 5.654-.691m-5.938.635l5.547-.487m.059.159l-.392-5.814m.487 5.547l-.308-5.393m-.037.089c1.581-.302 3.287-.726 5.606-.803m-5.81.479c1.501.077 2.94-.102 5.808-.367m-.009.095c.091-1.584-.209-3.423-.636-5.894m.614 5.763c.021-1.418-.352-3.106-.461-5.6m.065 0c1.098-.128 2.227-.131 5.386-.032m-5.385.228c1.556-.333 3.219-.223 5.695-.635m-.295.375c.304-2.227.2-3.954-.372-6.054m.684 5.707c-.207-1.189-.147-2.258-.499-5.482m-.056.188c2.033-.557 4.122-.507 5.622-.922m-5.612.571c2.128.016 3.974-.085 5.619-.366m-.118-.134c.005-2.167-.083-4.511-.302-5.597m.489 5.829c.084-1.476-.057-2.904-.492-5.699m8.284-8.809c1.798-.47 4.273-.478 5.18-.8m-5.373.491c1.67-.031 3.518-.238 5.635-.437m.089.381l-.764-5.701m.622 5.552l-.441-5.83m.031.037c1.469-.269 2.94-.082 5.457-.441m-5.491.581l5.58-.601m.219.1l-.631-5.368m.544 5.471c-.066-1.821-.29-3.748-.506-5.748m.249-.077c1.662.137 3.805.032 5.6-.108m-5.751.238l5.531-.398m.325.096l-.691-5.493m.407 5.504l-.39-5.841M85.82 260.577c1.231-.165 2.871-.634 5.674-.564m-5.512.426l5.723-.552m-.084.145l-.366-5.973m.537 5.761c-.269-1.165-.225-2.597-.535-5.449m.173.203c1.833-.165 4.164-.629 5.664-.469m-5.777.178c2.194-.071 4.024-.134 5.636-.476m-.238.099c-.003-1.095.277-2.438-.283-5.814m.48 5.707l-.279-5.528m-.142.041l5.634-.369m-5.647.305c2.194-.013 4.526-.296 5.824-.461m.163.372c-.585-2.206-.485-4.085-.382-5.781m.07 5.452l-.442-5.545m53.981-62.108c1.016.248 2.485-.213 5.467-.32m-5.436.583l5.488-.399m-.081-.243c.003-1.956-.308-3.934-.059-5.431m.142 5.652c.033-2.187-.236-4.647-.28-5.835m-4.462 17.192c1.933.28 3.923-.27 5.762-.312m-5.808.708l5.769-.494m.068.011l-.535-5.508m.458 5.356c-.351-1.533-.344-3.104-.394-5.44m-54.681 74.55c2.564-.193 4.29-.009 5.633-.404m-5.43.424c1.894-.02 3.618-.134 5.644-.428m.214-.226c-.254-1.065-.117-2.515-.657-5.107m.352 5.439c-.021-1.414.008-2.603-.314-5.724m3.244 8.25c2.001-.195 4.407.005 5.834-.344m-5.648.39c1.901 0 3.708-.206 5.747-.319m-.106-.252c-.319-2.138-.514-4.235-.349-5.466m.371 5.611l-.308-5.599m-.314-.273c2.242.285 3.806-.298 6.034-.12m-5.689.339l5.574-.393m.037-.133c-.33-1.569-.31-3.476-.589-5.516m.524 5.626c-.07-1.139-.264-2.444-.307-5.703m36.493-41.885c2.513-.487 4.617-.519 5.781-.759m-5.743.506l5.746-.354m-.179-.145c-.11-1.377.086-3.043-.247-5.37m.524 5.58c-.316-2.295-.284-4.44-.36-5.867m-35.346 53.006l5.463-.755m-5.509.764l5.764-.548m-.083.072c.118-1.315-.281-2.576-.617-5.732m.6 5.818c-.087-1.91-.444-4.031-.329-5.719m12.866-15.103c2.313-.119 4.492-.348 5.909-.638m-5.826.494c1.562.007 3.348-.268 5.636-.288m-.056-.104c.27-1.096.094-2.426-.527-5.377m.749 5.47l-.436-5.577m9.842-11.337c1.648.024 3.157-.103 5.575-.431m-5.575.436l5.561-.515m.244.207l-.458-5.673m.327 5.513l-.394-5.706m-32.034 49.337c.951-.193 2.358-.289 5.335-.631m-5.259.335c1.807.013 3.988-.312 5.371-.341m-.096-.114c.36-.934.259-2.677-.318-5.547m.638 5.728c-.305-1.968-.225-3.876-.345-5.566m9.862-11.457l5.229-.547m-5.516.659l5.842-.594m-.106.368c-.126-2.415-.325-4.227-.615-5.683m.569 5.302l-.292-5.585m4.494 7.033l5.817-.811m-5.633.522c2.167-.231 4.138-.238 5.793-.253m.01-.346c-.254-1.805-.717-3.706-.478-5.457m.485 5.676c-.263-1.732-.38-3.441-.546-5.517m8.019-9.313c1.689.002 3.047-.031 5.491-.403m-5.491.592c1.363-.236 2.935-.141 5.469-.49m.018-.082c-.069-1.313-.07-2.47-.535-5.237m.444 5.365c.134-1.573-.107-3.106-.358-5.637" stroke="#81613c" stroke-width=".5"/><g stroke="#000"><path d="M247.126 45.005c-2.659-9.281-11.947-11.059-16.693-5.578m17.394 5.009c-3.246-7.181-12.244-10.654-16.923-6.254m-.748.425c-1.009-4.751-2.107-7.956-7.171-9.467m7.071 9.246c-1.024-3.225-1.996-8.308-6.839-9.238m.611.315c-.452-.941.429.908-.793-.369m1.155.53c-.059.561.407-.001-.58-1.073m.183.856c.142-.152-.97.097-2.363.339m3.285-1.134c-.361 1.224-2.812 1.093-3.497 1.068m.283-.879c-.89.982-.806.75-1.518.378m1.855.367c-.833-.474-1.058-.943-.695-1.388m-.473.976c-5.462.353-7.672 4.116-9.694 8.732m10.522-9.277c-6.561 1.723-9.455 5.412-8.567 8.353m-1.059.253c-2.964-4.202-13.695-8.614-18.335-4.028m18.569 4.013c-3.214-4.101-14.221-8.234-18.35-3.743m.707.536c-3.535 3.472-.884 7.73 1.807 12.009m-2.607-11.64c-3.106 3.069.861 8.015 2.654 11.33m-.558-.352c2.785 4.473 6.413 5.266 11.726 6.022m-12.395-6.556c3.236 5.048 7.801 6.192 12.515 6.118m-.161.538c.16.14-.17.623.805.458m-.087-.36c.436-1.22.089.804.063-.873m-.639.749c-.56 8.477.594 14.975-2.979 21.212m3.234-21.091c1.094 7.982-.136 13.889-2.802 20.635m-.991.139c-3.416 5.727-8.018 8.893-14.664 10.459m13.992-10.076c-2.367 4.813-7.416 8.295-13.215 11.723m-.098-1.017c-1.509.823-4.09.308-6.382 1.346m5.803-1.749c-1.91.467-3.288 1.575-4.73 1.8m-.819.167c2.812-9.693 3.099-20.695 1.628-28.819m-2.011 29.56c2.338-10.46 3.876-21.208 3.362-30.52m-.925.215C180.78 16.144 150.58-5.256 112.25.312m74.443 54.801c-5.667-39.92-36.784-59.335-74.153-53.947m-.348-.251c-35.13 5.94-57.331 32.737-62.133 64.016M112.998.87C77.775 5.444 55.545 34.028 49.237 65.089m.085.732c-9.575-6.034-11.546-14.023-8.764-23.618m8.697 23.575c-8.806-6.618-9.941-15.142-8.908-25.563m.378 1.015c6.211 6.487 17.529.012 16.06-9.916M41.088 42.201c6.74 4.647 17.546-2.592 15.433-10.508m1.112.209c-.568-6.786-5.865-8.354-10.85-6.958m10.93 6.791c-1.486-5.422-6.466-8.602-11.98-5.879m.918-.571c.253-2.78-3.542-7.444-7.235-7.948m8.082 7.194c-2.175-2.076-3.678-5.663-6.224-7.059m-1.126-.001c-3.316-1.49-7.312 1.244-9.596 6.011m9.598-5.529c-4.055-2.176-6.606 1.8-8.378 5.081m-.53-.07c-3.925-2.811-10.675-3.754-15.148.146m14.611.36c-4.217-3.522-8.894-5.513-14.475-1.67m.857.895c-7.519 6.231-2.702 16.199 5.595 18.122m-4.879-18.987c-7.884 7.151-2.849 17.686 4.126 20.539m1.055-.905c-7.02 17.564 5.95 36.741 24.379 40.766M22.741 42.243c-6.572 16.521 6.326 36.049 24.899 39.555m.083.53c-.002-.456-.896-.301-.536.152m1.057.554c-.422.206-1.347-1.069-1.302-.3m.78-.382c.322 26.398 10.907 50.654 19.421 74.81M48.086 82.838c-1.103 26.968 10.548 49.046 18.968 73.823m-.578 1.136c7.797 21.868 3.699 38.871-10.313 58.052m11.263-57.6c6.325 21.569 3.805 39.322-11.709 57.6m.05-.496c-3.257 3.721-5.922 6.188-7.971 9.331m8.217-9.04c-2.181 3.994-4.754 6.493-6.707 9.321m-.822-.03c-.355.411-.139-.527.216.752m.715-1.546c-.884 1.341-.136.559-.493 1.488m-.456-.691c-8.155 2.387-7.228 13.877-.75 19.816m-.227-20.202c-7.025 3.02-6.062 14.305-.411 18.78m.738.713c6.78 5.231 15.091 1.692 20.638-3.699M47.84 243.31c7.993 6.573 16.689 4.113 21.528-4.237m-.114 1.118c-.884 8.293 3.253 17.39 13.335 18.036m-12.89-18.165c-1.212 9.452 3.396 16.422 12.727 17.395m.032.276c7.147.271 14.258-4.514 17.85-9.864m-17.948 10.677c6.664-.102 13.395-4.736 17.934-11.878m-.561.779c1.476 6.389 2.973 11.824 10.589 13.755m-11.276-14.105c.683 6.965 5.289 12.019 11.314 13.765m.276.164c7.872 1.88 14.606-5.754 15.401-12.791m-14.639 13.03c7.934.805 13.744-5.274 15.365-12.355m.159-.953c4.67 8.387 11.981 12.246 20.898 8.009m-21.877-7.652c4.431 7.581 14.633 11.53 21.962 8.135m.905.366c5.722-1.521 10.909-10.601 11.329-16.506m-11.632 17.005c6.789-1.994 12.084-9.215 10.784-15.958m.098-1.088c6.251 2.659 14.932 3.526 19.916-1.655m-20.01.757c5.53 5.118 15.619 4.468 18.598-2.82m1.016 1.122c7.411-9.26.75-20.233-8.349-23.735m8.3 23.845c6.636-7.469-.512-20.026-8.168-23.481m-.59-.342c.178.296-.129-1.041.096-1.035m-.705 1.949c.168-.878-.273-.953-.074-1.923m.655.944c-24.593-33.981-1.174-74.604 9.993-115.485m-9.871 115.009c-24.199-32.42-1.507-74.527 10.542-115.746m-.366 1.097c22.618 6.41 49.131-12.573 47.936-38.341M181.21 99.146c21.119 4.844 48.282-12.495 46.627-37.241m.957-.521c9.069 6.265 20.394-6.82 18.27-16.823M228.493 62.21c9.47 5.322 20.802-7.608 19.125-16.871m-69.092 46.855c.158-.548-.685.398-.642.912m1.388-1.001c-1.366.565-2.125-.106-.361 1.263m-.941-.015c-.3.569.642.075.553.794m-.412-1.03c-.422-.411-.997-.16.807.264m-.81.623c-1.39 7.981-4.358 14.956-5.947 22.396m6.375-23.047c-2.749 7.525-5.073 14.695-7.389 21.731m.723.65c-10.329 31.931-28.295 71.269-5.297 101.187m5.367-100.92c-10.325 29.77-28.93 70.387-5.933 99.623m.067.612c-.273 1.036 1.618.209.408 1.096m-1.034-.506c.392-.938.539.23 2.117.669m-.37-.457c3.567 4.178 12.915 6.136 9.858 14.724m-9.442-14.125c4.11 4.331 11.306 6.975 8.508 12.909m1.077.825c-2.799 11.99-19.646 6.079-22.007-2.91m21.088 3.059c-1.722 10.067-17.731 6.661-21.67-2.181m.153-.141c-.131-3.059-3.399-1.076-4.191 1.792m3.519-.996c.285-3.819-2.36-1.774-3.431 1.177m.67-1.026c-.298-.013.271.636 1.396.707m-2.321-1.049c1.837 1.488.419 1.812 2.511 2.013m-1.073.006c.345 1.389-.205.722-.833 2.057m1.826-2.394c-.61 1.925-1.64.924-.325 1.836m-1.051.938c4.601 6.927 4.118 17.561-6.92 19.617m7.618-19.294c5.444 7.351 2.598 16.647-6.392 18.029m-.452.591c-7.844 1.021-15.519-3.884-17.18-12.306m16.286 12.478c-7.993 2.253-14.818-4.168-16.214-13.633m-.74 1.136c.619-1.21-.476-.106.009-.181m.554.618c-.901-1.28-1.602-.586-.264-.386m-.363-.833c.653-.027-.738-.937-.891-1.494m1.735.951c-1.708.514-1.022-.413-2.075-.349m.65-.339c.415-1.164-1.626-2.048-2.7-1.339m2.94 1.909c.012-1.234-2.806-2.753-3.651-2.042m1.108.684c-1.355.94-.77-.014-1.262 2.639m1.655-2.033c-1.075.171-2.586-.44-2.655 2.177m.776-.764c.933 8.178-1.995 18.8-12.626 17.265m12.33-18.177c.599 8.593-2.091 20.772-12.99 18.359m.52-.991c-6.439-1.554-7.406-9.449-6.666-16.639m5.948 15.871c-7.167-.051-6.713-9.838-5.775-14.678m-.916-1.039c.398.189.608-.999-.219-.873m-.765.045c-.014 1.49.741-.059.273-.659m.944.58c-.427-1.363-1.963-4.411-3.701-1.923m4.696 2.539c-.244-2.45-3.902-3.341-5.241-2.095m.666-.031c-4.559 6.15-6.296 13.593-13.17 15.403m12.917-15.141c-3.642 5.584-5.85 13.168-11.954 14.908m-.943-.071c-3.092 1.442-5.498.169-9.463-1.25m10.237.982c-2.511.795-6.836.94-10.435-.58m.911.13c-6-1.995-5.621-7.361-4.811-13.117m4.458 12.948c-4.685-1.568-5.047-8.718-5.21-12.585m.723-.054c-.449-2.069-1.681-2.81-2.739-1.146m1.823 1.016c1.101-1.111-.587-.909-1.697-.631m.02-.665c-.871-.684-2.536-.359-3.328-.179m2.719.358c1.031-.823-1.378-2.479-1.987.249m.028-.892c-4.157 4.52-9.473 7.648-14.962 4.112m14.242-4.273c-3.868 4.668-10.065 5.946-14.455 2.957m-.163 1.101c-2.946-1.891-3.792-4.582-3.462-7.398m4.011 6.897c-4.543-1.224-4.466-3.176-5.197-7.706m.23.839c8.315-18.593 23.218-27.01 27.75-46.264M47.94 233.465c7.258-17.988 24.412-25.02 26.407-46.999m.402.435c2.746-17.982-5.083-33.991-9.903-48.941m9.009 49.109c3.854-18.615-4.628-32.675-9.004-49.491m-.869.213C47.026 89.49 45.89 19.775 107.943 6.615M63.218 137.44C46.463 90.951 45.926 19.64 107.627 6.913m-.273-.31c29.798-7.784 60.153 4.694 71.819 36.168M106.676 6.192c30.208-5.32 60.667 5.39 71.188 35.893m.389-.264c4.324 16.612 4.801 34.113.149 50.606m.619-51.016c4.683 17.305 3.857 34.659-.885 50.155m.39.628"/><path d="M94.977 52.257c.005-.108.031.351.142.535a2.48 2.48 0 0 0 .525.566c.121.076.127-.052.198-.113s.318-.292.226-.25-.652.478-.779.506.051-.275.017-.341-.237-.139-.221-.053.129.462.317.571.797.181.81.085-.638-.548-.732-.66m-.754-.67c.066-.307.116-1.095.601-.864s2.148 1.967 2.313 2.249-1.149-.541-1.321-.554.221.64.291.473.404-1.557.134-1.473-1.49 1.655-1.754 1.977.099-.092.171-.047.282.531.259.317-.562-1.104-.397-1.602 1.048-1.479 1.388-1.386m29.365.789c.225.191 1.09.801 1.095 1.01s-1.09.209-1.066.242 1.248.13 1.212-.045-1.101-.89-1.428-1.002-.719.244-.532.333 1.412.049 1.652.198-.219.799-.209.701.513-1.333.268-1.291-1.451 1.298-1.742 1.54-.053.04-.004-.088m-.47-1.731c-.33-.159.455.31.773.381s1-.053 1.136.042-.285.172-.321.527.006 1.555.107 1.605.366-.881.499-1.301.369-1.217.299-1.221-.364.926-.72 1.198-1.508.656-1.415.432 1.858-1.884 1.975-1.777-1.253 2.057-1.271 2.421" stroke-width="3"/></g></svg>