<svg xmlns:xlink="http://www.w3.org/1999/xlink" xmlns="http://www.w3.org/2000/svg" id="ghost4" viewBox="0 0 200 200" width="100%"  height="100%" >
		<g><path d="M31.05687807583158 42.212722049641954 C31.53183571319952 42.224422198963474, 32.187220368415915 40.983326276542506, 33.520262820536075 39.68290240190303 M30.709362559437935 42.73733936076888 C31.543084169885432 41.7975918884763, 32.12047465888029 41.03318678916348, 33.13866003178676 39.731631339685876 M35.5296203987712 36.36392355274456 C36.58726895282684 35.743423745852056, 37.33329288736528 35.01765130670756, 38.38507532904152 33.122223110929944 M36.113082132109305 36.62011706029666 C36.913727532719676 35.60336089315191, 37.76546654972778 34.22900010630465, 38.463980195748896 33.605990525653944 M41.45621857146803 30.807489442636623 C42.34451587581225 29.62535077116705, 43.2203580656188 28.325188487469408, 44.130661095548945 27.243177656951293 M41.136078338941566 30.33689985131171 C41.843123373167444 29.73893192386487, 42.70997081971114 28.70981409726573, 43.92740739003386 27.511675627569385 M26.606559699335318 52.93505572573071 C27.253061448943388 52.24749103247152, 28.356137416470588 51.50122591683656, 29.298896087718667 49.71370551157735 M26.892530990800207 52.99820164726122 C27.37900338591236 52.554630752675166, 27.929927055096456 51.685877236687745, 29.523137078471493 50.213822309473045 M31.775577425061016 47.19052096559613 C32.94913937067235 46.165386897160126, 34.26899063700605 44.78277835047677, 34.92369799331905 43.808446804312204 M32.208619420000616 47.25011120571713 C32.81686197418293 46.085383520894155, 33.59115513903646 45.4539952007806, 34.81780988429782 44.11459702969351 M37.47261329129785 41.2473726742471 C38.07622154291918 39.825925685241224, 38.61097271457358 39.229303445814395, 39.86024032616116 37.779183226292105 M37.30791194918059 41.15238496814851 C38.318954712589864 40.06089229965456, 39.11726437918674 38.762728729108424, 40.041708329819045 37.96868811164168 M42.94678443137406 34.732675707449935 C43.603055562542046 34.21694325388742, 44.41460013102396 32.86865003028911, 45.11249800054288 31.911322222781035 M42.54482783122037 34.83846907628702 C43.23078699328336 34.18001825992031, 43.73239991124942 33.903922300568766, 45.177889989740265 32.00578269724755 M47.776209726380785 29.228724445429854 C49.013896105539665 27.65172715985881, 49.64906152629222 26.636629761064523, 50.500680515639 25.623186099972123 M47.99943179677763 29.090853283120673 C48.75020354286129 28.001672864077165, 49.57711331061967 26.78551454176457, 50.24704127725524 26.097457421734674 M26.954763349293593 58.53438118655005 C28.035638357526203 57.39011841723017, 28.854632557498352 56.7127019925335, 29.946363168923806 55.50163986237584 M27.157344626204942 58.63549463425795 C27.976622616347836 57.75122872265353, 29.09954480372707 56.663591816667164, 29.777725383753523 55.739233202637614 M32.754250562090654 52.76194161586242 C33.63094196287735 52.00649014876001, 34.42807053585839 50.859143084557985, 35.467870768345364 49.39621973680726 M32.30957400251331 52.72528794615302 C33.29552592076831 51.58288748285902, 34.135482115334966 50.816778212468854, 34.88326347967604 49.827283695007665 M37.443943988001706 46.37223762404168 C38.26915062592782 45.76543286423322, 39.79181904271425 44.30206976432755, 39.99810191560384 43.54675336137112 M37.89226707619126 46.56348899544198 C38.79453436724046 45.487015111028335, 39.43791062909309 44.423782695726814, 40.20753945589202 43.68768017819423 M43.272006698509415 40.62139195264742 C43.5994411540404 39.82614083837155, 45.333380528941404 38.29090824599392, 45.75000793746403 37.619233652083174 M43.02083108730247 40.53186979480163 C43.73847390629667 40.0429608254919, 44.09370581164512 39.222668057927685, 45.53564346481188 37.50249788121733 M48.07343078579224 34.95240111682308 C48.73084629435767 34.264557206791906, 49.59532151087354 32.93028002590272, 50.59812910693597 31.302799331442305 M48.19790552350638 34.486424991888924 C49.01612557956057 33.5657522490423, 49.79833990677654 32.798048499410974, 50.94938762339357 31.673678901703983 M53.422641872373504 28.829632175322615 C54.56231579010589 27.698436688718125, 55.61219933526794 26.5066015590486, 56.2319574074479 25.596501790789123 M53.28632284664826 28.46216684545013 C54.11834750216843 27.752320947773292, 55.32937780623987 26.416333666011095, 56.11703156820382 25.543337456600376 M24.99051036457815 67.20939036062427 C26.103972569069583 66.40490042781614, 27.49748619808395 64.75190421242505, 27.95089347179417 63.998042127245164 M25.432188903442277 67.08032315845631 C26.307636194292897 65.84266135348447, 27.341698392478804 64.80476981371216, 27.801239512738082 63.829841390027696 M30.812075619093285 60.94817871153135 C31.526889664301855 59.90706687151591, 32.32634481436457 59.22861721940432, 33.070501907610726 57.74506207953983 M30.640524432792052 60.89525793159298 C31.199091536931974 60.19528995210431, 31.811060109212843 59.64156754928719, 33.146181716314516 57.820248430678845 M35.457076319504566 55.35011858920033 C36.74694856041042 53.854121831523926, 36.791520394530664 53.82130365508054, 38.22751041120365 51.67397362568844 M35.762989754951384 55.08025230680952 C36.53800297204736 54.202114996036016, 36.93899590026092 53.865788696997726, 38.268159916684475 52.020933408386284 M41.07726058774108 49.07827205909689 C42.35756839479886 47.91890470507485, 42.8799258584273 46.62990782711976, 43.97405060969195 45.89867282169604 M40.93461147349265 49.00310660480603 C42.041697858873384 47.86420713790263, 42.99668396546548 46.66631940297531, 43.83752911043734 45.72589186004719 M46.53560695092122 42.51001689042135 C47.09346548131216 42.300630939744245, 47.10391690011616 41.413868947816596, 49.188287426632805 40.05401885372401 M46.464405828019146 42.844229712588444 C47.042021570946105 41.872077093404535, 48.082637112525006 40.559304510380414, 49.01489798668871 39.70727833331366 M51.67930645491614 36.88652390407839 C52.20601354218786 36.0635887497538, 52.86613214386797 34.88978171887428, 54.552770523912464 33.746643564972416 M51.37641816452691 37.02976418236513 C51.938036226163455 35.97312418003432, 52.605207004017906 35.3922447244488, 54.11145987246668 33.69046429397777 M56.49754581181127 30.900698793887017 C57.11786877014592 30.149046874939973, 58.15535842962747 29.421657368239252, 59.05176678070904 27.764813049714512 M56.82756275436915 30.995649078900218 C57.347285286169104 30.066366253461293, 58.2507393669757 29.34620094062257, 59.45299536048196 27.954718076570927 M28.5517604771897 69.03449797288742 C29.275331245370253 68.26644820819143, 30.897865946657333 67.0537100155414, 31.460054611580173 66.18746892093246 M28.672147578517276 69.11423082046569 C29.614368903894242 68.25070063418016, 30.33381688572766 67.44568857114007, 31.281018664706618 66.24655168888042 M34.19533392944955 63.15404193894265 C34.49123634171434 62.07881088538042, 35.361423326025715 61.19124250114468, 36.190433976427194 60.54045396065495 M34.06626642495293 63.28583228571543 C34.30780565551674 62.67678779733269, 34.942570947849134 61.795628121064965, 36.38920871190985 60.35616487937395 M39.1487526118875 56.96113986921911 C40.201209198908316 56.020992305153, 40.77140901998856 55.01242151995978, 41.714749401370746 54.56724923753611 M39.203205537720514 57.344570909769416 C39.876933438732834 56.55513138325216, 40.23050900442675 55.811064401354855, 41.865548159753374 54.09398714606825 M44.17135919986925 51.02633190373275 C44.93852405163872 50.496343449997546, 45.978205379714694 49.22939435222774, 47.37451487352636 48.40296915475141 M44.558146648509656 51.17727259909203 C45.20156060112739 50.23153475572993, 46.07288435382579 49.36975222847793, 47.16478228046847 48.342284510485015 M49.89587122449115 45.2143164583762 C50.21301212824541 44.10452805321126, 50.8947147721366 43.68239319746917, 52.43494733847423 42.21518786996284 M49.73892447834 45.22358380908866 C50.43311372258201 44.14606945729405, 51.661131553069524 43.09148645645857, 52.35809460456492 41.98956557100118 M55.194297301188925 38.795211912355704 C56.114989880409546 38.353941232326676, 56.971432407165025 37.23791571983255, 57.79269505977931 35.98362647243703 M54.84989823419951 39.04041512445647 C55.5001318694709 38.2642895282056, 56.4324088647136 37.636191252758955, 57.47761897297332 36.17337621490545 M60.23134735632293 33.12939460502592 C60.69964110411965 32.199122847469035, 61.503635735503316 31.879413101018415, 63.150280689215045 30.03934200155432 M60.12275542213649 33.12882993731248 C61.1331889123123 32.110350779093395, 61.79509536938266 30.813928477939953, 62.68017294013335 30.082200991737423 M31.890791980998426 71.35321831069255 C32.42191923767148 70.63150182202247, 33.627885814271096 69.8982179968825, 34.58190547821631 68.43539003396957 M32.16261754787673 71.6196108957316 C33.03947914461004 70.28395279419503, 33.961621795028805 69.3848322552199, 34.75162568379022 68.69756187617288 M37.530455040954855 65.1216124953799 C38.41079961649588 64.06437661167209, 39.20237821006869 63.36014039466724, 39.76915255994615 62.340426277645314 M37.12550610628225 65.56816135087615 C38.048801409969734 64.68551703427745, 39.13203991885616 63.503823142525654, 39.85381073002457 62.568693279005004 M42.59958408922203 59.50477900254324 C43.230456176623406 58.74315633866263, 44.011393731414124 57.74693962539049, 44.83018811043372 56.62752227822376 M42.64815703121816 59.553650721530914 C43.259371071931355 58.42406927042948, 44.180282405941064 57.66235492094272, 45.01192953088271 56.278748936615415 M47.35365628841555 53.26477049931206 C48.83606121587365 52.53762327280228, 49.59566002890782 51.513251485611896, 50.43158703006377 50.27806472329603 M47.58429121346053 53.3542099942671 C48.54202440939505 52.55604989937775, 49.67652335302461 51.193700968817076, 50.17520186381078 50.44000561689955 M52.610341936699335 47.2142511519081 C54.15278909605713 46.23497725971375, 54.617588386843245 45.65772789249634, 55.67908723153339 44.59549323550368 M52.79737099674964 47.336264015121586 C54.15190808555122 46.453400302071586, 54.786514921310065 45.029460885731375, 55.80198090586834 44.51967853318673 M58.31283690122216 41.16091527816831 C58.85576281774789 40.80713365898386, 60.02528132575899 39.71044948323431, 60.5190088789685 38.598937638468314 M58.275712441813994 41.29730381130386 C59.36348430144277 40.31687273624894, 60.362695707694115 38.92702335884926, 60.681770531147976 38.13775755248524 M63.57070436912643 35.45119888961678 C64.38601548107782 34.19569280409304, 65.0412230905486 33.35413826580808, 66.27580722659312 32.34458298141411 M63.56121997494035 35.418787333995965 C64.05738206878063 34.6588278679874, 64.75834356288986 33.87159128328895, 65.99119008870561 32.443503822901825 M33.02345218803947 76.66352458980391 C33.63385982039005 75.28135974915278, 34.93058000749048 74.76334290918014, 35.82083287708741 73.32289860277655 M32.9088166589971 76.3602049690936 C33.912029072759275 75.46928087137596, 34.58642929335494 74.39340541516937, 35.53930724688135 73.2666524763925 M38.13742846347132 70.73478836628587 C39.46681121693602 69.33490523816705, 39.83918038702007 67.85456592153247, 41.15635030937039 67.74416691578716 M38.23179111541481 70.5819030363155 C39.43171231560741 69.22194996362207, 40.527438046744585 67.99789549648851, 40.89255934229289 67.53178983692929 M43.258156058007906 64.02298703529115 C44.262179475062986 63.74358851294188, 45.13365105678315 62.10880935680993, 46.1019716486746 61.55519295341227 M43.367777517691 64.42688402483166 C44.372347841931976 63.659122831615726, 44.990639528626026 62.82449827263078, 46.299998959200586 61.23932733012226 M49.15455879496092 58.15392288557049 C49.74889412344058 57.23618473830658, 50.80535397725603 56.34771879474017, 51.74461117393373 55.188657882726474 M48.794867597159644 58.39354763183228 C49.48963822855973 57.25849294431108, 50.47606536343569 56.334932561225145, 51.43667975640293 55.39455344386844 M54.35303693203798 52.402132283917375 C54.68766734693205 51.38231683906486, 55.37642975315699 50.43185223730777, 56.84940616410809 49.302465378463076 M54.054427499399125 52.22452776523261 C55.027168856964124 51.281290039964915, 55.81632611281057 50.23707127203862, 56.56511410716405 49.225138779938874 M59.12324687710473 46.08912002448455 C60.45519586421616 45.697729637421524, 60.683428773623675 44.57530399108901, 61.837450278835064 42.88289503279095 M59.13667208381269 46.06668398287454 C59.802797818002425 45.60239570074914, 60.502996528169916 44.78156062512583, 61.97390450059299 43.16187654930807 M64.29983162406785 39.983006494173466 C65.43656255571055 39.093704101423405, 66.41970939121403 37.62013777675768, 67.49359650391686 36.903817291999324 M64.39926036067877 40.061743389305235 C65.54443671401692 39.049408636885296, 66.3036070664169 38.07580831388121, 67.16901008528767 37.31785698280877 M69.7651455814735 34.271150624140994 C70.47890287067568 33.145944799848586, 71.07231008294188 32.15584332015163, 72.64777333724473 31.127720074856654 M69.74201792432952 34.187445090995055 C70.58194223044917 33.1851477284072, 71.37072798213731 32.338931145938815, 72.3306648686047 31.0199460396834 M35.93982388185922 79.35071739189286 C36.95957685872789 77.87069318500184, 37.96562535544382 76.79303317376126, 38.47689568929774 76.15608348712078 M36.21477386928775 78.87006433990302 C36.959071118806506 78.30987127071266, 37.563515089848515 77.0929464181629, 38.72394267680834 76.09215487216204 M41.632536344937485 72.66601289176126 C42.35002665786194 71.95391777155946, 43.64257001959584 70.70336537000779, 43.54147621189097 70.39074842432599 M41.31107137493428 73.0343213018899 C41.76732538271143 72.32744311875858, 42.434626248967966 71.89816637273391, 43.84141120404608 70.17532437149791 M46.72692535358101 66.96298270723295 C47.7404619469956 65.62298974166683, 48.08356467679994 65.3289889401584, 48.98025083579672 63.95043974234776 M46.592111054548894 66.9404262082059 C47.468356722224314 65.86807408984778, 48.69906750379754 64.70901884769407, 49.37420764216944 63.90722504035515 M51.8078491219088 61.30637364705735 C52.68719796546816 59.614581756001726, 53.353737378143514 59.103493446671344, 54.10284989065161 57.83027552208039 M51.608433097942225 60.80838383459604 C52.55421126169468 60.40281037101856, 53.05930446322219 59.45959617137005, 54.59147712034749 57.728954328811575 M57.35639894909426 54.75457799106261 C57.93217540076761 53.78511183227467, 59.03829018500352 53.364698595261665, 59.803627718726815 51.95500172104071 M57.025655439309574 54.82854065691811 C57.714413758719296 54.23631052187797, 58.27525784698192 53.58412281589057, 59.6525808126069 51.89891445383063 M62.358667908973885 49.25714190107737 C62.925458847525775 47.61963075539754, 63.70874701361603 47.44301675999288, 64.72924162958142 45.6994886154572 M62.16366541690474 48.77676173040426 C63.354063275633834 47.8373221445752, 64.1034295938308 46.5605271311716, 64.84759474192155 45.741900615655375 M67.49394360663749 42.660927862621165 C68.70043787796524 41.609726203464305, 69.20583082319376 40.727520434336924, 70.03227467044357 39.786994934259084 M67.74234969183814 42.74048979466871 C68.23504059080969 42.11681299586508, 69.19330793290261 41.08331189995854, 70.23177157836564 39.73538325632312 M73.03203106807621 36.869789470579896 C73.50592529982211 35.857446370813214, 75.04756152723225 34.49557359951662, 75.1973072715511 33.492717068572034 M72.94359207441553 36.792767352141716 C73.80785102375965 35.95346022892538, 74.53177621283294 34.59437707447035, 75.24836607069378 33.781172952774234 M39.194855177348956 81.02930449759444 C40.130972409967434 79.9784309657432, 41.846000502077715 78.91611729370396, 41.760258104442315 78.58502554498126 M39.276844395100056 81.47996983089382 C39.971492925229164 80.79355181949985, 40.69466890465055 79.83800366629072, 42.14886492103137 78.17025324384569 M44.931497859121116 75.1617302860729 C45.53192368061448 73.99267282094699, 46.634997489667974 73.1747021041003, 47.31596057964833 72.30302540644873 M44.690703021134034 75.30638392281385 C45.13199864581662 74.52024692060625, 45.84439358546188 73.70728696148427, 47.43016083752127 72.35480837636467 M50.122911205443074 69.14982357281369 C50.597568450791954 68.33253841904965, 50.832872644912946 67.68045697524225, 52.50420795375328 66.2024359235379 M49.77550081233499 69.21053830954806 C50.59478242468879 68.2575024200195, 51.44505266313166 67.60001503373819, 52.48452836229016 66.11919135408469 M55.09267913106799 62.81880899497475 C55.61767018930341 62.535261950433394, 56.286540185421224 62.12067066923456, 57.70341206738466 59.99029515802454 M55.18281739584671 63.37857553098339 C55.721568384276644 62.54603212381223, 56.66915351930013 61.70217075800702, 57.918673334353166 60.009722959089636 M60.190518254826046 57.34417313367891 C61.527152167894236 55.726017437827444, 62.095506568394484 54.71962837497494, 62.875520579540265 53.72737595418219 M60.52463817544581 57.199905278158774 C61.1310207611441 56.44704040859591, 61.66218744414299 55.633772332337344, 62.90506814171794 54.235477323908526 M65.91572705674443 51.172125348904004 C66.36969318037298 50.211769805414185, 68.08777793694495 48.64929098622388, 67.90965340846506 47.7710838870505 M65.57163023914566 51.037296057029266 C66.67939418262107 50.215933886891285, 67.29303159942806 49.19976069792924, 68.2048075644793 48.014359702242984 M70.53742640181422 44.88477463203418 C71.63941309537925 43.91519234333565, 72.66488428996635 43.181693535574325, 73.6421747360678 42.21067772103315 M70.78204476242934 45.011595643651475 C71.71063757368837 44.05991374478287, 72.58292920732111 43.34333406406322, 73.68326713519757 41.929540735133735 M76.53581724889284 38.97811664609702 C77.50495751079208 37.82895012298151, 78.06101243053546 36.80847305127949, 78.55623825465806 35.99653000442307 M76.23201289043085 38.87284686747683 C76.91467608262091 38.08010354130607, 77.43998386652444 37.56451877533667, 78.77307045381008 36.01277815234887 M43.35026780468663 82.97458877929738 C44.071830989609786 81.95629467893349, 44.9573849447319 81.08576151920188, 45.83961598198474 80.47500332764966 M42.948213730963715 83.31479478183422 C44.21884355440017 81.91663645106217, 45.11683446251925 81.03701289756687, 45.771957428199364 80.03305386095253 M48.68550514901222 77.36958714632603 C49.3711582559326 76.08146525190058, 49.63766262814728 75.53177325363205, 50.92889053813109 74.29215821279236 M48.395358037113155 77.0169563488587 C49.18765744589342 76.13914504850761, 49.535901990297965 75.50910613107861, 51.039822388404964 73.92304305577282 M53.637180975248846 70.70886894356691 C54.3285158627465 70.12071149703229, 54.787330002645355 69.06775053057856, 56.28584694422028 68.25220893643599 M53.67706655203422 70.89619499164732 C54.11664947312737 70.13924864953813, 54.820563555528665 69.70753281916916, 56.3272351697806 67.9092355140161 M59.02668996664278 64.95953336991059 C59.756874581792616 63.778430352292155, 60.61207064281623 63.21705851512712, 61.835311823542064 62.41051712702696 M58.64879284306061 65.14552490066913 C59.626466538933876 63.87320605545967, 60.787851962567174 62.86069822470888, 61.5779353174465 62.00667057244111 M63.76800620052974 59.23319391815159 C64.93882599641357 58.171495779755276, 65.77768009083474 56.985225182145065, 66.83565134616656 56.26781920113164 M64.01123672747826 59.0434030482455 C64.80418171846216 58.313977962850544, 65.09546935599316 57.908817843167384, 66.58468713561992 56.19070190353679 M69.27507567467318 53.2891825113517 C69.84362059520171 52.11263695744908, 70.69802774988044 50.89116616067241, 72.02398702019718 50.137620738958326 M69.51701468814905 53.07217836382928 C70.15175103233035 52.17994166073799, 70.85726015536058 51.178086086379956, 71.89981038832234 49.77377363350884 M74.64987403019377 46.69636379649689 C75.12759015470509 46.41092488535339, 76.51542420964451 45.47775922996384, 76.82878470796534 43.86942825468779 M74.48970538725213 46.821368228845564 C75.27471017132493 45.82041895519951, 76.330407314742 45.028616954489785, 77.12459945651717 44.07454100863513 M80.17269714951017 40.75850677859808 C80.35546333922262 40.15987026193225, 81.63473585979767 38.809542704114016, 82.3788735697765 37.93100106975054 M79.69905052725093 40.70812205748864 C80.8812609241992 39.678607192895655, 81.52169175183802 38.70143741360437, 82.53266968923563 37.81386183717972 M46.123686915199954 85.59380198565636 C47.03873298832681 84.19175576922481, 47.994393609894004 83.22437222163649, 49.27215909263878 82.37024067513767 M46.32157675883365 85.40322499461391 C47.49388457651832 84.17919446067658, 48.17113078680534 83.01474224769174, 48.939805204569616 82.47073115075275 M51.56821870088855 79.62173647855333 C52.81294695003927 78.35258693985436, 53.37333672555357 77.11547330907953, 53.92875351825435 76.5935645550372 M51.8655767609789 79.44030995849079 C52.5639956501892 78.47830603295499, 53.22655051353148 77.80306052919595, 54.323188709829736 76.42696930720037 M56.68665970535586 73.39707224007533 C57.81940431853369 72.77861142858843, 58.32244241853971 71.51946826622219, 59.861851788466545 70.01787447740817 M56.95600230577601 73.27468608163355 C57.63231194178045 72.40746399604276, 58.457002676695375 71.64230964925972, 59.46555181546374 70.31844126461235 M61.812926522855776 67.28088847443968 C63.114827968304546 66.26610155882943, 63.30341343126496 65.7323197762131, 65.05043880707177 64.13749986428256 M62.261259148208204 67.37291904338856 C62.90965257234523 66.40605057718328, 64.00177702351566 65.39070092408527, 64.79153292849794 64.45384188941301 M67.77256838564003 60.88778591463178 C68.50786507817072 60.542888950457986, 68.9614777748509 59.39170285423194, 69.80573795720474 58.13117559087669 M67.46948562166952 61.309343339250525 C68.2967308849503 60.4399706109902, 69.0799506950298 59.18063936108611, 70.11458625727248 58.431585113285635 M72.79388259677242 54.85963415332984 C73.2858263576086 54.62741910685807, 73.5955258274348 53.6900245738457, 75.22644312174873 51.84402696045855 M72.74617224116712 55.225007689472655 C73.23559015851126 54.61956088247711, 73.77726929835454 53.76650005389115, 75.4249531796696 52.025791689097815 M77.99774645339664 49.4010407395351 C78.55654712607564 48.60196414467878, 79.50023847943307 47.35521007064135, 80.27561019928378 46.200024937413545 M78.0193405253875 49.22956934279128 C78.59450105373382 48.5085301718677, 78.96688682821893 48.05956470126435, 80.5523938716179 46.14492520380888 M82.81675409574058 43.079129810338145 C84.11467350295077 42.34451941538143, 85.12216392264058 40.95834516675454, 85.56904625352782 40.26780754044367 M83.3088982486025 43.31762587244174 C83.70841955114896 42.35426161417358, 84.45293595283368 41.628551570086856, 85.79326150477053 40.14822925379418 M52.782451268435224 84.63259594520208 C53.215334004700594 83.82215218139797, 53.59105830316236 82.84258502067279, 55.03399425555421 81.22972206430411 M52.61668985566575 84.40141782961132 C53.378919366438 83.37095007384477, 53.98227351620262 82.46577120046942, 55.531048192795 81.18102410970661 M57.70548601919478 78.58709701006005 C58.47221630628274 77.6052938731332, 60.028540378500956 76.22615596953601, 60.98543488124987 74.89563264053021 M58.141914377034624 78.18646890063282 C58.76233461586644 77.34531983548197, 59.233917026361745 77.0047337951009, 60.75383090905862 75.34297970023084 M63.21578731795763 71.82402719342741 C64.13103257139477 71.54883509630764, 64.94637550644282 70.09945141427846, 66.21711642658184 69.15974747849413 M63.38995978703232 71.99618265431118 C63.81892946465741 71.07550822117177, 64.82539640527385 70.36202330487623, 65.84262200520676 69.08993338853558 M68.7806023692861 65.89863092459663 C69.40730781817572 64.68224166086418, 70.83144546349223 63.966512792268546, 70.88607081835266 63.466531309073076 M68.4171211942421 66.3147891860359 C69.19738020325636 65.5347176597789, 69.72844120943886 64.90914399984793, 71.19218606688466 62.973576107008554 M73.36017047728623 60.17156044094585 C75.07876995454743 58.98348909638221, 75.653570013793 57.7328186691209, 75.95994213059228 56.80098199226221 M73.87334217834666 59.93536688859763 C74.21042591054874 59.56515001401901, 74.8486246301112 58.731176219955486, 76.29831124193645 57.182768077626974 M78.73211114889006 54.365865578814415 C80.07320120067521 53.129354247328315, 80.72036621282452 52.494415599065235, 81.52614536895099 51.00894187935858 M78.80727239412663 54.08288883923335 C79.93455063729742 53.04087728817675, 80.52242151899738 52.40355564599733, 81.48337755755779 51.15705091057739 M84.14479115707346 48.24780764428058 C85.00579640145196 47.566557577730826, 85.0790664220151 46.77043073685296, 86.73117638063663 45.369445731984335 M84.06109210121534 47.9218854588298 C84.91329501230206 47.381733318556165, 85.44929916961198 46.94852488883176, 86.69131953519843 44.99455180749128 M56.55051674294346 86.43844228987784 C56.99534951336313 85.40041555993228, 58.449698854408076 83.59297526581472, 59.065734452173345 83.40694603172011 M56.530563619654416 86.19496377770942 C57.299638328478814 85.35930265235376, 57.96236690615686 84.50802124226853, 58.87449151852858 82.94534339407626 M61.75335672409915 80.33495054451681 C62.30676132289551 79.04010649510784, 63.206180499772636 78.65150370141836, 64.57495266074 76.76356442693573 M61.632052685783094 80.26378849603132 C62.72733524461821 79.02225065922403, 63.86376227244537 77.74912329080377, 64.2591298854283 77.16567365829744 M66.73944143710155 74.43665899461772 C67.39333375696798 73.68434636625355, 68.45654260154522 72.27323069511719, 69.90778815884663 71.09823723581809 M66.7879230925969 74.13945825249891 C67.93566980206455 72.89039635933378, 68.7238175405062 72.12385047019961, 69.66564092714566 71.0791221245743 M72.28477960123014 67.7592964759347 C72.69057975578932 67.65202921864636, 72.94621799443964 66.75593278894398, 74.68565532599963 65.31605563041859 M72.33203076272648 67.83857545203158 C73.03972759321506 67.31828406933232, 73.88889035439455 66.10082815648632, 74.88969266020116 64.93951595456262 M77.40468529202082 61.887121054219975 C78.20964342806077 60.94539757928561, 78.82740065268815 60.36297926031089, 79.89736948830806 59.34554910207498 M77.46437835392334 61.96476074758128 C78.19741002169701 61.00665457370154, 78.77461269020499 60.04779641849077, 80.08197418786061 58.95996424147874 M82.37665731457366 55.788146480745056 C83.56488424041116 55.12400217545982, 84.21864241435411 53.842306496262346, 85.18848910926627 52.63572371888862 M82.52913359633132 55.93166128963642 C83.31477933839473 55.40683396836417, 83.91649070622239 54.601490884038064, 85.30895079604184 53.07397689180787 M87.84115344374666 50.08026779036801 C88.6639875993495 49.33534780256431, 89.52598994017605 48.25628183466024, 90.41404888648917 46.85289978253998 M88.02927337892783 50.10219199847219 C88.71996450624519 48.830208633851285, 89.85933657527909 47.67635966208429, 90.54670070927112 47.071513348907885 M63.4291219659644 84.44619368735565 C63.7805498262631 83.3050068997322, 64.47521382033612 82.51217999784308, 65.38723196502082 81.5716048269849 M63.224832288977545 84.76656905399167 C63.75319659401215 83.70884611862317, 64.81878738611698 82.56995257035366, 65.54475827254602 81.61561287928635 M68.04503224979408 78.371571258352 C68.8823542921521 77.1687027355857, 70.09457809643607 76.78824641060949, 70.6161951653769 75.51279815010815 M68.4213466728697 78.48915383913891 C69.05667151976522 77.93801935953142, 69.75599027499025 77.06817068580074, 70.9490550152539 75.38577153659212 M73.72914858241947 72.19909764448956 C73.87457188811999 72.12712611692238, 75.03424135155508 71.07791772250881, 76.4598391396116 69.66960444934021 M73.63326854467199 72.52398651266613 C74.2444249234544 71.81463077191025, 74.86522306352552 71.02248203736207, 76.01515940026654 69.58058536018939 M78.93884343779223 66.21353517606912 C79.7825486931759 65.54014739722933, 80.92781091520114 64.0530044862353, 81.79388443916777 63.11826237123231 M78.77340598465608 66.47636699735587 C79.89612332847814 65.30523952074554, 80.92895915582912 64.1306535997113, 81.3765533542772 63.67006946915861 M84.16978156109322 60.55792123547929 C85.02565691629977 59.38499984960548, 85.82466945980958 58.46451606693679, 86.77428457959567 57.0707586467486 M84.11038125305356 60.352325716261014 C84.65524706964739 59.85775461188924, 84.91047115122056 59.07036273164464, 86.53947786780684 57.57281826950425 M89.45677996577896 54.438679838729996 C89.79194722969095 53.127886459397, 91.19369197860182 52.670217625233335, 92.10452602557586 51.162446313742976 M89.39031765675064 54.59341460342836 C90.35527434965418 53.24544885134249, 90.99718149636003 52.37106423301257, 92.0411194979073 51.24093243832885 M70.27683145026845 83.03876855578862 C70.30933221777038 81.87937516977486, 71.55807118323037 81.43588908841029, 72.263441529251 79.43592627369291 M69.89024714862579 82.71837585177629 C71.0492351236412 81.795197027179, 71.68300248099155 80.50610694235414, 72.53924671123227 79.59092620181511 M75.43516246745233 76.71129263522486 C76.04939670630296 75.69830907071587, 77.3329357503375 74.51091826167531, 77.79963997670939 73.60916080813904 M75.12712321086103 76.72067815986401 C76.05606726536054 75.69111887732141, 76.64200022509736 74.85589209490857, 77.76619597532112 73.50659156461298 M80.2414348446434 70.61876454591096 C81.54406124727119 69.91412679007148, 82.75073953735276 68.34044240250587, 82.77421344375306 67.36854692331927 M80.5286929897606 70.5753577701865 C81.24917963909698 70.01260912247056, 81.67956644452028 69.1105829082825, 83.20518238375395 67.76110977063807 M86.01466271612975 64.34865416880639 C86.24291002227184 64.30286339731042, 86.75774101638868 63.08680361838773, 88.2107385791401 61.39895499524005 M85.66216230191749 64.4310708899477 C86.31113353470855 63.88950222962972, 86.89569744064718 63.078225493237504, 88.37770856907461 61.58294923911185 M90.80025853657274 58.69624930619257 C91.49106687681383 58.17310130141552, 92.40162713881821 56.69644420451465, 93.40080811213733 55.71035598995631 M90.95417159857072 58.44894841463736 C91.49627285884071 57.88915622671775, 92.3818593399226 56.903289875777325, 93.68415753636397 55.545715465901104 M76.2196275236773 81.5217235508065 C77.01805599693155 80.08310438512474, 78.22887618885468 79.48745474190143, 79.13027495079326 78.25596091084616 M76.25954130652617 81.58771737471955 C76.90255791091907 80.70201967438695, 77.84188371125472 79.83805426803721, 79.07760489630934 78.54541955419646 M81.5407320180634 75.16053451198351 C82.16031780088198 74.688027078965, 82.93586034342458 73.60955886574402, 84.50251552891142 72.19671245269603 M81.62165950885739 75.65329467732275 C82.2468403031964 74.66165382938009, 82.99143844460477 73.5460669508208, 84.03787350872842 72.38532867494742 M86.85802569344247 69.41172439934935 C87.88716279654918 68.5863743332971, 88.40789596146286 66.95948650728319, 89.23937291278258 66.2883540913234 M86.75612460568848 69.4925350132584 C87.45730106294248 68.72017044332188, 87.82025645193208 68.29064079118672, 89.2497598626021 66.58665636137147 M91.72019411663035 63.543027038134845 C93.21828670758754 62.13261754926622, 93.81012016898138 61.599199428240546, 94.32313035571102 60.626499517035825 M92.01153400676898 63.35137055341406 C93.2021822345384 62.15263282002027, 94.04742873301215 61.09949636778275, 94.5004059516516 60.61038025289109 M80.99979271739892 82.08697622908487 C82.05604833974192 80.91722518775268, 83.19552324334146 80.08245343009743, 84.26858790254288 78.54253265822281 M81.11223589947625 81.90918152259476 C81.73915884955551 81.4196253845427, 82.20294376796616 80.42854357306798, 84.08462779306834 78.76654959739008 M86.74266186683384 76.1857371608639 C87.53171672484507 74.38522725522806, 88.6716456440817 73.74811934083218, 89.28938721686363 73.20130684991172 M86.42009276182252 75.71065958217035 C87.37569928726225 74.94533068343813, 87.80387076482286 74.08462070303672, 89.22004640455962 72.67885335447576 M91.76184476880051 69.72422266028276 C92.52288812934937 68.98166023283945, 93.21186644414897 68.48193630917659, 94.53611154298186 66.51009451885417 M91.94310922333963 69.82707334880708 C92.81375423200969 68.84467739170788, 93.56010915886948 68.0335857240351, 94.243332563848 66.73558561585034" stroke="#D3212D" stroke-width="2px" fill="none"></path><path d="M29.2435646522815 79.83071947257886 M29.907692 80.492308 C20.371884386254806 70.21423122392325, 19.35575264399091 52.575260759615006, 24.476041656355456 42.69553770858455 M31.697163887096004 82.0579088728515 C22.233597744385314 72.40910569235491, 20.578373110103158 53.50910104699397, 24.040764600132533 43.376115652262435 M25.846154 43.384615 C32.927625661076114 34.13986271064054, 38.75869516668757 24.838754555005664, 49.1013927320886 23.713451597191348 M24.061873255387717 42.39822927289664 C30.40695350324747 32.78995571105554, 38.967722411676384 25.66973077817115, 50.82647725686731 26.238181458617223 M50.030769 24 C59.33282768267221 23.512965355838663, 73.9575282803894 26.4998423946931, 80.41121887743344 30.635363881345377 M49.11690182175589 24.074296082261384 C57.17010546591007 21.578428753287717, 76.3262717747133 22.802456045900385, 80.46495737788615 32.71446586085575 M81.96923100000001 30.830769 C90.41303559198454 36.38938131222957, 98.98353052826207 54.250782173960175, 98.65790605911063 67.13795049094615 M80.49785375813882 29.14388892201142 C86.8535703305506 36.2651534434893, 100.27438684091904 55.670840831894445, 96.79283772618375 67.8648173554659 M96.923077 66.092308 C93.21366154187218 81.53428781178552, 73.76948408472403 86.24971437913845, 60.66985430002279 86.6366335519057 M97.72093308837762 66.95655518714584 C94.50923210361448 79.23797315295815, 73.79417345144887 85.05291900303578, 57.81159434672281 89.62629215257752 M59.630769 87.507692 C51.314434261620676 89.45180821446678, 37.21100037739333 88.01912429888114, 30.968968836898984 79.4892851324061 M61.38023018898981 85.6001747576433 C48.23677022593229 89.39797767454168, 35.16894924182349 87.30001561190741, 31.07537295146865 82.08559462565626 M29.907692 80.492308 C29.907692 80.492308, 29.907692 80.492308, 29.907692 80.492308 M29.907692 80.492308 C29.907692 80.492308, 29.907692 80.492308, 29.907692 80.492308" stroke="#000000" stroke-width="1" fill="none"></path></g><g><path d="M38.21756537147696 66.41328992362183 L57.87921768848456 68.09585674477051 L79.33857532087201 64.38164676278001" stroke="none" stroke-width="0px" fill="#FFFFFF"></path><path d="M34.63284099148847 66.70817873207814 M36.369231 66.276923 C36.02323005572665 67.30535216556589, 51.38723932263898 67.80464826757779, 60.09560318649581 68.14627016802788 M37.919230632895434 66.03975953169709 C38.33824094839049 66.90577620275009, 51.148190214257255 68.97482152258021, 60.666056289099046 64.5681545645568 M58.523077 66.646154 C64.18906618758069 64.55995054488177, 78.57171790655875 65.47883708800403, 78.01115871238085 63.036043757539005 M59.23280068660729 67.44481785797592 C66.67133992307407 67.82260445606768, 78.77199770667347 66.13311904724014, 79.1823805338755 64.52871979615684" stroke="#000000" stroke-width="1" fill="none"></path></g><g><path d="M36.96376016232018 65.80547095735005 L39.20584081488771 59.17902376577071 L41.196292157922244 58.56253761124225 L43.42116339314038 59.543909011390795 L45.32080010770535 66.07788584563122 L48.58372536863999 59.280079201112976 L51.102065566362484 58.805088591275336 L52.61689871150672 59.39266023221736 L54.2525028004897 65.39465380340332 L59.01046442635515 59.558714148497025 L60.33057238294085 58.639560741397 L62.560246195377786 60.311576353893784 L64.03389004931539 64.65444297282019 L67.6145681152257 60.186656607711164 L68.26648232460356 59.40994999154651 L69.9208672389633 60.48278711150001 L72.10172545031286 65.41869673337854 L74.12519268949359 59.03866987032595 L75.45123561036526 58.638135344562855 L77.79466258457867 58.9808751814305 L79.80769371842295 64.50462541469543" stroke="none" stroke-width="0px" fill="#FFFFFF"></path><path d="M36.417484316276585 65.81497530481599 M36.369231 66.276923 C35.98390096173407 65.99670218809707, 38.348364459830925 58.92547835987271, 40.95538446160003 58.983126055215976 M36.473395558740066 66.00654075718954 C36.71498918634116 66.88401584466297, 37.91052127381565 57.82700728404372, 41.01459531250607 57.957754501827154 M41.538461999999996 58.523076999999994 C44.11216940379054 58.692350994960165, 45.156462986627346 64.94558273918547, 45.490799790475485 66.06557621924733 M41.61125383049856 58.20228332972009 C43.77103765342258 58.6417131896988, 45.43973315555354 65.9936812342266, 44.789199739428845 66.0945144512541 M45.41538499999999 65.538462 C44.984497506011856 66.00031867123111, 48.355903448063636 57.98587075731969, 51.7398468667132 59.18223026609281 M45.90839492113456 66.13429711834969 C45.87315605990154 65.13029102627675, 48.452153565057124 58.33195468123183, 50.870699005156375 58.54626158320923 M51.32307699999999 58.707691999999994 C53.940870886529225 59.42436961920138, 53.94576655853162 65.75268596680887, 53.95354014496906 65.26229321021808 M51.32479335781805 58.69069726054158 C54.20860486411369 59.02763342293275, 54.53756764940427 65.19392825400108, 54.57422953710949 65.41672788112716 M54.09230799999999 65.35384599999999 C53.571874519803266 65.24304128113378, 57.28194043843386 58.04350728221897, 61.329658676433276 59.26162695534038 M54.31952251239054 65.54500883875959 C54.118278546631196 65.59238619942909, 57.801706511737144 58.74440778481655, 60.353725902287174 59.16045928249236 M60.73846199999999 59.076922999999994 C62.863891365032224 59.25684788801947, 63.67894447789575 65.06028642226052, 64.79490577387298 65.38966864207984 M60.30946037638841 59.47311110577791 C62.73859424535211 58.87449571066128, 64.86688555811585 64.56752767472129, 64.3012540048935 65.16513031018431 M64.24615399999999 65.169231 C63.95211365852453 64.8801572699223, 65.73817818604691 59.07577504188277, 68.72867288151068 58.67718764695082 M63.88166043209984 65.18079279598534 C63.73540376980099 65.62352728926487, 66.61723990021589 58.77279698484379, 68.87586000602388 59.02321950123349 M68.861538 59.076922999999994 C71.05191734315876 58.69997109754316, 71.92412785304609 65.56980360640424, 72.73088664470461 65.65798715006144 M69.40108952781462 59.003064242168236 C71.6740204618024 59.526184009330585, 72.07254632634927 65.04648818691311, 72.53210675920988 65.3745972794523 M72.369231 65.72307699999999 C71.89662136951179 65.50400387907112, 73.26128748027277 58.05345823968615, 75.91583859994653 58.53217630466974 M71.9096205531656 66.18359494850097 C71.86699211143787 66.0025722110726, 73.70489404015659 58.75251082318877, 76.56401399100754 58.17066966507965 M75.876923 58.33846199999999 C78.5547348684894 58.726845039958384, 79.37444428371326 64.89842165565618, 79.42373069972238 65.04089978705811 M76.35709647315655 58.053071210714705 C78.95103152821821 58.48633660416083, 79.49713850463603 65.36277506076699, 79.97969258168777 64.68824327642056" stroke="#000000" stroke-width="1" fill="none"></path></g><g><path d="M45.497778394760594 37.77599511498641 C46.87582075842253 37.8725779549351, 48.76636436571311 39.15901686934572, 49.88437984635157 40.3118670983084 C51.00239532699003 41.464717327271075, 52.01100050627434 43.22398051081018, 52.20587127859138 44.69309648876248 C52.40074205090842 46.16221246671478, 52.00537542727701 47.961271990476, 51.053604480253796 49.1265629660222 C50.10183353323058 50.2918539415684, 48.021703258506385 51.279968073831654, 46.495245596452115 51.68484234203969 C44.968787934397845 52.08971661024772, 43.20070724675915 52.22563705078329, 41.89485850792818 51.55580857527042 C40.5890097690972 50.885980099757546, 39.302719239303585 49.070780615585534, 38.660153163466276 47.66587148896247 C38.01758708762897 46.26096236233941, 37.61369974334326 44.56359928945511, 38.03946205290431 43.12635381553208 C38.465224362465364 41.68910834160904, 39.9199500980873 39.85243688475534, 41.214727020832576 39.04239864542425 C42.509503943577855 38.23236040609316, 44.989944618906044 38.44132050989463, 45.808123589376 38.26612437954554 C46.62630255984596 38.090928249196445, 46.12872883103438 37.909250055368254, 46.12380084365233 37.99122186332968 M45.34843556415068 38.32223784934707 C46.767041123715224 38.23599045299581, 48.571568728940655 38.7331963158729, 49.72689935523213 39.70059385501988 C50.8822299815236 40.66799139416686, 52.00427890418599 42.6169672126106, 52.280419321899515 44.12662308422897 C52.55655973961304 45.63627895584734, 52.20009245412281 47.47028199842333, 51.38374186151328 48.7585290847301 C50.56739126890375 50.04677617103687, 48.96294103253184 51.4052757429773, 47.38231576624235 51.8561056020696 C45.80169049995286 52.30693546116189, 43.33218277641633 51.99958849435556, 41.89999026377635 51.463508239283854 C40.467797751136374 50.92742798421215, 39.40889052584135 49.94964406245233, 38.789160690402454 48.63962407163937 C38.16943085496356 47.32960408082641, 37.908586677814526 45.19131170907515, 38.18161125114296 43.6033882944061 C38.454635824471396 42.01546487973705, 39.25947694178175 40.00887233233057, 40.42730813037306 39.11208358362507 C41.59513931896438 38.215294834919575, 44.42586687753371 38.34264655395387, 45.188598382690856 38.22265580217314 C45.951329887848004 38.10266505039242, 45.00710041537921 38.328501415054546, 45.00369716131595 38.392139072940694" stroke="none" stroke-width="0px" fill="#FFFFFF"></path><path d="M44.87027473903305 37.939897212759064 C46.28434906675293 37.78755688235323, 48.2699118941852 38.56149671244318, 49.42603995377835 39.52628936515381 C50.5821680133715 40.491082017864436, 51.48707843770475 42.22550915786476, 51.80704309659194 43.728653129022845 C52.12700775547913 45.231797100180934, 52.05728871280387 47.24323924921597, 51.34582790710146 48.545153192102354 C50.63436710139905 49.84706713498874, 48.918338276374996 50.9699933549105, 47.538278262377496 51.540136786341165 C46.158218248379995 52.11028021777183, 44.538030233229314 52.42207173837204, 43.06546782311644 51.96601378068633 C41.59290541300357 51.509955823000624, 39.560612480693 50.12178696962845, 38.70290380170025 48.80378904022694 C37.8451951227075 47.485791110825424, 37.62887228334756 45.53316465390226, 37.91921574915993 44.05802620427724 C38.2095592149723 42.58288775465222, 39.265080430872146 40.9867607844054, 40.44496459657448 39.95295834247683 C41.62484876227681 38.91915590054827, 44.21670308186223 38.13619283125696, 44.99852074337395 37.85521155270586 C45.780338404885676 37.57423027415476, 45.14932983615261 38.109207906206215, 45.13587056564481 38.26707067117022 M43.90363524418656 37.74243445917266 C45.339477755179786 37.37517860743664, 47.684068055451846 37.888770576553014, 48.97360313657614 38.692707376620355 C50.26313821770043 39.496644176687695, 51.22654270462571 41.06557028386354, 51.64084573093229 42.56605525957671 C52.055148757238875 44.06654023528987, 52.068276517789585 46.2505949528796, 51.459421294415634 47.695617230899344 C50.85056607104168 49.14063950891909, 49.29459746196648 50.56958876791109, 47.987714390688595 51.236188927695146 C46.68083131941071 51.9027890874792, 44.999248407206366 52.001806460033066, 43.618122866748294 51.69521818960368 C42.23699732629022 51.38862991917429, 40.62899060512396 50.59061097249191, 39.700961147940184 49.396659305118824 C38.77293169075641 48.20270763774574, 38.05564245334236 46.056228770424745, 38.049946123645654 44.53150818536517 C38.04424979394895 43.00678760030559, 38.67621185350316 41.400511426423556, 39.66678316975996 40.24833579476136 C40.65735448601676 39.096160163099164, 43.181745948904805 38.01679319091535, 43.99337402118644 37.61845439539201 C44.805002093468076 37.22011559986866, 44.53627130279664 37.748252566823446, 44.53655160344979 37.858303021621296" stroke="#000000" stroke-width="0.7px" fill="none"></path></g><g><path d="" stroke="#000000" stroke-width="0.45px" fill="none"></path><path d="M44.62700351111332 44.96405508914307 C44.9782117869523 45.10629036720155, 45.850946866407625 45.150297560073916, 45.989076066844575 45.17276714874625 C46.127205267281525 45.19523673741859, 45.45081214097772 45.0212841500477, 45.455778713735 45.0988726211771 C45.46074528649228 45.1764610923065, 46.239790626153834 45.38289410549912, 46.01887550338829 45.638297975522676 C45.79796038062274 45.89370184554623, 44.52085786248103 46.67179149743957, 44.13028797714173 46.63129584131843 C43.73971809180242 46.590800185197295, 43.6039988464273 45.53023055911902, 43.67545619135247 45.39532403879583 C43.74691353627763 45.260417518472636, 44.64650868035237 45.865323304243105, 44.55903204669269 45.821856719379305 C44.471555413033016 45.778390134515504, 43.082421932095784 45.270708511219794, 43.15059638939441 45.13452452961303 C43.21877084669303 44.99834054800627, 44.57547425184328 45.26135753968584, 44.96807879048443 45.00475282973872 C45.36068332912557 44.7481481197916, 45.282467547262684 43.86722762003286, 45.50622362124127 43.594896269930324 C45.72997969521985 43.32256491982779, 46.22648807021092 43.12875615235978, 46.310615234355915 43.37076472912353 M43.854070085124164 43.67159941728586 C43.80696795580708 43.96465311136524, 44.24582278751456 45.27734301151729, 44.57400864827478 45.67162852192577 C44.90219450903499 46.06591403233425, 45.75689012578217 46.25372225307598, 45.82318524968545 46.037312479736755 C45.88948037358873 45.82090270639753, 45.22172843501497 44.525431564537875, 44.971779391694476 44.37316988189045 C44.721830348373985 44.22090819924302, 44.4911123022505 44.67037910558955, 44.32349098976251 45.12374238385218 C44.155869677274524 45.57710566211482, 44.00355962834359 46.893307853935184, 43.96605151676656 47.09334955146625 C43.92854340518954 47.29339124899731, 43.89461929213347 46.828523681171944, 44.09844232030035 46.323992569038566 C44.30226534846723 45.81946145690519, 44.90394174600556 44.23913215360914, 45.18898968576786 44.06616287866598 C45.47403762553016 43.893193603722814, 45.6655676481889 45.436920308017235, 45.80872995887416 45.2861769193796 C45.95189226955942 45.13543353074196, 46.12444944854455 43.379904550671256, 46.04796354987942 43.16170254684016 C45.971477651214286 42.943500543009065, 45.31647985058256 43.7920285990259, 45.34981456688337 43.97696489639304" stroke="#000000" stroke-width="0.9px" fill="none"></path></g><g><path d="M74.1009937958854 38.17220452683604 C75.50678800658169 37.900418204597706, 77.5281972030123 38.52691128026431, 78.80413534700142 39.35855818610486 C80.08007349099054 40.19020509194541, 81.30323924369762 41.80203718422055, 81.75662265982011 43.16208596187935 C82.2100060759426 44.522134739538146, 82.07214313205489 46.19436208242196, 81.52443584373638 47.51885085205764 C80.97672855541788 48.84333962169332, 79.82997173809454 50.44058857930322, 78.47037892990906 51.10901857969344 C77.11078612172358 51.777448580083664, 74.82794040624752 51.79858800681317, 73.36687899462345 51.52943085439899 C71.90581758299938 51.26027370198481, 70.59483087186447 50.6757253604023, 69.70401046016465 49.49407566520835 C68.81319004846483 48.312425970014395, 67.973273333241 46.00488841937602, 68.02195652442451 44.43953268323528 C68.07063971560802 42.87417694709453, 68.99039856794325 41.198035772771554, 69.99610960726578 40.10194124836388 C71.00182064658831 39.0058467239562, 73.34133149783106 38.15383065473416, 74.05622276035974 37.86296553678922 C74.77111402288843 37.57210041884428, 74.23750363909524 38.229235873076796, 74.28545718243785 38.35675054069425 M75.81189178748006 37.88708687574911 C77.30845350445067 38.03079878867833, 79.07922370310067 39.34464384248179, 80.08069496341845 40.44794435493729 C81.08216622373624 41.551244867392796, 81.77801384087168 43.10488508568627, 81.8207193493868 44.506889950482126 C81.86342485790193 45.90889481527798, 81.14580050042564 47.68098402073804, 80.33692801450918 48.85997354371242 C79.52805552859273 50.038963066686804, 78.39111952888908 51.20225775936117, 76.96748443388809 51.58082708832841 C75.5438493388871 51.95939641729566, 73.2061631421786 51.67708108873571, 71.79511744450325 51.13138951751588 C70.3840717468279 50.585697946296044, 69.07498054027428 49.555798300963225, 68.50121024783597 48.306677661009424 C67.92743995539766 47.05755702105562, 67.98426972322059 45.14423385825275, 68.35249568987334 43.63666567779308 C68.72072165652608 42.12909749733342, 69.46622607544782 40.11477260862775, 70.71056604775248 39.26126857825146 C71.95490602005714 38.40776454787517, 74.97387366060128 38.614065967963164, 75.8185355237013 38.51564149553533 C76.66319738680131 38.41721702310749, 75.80229467200144 38.56275860014816, 75.77853722635258 38.67072174368444" stroke="none" stroke-width="0px" fill="#FFFFFF"></path><path d="M73.98990956084074 38.33432913849748 C75.42702459668799 38.06977968081369, 77.4096802495147 38.30454669667126, 78.69873485314238 39.04046935308935 C79.98778945677007 39.77639200950744, 81.267640112974 41.34614682165228, 81.72423718260686 42.74986507700601 C82.18083425223972 44.15358333235973, 82.0384058745469 46.03218722079047, 81.4383172709396 47.4627788852117 C80.83822866733232 48.89337054963293, 79.46678924134945 50.65083822068619, 78.12370556096312 51.33341506353338 C76.78062188057679 52.01599190638057, 74.85270722143807 51.8539835455261, 73.3798151886216 51.55823994229483 C71.90692315580515 51.26249633906357, 70.18015263016073 50.6427068108013, 69.2863533640644 49.558953444145786 C68.39255409796806 48.47520007749027, 67.95963195052323 46.60386026344285, 68.0170195920436 45.05571974236175 C68.07440723356396 43.50757922128066, 68.65254486595069 41.44633467293264, 69.63067921318654 40.2701103176592 C70.60881356042239 39.09388596238576, 73.1316394636346 38.36513849702591, 73.88582567545869 37.99837361072112 C74.64001188728278 37.631608724416324, 74.11729140390374 37.93256088581553, 74.15579648413112 38.069520999830424 M74.10205639079447 37.901641904125015 C75.54263507231042 37.63386221618373, 77.94073029006088 38.227094979381, 79.16155374057485 39.08455043929481 C80.3823771910888 39.94200589920862, 81.08392221440843 41.5853328108733, 81.4269970938782 43.04637466360785 C81.77007197334797 44.5074165163424, 81.718493205364 46.509384701312264, 81.22000301739344 47.85080155570213 C80.72151282942288 49.19221841009199, 79.72683298138305 50.461784484865824, 78.43605596605485 51.094875789947025 C77.14527895072665 51.72796709502823, 75.03108465962943 52.01858185255708, 73.47534092542422 51.64934938618934 C71.91959719121901 51.28011691982161, 69.993772715399 50.079922721439154, 69.10159356082359 48.87948099174061 C68.20941440624817 47.67903926204206, 67.91172896290558 45.874555527299805, 68.12226599797171 44.446699007998056 C68.33280303303783 43.01884248869631, 69.31410443645379 41.40355167558284, 70.36481577122035 40.312341875930116 C71.41552710598691 39.22113207627739, 73.80199826415642 38.23244199296812, 74.4265340065711 37.8994402100817 C75.05106974898578 37.56643842719528, 74.10976336796402 38.211908517468835, 74.11203022570847 38.314331178611596" stroke="#000000" stroke-width="0.7px" fill="none"></path></g><g><path d="" stroke="#000000" stroke-width="0.45px" fill="none"></path><path d="M74.53428666789628 44.654110278707115 C74.44771574300192 44.58059883365326, 74.45185635786792 43.26693346111401, 74.66132393471723 43.167328743686035 C74.87079151156654 43.06772402625806, 75.69575621198699 43.816388578826526, 75.79109212899215 44.056481974139295 C75.8864280459973 44.296575369452064, 75.24550276057882 44.31484806663083, 75.23333943674817 44.60788911556266 C75.22117611291752 44.90093016449448, 75.90141339752616 45.53667277178473, 75.71811218600824 45.81472826773025 C75.53481097449033 46.092783763675776, 74.23223518093037 46.2704131947678, 74.13353216764065 46.2762220912358 C74.03482915435093 46.282030987703806, 75.304157102093 46.05839798237616, 75.12589410626988 45.849581646538255 C74.94763111044676 45.64076531070035, 73.16963462837506 45.37643650293451, 73.06395419270196 45.02332407620839 C72.95827375702885 44.67021164948227, 74.26400230479325 43.739115279139334, 74.49181149223121 43.73090708618151 C74.71962067966916 43.722698893223686, 74.33637889882424 44.8633102264771, 74.4308093173297 44.97407491846145 C74.52523973583517 45.0848396104458, 74.95473763570723 44.50968555757522, 75.05839400326401 44.39549523808759 M75.82343529667752 45.44105163380067 C75.76000935887883 45.66996770244335, 74.72332682620882 44.77368381545318, 74.76946054807489 44.73312498738789 C74.81559426994096 44.692566159322595, 75.84835972174214 45.12020043031437, 76.10023762787394 45.197698665408915 C76.35211553400573 45.27519690050346, 76.18507996270436 45.229967826587064, 76.28072798486563 45.19811439795516 C76.3763760070269 45.166260969323254, 76.65688849881536 44.88989965822803, 76.67412576084158 45.006578093617485 C76.69136302286779 45.12325652900694, 76.74641392736362 45.95856703042686, 76.38415155702288 45.89818501029187 C76.02188918668213 45.837802990156874, 74.8997062213628 44.81950574352721, 74.50055153879714 44.64428597280754 C74.10139685623147 44.469066202087866, 74.11966902327646 44.70438327359094, 73.98922346162885 44.84686638597384 C73.85877789998125 44.98934949835674, 73.69843515471617 45.78265396488112, 73.71787816891153 45.49918464710493 C73.73732118310689 45.215715329328745, 73.89826150914621 43.284342558720965, 74.10588154680103 43.1460504793167 C74.31350158445585 43.00775839991243, 75.08071784289714 44.733585324917755, 74.96359839484049 44.669432170679315" stroke="#000000" stroke-width="0.9px" fill="none"></path></g><g><path d="M60.565391451886065 35.607259801978564 C62.5237403448985 35.65205004978852, 65.40932328713917 36.85088677357778, 66.87252650570382 38.298800310758594 C68.33572972426846 39.74671384793941, 69.15035392667026 42.227545907877, 69.34461076327396 44.29474102506346 C69.53886759987766 46.36193614224992, 69.16892553029697 49.03208190451752, 68.03806752532601 50.70197101387735 C66.90720952035505 52.37186012323718, 64.57081458369078 53.868605107421914, 62.55946273344824 54.31407568122242 C60.548110883205716 54.759546255022926, 57.886477142203525 54.23851657512283, 55.969956423870855 53.37479445668036 C54.053435705538185 52.511072338237895, 51.87991577279526 50.913959289045465, 51.06033842345223 49.131742970567636 C50.2407610741092 47.34952665208981, 50.51712279041753 44.65963734639831, 51.05249232781267 42.68149654581337 C51.58786186520781 40.70335574522842, 52.625777945291354 38.41111922744141, 54.272555647823076 37.262898167057955 C55.9193333503548 36.1146771066745, 59.757951184033615 36.02810613224223, 60.93315854300299 35.792170183512624 C62.10836590197236 35.55623423478302, 61.327150323401156 35.70287150614067, 61.32379980163931 35.847282474680334 M58.82971122490463 35.87463591311731 C60.78600323967489 35.39850131947624, 63.30587176878212 35.76430398952324, 65.08212306071545 36.762499462173636 C66.85837435264877 37.76069493482403, 68.8746905409651 39.889620611469255, 69.48721897650458 41.8638087490197 C70.09974741204405 43.83799688657014, 69.64052548967948 46.74210133594887, 68.75729367395225 48.60762828747631 C67.87406185822502 50.47315523900375, 66.03547483390906 52.117214301916135, 64.1878280821412 53.05697045818437 C62.34018133037332 53.9967266144526, 59.6127505088424 54.647510577772216, 57.67141316334501 54.24616522508569 C55.73007581784761 53.844819872399164, 53.794456167248306 52.30105585933077, 52.53980400915683 50.64889834206521 C51.28515185106536 48.996740824799645, 49.99854115442642 46.287787392266345, 50.14350021479616 44.333220121492296 C50.288459275165906 42.37865285071825, 51.96844321925816 40.38168086142352, 53.409558371375304 38.92149471742092 C54.850673523492446 37.46130857341832, 57.84792155032314 36.0513421462335, 58.790191127499035 35.572103257476684 C59.73246070467493 35.092864368719866, 59.01260913917166 35.94205917878945, 59.063175834430666 36.04606138488002" stroke="none" stroke-width="0px" fill="#FFFFFF"></path><path d="M58.98202923752239 35.5505848762073 C60.81935088352372 35.28864870508167, 63.42760514581354 36.13680862614903, 65.13822743196876 37.296060064947945 C66.84884971812397 38.455311503746856, 68.64207273479025 40.53133368722512, 69.24576295445371 42.50609350900076 C69.84945317411717 44.480853330776405, 69.64380044412897 47.33827187677691, 68.76036874994952 49.1446189956018 C67.87693705577007 50.9509661144267, 65.83373406575775 52.533417259285144, 63.945172789376976 53.34417622195015 C62.056611512996206 54.154935184615155, 59.40448819283021 54.445620504721255, 57.42900109166489 54.009172771591835 C55.453513990499566 53.572725038462416, 53.265429874299286 52.36768121720321, 52.092250182385044 50.725489823173646 C50.9190704904708 49.08329842914408, 50.24191632264409 46.19871024777261, 50.389922940179446 44.15602440741443 C50.537929557714804 42.113338567056246, 51.51306378404119 39.867585533379405, 52.98028988759717 38.46937478102458 C54.44751599115316 37.07116402866975, 58.12490067253566 36.26791899970452, 59.19327956151536 35.76675989328545 C60.26165845049506 35.265600786866386, 59.40700746066602 35.35924145977428, 59.39056322147539 35.4624201425102 M59.48525305528501 35.31709507339667 C61.38791243562799 35.111964972955874, 64.55403909088 36.0659640895785, 66.24303670372824 37.40165196137078 C67.93203431657648 38.73733983316306, 69.24570785899544 41.29290397127839, 69.61923873237443 43.331222304150344 C69.99276960575341 45.3695406370223, 69.59667041905188 47.80808257833385, 68.48422194400214 49.631561958602504 C67.37177346895241 51.455041338871155, 64.87381159858349 53.600377801374094, 62.94454788207606 54.27209858576224 C61.01528416556864 54.94381937015038, 58.76807322400384 54.43776105020478, 56.9086396449576 53.661886664931366 C55.04920606591136 52.886012279657955, 52.90345154203569 51.384978894729855, 51.78794640779863 49.616852274121776 C50.67244127356157 47.848725653513696, 49.86219781564223 45.08839345441633, 50.21560883953522 43.05312694128289 C50.56901986342821 41.017860428149454, 52.277755962977054 38.67711919796379, 53.90841255115656 37.40525319532115 C55.539069139336064 36.13338719267851, 58.938782557450274 35.743693040164686, 59.99954836861227 35.42193092542705 C61.06031417977426 35.10016881068941, 60.2937155398752 35.233816185056256, 60.2730074181285 35.47468050689531" stroke="#000000" stroke-width="0.7px" fill="none"></path></g><g><path d="" stroke="#000000" stroke-width="0.45px" fill="none"></path><path d="M60.1342093163189 43.27623352397378 C60.36158324837264 43.324146039384594, 60.008897737438645 44.07116496798818, 60.00029973312176 44.23778747846096 C59.99170172880487 44.404409988933736, 59.80714649368497 44.062559469094325, 60.082621290417556 44.275968586810464 C60.358096087150145 44.4893777045266, 61.67203901823279 45.325840389426645, 61.65314851351731 45.51824218475782 C61.63425800880183 45.71064398008899, 60.38010132439234 45.439241355036074, 59.96927826212467 45.430379358797495 C59.55845519985699 45.421517362558916, 59.294032936769014 45.39820907759389, 59.188210139911284 45.46507020732632 C59.082387343053554 45.53193133705875, 59.36484232074881 45.76772000404464, 59.33434148097828 45.83154613719209 C59.303840641207756 45.89537227033954, 59.09442213790439 46.05895790280426, 59.00520510128811 45.848027006211026 C58.915988064671836 45.637096109617794, 58.78727123994488 44.95793842104936, 58.79903926128062 44.56596075763269 C58.81080728261636 44.17398309421601, 58.72597146093109 43.74413494383839, 59.07581322930256 43.49616102571096 C59.42565499767403 43.24818710758353, 60.598387812542384 42.96385560303737, 60.89808987150942 43.07811724886814 M59.83451730125331 44.56265779227463 C60.272044706808735 44.82203170110176, 60.99998680353349 45.559712012131705, 60.97372119069933 45.70248686082059 C60.94745557786517 45.84526170950948, 59.5596485734506 45.61467823691886, 59.676923624248374 45.419306884407966 C59.79419867504615 45.22393553189707, 61.704638767890565 44.26702824042534, 61.67737149548597 44.53025874575523 C61.65010422308138 44.79348925108513, 60.07819780325932 46.53514887215859, 59.51331998982083 46.99868991638733 C58.948442176382336 47.46223096061607, 58.36967592212306 47.68106478119432, 58.28810461485501 47.311505011127686 C58.20653330758696 46.94194524106105, 58.95920488169905 45.23237157176711, 59.023892146212525 44.781331295987485 C59.088579410726 44.33029102020786, 58.40041753891089 44.90911832104133, 58.67622820193587 44.60526335644993 C58.952038864960855 44.30140839185853, 60.65108432131325 42.93325676699429, 60.678756124362444 42.95820150843905 C60.70642792741164 42.983146249883816, 59.14937016907979 44.47438317976581, 58.842259020231054 44.7549318051185 C58.53514787138232 45.035480430471196, 58.659222121455414 44.79448974245939, 58.83608923127006 44.6414932605552" stroke="#000000" stroke-width="0.9px" fill="none"></path></g></svg>