<svg xmlns="http://www.w3.org/2000/svg" id= "ghost5" viewBox="0 0 200 150" width="100%" height="100%" xmlns:v="https://vecta.io/nano"><path d="M22.999 70.453c-.178.217 3.297 2.506 3.198 3.359s-3.909 2.179-3.789 1.757 4.405-3.929 4.508-4.289-3.948 2.113-3.89 2.129 3.637-1.958 4.236-2.03-.577 1.358-.645 1.597.858-.044.239-.163-3.415.059-3.956-.553.502-3.189.713-3.12.982 3.021.553 3.532m-3.061-1.28c.96-1.01 6.255-.59 6.071-.493s-7.69.232-7.173 1.076 9.227 4.553 10.27 3.991c1.043-.567-3.3-7.808-4.012-7.378s-.606 8.354-.263 9.95 1.573 1.237 2.32-.372 3.423-8.45 2.159-9.284-9.094 3.102-9.743 4.28 4.545 3.293 5.848 2.789 1.358-4.985 1.966-5.81m-4.521 8.864c.326-.1 3.372-.538 3.399-.595s-2.751.975-3.235.252.71-3.787.335-4.59-3.203-.746-2.584-.228 5.567 2.542 6.297 3.341-1.22 1.36-1.917 1.451-1.883-.523-2.268-.904-.602-.888-.04-1.383 3.872-2.184 3.415-1.587-5.818 5.226-6.154 5.164m2.092-4.808c-1.321.398-2.473 2.253-1.966 2.156s5.302-2.398 5.007-2.737-6.25-.629-6.779.698 1.84 7.07 3.603 7.263 6.251-4.662 6.974-6.101-1.472-2.748-2.636-2.535-4.01 2.421-4.348 3.813 1.461 5.316 2.317 4.538 3.219-8.493 2.819-9.208-4.251 5.155-5.215 4.916m3.475-11.595c.353-.464 2.37-5.175 2.697-6.023s-.922-.074-.736.935 1.418 4.731 1.857 5.122 1.483-2.641.773-2.776-4.134 2.395-5.033 1.969-1.049-4.178-.36-4.524 4.252 1.952 4.493 2.448-2.53.587-3.05.527-.79-.944-.072-.889 4.448 1.363 4.377 1.215m-5.148.361c-1.098-1.315-3.308-5.973-3.226-5.788s2.177 6.431 3.721 6.899 5.17-3.993 5.548-4.095-3.712 3.882-3.276 3.48 6.457-5.49 5.891-5.893-9.192 1.767-9.282 3.474 9.048 6.102 8.738 6.768-8.717-1.208-10.598-2.771-.724-5.422-.684-6.608-.135-.278.924-.509m4.236 9.435c-.441-.707.854-4.914.704-4.973s-1.546 4.297-1.605 4.622 1.349-2.886 1.25-2.672-1.628 3.102-1.846 3.956.662 1.321.535 1.165-1.167-1.317-1.298-2.103-.609-2.131.51-2.616 5.521-.159 6.206-.297-1.29-1.399-2.097-.528-2.663 5.775-2.744 5.754m4.141-6.069c1.008 1.126-1.236 8.02-2.078 7.436s-1.917-9.551-2.976-10.941-2.926 1.357-3.379 2.598-.837 4.491.66 4.847 7.24-1.464 8.324-2.712-.338-5.313-1.82-4.777-5.797 6.5-7.073 7.991-1.53 1.596-.585.956 5.898-4.215 6.254-4.799-3.647 1.713-4.12 1.295m7.418 4.099c-.182-.19-2.007-.449-2.586.135s-.848 3.649-.889 3.368 1.185-3.972.643-5.056-3.401-1.446-3.894-1.447.721.996.938 1.437-.157 1.256.364 1.209S29 70 30.122 69.467s3.633-1.861 3.971-1.706-1.499 1.73-1.943 2.638-.234 2.79-.723 2.811m.185-5.207c.301.474-5.14 4.316-4.798 4.677s5.407-2.052 6.851-2.514 2.572-.621 1.81-.26-4.726 2.2-6.379 2.429-3.123-1.569-3.537-1.058.012 5.197 1.055 4.125 4.449-8.777 5.202-10.555-.131-.568-.683-.114-1.924 1.546-2.629 2.839-1.291 3.539-1.601 4.917m6.129 6.528c-.294.283-6.285.498-6.72.04s3.545-2.723 4.112-2.786.211 2.711-.712 2.404-4.459-3.359-4.824-4.245 2.144-.961 2.633-1.07-.54-.377.302.413 3.98 4.094 4.75 4.33.666-2.058-.132-2.914-3.529-1.962-4.66-2.222-1.968.236-2.128.662m5.322-1.263c-.135.838-8.285 2.785-8.348 3.637s6.127.836 7.968 1.475 3.882 2.756 3.081 2.357-7.533-4.713-7.891-4.754 5.84 4.15 5.743 4.511-5.923-2.23-6.328-2.345 2.75 1.202 3.898 1.655 3.368 1.156 2.991 1.065-4.617-1.462-5.253-1.611.666 1.665 1.434.721m1.253-31.217c-.626-.659 1.777-.414 1.943.495s-1.504 3.828-.945 4.959 4.174 1.795 4.297 1.829-3.974-1.373-3.56-1.626 5.139.197 6.042.109.112-.704-.622-.634-3.099 1.592-3.782 1.057.342-4.067-.32-4.265-4.216 3.18-3.656 3.078 6.424-3.129 7.016-3.691m-2.796-1.474c.135 1.126 3.369 4.55 3.909 4.562s.024-5.325-.67-4.485-1.963 8.527-3.491 9.526-6.125-1.782-5.674-3.532 6.942-7.056 8.383-6.968.727 7.334.265 7.494-2.007-6.042-3.035-6.53-2.23 3.13-3.131 3.603-3.332-1.38-2.276-.766 7.28 4.158 8.614 4.45m-1.816 2.159c.257.211.542-3.327.278-3.56s-1.526 1.982-1.863 2.165-.443-.27-.163-1.069 1.273-3.849 1.84-3.723 1.961 3.648 1.563 4.48-3.8.224-3.949.512 2.754.824 3.056 1.221-1.119 1.872-1.243 1.159.981-4.387.498-5.441-2.66-.894-3.396-.884m5.554 5.442c-1.803.182-8.164-1.479-8.806-1.908s3.468-.726 4.951-.667 4.129 1.512 3.947 1.024-3.93-4.568-5.039-3.957-2.646 6.924-1.614 7.62 8.012-1.955 7.806-3.443-8.188-4.65-9.038-5.483 3.644.137 3.937.489-2.346.392-2.182 1.623 2.576 6.034 3.161 5.76m-1.117 5.469c-.092-.384-.488-5.001-.966-5.528s-2.315 1.491-1.901 2.363 3.346 3.374 4.385 2.869 2.182-5.991 1.854-5.898-3.677 5.978-3.82 6.457 2.229-3.309 2.966-3.578 1.434 1.986 1.456 1.967-.794-1.656-1.324-2.08-1.215.122-1.853-.464-1.504-3.025-1.977-3.052m6.314 5.662c.117-.715-2.67-4.396-4.259-4.817s-5.78 1.091-5.275 2.292 7.685 5.641 8.307 4.91-3.212-8.347-4.574-9.294-4.443 3.284-3.6 3.611 8.308-1.831 8.661-1.647-5.064 2.909-6.543 2.753-3.166-3.729-2.334-3.69 5.607 2.372 7.324 3.927 3.899 5.977 2.978 5.4m-8.08-2.763c-.177.328 1.086-.63 2.218-.013s4.621 3.128 4.573 3.712-4.645.54-4.861-.207 2.634-3.345 3.566-4.277 2.369-1.537 2.026-1.314-3.93 2.686-4.084 2.649 3.276-2.476 3.16-2.875-3.482-.13-3.857.477.697 2.627 1.604 3.163 4.427.589 3.841.054m2 3.855c.348-.697.23-4.002-1.02-5.527s-5.971-3.535-6.479-3.625 2.655 3.049 3.433 3.084 2.211-3.13 1.234-2.876-6.979 3.267-7.096 4.404 5.722 2.816 6.394 2.422-2.15-3.505-2.362-4.788.59-2.83 1.093-2.91 2.044.91 1.923 2.429-2.768 6.155-2.652 6.684m-.349 1.385c.536.605 2.609-.106 1.99-.546s-4.739-2.408-5.702-2.091-.99 3.308-.076 3.991 5.122.578 5.564.105-2.484-2.82-2.909-2.941.576 2.665.362 2.216-1.761-4.172-1.646-4.912 2.079-.193 2.336.469-.717 2.49-.794 3.499-.12 3.477.33 2.555m-2.973-9.089c-.272-.285 3.576 2.997 4.246 4.149s.572 3.292-.228 2.761-5.025-5.222-4.569-5.95 7.747 1.014 7.307 1.583-8.527 1.075-9.944 1.832.077 1.845 1.438 2.715 5.164 3.405 6.728 2.503 2.817-7.662 2.655-7.916-2.629 5.602-3.626 6.394-1.484-1.169-2.357-1.639m-1.195 2.239c.758-.335 4.482 1.191 5.187.923s-.354-1.888-.961-2.531-2.712-2.245-2.679-1.327 2.757 6.623 2.873 6.834-1.294-5.355-2.179-5.566-2.498 4.493-3.132 4.301-.541-5.147-.675-5.45-1.089 3.004-.128 3.63 4.715.412 5.897.128 1.748-1.504 1.196-1.83m-5.719-2.616c.963.06 4.581 8.83 4.925 8.757s-1.645-9.226-2.861-9.193-5.212 9.131-4.436 9.39 7.71-6.498 9.088-7.839-.521-.004-.818-.207.11-1.384-.967-1.014-4.478 3.312-5.494 3.235-.668-2.918-.6-3.7-.468-.899 1.004-.992 7.77-.606 7.832.433m-9.7 6.982c.477-.126 7.352 2.958 7.819 3.542s-4.231-.497-5.012-.036.735 2.594.324 2.801-3.2-.675-2.787-1.559 5.377-3.222 5.266-3.747-5.156-.293-5.927.594.73 4.222 1.305 4.731 1.4-.982 2.145-1.68 2.614-2.262 2.327-2.51-3.987.478-4.048 1.021m7.614 4.564c1.479.706 1.827-4.629.204-6.243s-8.106-3.893-9.94-3.442-2.372 4.774-1.064 6.148 8.606 1.638 8.912 2.1-5.726 1.175-7.077.672-1.108-3.844-1.025-3.69.911 4.402 1.524 4.616 1.026-2.32 2.151-3.333 3.924-1.421 4.595-2.743-.878-5.574-.57-5.192m-.972-27.578c.451.362 2.999-2.498 2.775-3.018s-4.371-.551-4.122-.103 4.994 2.74 5.615 2.794-1.864-1.939-1.886-2.467 1.96-1.391 1.751-.701-2.715 5.083-3.006 4.841.831-5.32 1.26-6.294.986-.345 1.315.45.942 3.923.659 4.318-1.505-1.131-2.361-1.95m3.347 5.276c-.198.066-.566-7.505-1.059-9.242s-2.201-1.83-1.903-1.183 2.889 4.118 3.689 5.065.861 1.089 1.113.614.569-2.866.398-3.46.254-.5-1.425-.102-7.957 1.823-8.65 2.489 2.775.726 4.493 1.506 5.031 3.151 5.814 3.177.587-1.57-1.121-3.017m-6.609 4.467c.387 1.009 3.235 2.016 3.423 2.377s-2.797-.264-2.292-.208 4.581 1.14 5.318.545-.523-4.141-.893-4.112-.907 4.569-1.328 4.287-.558-5.706-1.197-5.98-2.029 4.654-2.639 4.335-1.385-5.287-1.019-6.246 2.833.469 3.213.493-1.461-.766-.929-.352m5.632-.773c-.848.155-8.59 1.013-8.839 2.615s6.49 6.257 7.343 7-1.599-2.36-2.221-2.539-1.876 1.041-1.511 1.466 3.95 1.132 3.702 1.088-4.986.518-5.191-1.352 3.808-8.442 3.962-9.87-2.669.362-3.039 1.304-.337 3.375.822 4.347 5.98.649 6.132 1.482m-5.609 3.937c.577.906.238 1.503.446.899s.386-3.377.802-4.523 1.452-2.076 1.694-2.355.387.657-.245.681-2.78-1.092-3.546-.535-1.192 2.857-1.047 3.873 2.38 2.439 1.919 2.219-4.583-3.456-4.683-3.537 3.91 3.253 4.088 3.054-3.304-3.575-3.017-4.248m.756 6.45c-1.357-.489-3.382-2.303-3.005-2.843s5.161.188 5.27-.398-3.894-3.49-4.621-3.116-.899 4.533.261 5.359 5.453-.615 6.703-.399 1.524 2.915.801 1.694-4.324-8.148-5.141-9.024-.23 3.755.24 3.769 2.97-4.187 2.583-3.684-5.504 6.813-4.904 6.702m5.231 1.485c.784-.209.712.415 1.024.328s.593-.891.845-.85.745.623.668 1.095-.498 2.28-1.128 1.737-2.105-4.108-2.653-4.998-.795-1.446-.635-.341 1.684 6.134 1.597 6.973-1.874-.962-2.118-1.935.871-4.033.656-3.902-2.757 5.028-1.946 4.685m1.512-1.048c.281-.125 6.132-1.78 6.793-2.978s-.976-4.976-2.83-4.208-8.839 7.568-8.298 8.815 9.829-.492 11.547-1.331-.674-2.626-1.237-3.704-1.237-2.917-2.143-2.767-3.328 3.088-3.291 3.666 2.311-.703 3.51-.198 4.927 3.659 3.682 3.229-9.223-4.932-11.152-5.811m6.222 6.097c-.791-.267-4.11 4.072-4.229 3.715s3.138-6.062 3.515-5.861-.774 5.861-1.251 7.071-2.275.647-1.612.186 4.526-2.657 5.589-2.956 1.721 1.708.788 1.165-5.451-4.594-6.385-4.426.664 5.114.782 5.438-.324-3.154-.075-3.495 1.649 1.142 1.566 1.45m2.565 4.145c.719-.904-.739-4.392-1.083-5.135s-1.517.872-.98.675 4.145-2.031 4.203-1.853-2.405 1.726-3.854 2.921-4.999 4.839-4.842 4.25 5.383-7.197 5.783-7.782-3.519 3.981-3.381 4.271 3.942-2.444 4.209-2.529-2.979 2.113-2.607 2.017 5.551-3.156 4.836-2.593m-.457 4.011c1.179 1.157.243 5.518.036 5.337s-.076-6.229-1.279-6.42-5.842 4.49-5.938 5.273 5.208.252 5.361-.575-3.465-3.918-4.442-4.386-1.557.846-1.42 1.579 1.85 3.435 2.246 2.818.372-5.851.126-6.519-2.394 1.567-1.6 2.512 6.136 2.476 6.366 3.155m-6.652-4.902c1.932.989 9.718 3.82 9.636 5.33s-10.038 4.562-10.132 3.728 8.538-7.583 9.567-8.731-2.394 1.663-3.396 1.843-1.49-1.581-2.615-.763-4.823 6.188-4.136 5.667 6.93-8.446 8.262-8.793.531 5.821-.272 6.716-4.616-.871-4.546-1.349 4.336-1.012 4.964-1.519m-3.927 6.719c-.724 1.127-3.97 1.884-4.604 2.272s-.477.865.803.056 6.552-4.531 6.879-4.911-4.074 1.896-4.921 2.633-.732 1.427-.16 1.789 3.061 1.142 3.592.381.215-4.741-.404-4.947-3.37 3.481-3.308 3.713 3.101-1.795 3.679-2.325.648-.32-.21-.859m-5.654-.25c-.151.253 4.343-2.694 4.112-2.078s-5.195 5.377-5.501 5.772 2.54-3.22 3.665-3.401 3.715 2.577 3.086 2.315-6.76-2.764-6.859-3.888 5.455-2.547 6.268-2.855-.86.982-1.389 1.005-1.714-1.118-1.783-.864 1.122.549 1.369 2.387-.368 9.12.112 8.639m-1.551-.331c.104-.19-.696 1.189-.505.821s1.596-2.602 1.65-3.027-1.909-.124-1.324.477 4.253 3.238 4.832 3.125-1.02-3.201-1.356-3.8-.772-.421-.66.208 1.182 3.674 1.329 3.563.239-3.324-.444-4.229-2.974-1.997-3.652-1.2-.509 6.116-.417 5.979m-2.221-5.648c-.983 1.629.331 7.751 1.444 7.691s4.904-7.802 5.234-8.049-3.149 6.044-3.253 6.565 1.611-2.408 2.625-3.441 3.247-2.081 3.459-2.758-1.021-1.367-2.192-1.3-4.211 1.211-4.831 1.703 1.024 1.92 1.115 1.25-1.433-6.139-.571-5.268 4.835 9.91 5.744 10.492m-.033-3.415c.414.809-3.497 5.643-4.449 6.428s-.869-.504-1.264-1.715-1.692-5.145-1.104-5.548 3.99 2.459 4.635 3.131-.254 1.158-.763.9-1.569-2.419-2.292-2.452-2.909 1.172-2.05 2.256 7.011 4.747 7.203 4.245-5.411-6.266-6.054-7.26 2.379.306 2.196 1.296m-1.741-.18c.176.232.392 1.621-.174 1.594s-3.706-1.37-3.222-1.755 4.148-1.337 6.128-.556 4.86 4.822 5.751 5.242 1.574-3.337-.406-2.723-9.784 5.943-11.472 6.409-.092-3.528 1.346-3.611 6.781 3.326 7.282 3.116-4.383-3.895-4.276-4.376 5.146 1.474 4.922 1.491m-5.936.921c.448.213 1.758-.112 2.473-.454s2.231-1.692 1.816-1.597-4.428 1.793-4.304 2.163 4.37-.006 5.05.057.037.415-.973.324-4.361-.046-5.083-.869.159-3.94.749-4.066 2.218 2.936 2.791 3.311.683-.845.645-1.058-1.075-.965-.871-.219m4.89 2.099c-.158-1.296-7.409-4.664-8.103-5.576s3.412-.633 3.941.106-.78 3.825-.769 4.331 1.17-1.009.837-1.296-2.653.117-2.835-.426 1.732-4.183 1.743-2.834-1.908 11-1.675 10.924 3.615-9.777 3.077-11.375-5.225.581-6.305 1.786-1.764 4.966-.177 5.44m5.458-42.776c-1.029.494-.688-2.314.46-2.189s5.538 2.879 6.428 2.941-.923-2.735-1.088-2.567-.344 4.068.093 3.577 3.294-5.943 2.527-6.524-5.97 1.779-7.131 3.037-.137 3.924.164 4.514.601-.739 1.641-.974 4.375-.226 4.598-.437-3.218-.967-3.26-.831m-1.185.306c.181-1.357 3.474-7.176 3.416-7.027s-3.234 7.844-3.767 7.917-.028-6.866.572-7.48 2.463 3.949 3.024 3.793.194-5.06.343-4.725 1.904 6.127.555 6.735-8.316-3.543-8.648-3.083 5.819 4.883 6.658 5.846-.567 1.009-1.627-.069-4.205-5.429-4.731-6.398m4.848 4.023c-.245-.045-2.409-1.242-3.159-.508s-1.258 4.647-1.338 4.914.816-3.158.861-3.313-1.321 1.742-.593 2.386 4.223 1.812 4.96 1.479-.685-3.174-.539-3.48 1.457 1.62 1.418 1.642-1.311-1.654-1.654-1.511-.065 2.941-.402 2.367-1.279-5.595-1.621-5.806m4.014-1.16c.004 1.209-6.854 6.433-6.396 6.63s8.01-5.043 9.141-5.451-1.338 3.135-2.356 3.002-3.306-3.809-3.747-3.801 1.567 3.87 1.101 3.851-4.111-3.53-3.894-3.966 4.829.295 5.196 1.352-2.765 4.617-2.993 4.992 2.412-2.214 1.624-2.742-6.866-1.207-6.354-.426m4.629 2.127c-.645.267-1.528 3.324-1.522 3.438s1.058-3.115 1.555-2.753 1.702 4.608 1.429 4.927-2.725-3.008-3.066-3.011.304 3.005 1.018 2.991 2.64-3.071 3.267-3.076.149 3.304.495 3.046 1.746-4.061 1.578-4.595-1.495 1.443-2.585 1.39-4.094-2.123-3.954-1.709m-.573 6.556c.07.13-.343-.588.674-1.459s4.796-2.751 5.427-3.771-.31-1.936-1.643-2.347-6.472-.142-6.352-.117 5.242.176 7.072.268 4.118.109 3.91.285-4.877 1.046-5.157.775 3.686-3.121 3.478-2.405-4.95 5.311-4.723 6.698 6.702 2.554 6.087 1.623m-5.971 3.582c.097.621-.679-1.973-.027-2.754s4.049-2.534 3.939-1.936-3.971 4.67-4.599 5.526.188-.196.83-.388 2.93-.691 3.022-.768-2.454.461-2.471.307 2.26-1.198 2.373-1.236-1.69 1.797-1.695 1.012 1.949-5.383 1.667-5.724-2.927 2.993-3.356 3.677m4.428-2.696c.968-.068.808-1.196.118-.629s-4.657 3.581-4.262 4.029 6.986-1.901 6.632-1.339-7.206 4.424-8.753 4.708-1.566-2.656-.531-3.006 6.213 1.665 6.74.904-3.725-5.399-3.578-5.475 3.803 3.902 4.456 5.022-.536 2.618-.538 1.698 1.638-6.096.526-7.217m-4.504 2.832c.143.366.688 5.677 1.268 5.874s1.613-4.498 2.214-4.689 2.072 2.595 1.391 3.545-4.7 1.933-5.48 2.155.993.06.799-.819-1.669-4.692-1.963-4.458-.064 5.318.203 5.862.267-2.056 1.396-2.6 5.564-.728 5.378-.663-6.126 1.084-6.496 1.05m6.789.054c1.275.645-.343-.871-1.665-1.019s-5.279-.826-6.266.131-.081 6.225.345 5.611 1.037-7.714 2.21-9.294 4.64-.061 4.825-.185-2.709-.476-3.718-.563-1.47-.994-2.337.045-2.453 5.437-2.862 6.189.501-1.946.409-1.678-1.246 3.191-.959 3.286m5.938.861c.151-.659 1.384-1.015 1.211-1.866s-1.979-3.467-2.245-3.243-.098 3.832.646 4.587 3.483-.27 3.818-.06-1.833 1.619-1.81 1.319 2.49-2.843 1.947-3.115-4.54 1.889-5.205 1.484.364-3.65 1.218-3.912 3.845 1.455 3.904 2.338-2.673 2.184-3.549 2.956m2.844-.777c-1.014-.279-4.579-4.313-5.53-5.106s-1.335.728-.175.349 6.692-3.307 7.135-2.625-3.404 6.153-4.475 6.714-2.696-2.371-1.954-3.35 5.322-3.396 6.409-2.521 1.35 7.29.115 7.77-5.928-5.326-7.528-4.891-2.857 6.186-2.075 7.497 6.856.693 6.771.368m-2.57-1.803c-.594 1.135 1.894 2.769 1.698 3.399s-2.446.191-2.876.38-.303.618.3.754 2.405.502 3.319.062 2.578-2.151 2.168-2.702-3.582-.583-4.627-.608-1.98.615-1.643.455 3.63-1.152 3.661-1.41-3.106.21-3.473-.14 1.416-2.293 1.272-1.962M37.7 59.024c.394-.448 5.11.274 5.663-.701s-1.963-4.985-2.348-5.149-.387 3.927.037 4.164 2.917-1.667 2.506-2.742-5.087-4.47-4.973-3.706 4.638 8.213 5.653 8.288.726-7.439.441-7.834-.679 4.311-2.153 5.459-6.226 2.296-6.688 1.432 2.948-7.092 3.915-6.619m-1.349 11.735c-1.019.09-.071-5.087.323-5.72s2.16 1.212 2.042 1.921-3.379 2.456-2.751 2.331 5.896-2.681 6.516-3.077-1.967 1.078-2.796.7-2.721-3.573-2.18-2.968 5.358 6.056 5.429 6.601-5.041-3.331-5.001-3.332 4.585 3.093 5.239 3.328-.151-1.902-1.313-1.919m1.415-1.445c-1.724.912-8.764 1.029-9.326.934s4.608-1.475 5.955-1.507 1.444 1.264 2.125 1.316 3.008-1.05 1.962-1.002-8.124 2.071-8.237 1.293 6.21-4.72 7.558-5.961 1.101-2.518.53-1.486-3.843 6.376-3.959 7.676 3.994.974 3.26.124-7.594-4.31-7.659-5.221m3.31 9.356c.762.757 2.014-.578 2.592-.781s1.041-.242.88-.437-2.044-.601-1.848-.733 2.915-.234 3.022-.062-2.06 1.082-2.38 1.091.062-1.275.462-1.036 1.557 2.649 1.94 2.468 1.157-3.602.356-3.553-4.437 3.156-5.159 3.845 1.127.613.822.287m1.109-4.544c-.687.355-.613 3.014-.443 3.335s1.389-.459 1.467-1.407-.441-4.802-1.001-4.277-2.507 7.615-2.359 7.431 2.526-7.525 3.248-8.534 1.377.995 1.081 2.483-1.791 5.19-2.86 6.445-3.567 2.376-3.553 1.085 2.846-8.774 3.636-8.835.81 7.03 1.106 8.466m-2.215-3.482c.282-.32-.304.506-.074 1.334s.769 3.252 1.454 3.635 3.251-.544 2.653-1.334-5.44-3.828-6.24-3.405.992 5.944 1.44 5.944.758-5.861 1.25-5.945 2.344 4.371 1.702 5.444-5.816 1.97-5.555.992 6.677-5.953 7.122-6.862-3.514 1.456-4.452 1.406m3.524-2.707c-1.627.372-6.803 5.131-7.076 4.983s5.029-6.716 5.436-5.87-3.007 10.209-2.994 10.942 2.122-5.003 3.076-6.543 1.813-3.586 2.647-2.698 2.362 6.71 2.354 8.03-2.395-.172-2.403-.109 2.569 1.046 2.353.485-2.119-2.975-3.647-3.851S38 67.51 37.8 67.01M38.877 75c.986-.617 4.183-4.763 4.96-5.195s.648 2.477-.301 2.603-5.104-2.36-5.393-1.845 2.936 4.319 3.66 4.933.383-.293.688-1.251 1.64-3.763 1.142-4.498-3.553-.538-4.129.09.921 2.632.677 3.68-2.555 2.201-2.145 2.607 3.923.614 4.604-.173m-4.178 1.73c1.277.747 7.847-5.077 8.308-5.309s-4.653 4-5.541 3.914.149-3.617.215-4.427.713-.595.184-.435-2.897 1.385-3.358 1.396-.285-2.086.595-1.334 4.003 4.987 4.681 5.845.442.219-.61-.696-5.713-4.761-5.705-4.795 5.766 3.789 5.757 4.59m2.102 2.721c.176.583-5.065-.833-6.229-.962s-1.361.539-.754.185 3.292-2.436 4.398-2.305 1.99 2.929 2.238 3.09-.504-2.375-.75-2.125-.009 3.067-.729 3.628-2.984.176-3.592-.264-.949-1.063-.057-2.378 4.564-5.202 5.405-5.508-.148 2.538-.358 3.673m2.636 5.315c.812.021-3.5-6.71-4.653-8.167s-2.461-1.631-2.261-.573 3.609 6.259 3.459 6.922-3.548-2.773-4.359-2.947-.427 1.083-.506 1.903-1.27 4.074.032 3.018 7.245-8.577 7.782-9.355-3.142 3.027-4.56 4.686-3.493 4.486-3.947 5.266-.029-.417 1.225-.584m5.102-62.869c-.643-1.064.857-3.324 1.061-2.666s.402 6.147.165 6.615-1.516-3.487-1.59-3.807 1.381 2.088 1.148 1.885-2.683-2.653-2.545-3.104 3.159.34 3.375.399-1.62-.466-2.082-.044-1.47 2.095-.692 2.575 4.455.229 5.361.307 1.146.558.072.156m-7.409-1.043c-.87-.44 3.076 2.242 4.279 2.355s2.763-.795 2.941-1.675-2.55-3.827-1.875-3.601 5.546 4.157 5.924 4.961-2.524 1.062-3.657-.14-2.328-7.721-3.14-7.069-.994 9.649-1.734 10.981-3.932-2.441-2.708-2.988 10.075.328 10.05-.294-9.811-2.212-10.197-3.439m7.409 3.717c.065-.161.244 3.157-.194 3.908s-2.541 1.181-2.437.598 3.643-3.8 3.065-4.095-5.648 1.616-6.537 2.323 1.065 2.263 1.205 1.92-.939-3.084-.363-3.979 3.771-2.051 3.821-1.39-3.641 4.623-3.521 5.354 3.522.059 4.238-.966.802-5.271.056-5.186m2.324.218c-1.033-.009-9.32 6.833-9.557 7.568s7.964-2.256 8.136-3.16-7.317-2.083-7.105-2.266 7.374 1.187 8.378 1.17-2.364-.276-2.351-1.27 2.086-4.636 2.43-4.696.576 3.546-.364 4.333-3.99-.332-5.275.387-1.675 4.054-2.435 3.93-1.979-4.013-2.123-4.675m.442 4.732c-.825-.321 1.593 1.972 2.607 1.443s2.794-4.243 3.48-4.617 1.325 1.537.639 2.369-4.761 2.606-4.754 2.623 4.034-2.419 4.794-2.517-.155 1.199-.234 1.926-.415 2.358-.237 2.438 1.874-1.502 1.302-1.957-4.124-1.072-4.737-.772.645 2.889 1.059 2.57m2.136-8.997c.262 1.075.846 10.085 1.507 10.964s3.096-5.38 2.459-5.692-4.716 4.015-6.282 3.821-3.798-5.423-3.11-4.987 7.531 6.688 7.237 7.603-8.672-1.55-9.002-2.112 6.448-1.536 7.024-1.257-3.316 3.13-3.567 2.927 2.782-3.812 2.058-4.146-5.727 1.923-6.4 2.143m5.082 1.125c.335-.439-.945-4.056-.198-3.785s4.892 4.584 4.683 5.409-5.068-.634-5.937-.456-.467 1.874.72 1.528 6.044-3.352 6.398-3.608-3.175 2.033-4.277 2.074-1.821-1.421-2.333-1.827-1.8-1.052-.74-.608 7.104 3.283 7.097 3.268-6.508-2.307-7.142-3.36m7.935-5.384c.612.956 1.009 6.033 1.195 7.728s.936 2.253-.077 2.444-4.27-1.23-6.004-1.299-5.182 1.534-4.4.886 7.83-4.608 9.089-4.773-.455 4.232-1.532 3.784-4.748-6.656-4.935-6.472 3.387 6.413 3.813 7.576-1.246-.816-1.26-.601 2.044 2.295 1.178 1.89m-2.074 3.264c-1.106.439-2.279.994-1.581-.207s4.899-7.054 5.77-6.999-.672 6.776-.54 7.327 1.73-2.84 1.33-4.023-2.679-3.461-3.73-3.074-2.018 4.842-2.576 5.397-1.811-1.691-.773-2.063 6.875.071 7.006-.172-5.625-.828-6.221-1.287 2.478-1.428 2.641-1.468m-5.31 4.72c.096-1.626.084-5.629 1.501-6.601s7.058-.721 7.003.768-7.255 7.319-7.331 8.162 7.188-3.309 6.874-3.101-8.469 3.544-8.757 4.35 5.63 1.285 7.03.484.903-3.802 1.37-5.29 2.764-3.198 1.43-3.642-8.764.764-9.431.975 4.185-.66 5.429.293m-1.858 5.122c.127-.1-1.39-4.36-1.66-4.34s-.857 3.42.037 4.459 5.145 1.928 5.323 1.772-3.248-1.981-4.255-2.712-2.602-1.479-1.791-1.674 6.486-.315 6.657.505-4.988 3.59-5.63 4.415 1.627.514 1.779.534-1.229.204-.867-.416 2.121-2.531 3.037-3.302m-3.23-5.219c-1.643.034-3.865 2.264-3.558 2.368s3.941-2.231 5.403-1.744 3.11 4.181 3.373 4.669-1.533-.898-1.798-1.744-.434-2.803.21-3.331 3.944-1.787 3.653.163-3.396 10.507-5.401 11.537-5.524-4.178-6.629-5.354-.948-2.525-.004-1.698 4.477 6.186 5.666 6.663m-1.024-.777c.802.131 3.094 1.919 3.848 1.994s.962-1.47.676-1.547-1.617.744-2.394 1.083-2.695.789-2.27.948 4.037-.103 4.821.006-.233.808-.12.651.567-.891.797-1.597 1.51-2.861.581-2.636-4.978 4.192-6.15 3.987-1.483-4.108-.885-5.221m-.292 1.247c-.171.733 2.396 1.71 3.411.956s2.402-4.906 2.678-5.476-.404.632-1.021 2.053-1.437 6.241-2.682 6.475-4.421-4.01-4.789-5.076 1.822-2.022 2.576-1.32 1.699 4.622 1.946 5.532-1.314.288-.465-.072 6.111-1.295 5.56-2.083-7.894-1.643-8.865-2.648m2.831 5.088c.587-.75 2.52-2.146 3.118-1.913s.741 2.732.471 3.309-1.893.165-2.09.153.158-.64.909-.225 4.143 2.134 3.594 2.711-6.319 1.182-6.892.751 3.242-3.249 3.457-3.337-2.137 2.79-2.167 2.809 1.162-1.793 1.986-2.694 2.592-3.082 2.958-2.716m-4.153 4.575c1.332-.929 6.956-4.368 6.887-4.406s-5.93 4.271-7.301 4.18-2.264-5.296-.924-4.722 8.208 7.548 8.963 8.164-2.494-3.912-4.432-4.47-6.67.652-7.198 1.122 3.754 1.829 4.035 1.697-1.84-1.056-2.347-2.486-1.584-6.463-.693-6.094 4.728 7.819 6.041 8.306m-.304-.171c.558.938-1.718 3.065-1.996 2.934s.355-2.657.326-3.72-.678-2.369-.502-2.655 1.963-.113 1.558.941-3.118 4.953-3.989 5.384-2.275-2.721-1.237-2.801 6.447 1.999 7.468 2.32-.871-.574-1.342-.392-1.676 2.117-1.485 1.483 3.204-4.392 2.631-5.289m-3.656.571c.641-1.216.272-2.222 1.184-1.859s4.537 2.498 4.286 4.039-5.407 5.892-5.789 5.205 3.314-8.88 3.498-9.325-2.604 5.922-2.395 6.657 4.638-2.041 3.65-2.249-9.698 1.792-9.576 1.002 9.82-6.027 10.307-5.742-6.288 7.045-7.385 7.45 1.026-4.683.801-5.021m-1.48 3.631c.402-.369 5.805 3.438 6.997 3.973s1.175.152.157-.762-5.958-5.166-6.265-4.724 3.427 6.847 4.422 7.373 1.188-3.276 1.548-4.215 1.626-1.484.612-1.42-6.507.899-6.696 1.801 5.152 2.954 5.561 3.61-2.38.504-3.105.33-.734-.296-1.245-1.374m5.735-5.988c.869-.917-4.617 3.218-4.845 3.426s4.02-1.425 3.481-2.182-6.047-3.231-6.715-2.363 2.741 7.366 2.708 7.569-2.056-5.896-2.906-6.355-3.353 3.926-2.198 3.605 8.956-4.673 9.129-5.534-7.883-.916-8.088.368 6.355 6.446 6.856 7.34-3.746-1.008-3.848-1.977m3.92 2.461c-.014.091-3.606 3.298-4.126 2.942s.791-5.374 1.008-5.077.447 6.612.29 6.859-1.983-4.652-1.235-5.372 5.157.783 5.718 1.047-1.967-.097-2.354.538-.143 2.731.031 3.273.874-.068 1.013-.021.762.689-.18.306-5.195-1.401-5.473-2.608m-.427-2.901c.315 1.148 6.275 6.771 7.556 6.312s1.496-8.046.126-9.068-7.689 1.654-8.342 2.936 4.086 4.484 4.427 4.758-2.172-1.74-2.38-3.113.672-4.655 1.13-5.122.994 1.624 1.615 2.319 2.426.925 2.115 1.854-3.127 4.083-3.984 3.724-.706-6.283-1.156-5.88m1.877 6.745c.389.158 1.807 3.898 1.528 3.477s-3.103-5.189-3.201-6.006 2.512.342 2.614 1.102-1.785 3.142-2.004 3.456-.276-.579.693-1.57 4.776-4.532 5.119-4.378-2.629 4.936-3.061 5.3 1.245-2.902.466-3.116-4.948 1.491-5.141 1.834 3.039.428 3.982.224m-4.308-5.741c.862-.516 3.043 2.611 4.088 2.578s2.571-4.12 2.183-2.776-3.906 9.927-4.511 10.842 1.082-3.978.884-5.35-3.227-3.635-2.075-2.879 7.983 7.722 8.987 7.415-2.792-7.506-2.963-9.256 1.44-2.1 1.937-1.241 1.437 4.813 1.049 6.39-1.993 2.43-3.38 3.071m-1.791-2.232c.093.649 2.778 3.275 3.359 4.546s.799 2.636.127 3.08-3.675.237-4.163-.42 1.396-3.137 1.234-3.521-2.511.915-2.207 1.217 4.355.69 4.031.596-4.98-.491-5.975-1.164-.376-2.405.005-2.875 1.975.351 2.283.054-.759-1.67-.431-1.835m6.058 6.128c-.258-.011-7.401-6.678-8.481-6.864s1.403 5.576 1.998 5.745.386-5.233 1.569-4.726 5.465 6.714 5.532 7.768-4.894-1.39-5.129-1.446 3.53 1.706 3.718 1.108-1.991-3.187-2.591-4.694.053-4.149-1.007-4.348-4.398 2.863-5.352 3.152-2.15-2.007-.374-1.418m3.275 9.399c.795.503 3.358-1.75 4.076-1.652s.427 1.939.232 2.236-1.572.357-1.404-.455 2.436-4.255 2.415-4.416-1.411 2.733-2.539 3.449-4.175.376-4.227.846 3.51 1.816 3.916 1.974-1.081-.759-1.477-1.025-.694.142-.898-.572-.58-2.801-.328-3.714m8.165-1.934c-.419-1.208-9.618.655-10.783 1.285s2.721 2.121 3.795 2.496 2.718-.918 2.647-.249-1.911 4.127-3.069 4.262-4.78-3.723-3.882-3.453 7.389 5.25 9.272 5.073 1.785-6.048 2.023-6.134.783 5.603-.591 5.62-6.528-4.575-7.652-5.519.501-1.097.909-.144m4.706 3.855c-.248-.845-2.203-2.847-1.901-3.152s3.521.742 3.715 1.324-2.494 1.924-2.552 2.169 2.879-.759 2.205-.696-5.896.382-6.246 1.069 3.592 3.016 4.146 3.056-1.058-2.392-.825-2.816 2.72.442 2.223.27-5.042-.637-5.202-1.302 4.358-3.116 4.245-2.685m-5.673 2.46c-1.364-.347-2.307.344-.7-.248s9.117-2.786 10.34-3.308-2.922-1.078-3.002.178 3.378 7.693 2.519 7.356-7.037-8.907-7.669-9.38 4.02 6.67 3.874 6.546-5.276-7.873-4.751-7.288 6.59 10.53 7.901 10.796.552-7.388-.037-9.199-3.619-2.216-3.498-1.669m3.939-48.377c.34.322.626-1.211.062-1.139s-2.79 1.516-3.448 1.57-.618-.437-.503-1.246 1.507-3.484 1.195-3.612-3.371 2.782-3.064 2.841 3.864-2.284 4.908-2.489 2.184 1.31 1.359 1.262-6.156-2.319-6.31-1.554 4.885 4.947 5.386 6.145-2.153 1.083-2.381 1.04m-2.14-6.026c.637-1.021 6.579-4.078 7.547-3.455s-.111 6.602-1.743 7.196-7.206-4.302-8.046-3.632 2.64 6.466 3.009 7.652-1.256.566-.796-.533 2.429-5.224 3.553-6.059 4.206.793 3.189 1.048-7.962-.359-9.292.478.22 4.558 1.314 4.545 5.155-3.267 5.251-4.627m2.281 2.559c-.366-.119-6.767-2.733-7.39-2.373s3.079 4.156 3.656 4.529-.602-1.961-.192-2.291 2.529.366 2.649.307-1.233-1.015-1.924-.665-1.5 2.938-2.225 2.763-2.153-3.188-2.124-3.814 1.722-.218 2.295.061.353 1.852 1.145 1.609 4.013-3.695 3.608-3.067m-6.531 6.749c1.231.862 8.979-.806 9.022-1.263s-8.742-.362-8.761-1.477 7.012-4.362 8.646-5.21 2.771.084 1.154.121-10.049-1.017-10.855.103 5.273 6.382 6.022 6.614-1.487-4.455-1.529-5.224 1.916-.047 1.276.61-5.454 3.503-5.114 3.333 6.96-3.822 7.154-4.356m-.511 6c-.28-.214-3.958 3.101-4.264 3.747s1.698.844 2.424.128 1.613-4.363 1.933-4.428.086 2.986-.011 4.039.604 2.924-.571 2.283-5.683-5.09-6.476-6.132 1.531.167 1.716-.122-.678-1.724-.609-1.615.301 1.713 1.026 2.266 2.386.146 3.326 1.052M49.33 22.4c-.416 1.396-1.249 8.177-2.149 9.211s-4.216-3.196-3.248-3.007 7.296 4.069 9.056 4.14 1.517-2.441 1.505-3.713-1.667-3.064-1.581-3.916 2.438-1.818 2.099-1.198-2.779 5.071-4.136 4.918-3.347-5.104-4.008-5.837.151-.202.044 1.434-1.762 8.115-.686 8.385m-.75 1.776c.295.165.474.651 1.455-.434s3.627-5.523 4.431-6.075.23 2.204.395 2.767 1.651.06.598.611-6.918 2.574-6.915 2.694 6.018-1.841 6.931-1.973-1.249.902-1.454 1.181.229 1.264.225.495.379-4.753-.246-5.11-2.788 2.232-3.506 2.968m-3.448-4.945c1.251.399 7.662 8.224 8.706 8.699s-1.126-5.131-2.438-5.851-6.096.533-5.434 1.528 9.557 4.212 9.408 4.445-8.499-1.538-10.303-3.049-.549-6.094-.521-6.013.398 5.343.688 6.495 1.067-.125 1.053.416-2.498 3.366-1.138 2.826 9.101-4.938 9.296-6.068m-2.761 8.657c-.386 1.004-.614 1.208-1.421 1.227s-2.85.065-3.423-1.117-.851-5.142-.018-5.976 5.006.581 5.019.972-4.861.779-4.94 1.372 4.301 1.909 4.469 2.187-3.102-.356-3.462-.518 1.574.217 1.304-.453-3.272-3.183-2.924-3.568 4.213.563 5.01 1.256m1.846 6.469c1.636 1.219 1.111 1.685.912 1.514s-.528-2.298-2.105-2.542-7.576 2.624-7.358 1.079 7.561-8.719 8.663-10.353-2.034-1.009-2.053.549 2.323 7.868 1.942 8.798-3.749-3.668-4.232-3.223.777 5.982 1.332 5.895 2.566-5.985 1.994-6.414-5.503 4.657-5.424 3.839m2.637 4.146c-.516.151 2.226-5.648 2.027-5.552s-3.296 6.013-3.218 6.129 3.389-4.317 3.685-5.433-1.706-1.179-1.91-1.26.674-.328.686.773-1.121 5.744-.618 5.836 3.386-4.511 3.637-5.284-1.782.567-2.13.645-.309.325.043-.178 1.842-3.066 2.072-2.837m-.955-1.696c-.225-.474-1.474 2.523-1.58 3.422s.47 2.5.942 1.971 2.15-6.091 1.888-5.149-2.886 10.28-3.458 10.805.454-7.068.025-7.659-1.802 3.005-2.599 4.112-2.03 3.176-2.183 2.527.379-5.354 1.264-6.424 2.779-.592 4.044.008 4.425 2.54 3.544 3.59m-.409.24c-.375-.762-4.267-.295-5.316-.379s-1.855-.525-.98-.123 6.099 1.724 6.233 2.535-4.972 2.611-5.429 2.329 2.765-2.972 2.687-4.023-3.017-2.361-3.152-2.282 1.257 2.837 2.338 2.755 3.583-3.107 4.148-3.249-.771 1.657-.756 2.402 1.853 2.192.851 2.07m-6.533-5.13c-.845.375 1.48 5.345 3.066 6.547s7.273.797 6.45.664-9.588-.661-11.388-1.464.756-3.151.586-3.355-2.108 2.196-1.608 2.135 4.266-3.193 4.609-2.5-3.058 6.505-2.551 6.66 4.278-4.831 5.591-5.729 2.685-.281 2.285.339-4.408 3.161-4.683 3.382m2.617 3.143c-.176.492-1.22.436-2.094.356s-3.267-1.038-3.146-.837 3.733 2.52 3.869 2.043-3.161-4.56-3.049-4.903 2.74 2.649 3.722 2.841 2.55-1.759 2.17-1.688-3.563 2.1-4.448 2.113-.461-1.904-.862-2.038-1.4 1.031-1.544 1.235-.018.259.678-.011m3.658 4.549c-.646-1.07 1.42-7.094.499-7.58s-4.865 4.735-6.027 4.663-1.588-5.287-.947-5.097 4.3 5.972 4.793 6.238-1.482-5.016-1.835-4.641-1.263 5.882-.285 6.89 6.41-.231 6.15-.841-6.741-2.148-7.707-2.823 1.856-.39 1.912-1.227-1.392-3.409-1.576-3.798m4.18 4.473c-.459.71-4.849 4.992-4.49 5.819s5.725-.782 6.639-.858-.899.545-1.151.405.277-1.029-.365-1.247-2.615.21-3.485-.059-2.072-1.711-1.731-1.552 2.885 2.443 3.777 2.507 1.046-1.523 1.575-2.122 2.486-2.235 1.6-1.47-5.831 5.584-6.918 6.059m-2.09-5.024c.217 1.16 4.864 4.221 5.402 4.697s-2.486-.365-2.176-1.845 2.965-7.712 4.04-7.034 1.756 10.917 2.408 11.103 3.163-9.129 1.501-9.983-11.314 4.974-11.468 4.858 9.858-5.541 10.546-5.555-5.501 4.906-6.421 5.476 1.539-2.217.903-2.055-5.259 2.955-4.719 3.026m5.52 4.561c-.76-.365-2.768-3.022-2.259-3.156s4.392 2.641 5.31 2.352-.106-3.624.198-4.084 1.613.979 1.63 1.322-.728 1.046-1.529.735-3.452-2.106-3.278-2.598 4.786-1.311 4.321-.356-6.816 5.077-7.116 6.086 4.151.758 5.319-.031 2.52-4.066 1.691-4.701m-4.8-3.787c-.297 1.713 2.093 8.477 3.343 10.295s4.19.622 4.158.611-3.432.879-4.353-.676-.209-8.563-1.169-8.653-5.299 7.19-4.595 8.111 7.818-1.707 8.819-2.584-2.062-2.726-2.815-2.682-.939 3.594-1.704 2.948-3.502-6.842-2.882-6.825 5.577 6.005 6.604 6.926m-5.369-.81c.311 1.165 4.381 5.848 4.17 6.291s-4.521-3.337-5.433-3.635.164 1.72-.037 1.849-1.092-.742-1.167-1.074.507-1.424.717-.916-.426 4.179.545 3.962 4.614-4.545 5.277-5.265-.544.966-1.296.946-2.383-1.055-3.215-1.068-2.1.494-1.776.992m5.884 4.809c-.608.74-.509-1.257-.112-2.752s2.057-7.03 2.494-6.222.043 9.94.129 11.072.672-2.616.385-4.279-1.86-5.156-2.106-5.703 1.216 1.537.626 2.422-4.366 3.463-4.168 2.887 5.412-6.502 5.36-6.34-5.058 5.791-5.677 7.312 2.626 2.126 1.963 1.817m1.556-3.913c-.652.363-4.692 3.385-5.244 4.216s1.755.092 1.929.77-.512 3.6-.883 3.299-.81-4.885-1.343-5.102-2.666 3.157-1.859 3.802 5.684.889 6.702.07.352-4.093-.593-4.986-5.078-.405-5.076-.37 4.022.254 5.09.578 1.91.555 1.317 1.362m-9.319-1.194c-1.393.58.941 5.354 1.052 5.217s-1.356-5.715-.39-6.04 5.818 3.672 6.187 4.091-4.304-1.167-3.975-1.577 6.123-1.448 5.946-.885-6.697 3.147-7.007 4.263 4.363 2.573 5.148 2.43-.507-1.481-.436-3.287 1.179-7.904.864-7.547-1.832 8.521-2.755 9.689m3.569 2.354c.705.4 1.647-4.15 1.766-4.083s-.629 3.85-1.054 4.483-1.538-.026-1.497-.685 1.898-2.331 1.74-3.265-1.552-2.519-2.688-2.334-4.466 2.868-4.131 3.44 5.623.112 6.143-.008-2.931-1.216-3.023-.713 1.869 3.804 2.472 3.729 1.295-3.397 1.147-4.177m2.017 4.034c.276-.964-.668-6.815-1.87-7.446s-4.813 2.289-5.338 3.66 1.449 5.274 2.19 4.563 2.985-8.623 2.255-8.83-7.054 6.543-6.634 7.584 7.644-1.137 9.158-1.334.073.203-.075.154.224-.137-.812-.447-5.794-1.393-5.405-1.412 7.832 2.201 7.739 1.297m-4.108-1.841c-.817-.449-4.22 3.194-4.514 3.601s2.097-1.795 2.748-1.161 1.109 4.891 1.155 4.963-.698-3.252-.877-4.528-.594-3.258-.197-3.129 2.468 3.516 2.578 3.904-1.246-1.009-1.915-1.571-2.318-1.633-2.101-1.802 3.916-.309 3.406.788-5.439 5.687-6.462 5.793m.667-1.114c.327-.861-1.387-2.017-.05-2.812s7.939-2.211 8.071-1.954-5.557 3.115-7.279 3.494-4.028-1.844-3.05-1.218 8.984 4.324 8.919 4.973-8.373-.083-9.309-1.081 3.286-3.646 3.698-4.906-.668-3.44-1.229-2.652-3.063 6.196-2.134 7.382 7.72.745 7.705-.265m-4.361 1.737c.72.993 4.63 2.203 5.526 2.641s-.224.383-.149-.01 1.658-1.964.603-2.348-6.211-.47-6.936.045 2.475 2.659 2.588 3.048-1.767-.204-1.909-.715.836-1.72 1.055-2.353.567-1.584.26-1.443-2.353 2.178-2.104 2.288 3.068-2.106 3.6-1.628m3.502 4.955c.105.397-3.547-3.178-3.6-3.285s2.392 3.579 3.282 2.64 2.697-7.493 2.058-8.276-5.412 2.894-5.887 3.577 1.983.728 3.037.522 4.076-2.761 3.29-1.757-7.485 7.342-8.003 7.782 5.594-3.229 4.897-5.142-7.835-6.578-9.079-6.337 1.486 7.706 1.61 7.785m6.442-58.166c.352-1.197 2.869-4.912 2.709-4.598s-3.802 6.053-3.671 6.48 3.593-3.669 4.456-3.914.738 2.772.723 2.445-.311-4.132-.813-4.407-2.274 2.125-2.203 2.752 1.988.547 2.627 1.01 1.229 2.296 1.205 1.772-.917-4.125-1.348-4.915-.914-.021-1.238.176m1.406-2.221c.483-.193 2.999 5.388 3.597 5.347s.031-5.401-.009-5.594.883 4.237-.231 4.434-5.918-2.924-6.448-3.252 2.426.445 3.267 1.286 1.781 3.999 1.777 3.758-1.628-5.614-1.798-5.207.033 6.695.779 7.648 3.737-1.933 3.694-1.93-2.738 1.497-3.952 1.947m2.065-2.644c-.802-.308-6.953-.789-7.156-.156s5.89 3.904 5.941 3.957-5.111-3.617-5.636-3.644 1.434 3.483 2.488 3.482 3.566-3.92 3.833-3.49-1.682 6.295-2.231 6.071-.276-6.51-1.064-7.418-3.901 1.68-3.659 1.967 3.991-.278 5.109-.243 2.407.246 1.6.455m-8.744-3.455c-.758-1.092 3.794-2.597 4.843-1.032s1.095 10.197 1.451 10.421.173-8.542.682-9.08 1.965 5.258 2.372 5.852 1.424-2.714.069-2.29-7.425 3.701-8.2 4.835 3.03 2.236 3.551 1.965-.317-2.467-.426-3.593-.592-3.541-.224-3.165 2.095 6.151 2.433 5.422m-.267 2.034c-.099.833.395-.536-.187-.609s-3.477-.118-3.302.175 3.718 1.857 4.356 1.583.427-2.93-.525-3.227-5.354 1.377-5.189 1.447 5.909-.723 6.178-1.028-3.458-.391-4.563-.801-2.049-1.693-2.065-1.657 1.605 1.244 1.97 1.872-.576 1.79.222 1.898m-1.436-8.128c.678 1.332.867 10.93 1.254 10.944s.622-9.159 1.07-10.857 1.926.075 1.615.67-2.953 2.637-3.478 2.9-.325-.977.33-1.319 3.048-1.816 3.599-.729-.984 6.322-.298 7.251 4.498-1.315 4.412-1.677-3.868.666-4.927-.497-2.273-7.121-1.427-6.482m3.046 10.951c-.108.433-3.605.808-3.55 1.029s3.339.158 3.88.297.058.728-.632.537-3.5-.72-3.51-1.68 3.482-4.488 3.45-4.079-3.975 5.409-3.64 6.533 5 1.139 5.655.212-1.65-5.742-1.726-5.772 1.211 4.61 1.274 5.587.047 1.155-.895.276m-7.726-.853c1.188-.309 9.527-7.265 10.875-6.883s-1.372 9.09-2.784 9.175-5.721-7.978-5.685-8.666 6.135 2.98 5.903 4.536-6.594 4.567-7.295 4.803 2.643-2.69 3.087-3.386-1.346-1.514-.421-.789 5.587 4.6 5.97 5.137-2.706-1.598-3.671-1.918-1.883 1.636-2.118-.004m3.388 1.257c.206-1.218-4.688-5.574-4.313-5.292s6.402 6.395 6.563 6.985-4.576-3.245-5.597-3.445-1.464 1.873-.529 2.244 6.185-.218 6.136-.019-5.458.804-6.431 1.21.468 2.077.594 1.226-.58-5.279.161-6.333 4.412-.661 4.287.008-4.756 3.285-5.037 4.004m.247-7.466c-1.442-.643-1.498.628-.729 1.671s4.094 3.136 5.341 4.582 2.369 4.971 2.14 4.096-1.74-9.185-3.511-9.346-6.168 8.628-7.113 8.383 1.03-8.333 1.445-9.852-.605.541 1.044.737 7.986-1.371 8.849.437-3.446 9.758-3.673 10.409 1.524-5.344 2.314-6.499m-3.992 1.011c-.003-.526.419 2.75.403 3.765s-.747 2.661-.502 2.329 2.114-4.631 1.972-4.325-2.964 5.514-2.824 6.163 2.871-1.971 3.663-2.273 1.772 1.208 1.089.461-4.575-4.737-5.189-4.947 1.657 3.112 1.502 3.688-2.118-.431-2.431-.234-.416 1.476.552 1.417m1.729-1.888c.085-.052-2.356 4.733-2.291 5.337s2.692-.422 2.685-1.711-3.678-5.307-2.731-6.023 7.398.426 8.412 1.726-1.566 5.388-2.33 6.072-1.92-2.01-2.252-1.967.904 3.78.261 2.225-3.233-9.64-4.12-11.553-.935-1.731-1.2.078-.356 10.434-.387 10.778m5.332 1.166c-.034.57-5.163-1.509-5.295-2.207s3.93-1.585 4.505-1.983-1.084-.878-1.057-.407 1.338 2.842 1.214 3.237-1.955-1.004-1.96-.869 1.882 1.835 1.932 1.679-.864-1.472-1.634-2.618-2.642-4.057-2.989-4.261 1.028 2.659.907 3.036-2.114-1.422-1.63-.774m5.584-.094c.099-.152 3.769 3.935 3.609 5.08s-2.746 3.021-4.569 1.79-7.106-8.589-6.371-9.176 10.689 4.587 10.779 5.65-9.561.483-10.236.726 4.512.243 6.186.731 3.599 2.567 3.861 2.201-2.102-2.51-2.289-4.396 1.951-6.38 1.17-6.917-5.214 2.175-5.857 3.693m4.845 5.097c.741.709 1.421 3.841.604 4.654s-5.393.707-5.504.227 4.512-3.237 4.838-3.107-2.944 3.238-2.885 3.884 2.628.283 3.238-.006 1.249-1.238.421-1.727-4.875-1.457-5.385-1.21 1.243 2.225 2.324 2.694 3.937.038 4.158.118-1.903 1.296-2.831.366m2.958-6.212c-.653.514-4.669 4.299-4.353 3.803s5.454-7.108 6.248-6.78-.87 7.933-1.483 8.752-1.789-3.097-2.197-3.841.641.134-.248-.62-5.769-4.667-5.085-3.904 7.846 8.063 9.191 8.484-1.166-5.614-1.124-5.957 2.337 3.045 1.375 3.898-6.872 1.47-7.145 1.221m3.422-.294c-.166.035.012 3.252.166 3.16s1.078-3.811.76-3.71-2.554 4.209-2.667 4.318 1.974-3.355 1.988-3.667-1.653 2.034-1.903 1.795.069-3.439.407-3.226 2.476 3.634 1.621 4.505-6.731 1.152-6.752.72 6.509-3.059 6.624-3.311-5.33 1.577-5.933 1.8m5.782 3.901c-.793.046-6.794-5.974-6.603-7.649s7.14-2.907 7.747-2.401-3.285 5.065-4.107 5.435-.7-3.14-.823-3.216.672 2.746.082 2.759-4.003-2.311-3.62-2.679 4.228-.595 5.917.472 4.132 4.967 4.216 5.929-3.761-.445-3.711-.156 3.355 2.745 4.015 1.889m-3.953.026c-.201.832-2.064 2.436-2.136 1.735s1.128-6.023 1.704-5.941 2.794 6.414 1.753 6.432-7.812-6.277-7.997-6.319 5.9 5.247 6.884 6.063-1.204-.857-.979-1.165 2.508-.637 2.327-.683-2.623 1.062-3.412.405-.747-3.733-1.321-4.345-2.015-.08-2.12.672m5.795-.695c-1.219.122-4.664 5.891-5.935 5.448s-2.094-7.602-1.691-8.106 4.148 4.209 4.108 5.081-4.909.74-4.344.153 6.432-3.592 7.735-3.676-.219 3.302.083 3.169 1.458-3.5 1.728-3.967.902 1.238-.111 1.165-5.762-1.356-5.967-1.602 3.462-.345 4.74.127m1.206 10.745c-.074-.056-4.177-1.383-4.529-2.415s2.668-3.754 2.416-3.779-4.115 3.674-3.928 3.631 4.748-3.653 5.05-3.89-2.521 1.151-3.24 2.465-.674 4.619-1.074 5.418-1.886-.328-1.328-.62 3.885-.963 4.678-1.131.074.568.079.124.28-2.857-.044-2.786m-.047-1.389c1.081.543 1.935 8.283.88 8.002s-7.307-8.535-7.211-9.685 6.058 2.583 7.787 2.781 2.666-2.61 2.586-1.591-2.385 7.677-3.067 7.705-1.433-6.684-1.028-7.538 3.75 1.555 3.454 2.414-3.855 2.286-5.226 2.741-2.64-.025-3.001-.015.12-.409.84.076m2.962 3.378c.495-.812-.718-4.757-1.376-5.116s-2.58 2.444-2.572 2.962 2.214.215 2.622.143.31-.42-.173-.575-2.512-1.084-2.726-.356.34 4.334 1.447 4.723 5.364-1.971 5.196-2.387-5.222-.126-6.206-.108.344.143.301.216-1.102.356-.558.221m6.594 2.825c-.012.555 1.074-7.141.477-6.987s-2.603 6.478-4.059 7.914-4.385 2.287-4.679.702 2.723-8.458 2.915-10.213-1.719-.288-1.76-.318 1.747-.662 1.514.133-3.056 3.529-2.911 4.634 2.639 1.795 3.776 1.999 2.672-1.298 3.044-.776.385 4.16-.813 3.91m-4.628-5.349c.862-.132 6.164 4.563 6.265 4.764s-5.142-3.135-5.656-3.56 1.716.035 2.573 1.012 2.457 4.273 2.567 4.852-1.339-1.259-1.906-1.381-.809 1.48-1.5.65-3.52-5.034-2.648-5.632 6.836 1.828 7.88 2.042-.529-1.562-1.616-.758-4.829 5.162-4.908 5.586m8.75-.809c-.833.511-4.683-4.289-5.659-4.107s-1.184 4.845-.195 5.2 6.236-1.849 6.13-3.068-5.346-3.414-6.766-4.246-2.536-1.853-1.754-.746 5.824 7.499 6.443 7.389-2.481-6.732-2.725-8.048 1.329-1.261 1.261.155-1.187 7.834-1.666 8.343-.505-5.418-1.211-5.289m4.426 4.803c-.129-.981-1.954-.952-2.324-1.38s.36-1.051.104-1.188-1.649.479-1.642.365 1.407-2.117 1.686-1.052.58 6.641-.013 7.444-2.911-2.512-3.545-2.629-.809 2.142-.259 1.929 3.211-2.961 3.557-3.208-1.788 2.301-1.481 1.728 3.732-5.147 3.326-5.165m2.029 1.884c-.233-.248-3.378 4.354-4.497 4.716s-2.794-1.332-2.216-2.547 4.534-4.022 5.685-4.746 1.101-.942 1.222.401 1.092 6.032-.498 7.659-8.038 1.835-9.042 2.106 1.967.66 3.02-.479 3.176-4.668 3.295-6.36-1.676-3.024-2.58-3.788-3.644-1.631-2.843-.795m5.689 10.701c.573-.267-1.341-4.259-2.121-4.489S52.084 74.788 51.7 75.2s.341-1.319.249-.638-.551 4.312-.796 4.726-.463-1.141-.671-2.246-1.121-4.486-.579-4.384 3.245 4.825 3.83 4.996-.038-3.097-.321-3.969-1.121-1.671-1.376-1.263-.523 3.006-.155 3.711m-2.702.593c-.059-.125 8.404-3.461 9.265-3.751s-3.468 1.348-4.101 2.013-.185 1.343.301 1.978 2.196 1.183 2.619 1.832.332 1.685-.083 2.06-1.154.599-2.405.189-5.231-2.621-5.098-2.652 4.329 2.657 5.894 2.463 3.504-1.839 3.498-3.626-1.736-6.179-3.536-7.096M52.72 12.732c.468.269 6.209 2.171 7.568 3.148s1.288 2.843.587 2.712-3.898-2.437-4.795-3.499-.29-2.613-.586-2.875-1.389.203-1.189 1.305 1.754 4.611 2.39 5.308 1.597-.249 1.429-1.124-2.455-3.454-2.439-4.125 2.057.315 2.534.095.734-1.256.33-1.413m3.272-2.776c-.884-.919-4.877-.234-6.141.467s-1.187 2.885-1.44 3.74-.263 1.784-.078 1.393 1.701-3.945 1.187-3.738-3.575 3.421-4.271 4.981-1.699 4.454.096 4.383 8.948-4.421 10.678-4.814-.098 1.961-.295 2.457-.258.171-.889.52-2.275 3.078-2.895 1.57m1.527.973c.448-.661-.658-2.236-1.079-3.01s-1.428-1.572-1.446-1.633.644.361 1.34 1.267 2.706 4.006 2.833 4.165-1.039-2.644-2.069-3.212-4.013.073-4.112-.199 3.583-1.606 3.513-1.434-3.928 2.061-3.935 2.465 3.556.696 3.896-.045-1.906-4.61-1.86-4.399m3.725 6.004c-.618-1.238-1.868-4.641-1.922-5.118s1.736 1.111 1.597 2.256-2.841 4.039-2.431 4.611 4.718-.296 4.892-1.182-4-3.287-3.845-4.134 5.289-2.16 4.772-.948-6.988 6.889-7.87 8.223 3.126 1.56 2.576-.222-6.242-9.063-5.876-10.47 6.757.999 8.071 2.027m-3.572 9.849c.407-.722 4.783-5.794 5.063-6.675s-2.615.149-3.386 1.388-.806 5.639-1.241 6.047-1.815-3.318-1.37-3.598 3.872 1.339 4.042 1.92-2.428 2.032-3.022 1.565-.857-4.388-.542-4.363 2.395 4.077 2.43 4.515-2.152-1.459-2.217-1.884.941-1.11 1.826-.668m-.264 2.741c.862.365 4.602-2.397 4.313-2.439s-4.603 1.608-6.046 2.185-3.211 1.171-2.615 1.277 5.796-.828 6.19-.64-3.154 1.431-3.827 1.77-1.14 1.568-.208.262 4.895-6.544 5.801-8.097.836-.982-.369-1.216-5.645-.673-6.859-.192-.54 3.217-.426 3.074m4.609 8.508c.205-1.019-1.56-5.411-1.364-6.431s2.317-.674 2.542.311-1.299 4.799-1.191 5.596 2.429-.951 1.836-.812-4.956 1.658-5.395 1.647 1.808-1.258 2.757-1.713 3.452-.595 2.937-1.015-5.283-1.716-6.028-1.504 1.703 2.575 1.561 2.771-3.289-1.143-2.413-1.595m9.283-.115c-.209.124-7.474 1.913-7.372 2.109s7.453.418 7.988-.934-3.277-6.064-4.778-7.179-3.379.124-4.226.49-1.755.355-.855 1.703 5.017 6.198 6.256 6.386 1.565-4.261 1.181-5.256-3.795-.365-3.484-.711 5.795-2.108 5.348-1.366-7.582 4.501-8.034 5.816m3.157 4.769c-.088.623 1.71-.45 2.225-1.085s1.388-3.038.866-2.723-2.797 3.927-3.999 4.612-3.157.145-3.215-.505 2.704-3.213 2.869-3.396-2.589 1.574-1.879 2.301 5.723 2.795 6.136 2.065-3.135-5.303-3.654-6.448-.011-.51.541-.421 2.644-.061 2.771.954M55.61 33.21c-.121 1.24-.618 1.453-.82 1.085s-1.731-3.902-.397-3.294 7.953 5.899 8.406 6.944-5.327-.698-5.689-.676 4.356.818 3.522.806-7.355.015-8.526-.881.585-4.311 1.501-4.497 3.251 3.488 3.996 3.384.853-3.428.472-4.005-2.493 1.191-2.757.541m1.69 4.842c-.406.193-1.9.6-1.94.684s1.202.403 1.696-.177 1.479-3.075 1.272-3.302-2.514 1.452-2.516 1.945 1.727 1.275 2.504 1.013 2.358-2.512 2.162-2.581-2.503 2.03-3.34 2.169-1.591-1.477-1.681-1.335.288 1.672 1.141 2.19 4.312 1.433 3.978.92m-5.978 3.496c.631.578 4.481-4.108 5.504-4.647s1.523 1.838.635 1.414-5.365-2.739-5.964-3.96 1.572-3.263 2.368-3.366 1.243 1.979 2.406 2.749 4.122 2.119 4.575 1.869-1.236-4.083-1.855-3.365-.915 7.993-1.857 7.672-3.938-8.368-3.794-9.598 4.98 2.234 4.657 2.218m-3.416 10.197c-.254-.27 1.242-6.092 1.101-5.935s-2.172 6.66-1.948 6.873 3.772-4.9 3.293-5.598-5.745 1.404-6.168 1.409 3.018-1.164 3.629-1.376-.123-.244.036.106 1.378 1.118.919 1.994-3.005 3.253-3.671 3.259-.85-2.891-.321-3.227 3.366.91 3.499 1.21m-5.688-.003c-.149-.634-.847.458-.954.085s-1.581-2.158.315-2.32 9.294.328 11.06 1.348-.379 4.046-.467 4.768.381.216-.062-.433-1.756-2.347-2.597-3.461-2.86-2.814-2.45-3.224 4.338-.404 4.906.762-.118 5.534-1.496 6.235-6.353-1.373-6.773-2.03m1.331.815c-.127.029-1.125-2.331-.513-2.099s3.667 2.527 4.188 3.49-.816 2.28-1.063 2.287.059-2.024-.42-2.245-2.439.957-2.454.919 1.308-1.086 2.36-1.147 3.892 1.206 3.95.783-3.369-3.136-3.603-3.322 2.216 2.389 2.199 2.204-2.4-2.592-2.301-3.316m-1.699 4.357c.641.056 6.666-3.936 6.071-4.067s-9.205 2.102-9.642 3.278 5.671 4.749 7.019 3.778 2.158-9.488 1.067-9.606-6.356 8.302-7.614 8.898-1.713-5.426.063-5.323 9.98 6.531 10.595 5.944-7.016-9.602-6.905-9.467 7.264 9.113 7.575 10.275-4.747-2.339-5.706-3.301m-3.282-2.193c-.391-.302 3.801-.214 4.11.275s-2.661 2.089-2.256 2.663 4.959.938 4.686.78-6.032-1.971-6.327-1.73 3.701 3.748 4.556 3.179.97-5.56.572-6.592-2.725-.152-2.96.395 2 2.421 1.549 2.889-4.257-.135-4.258-.079 3.042.368 4.256.412M59.468 43c-.074 1.412-2.846 5.827-2.811 6.833s2.752-1.079 3.022-.795-1.503 3.448-1.4 2.495 1.225-7.191 2.019-8.21 3.284 1.587 2.747 2.098-5.289.845-5.966.971 2.106-.9 1.906-.218-3.717 4.782-3.103 4.31 5.93-6.33 6.786-7.147-.13 2.136-1.649 2.248m-1.106 8.651c-.661.366-3.123.359-3.922-.208s-.962-3.081-.875-3.193.608 1.872 1.393 2.52 3.334 1.345 3.318 1.368-3.412-.455-3.416-1.229 2.551-3.726 3.388-3.416 1.553 4.703 1.635 5.277.048-1.353-1.143-1.836-5.91-.514-6.002-1.062 4.532-1.599 5.45-2.226m-2.724-.135c1.508-.682 5.659-4.803 6.271-3.949s-2.291 8.988-2.598 9.07 1.478-7.239.757-8.577-5.151-.415-5.085.552 4.524 4.476 5.477 5.249.615-1.105.243-.615-.873 3.561-2.475 3.557-7.693-3.661-7.137-3.584 9.572 3.968 10.47 4.047-4.791-2.342-5.084-3.572m-3.207 1.423c-.325.535 3.892 1.09 4.58 2.306s-.319 4.534-.451 4.993-.528-1.187-.343-2.24 1.455-3.953 1.453-4.074-1.099 2.8-1.464 3.351-.248.541-.728-.045-2.593-2.89-2.152-3.471 4.716-.054 4.8-.014-3.661-.346-4.296.257.614 2.347.487 3.361m-3.781-6.879c.002-1.191 8.992 1.583 9.434 2.155s-6.709.422-6.785 1.276 6.172 2.663 6.329 3.849-4.1 3.224-5.386 3.269-2.147-2.367-2.326-2.996.763-.827 1.255-.781 1.488 1.219 1.693 1.055.152-2.127-.46-2.036-4.006 2.399-3.212 2.584 8.276-1.156 7.979-1.473m-2.319 3.509c-.517-.014-.556 1.274-1.205 1.147s-2.3-1.954-2.689-1.907.372 2.09.354 2.188-1.447-1.57-.461-1.598 6.511 1.476 6.378 1.426-6.127-1.767-7.176-1.727.461 2.107.881 1.965.748-2.519 1.634-2.819 3.756 1 3.68 1.022-3.449-.71-4.136-.886m.795-.494c-.063.812-2.247 1.869-1.168 1.397s6.446-4.582 7.645-4.226 1.282 6.535-.454 6.363-8.444-6.312-9.961-7.396.034.618.861.888 3.174-.607 4.099.731.963 6.069 1.452 7.3 2.535 1.467 1.482.087-7.856-8.405-7.799-8.367 7.603 7.545 8.144 8.595m-3.121 2.641c-.283-.934-1.173-5.623-1.918-6.759s-2.716-1.231-2.551-.054 3.185 6.624 3.542 7.116-.708-3.991-1.402-4.164-3.128 2.516-2.763 3.125 5.048 1.283 4.95.527-5.69-3.797-5.533-5.061 5.441-3.351 6.476-2.523-.306 7.091-.267 7.491 1.445-4.564.499-5.092m2.737 6.962c-.423.771-4.826-.966-6.143-1.64s-1.155-2.555-1.76-2.405-2.089 4.179-1.869 3.304 1.849-8.592 3.192-8.558 5.584 8.762 4.867 8.762-8.006-7.464-9.167-8.76.546-.173 2.204.988 8.036 5.827 7.744 5.978-8.4-5.153-9.496-5.071 1.905 4.18 2.922 5.559m4.934 3.764c-.564-.542-4.126-6.222-4.946-7.094s-.926 1.322.027 1.863 5.19.654 5.691 1.385-2.588 3.275-2.682 3.005 1.599-3.798 2.121-4.627.946-.336 1.012-.347-.226-.871-.613.282-1.192 6.133-1.711 6.637-.811-3.027-1.401-3.611-1.706-.442-2.141.102m2.341 1.781c.665.161-1.151 1.729-1.38 1.012s-1.15-4.784.01-5.313 7.442 2.372 6.951 2.136-9.908-3.033-9.899-3.556 10.272.336 9.956.414-11.177-.38-11.853.053 6.597 1.866 7.799 2.546-.075 2.114-.59 1.537-2.002-4.253-2.501-4.997.087.124-.491.532m-.487 8.169c-.381-.404-1.185.01-1.362.255s.216 1.605.299 1.215-.772-2.95.201-3.553 4.574-.41 5.634-.063 1.496 2.523.724 2.142-4.577-4.65-5.356-4.432-.005 5.367.68 5.736 3.001-2.792 3.431-3.521.021-.974-.851-.854-3.909.934-4.38 1.577m8.329.622c.128-.508.935-2.07-.034-2.87s-5.585-2.891-5.782-1.927 5.419 7.796 4.598 7.709-7.914-8.053-9.521-8.232-1.469 7.198-.121 7.159 6.807-6.291 8.209-7.395.536.462.202.768-1.738.444-2.202 1.064-.288 2.193-.581 2.66-2.089.982-1.18.142m.614 1.318c.857.088 4.361 1.929 4.966 3.131s-1.223 3.502-1.336 4.076 1.358.147.661-.631-3.743-3.291-4.841-4.035-1.844-.275-1.744-.431 1.376-1.385 2.348-.502 2.624 4.949 3.483 5.802 2.108-.578 1.67-.68-3.715.433-4.295.065.483-1.51.814-2.273m-.702.597c.844.171 3.438-1.15 3.23-.953s-3.775 1.613-4.481 2.133.837 2.042.246.989-4.923-7.002-3.788-7.306 9.614 4.424 10.597 5.48-3.339 1.62-4.701.854-3.588-5.951-3.47-5.451 3.22 8.472 4.182 8.452 1.665-7.009 1.59-8.576-2.491-.541-2.037-.826m1.668-53.073c-.445.634 2.698-2.307 2.828-3.052s-1.274-1.914-2.05-1.419-3.104 3.544-2.608 4.387 5.375.641 5.586.673-3.805-.394-4.315-.481 1.122 1.179 1.256-.041-1.259-6.285-.454-7.281 4.967.553 5.282 1.301-3.323 2.661-3.39 3.185 3.303.608 2.988-.04m1.276-4.019c.627-.477-1.645-.185-2.227-.383s-1.419-.536-1.27-.803 3-2.565 2.162-.797-6.302 9.57-7.191 11.405.635 0 1.858-.393 5.549-1.945 5.484-1.965-5.218 1.87-5.877 1.842.614-.456 1.924-2.009 5.297-7.32 5.938-7.304-.429 6.07-2.094 7.399m-6.336-4.557c.682.855 4.675 4.972 4.622 6.204s-5.02 1.502-4.938 1.187 4.405-2.345 5.427-3.074.667-1.399.705-1.302-.597 1.868-.478 1.888 1.222-1.655 1.19-1.769-1.048.373-1.38 1.088.23 2.649-.612 3.202-4.791.973-4.439.117 5.566-4.161 6.552-5.255m-7.597 7.107c.6-.801 3.442-7.207 3.686-7.978s-3.069 2.881-2.22 3.352 6.412-.258 7.311-.527-.735-1.234-1.92-1.085-4.601 2.215-5.186 1.978 1.291-2.465 1.673-3.401.864-2.714.619-2.216-2.21 5.279-2.087 5.2 3.498-5.009 2.827-5.673-6.292.904-6.857 1.685m7.794 7.751c.556-.355-2.171-3.12-2.179-2.6s2.439 5.237 2.13 5.719-3.656-3.043-3.987-2.828 1.476 4.144 1.998 4.118.596-3.341 1.134-4.272 2.278-1.303 2.091-1.316-2.783 1.102-3.213 1.239.631 0 .629-.415-.17-2.571-.64-2.079-1.756 3.806-2.183 5.036m-3.681-3.844c-.89.028-1.317 4.568.317 4.383s7.68-4.961 9.483-5.496 1.973 1.677 1.332 2.283-3.432 2.198-5.175 1.35-5.631-6.954-5.287-6.435 6.973 7.877 7.356 9.551-4.049 1.301-5.059.491-.63-5.705-1.002-5.347-2.11 6.505-1.23 7.493 5.559-.683 6.505-1.567m1.243.531c-.52.028-4.265-4.447-4.887-4.059s.151 5.577 1.152 6.387 5.068-.882 4.857-1.53-4.959-1.262-6.12-2.361-.767-3.732-.845-4.233-.859.946.373 1.227 6.141.618 7.017.458-.873-1.677-1.763-1.418-2.764 2.793-3.577 2.976-1.161-2.556-1.301-1.878m.902 7.062c.077.192 5.263-7.802 5.275-8.135s-3.865 4.998-5.204 6.134-2.841 1.988-2.829.686 1.835-8.055 2.901-8.497 4.132 4.253 3.499 5.844-7.127 4.359-7.298 3.698 5.83-7.984 6.272-7.664-4.157 9.024-3.618 9.584 5.646-5.892 6.849-6.227.412 3.74.368 4.22m-4.219-2.784c.292.873 2.817 3.99 3.017 3.754s-1.329-5.352-1.816-5.165-1.519 6.226-1.106 6.282 4.221-5.39 3.582-5.947-6.313 2.498-7.416 2.608.728-2.248.793-1.947-.649 3.332-.406 3.752 1.238-1.435 1.863-1.233 1.523 1.846 1.885 2.445.682 2.106.285 1.147m4.544-9.358c.476 2.074-.004 10.325-1.342 11.661s-5.079-1.894-6.684-3.643-2.983-7.109-2.95-6.852 3.045 6.855 3.151 8.395-3.445.764-2.515.847 8.313.074 8.094-.346-9.872-.494-9.406-2.173 10.597-7.01 12.202-7.899-1.905 2.517-2.574 2.561-1.271-2.872-1.442-2.298m-.991 8.252c-.044.435 1.335-.242 1.948.135s2.073 1.194 1.728 2.13-3.386 4.021-3.793 3.491 1.359-5.604 1.353-6.671-.846-.542-1.39.273-1.848 4.14-1.872 4.615 2.042-1.769 1.724-1.766-3.784 1.487-3.632 1.788 4.589-.246 4.548.02-4.506 2.42-4.794 1.576m3.862-6.993c-.811 1.278-4.04 7.174-4.386 7.812s2.383-2.913 2.311-3.982-2.805-3.106-2.743-2.434 1.849 6.179 3.117 6.465 4.275-4.157 4.494-4.746-1.727.638-3.18 1.212-5.341 1.519-5.541 2.232 3.958 2.901 4.34 2.044-2.488-7.017-2.044-7.188 5.116 5.563 4.713 6.162m2.516.914c-.293.78-6.217-.893-7.343-1.092s.246-.315.591-.102.406 2.04 1.479 1.382 5.217-5.271 4.96-5.333-5.961 4.872-6.503 4.96 2.468-4.346 3.247-4.437.918 3.611 1.425 3.89 2.155-1.341 1.614-2.215-4.548-3.296-4.864-3.03 2.568 4.576 2.968 4.626m-1.48-1.987c.636.143-.531-.807-.923-.822s-2.572.401-1.43.733 7.607.331 8.283 1.26-3.113 3.343-4.227 4.313-1.742 2.593-2.461 1.505-1.421-7.996-1.854-8.035-1.279 8.116-.743 7.801 2.65-8.217 3.96-9.693 3.253-.56 3.901.835 1.342 7.659-.011 7.535m-6.647-1.066c-.76.059-.936-1.681-1.026-1.178s-.422 3.495.488 4.199 4.224-.302 4.973.023.582 2.107-.476 1.925-5.955-2.151-5.873-3.021 5.771-1.672 6.366-2.199-2.582-1.787-2.795-.96 1.577 5.293 1.518 5.926-1.999-1.255-1.87-2.131 2.876-2.696 2.648-3.12m-7.499 5.064c-1.002-.51-.391-6.855.662-7.248s4.738 3.4 5.657 4.889-.675 3.374-.144 4.048 3.377.972 3.329-.005-2.287-4.812-3.615-5.856-3.207-.743-4.352-.409-2.589 1.474-2.52 2.413 2.715 3.316 2.931 3.219-2.136-3.78-1.632-3.797 4.589 3.009 4.652 3.696m-3.603.577c1.078-.576 6.486.296 7.204-.304s-2.688-3.327-2.9-3.292 1.346 2.189 1.63 3.504.646 4.708.074 4.39-3.465-5.014-3.505-6.298 3.736-2.051 3.268-1.406-5.165 4.636-6.079 5.277-.614-.684.596-1.433 6.616-2.333 6.663-3.061-5.259-2.28-6.378-1.308m.98-2.484c-.856.921-3.163 10.233-2.543 10.458s5.921-9.002 6.26-9.104-4.394 7.344-4.226 8.491 5.446-1.499 5.229-1.606-5.472 1.833-6.528.966-.947-5.62.195-6.171 5.982 2.061 6.657 2.866-1.248 2.182-2.609 1.963-5.954-3.59-5.558-3.279 6.496 4.316 7.935 5.144m-2.197 3.376c.237-.453 2.949-2.199 3.54-2.642s.89-.092.007-.015-4.989.35-5.309.473 3.641-.098 3.388.264-4.884 2.715-4.905 1.908 4.427-5.809 4.777-6.747-2.009 1.084-2.678 1.118-2.233-1.447-1.335-.914 6.578 3.74 6.725 4.11-4.543-2.339-5.846-1.891m.717 2.01c1.422-1.715 4.746-6.291 4.101-6.311s-7.732 5.903-7.975 6.19 4.684-3.565 6.517-4.47 4.537-2.343 4.479-.957-4.787 8.732-4.828 9.276 4.236-4.858 4.578-6.012-1.09-1.004-2.529-.913-5.255.989-6.107 1.461 1.104.735.992 1.375-1.207 3.057-1.663 2.464m-1.423-4.051c-.529.088-.059 5.019.588 5.625s2.447-2.257 3.294-1.988 2.051 3.162 1.787 3.604-3.353-.117-3.373-.949 3.493-3.588 3.251-4.046-3.912 1.155-4.703 1.299.155-.638-.046-.433-1.591 1.469-1.159 1.663 2.646-.714 3.748-.497 3.117 1.289 2.866 1.798m-6.045-7.683c.104.618 5.257 2.601 5.857 4.362s-2.163 5.525-2.259 6.202.969-1.589 1.682-2.142 2.857-.708 2.599-1.179-2.589-1.294-4.146-1.648-4.994-.074-5.193-.476 2.491-1.286 3.999-1.935 4.672-2.021 5.051-1.96-1.529 2.598-2.777 2.328-4.814-4.112-4.712-3.949m.756 14.625c.273-.532 1.552-2.385 2.4-2.295s2.643 2.323 2.692 2.836-2.123.417-2.402.244 1.4-.121.732-1.283-4.819-4.75-4.738-5.688 4.265-.424 5.224.057.956 2.067.532 2.831-2.506 1.158-3.075 1.755-.37 2.482-.343 1.826-.089-4.831.509-5.76m-4.111 3.142c1.15.381 4.516 1.744 5.911 1.868s3.518-.588 2.456-1.124-9.009-2.411-8.83-2.096 9.004 4.126 9.902 3.988-4.494-4.352-4.518-4.814 4.441 2.216 4.373 2.041-3.223-3.289-4.781-3.093-5.53 4.449-4.567 4.27 9.28-4.275 10.349-5.343-2.192-1.455-3.935-1.064m1.047 9.798c.196-.012.506 2.313.41 1.324s-.874-6.721-.989-7.26.368 3.774.296 4.025-.776-1.936-.728-2.515.905-.868 1.014-.957.4-.538-.361.423-3.601 5.092-4.205 5.345.119-4.044.581-3.825 1.182 4.235 2.19 5.138 4.147 1.034 3.86.278m-6.814-5.622c-1.443 1.375-1.885 3.767-.39 3.675s9.031-3.276 9.364-4.226-6.072-1.747-7.366-1.478-.471 3.387-.4 3.097.617-5.84.821-4.839.278 9.334.402 10.84 1.103-1.303.346-1.806-4.355-.258-4.891-1.216 1.235-4.538 1.675-4.531-.153 3.914.961 4.568m-.007 1.284c1.097-1.018 6.222-3.282 6.871-2.348S63 71.882 62.805 72.839s2.039-1.365 1.81-2.214-2.648-3.245-3.182-2.878-.389 4.954-.024 5.079 2.28-4.071 2.212-4.327-2.556 2.642-2.619 2.787 1.831-1.905 2.237-1.916.165 1.632.196 1.851-.039-.481-.012-.539m1.901-4.058c-1.174.436-7.189.18-8.265.409s.127-.003 1.809.962 8.325 4.412 8.285 4.829-8.728-2.461-8.528-2.332 8.631 2.899 9.725 3.105-1.236-.219-3.163-1.872-7.91-7.838-8.399-8.049 5.532 5.773 5.463 6.781-5.862-.973-5.88-.732 4.64 2.242 5.77 2.177M60.058 73.1c.118.05 4.824-3.969 4.76-3.807s-4.588 4.006-5.146 4.776 1.278.22 1.797-.154 1.563-2.287 1.32-2.091-2.136 2.704-2.774 3.267-1.103.358-1.059.111 1.194-.778 1.325-1.591-.594-3.573-.543-3.289 1.102 4.44.845 4.989-2.069-1.432-2.386-1.692m5.442-6.473c1.216-.23 1.129 1.356 1.013 2.491s-.581 3.984-1.704 4.321-5.272-1.436-5.033-2.3 5.838-3.751 6.464-2.882-1.347 7.507-2.709 8.098-6.143-3.409-5.468-4.549 8.007-3.081 9.52-2.292 1.017 5.881-.439 7.024-7.608.749-8.3-.164 2.58-4.432 4.15-5.316m1.645 3.956c.064-.196-4.509 2.402-4.972 2.152s1.622-3.6 2.19-3.653.533 2.4 1.214 3.333 3.136 2.954 2.874 2.263-4.184-6.208-4.445-6.406 3.039 5.228 2.876 5.218-3.243-5.528-3.854-5.275-.403 5.98.189 6.798 3.468-1.448 3.362-1.893-3.506-1.044-3.998-.775m2.399-2.573c1.08-1.367.752-3.792 1.636-3.15s4.355 5.248 3.667 6.999-7.374 3.237-7.791 3.512 4.853-1.848 5.289-1.862-1.322 3.174-2.669 1.779-5.789-8.706-5.417-10.15 5.948-.24 7.65 1.488 2.667 8.879 2.561 8.882-2.925-7.784-3.195-8.864 1.36 1.193 1.575 2.385m1.865-59.774c-.631.203-3.019 1.15-3.488 1.206s.741-.863.675-.873-1.801.725-1.069.813 5.407-.314 5.461-.284-4.621.832-5.14.46 1.682-1.857 2.03-2.696.228-2.925.062-2.339-1.645 4.943-1.058 5.853 3.874.426 4.581-.393.357-4.641-.34-4.522m-.979.35c-.927.376-5.823 3.815-5.84 3.611s5.21-3.713 5.735-4.835-2.105-3.303-2.582-1.897.558 10.084-.28 10.333-5.808-7.664-4.745-8.84 9.942 1.383 11.12 1.785-2.915-.281-4.048.626-2.262 3.812-2.749 4.815.105 1.374-.172 1.203-2.693-.597-1.49-2.229m6.302-.461c.599-.213-1.851 1.404-1.655 1.782s2.563-.084 2.832.487-.334 2.581-1.219 2.936-3.786-.319-4.095-.81 2.005-1.771 2.239-2.135-.875-.031-.835-.052.973-.537 1.078-.075-.722 3.303-.45 2.848 1.87-5.547 2.079-5.578-1.089 4.768-.825 5.387m-.729-3.183c-1.038.993-4.633 4.097-5.41 4.864s-.381.756.748-.262 5.697-5.522 6.028-5.85-4.505 3.087-4.046 3.881 6.967 1.293 6.8.885-6.062-3.786-7.798-3.332-2.306 5.985-2.618 6.053-1.151-4.344.745-5.64 9.888-1.247 10.631-2.14-4.593-3.763-6.174-3.213m.475 12.079c-.169.114.446 1.095.49.973s-.396-1.109-.229-1.703.73-2.099 1.229-1.858 2.172 2.695 1.766 3.305-3.956.744-4.205.354 3.033-2.202 2.71-2.694-3.745.183-4.644-.257-1.588-1.825-.749-2.38 4.912-1.233 5.785-.946-.327 2.236-.543 2.667m-6.976 2.121c.777.235 10.142 2.578 10.317 1.53s-9.124-7.102-9.269-7.818 8.412 3.568 8.4 3.522-7.59-3.56-8.469-3.798 2.535.682 3.198 2.374.928 7.681.779 7.775-1.371-5.646-1.673-7.215-.566-2.156-.136-2.198 1.487 1.609 2.717 1.947 5.574-.353 4.664.08m-5.475 3.341c.215.006 1.296.703 1.361 1.671s-.474 3.953-.971 4.139-2.412-3.148-2.013-3.026 4.832 3.043 4.407 3.754-7.096.508-6.959.512 6.436.258 7.782-.49 1.472-3.554.29-3.997-7.132.683-7.385 1.339 5.129 3.3 5.865 2.6-1.695-6.757-1.452-6.8m-3.801.103c.629.377 6.419 8.161 7.566 7.984s.926-7.509-.685-9.043-7.575-1.748-8.98-.16.073 8.09.552 9.687 1.534.849 2.321-.108 2.792-4.944 2.403-5.631-4.162.538-4.735 1.508-.179 3.661 1.297 4.309 7.998 1.278 7.558-.419-9.404-9.064-10.202-9.758m5.63 11.636c1.085.866 2.677-1.107 2.632-2.021s-2.363-3.113-2.903-3.463.422.545-.338 1.364-4.254 2.865-4.223 3.548 3.694 1.174 4.405.551-.504-4.11-.137-4.287 2.185 3.113 2.337 3.225-1.522-2.099-1.422-2.553 1.721.036 2.019-.169.652-1.107-.228-1.062m-6.844-3.944c-.862 1.305-1.45 7.037-.958 7.684s3.354-3.768 3.909-3.803-.736 2.643-.577 3.588 1.122 3.185 1.53 2.082 1.712-7.254.918-8.7-4.764.166-5.68.027-.755-1.207.183-.861 4.41 2.744 5.447 2.934.666-2.038.777-1.794.513 3.392-.11 3.258m1.979 7.151c-.693.362-2.578 1.209-2.172 1.181s4.791-.935 4.608-1.351-4.869-1.42-5.705-1.145.5 2.976.693 2.795-.066-3.913.467-3.878 2.407 3.969 2.727 4.088-.254-2.539-.806-3.378-1.917-1.891-2.503-1.656-.551 2.417-1.012 3.069-1.64 1.41-1.754.842m-.345.492c-.904.202 2.326-5.043 3.163-6.024s1.199.608 1.854.139 1.855-4.054 2.079-2.95.669 8.487-.735 9.569-7.497-2.082-7.692-3.076 6.455-2.358 6.518-2.885-6.858-.129-6.141-.277 9.937-.687 10.438-.61-7.194.558-7.433 1.076 5.961 1.678 5.996 2.028m-2.941 2.379c-.83 1.204-3.201 5.202-3.985 5.182s-.952-4.883-.722-5.304 1.274 2.598 2.103 2.778 2.238-2.08 2.871-1.697.772 3.912.928 3.996.84-3.516.009-3.49-4.707 4.094-4.993 3.648 2.184-5.468 3.277-6.324 2.915.9 3.284 1.19-.125.267-1.071.55M62.8 41.839c.178-1.143 6.497-5.515 6.558-5.24s-6.41 6.952-6.197 6.889 7.626-6.711 7.476-7.265-6.936 3.334-8.376 3.942-.279.05-.264-.292.146-1.423.353-1.759.272-.018.886-.255 1.772-1.626 2.794-1.167 3.523 3.12 3.337 3.924-3.575.254-4.449.905m.825-1.047c-.623.039-2.262 6.99-2.28 7.189s1.764-5.677 2.172-5.996.024 2.923.277 4.082.856 3.278 1.241 2.871 1.343-5.12 1.068-5.312-1.719 3.716-2.721 4.162-2.762-.648-3.293-1.489.167-3.086.11-3.555-1.436.14-.449.738 5.895 3.051 6.371 2.853m-2.503-2.913c.647.105 1.629 1.585.573 1.213s-6.944-3.063-6.909-3.443 5.972.133 7.117 1.161.44 3.582-.244 5.003-3.68 3.532-3.862 3.524 1.577-1.938 2.77-3.571 4.038-5.949 4.385-6.225-1.843 4.015-2.301 4.571-.567-1.262-.444-1.236.651 1.231 1.182 1.391m1.042 5.541c-.329.39-2.92 1.192-3.154.675s2.48-3.298 1.753-3.78-5.128 1.399-6.111.885-.401-3.568.212-3.973 3.254 1.026 3.47 1.542-2.296.741-2.178 1.555 2.431 3.888 2.883 3.329.288-6.184-.169-6.683-2.499 2.644-2.576 3.684 1.886 2.626 2.112 2.559m-4.444-.99c.528.172 7.421-4.96 8.619-4.553s-1.595 7.351-1.429 6.995 2.565-9.077 2.428-9.129-2.821 7.606-3.253 8.813 1.994-1.332.662-1.571-8.133-.515-8.654.137 4.412 4.768 5.526 3.773.325-8.318 1.159-9.741 4.443.035 3.847 1.204-5.756 6.097-7.423 5.808m-.369 3.566c.129-.055 5.072-1.622 5.687-1.697s-1.989 1.772-1.998 1.245 1.856-3.602 1.942-4.406-1.386-.872-1.423-.416 1.397 2.802 1.203 3.152-1.641-1.128-2.368-1.053-2.646 1.564-1.994 1.504 4.794-1.442 5.909-1.863 1.908-1.111.783-.662-6.813 3.074-7.534 3.356m2.316-7.057c.285-.436 4.379-.788 5.575-.576s1.311.981 1.599 1.852 1.262 2.901.129 3.374-5.069.161-6.93-.538-4.403-3.721-4.237-3.657 4.817 4.201 5.231 4.042-3.786-4.181-2.742-4.999 9.397.29 9.004.09-10.572-1.086-11.362-1.289 6.126-1.211 6.619.068m-2.591 12.495c-.125-1.078-1.258-4.363-1.289-4.618s.414 2.337 1.099 3.085 2.539.967 3.01 1.402-.074.894-.183 1.209.283 1.518-.468.683-4.213-5.642-4.04-5.692 5.07 4.836 5.08 5.392-5.366-2.143-5.024-2.06 6.176 3.02 7.078 2.559-1.532-4.869-1.663-5.323m-3.504 6.724c-1.369-.356-3.506-.694-2.596-1.994s6.563-6.219 8.054-5.807 1.735 8.78.889 8.28-5.295-11.309-5.966-11.279 1.896 10.364 1.94 11.459-.83-5.006-1.675-4.893-3.644 4.88-3.396 5.57 5.086.25 4.883-1.435-4.883-7.978-6.101-8.677-1.012 3.152-1.209 4.481m3.811-1.085c-.18-.572 2.967.207 3.443.31s-.137.303-.587.307-1.893-.275-2.115-.281.883-.47.783.242-.83 3.415-1.379 4.028-1.667.058-1.917-.35.115-2.519.415-2.101.897 4.044 1.385 4.609 1.027-.353 1.54-1.219 1.443-3.563 1.538-3.977m-2.483 7.619c-.841-.884-.29-6.461.438-7.433s2.943 1.419 3.929 1.6 2.338.264 1.983-.515-3.061-4.065-4.112-4.156-2.904 2.449-2.192 3.608 5.86 3.197 6.465 3.347-1.761-3.075-2.838-2.447-2.619 7.069-3.626 6.211-3.025-10.851-2.416-11.358 6.45 6.443 6.07 8.314m-4.767.386c-.207-.094 4.061 3.104 4.376 3.796s-1.837.779-2.485.358-1.606-1.918-1.401-2.885 1.888-2.683 2.633-2.918 2.531 1.13 1.841 1.507-5.983.824-5.985.752 5.34-1.879 5.977-1.188-1.32 4.62-2.154 5.334-2.979-.685-2.853-1.051 3.209-.204 3.608-1.144m.366 2.755c.743-.554-.482-.687-.724-2.196s.053-6.375-.727-6.86-3.465 2.094-3.952 3.95.817 7.578 1.027 7.188-.587-9.35.238-9.527 4.257 7.844 4.708 8.464-2.423-4.056-2.001-4.744 4.059 1.646 4.535.62-.629-7.029-1.683-6.776-4.501 8.303-4.642 8.294m.088.738c.285-.051 5.755 3.513 5.958 3.433s-4.395-3.179-4.739-3.914 2.793-1.043 2.673-.499-2.715 4.108-3.394 3.763-1.538-5.301-.678-5.834 5.942 2.046 5.837 2.635-6.175.487-6.467.895 3.743 2.07 4.711 1.553 1.275-4.853 1.096-4.654-2.136 4.893-2.171 5.845m2.93-1.853c-.566.371-5.768 1.686-6.247.836s2.69-5.775 3.372-5.934.561 4.067.72 4.975.956 1.328.234.473-4.601-5.764-4.565-5.603 5.082 6.514 4.781 6.566-6.184-6.363-6.591-6.252 4.017 6.04 4.151 6.92-4.187-.914-3.346-1.641 7.617-2.053 8.395-2.725m-3.016 5.911c-.14.124-.132 2.44-1.114 2.082s-4.754-4.413-4.776-4.229 3.3 4.8 4.644 5.33 2.898-1.678 3.418-2.148.104-.754-.3-.672-1.896 1.573-2.126 1.163.827-3.072.745-3.624-.313.488-1.24.313-4.514-2.152-4.318-1.366 5.045 5.967 5.492 6.081m1.941-4.215c-.872.443-6.348.609-6.99.428s3.347-2.382 3.137-1.518-5.088 6.626-4.394 6.704 7.088-5.868 8.561-6.234 1.892 3.064.28 4.038-9.015 1.417-9.953 1.803 2.798.397 4.321.51 4.51 1.864 4.818.164-1.511-10.504-2.969-10.364-5.233 9.765-5.777 11.204m5.175-.913c-.07.227-3.649.865-3.212.766l5.833-1.361c-.015.086-5.315 1.069-5.92 1.874s1.945 3.478 2.29 2.957-.136-5.037-.218-6.083-.523-.268-.271-.196 1.31.337 1.782.627.837.266 1.05 1.113-.081 4.039.228 3.968 2.079-4.273 1.628-4.394m-.124-2.994c.063 1.527-4.761 6.964-5.421 8.268s.72.92 1.458-.442 3.18-7.067 2.971-7.73-4.631 4.003-4.223 3.757 7.247-5.738 6.666-5.235-9.377 6.451-10.151 8.255 4.19 3.732 5.503 2.565 1.727-7.697 2.376-9.566.907-2.682 1.514-1.651 2.295 7.643 2.127 7.841m-5.432-62.544c.742-.443 3.402-4.696 4.44-4.237s2.148 6.24 1.792 6.988-2.915-1.783-3.93-2.497-2.585-1.28-2.161-1.787 3.753-1.939 4.707-1.255 2.097 4.68 1.016 5.358-6.741-.658-7.501-1.291 2.489-2.36 2.94-2.511-.355 1.627-.237 1.605.039-1.086.947-1.734m6.257 3.673c-.595-.296-9.81-6.442-10.024-7.383s7.132 1.386 8.739 1.739 2.359-.978.901.377-9.584 7.977-9.649 7.754 9.059-8.718 9.263-9.092-7.863 5.627-8.039 6.849 6.184.753 6.984.483-.763-2.349-2.185-2.105-6.582 2.998-6.349 3.567 7.333.141 7.748-.154m-6.138 1.353c.115.118 7.069-4.293 7.426-3.959s-4.265 5.423-5.283 5.963-.407-1.615-.826-2.719-2.533-3.487-1.688-3.905 5.599.421 6.755 1.398.956 4.601.177 4.463-4.407-4.222-4.848-5.292 2.292-1.114 2.203-1.126-2.686-.108-2.736 1.057 1.883 5.864 2.439 5.931m-1.19-2.749c.633 1.594 6.343 2.519 6.618 3.406s-3.517 2.888-4.966 1.913-3.122-7.835-3.73-7.764-.272 8.2.08 8.195 1.025-6.718 2.033-8.226 3.191-1.096 4.014-.822 1.164 1.275.924 2.469-2.556 4.818-2.368 4.694 4.112-3.998 3.495-5.435-6.755-2.881-7.197-3.191m1.88 4.014c.439.965 5.164 5.835 4.835 6.426s-5.612-1.872-6.809-2.879-.393-2.596-.377-3.161-.38-.548.478-.23 4.471 2.11 4.675 2.134-2.788-1.765-3.452-1.991-.516-.124-.53.637-.057 3.117.443 3.93 2.454 1.281 2.552.95-1.14-2.674-1.961-2.934m3.356-2.802c1.437-1.11 2.379-1.585 1.467-.336s-7.35 7.696-6.935 7.831 8.071-7.129 9.422-7.021-.8 6.47-1.318 7.669-.686-.197-1.792-.479-4.07-1.148-4.846-1.208-.195.823.189.85 1.205.455 2.114-.687 2.824-4.762 3.336-6.166.658-1.895-.265-2.26m-2.666 4.988c.273.908 3.141 6.311 2.748 6.719s-4.716-3.761-5.104-4.271 1.89.76 2.774 1.211 3.417 1.243 2.528 1.492-6.929.807-7.864-.001 1.71-4.772 2.252-4.849 1.114 3.441 1.003 4.391-2.272 1.133-1.67 1.309 4.862-.424 5.28-.252-2.77 1.428-2.774 1.282m-3.102-6.599c-.228-.092 5.863-1.134 5.592-.787s-7.346 2.292-7.217 2.868 6.961.749 7.989.588-2.175-.976-1.821-1.553 5.149-2.842 3.945-1.909-10.488 6.829-11.169 7.512 5.378-2.163 7.082-3.414 3.834-3.141 3.145-4.095-6.403-2.58-7.282-1.625 2.003 6.132 2.01 7.354m.288 4.226c-.096-.36-.152-.873.084-.63s1.001 1.924 1.334 2.092 1.582-.574.668-1.08-5.394-1.387-6.153-1.955 1.512-1.944 1.599-1.454-1.358 4.18-1.078 4.391 2.281-3.492 2.753-3.128.657 4.688.075 5.31-3.703-1.312-3.566-1.576 3.493.388 4.386-.008m4.387-4.926c.489.164.095-.528-1.603-.853s-7.446-1.114-8.584-1.097.3.445 1.755 1.197 7.288 1.822 6.976 3.316-7.677 4.83-8.848 5.648 2.068.855 1.821-.738-4.334-7.723-3.304-8.823 9.29 1.114 9.486 2.225-7.165 4.382-8.31 4.442.784-2.573 1.44-4.084m5.861 5.739c.411.502 1.264-.835.596-1.719s-4.29-3.254-4.602-3.585 2.513 1.18 2.727 1.597-1.112.011-1.447.908-.52 4.156-.565 4.471.522-1.78.295-2.58-1.451-2.255-1.655-2.219-.285 2.061.435 2.435 2.77.021 3.886-.191 2.528-.551 2.807-1.08m-1.749-2.589c.414.787-2.145 1.947-2.266 1.31s1.377-5.692 1.539-5.13-.491 6.45-.569 8.501.931 4.288.104 3.808-4.929-4.914-5.064-6.685 4.043-4.84 4.255-3.939-3.882 9.533-2.983 9.344 7.984-9.269 8.374-10.479-5.812 2.491-6.032 3.221 4.588-.09 4.711 1.159m-1.823 2.572c-.411-.551-5.105.243-4.867 1.508s5.577 5.254 6.3 6.081-1.638-.822-1.96-1.12.555-.34.025-.665-2.365-.349-3.204-1.282-1.583-4.212-1.83-4.318-.352 3.542.348 3.682 3.588-3.191 3.849-2.843-1.643 5.118-2.283 4.928-1.795-6.145-1.557-6.068m-2.294.644c1.328 1.019 7.131 6.163 8.341 6.264s-.34-5.096-1.076-5.657-3.423 1.28-3.344 2.29 3.859 3.384 3.819 3.77-2.922-1.461-4.061-1.457-2.942 1.648-2.774 1.478S68.756 42 69.176 41.27s-.673-1.125-1.269-1.887-2.665-3.196-2.309-2.683 3.611 5.124 4.446 5.758m-1.571-1.51c.042-.593-1.74 2.25-1.103 2.11s5.036-2.902 4.93-2.951-5.549 2.436-5.566 2.659 4.5-1.558 5.464-1.321 1.011 2.467.322 2.742-3.463-.8-4.457-1.09-1.564-.525-1.505-.647 1.803.166 1.859-.086-1.065-1.153-1.522-1.423-1.605-.513-1.224-.195m1.379 4.512c.4.839.932-1.961.887-2.722s-.688-1.504-1.153-1.842-2.751-.749-1.636-.184 8.337 3.346 8.327 3.574-7.31-1.195-8.384-2.21 1.384-4.559 1.942-3.877.482 8.1 1.408 7.969 3.731-8.084 4.147-8.756-1.031 3.696-1.651 4.72-.995 1.601-2.069 1.423m-.326 6.288c.407.741 1.964.052 2.221.008s.058-.087-.68-.274-3.394-.315-3.748-.847.783-1.974 1.623-2.343 2.808-.684 3.417.132 1.128 4.81.237 4.763-5.62-4.228-5.585-5.045 4.775-.803 5.793.143.947 5.006.315 5.535-4.034-2.067-4.109-2.358m1.172 3.501c.144-.081 5.414.09 4.876-.551s-8.157-2.705-8.103-3.295 7.421-.161 8.428-.243-.936.535-2.383-.248-5.189-4.101-6.299-4.447-.561 2.573-.362 2.37.96-2.953 1.554-3.586 1.32-.637 2.008-.217.954 2.036 2.121 2.736 4.878.044 4.88 1.462m-4.378 7.071c-.895.115-4.661 1.773-4.426 1.302s4.781-4.113 5.837-4.125.169 3.088.495 4.054 1.332 1.555 1.462 1.739.507.582-.685-.638-5.989-6.396-6.466-6.686 3.47 4.211 3.602 4.943-2.375-.343-2.81-.555-.24-1.225.2-.719 2.272 3.894 2.435 3.757m1.035-1.69c.779-.049 1.486-5.81 1.786-6.29s.706 3.398.013 3.407-3.261-2.807-4.167-3.354-.718.079-1.269.075-2.021-.43-2.036-.104 1.442 2.045 1.948 2.063.797-2.187 1.09-1.956.557 2.549.667 3.344.263 1.635-.006 1.426-.681-2.875-1.609-2.684m-2.119 1.366c-1.24.225-1.77 1.734-.855 1.858s5.705-.864 6.345-1.115-2.628-1.085-2.505-.389 2.996 3.524 3.239 4.564-1.534 1.352-1.781 1.675.772.807.297.261-2.627-2.432-3.147-3.534-.685-3.578.028-3.078 3.576 5.667 4.248 6.08.032-3.367-.216-3.601m.479 1.58c-1.254.361-7.753 3.26-8.913 2.649s1.96-5.769 1.951-6.315-2.59 3.415-2.005 3.037 4.756-6.273 5.513-5.306-1.754 11.159-.972 11.109 4.56-10.078 5.663-11.407 2.611 3.525.955 3.436-10.658-3.558-10.892-3.97 8.476.511 9.489 1.498-2.284 4.619-3.407 4.42m2.74 2.86c-.732.51-3.779-.524-4.622.295s-.856 4.684-.435 4.62 3.41-4.637 2.963-5.004-5.38 2.5-5.645 2.798 3.82-.299 4.056-1.013-2.669-3.62-2.64-3.269 1.956 5.147 2.809 5.375 2.051-4.004 2.311-4.008-.916 3.865-.755 3.982 2.295-3.173 1.723-3.283m-3.703 4.599c-1.275 1.516-3.871 1.575-4.228-.102s1.862-9.488 2.085-9.96-.582 5.258-.748 7.127-.752 3.867-.246 4.087 2.168-2.117 3.282-2.766 2.716.149 3.405-1.124.629-7.276.726-6.514.094 10.245-.149 11.087-1.434-5.523-1.307-6.035 2.661 3.151 2.069 2.962m-2.587.187c1.283-.524 2.722-1.468 2.466-.514s-3.798 5.468-4.002 6.234 3.423-.536 2.776-1.637-5.437-4.248-6.657-4.971-1.43-.142-.661.631 4.17 4.037 5.274 4.004 1.47-4.054 1.351-4.202-2.349 2.624-2.065 3.315 3.428 1.247 3.767.829-1.049-2.435-1.734-3.339m1.022-3.606c-.673-.455-4.217 2.925-4.253 4.253s4.121 2.94 4.041 3.719-4.603.732-4.52.955 4.123.441 5.018.384.723.076.353-.729-2.272-3.918-2.574-4.099.624 3.166.762 3.014-.45-2.668.066-3.926 2.974-3.086 3.033-3.625-2.826.298-2.677.389m.211 4.089c.861.184.428 2.836.418 3.66s.486.657-.476 1.286-4.239 2.993-5.297 2.489-1.462-4.965-1.048-5.512 3.266 2.109 3.529 2.233-2.079-1.227-1.953-1.489 1.664-.634 2.711-.083 3.261 3.496 3.571 3.391-1.453-3.359-1.712-4.017.051.144.161.07m1.229 3.136c-.113.353-7.714-4.08-8.377-3.71s3.043 5.871 4.398 5.931 3.154-4.071 3.728-5.57-.296-3.08-.284-3.427.417.438.358 1.349-.881 2.883-.71 4.118 2.026 2.782 1.731 3.289-2.445.115-3.499-.244-2.062-.986-2.825-1.91-2.511-3.638-1.752-3.63m3.929 9.741c.764.372 3.137-1.209 2.873-1.19s-4.42 2.091-4.452 1.302 3.993-5.701 4.26-6.035-2.658 4.196-2.656 4.031 3.274-4.188 2.666-5.023-5.638-.53-6.313.015 2.007 2.49 2.261 3.255-1.095 1.472-.734 1.339 3.035-1.784 2.903-2.141-3.046-.344-3.698-.003m-1.039 4.44c-.503.497-.19 2.273.853.885s4.206-8.269 5.404-9.21 2.616 3.556 1.786 3.564-6.492-4.132-6.764-3.519 4.41 6.172 5.131 7.192-.079.18-.804-1.071-2.428-6.189-3.544-6.437-2.752 4.05-3.152 4.949.908 1.118.747.443-1.751-3.505-1.711-4.495m7.455 6.144c-.109.557-.1 4.868.112 5.798s1.241-.346 1.159-.218-1.144 1.015-1.647.983-1.375-.117-1.373-1.178 1.494-4.292 1.387-5.189-2.499-.259-2.025-.189 5.281.893 4.87.608-6.413-3.054-7.334-2.32.783 5.337 1.808 6.723 3.451 2.05 4.341 1.591m-3.008-4.615c.464.95 3.732.905 3.585 1.626s-3.178 2.013-4.466 2.7-4.21 1.308-3.262 1.42 7.846.382 8.954-.749-1.215-4.583-2.309-6.035-4.805-2.608-4.256-2.675 6.459.793 7.545 2.273.53 6.352-1.031 6.611-6.83-4.396-8.335-5.055-.958.481-.695 1.102M76.52 26.447c-.762.244-6.166-.853-6.043-1.249s6.589-1.367 6.782-1.126-5.596 2.755-5.627 2.574 4.608-2.999 5.444-3.662.435-.104-.43-.312-4.408-1-4.76-.939 1.809 1.404 2.652 1.302 2.268-1.786 2.406-1.915-1.177.666-1.577 1.142-.017 1.926-.824 1.71m1.576-2.76c-.248-.363-4.576 5.908-5.713 5.467s-1.191-7.142-1.108-8.113 1.415 1.628 1.604 2.291-.566.726-.469 1.686 1.343 3.951 1.048 4.075-2.456-3.685-2.818-3.335.845 4.354.651 5.434-3.347 1.091-1.818 1.046 9.223.416 10.991-1.315.817-8.548-.379-9.072m-1.497 9.317c-.622-.891-4.036-3.702-4.799-4.023s-.81 1.419.22 2.096 5.781 1.971 5.961 1.963-3.77-2.38-4.882-2.009-2.006 4.729-1.786 4.235 2.28-6.44 3.108-7.198 1.42 1.847 1.861 2.648.958 2.122.785 2.159-.931-.995-1.82-1.937-2.95-3.598-3.515-3.717m1.835 6.923c-.401-.611-1.827-3.989-.992-3.987s5.019 3.592 6.003 4.003.164-.716-.097-1.541-.785-3.387-1.469-3.408-1.941 2.933-2.634 3.28-1.718-1.429-1.525-1.202 3.109 2.925 2.685 2.564-5.912-4.01-5.231-4.731 8.914-.355 9.314.405-6.623 3.012-6.911 4.156m2.039 6.979c-.087-.134.699-4.655.082-4.897s-3.644 2.853-3.779 3.446 2.256.402 2.966.111 1.416-1.271 1.29-1.857-2.197-1.73-2.046-1.657 3.367 1.893 2.954 2.095-4.571-.546-5.435-.881-.847-.646.252-1.127 5.996-1.456 6.341-1.761-3.61-.139-4.271-.07m4.818-2.696c-.121.067-3.421.76-4.979 2.243s-4.908 5.526-4.369 6.654 6.054.995 7.604.114 1.994-4.965 1.699-5.397-3.644 1.637-3.471 2.804 4.803 3.994 4.505 4.199-6.166-2.639-6.291-2.97 5.187.851 5.543.986-2.952-.341-3.405-.178 1.409 1.986.687 1.158m-3.536-4.435c.174-.056 3.96-1.113 4.358-.058s-1.158 5.791-1.971 6.384-1.958-2.389-2.907-2.823-3.548-.301-2.785.219 7.179 2.468 7.361 2.899-5.777-.377-6.265-.312 2.757.765 3.337.703-.425-.877.146-1.077 3.093-.023 3.283-.123-1.4-.671-2.144-.476m-7.356-4.355c1.126.694 8.222 2.661 9.739 2.096s-.498-4.774-.64-5.489.086-.316-.212 1.2-1.77 6.731-1.576 7.898 2.275-1.043 2.741-.897.395 3.023.051 1.775-1.768-8.303-2.115-9.264.119 3.477.035 3.499.818-3.369-.542-3.366-6.848 1.55-7.619 3.387m7.565 2.46c.009.372 1.245.55.636.556s-4.473-1.153-4.289-.517 4.751 3.514 5.393 4.333-.993.275-1.544.577a14.02 14.02 0 0 0-1.759 1.234c-.141.146.835.635.914-.359s-.473-4.602-.436-5.606-.184-.3.659-.418 4.793-.792 4.401-.29-6.62 2.414-6.749 3.301m-2.633-3.488c-.433 1.194 3.343 5.242 3.384 5.167s-3.303-5.121-3.14-5.618 2.96 2.086 4.12 2.634 2.087.527 2.839.652 2.487.015 1.669.102-5.294 1.133-6.573.421-1.189-4.619-1.098-4.693.882 4.191 1.64 4.245 1.613-4.71 2.91-3.917 4.672 7.344 4.871 8.674m-7.109.974c-.347.518-2.814-.449-2.228-.182s5.67 1.813 5.747 1.782-4.272-2.075-5.288-1.967-.855 2.125-.808 2.616.989 1.508 1.086.328-.798-6.203-.502-7.408 2.277.241 2.279.175-2.761-1.265-2.265-.571 5.268 3.895 5.238 4.733-4.592.615-5.42.29m4.545-1.502c.212-.702 2.498-3.025 3.094-3.314s2.033 1.793.48 1.58-8.671-4.007-9.799-2.859 3.042 9.4 3.031 9.748-2.795-7.705-3.098-7.66.476 8.418 1.278 7.929 3.712-10.558 3.532-10.863-4.002 7.168-4.615 9.03.762 3.119.939 2.141-.124-6.864.123-8.004m3.553 3.77c.143.396 3.779 5.986 4.611 6.306s1.176-3.964.385-4.384-4.949 1.429-5.128 1.86 3.541.397 4.055.727.071 1.898-.968 1.254-4.848-5.143-5.267-5.12 2.21 5.033 2.752 5.254.322-4.119.499-3.929.834 4.277.566 5.068-2.262.75-2.176-.321m1.94-1.905c.789.889.522 4.393.616 3.217s.26-9.895-.051-10.269-2.171 7.625-1.812 8.025 3.322-5.661 3.966-5.625.33 5.199-.103 5.839-.966-1.838-2.491-1.995-6.72 1.542-6.656 1.05 5.482-4.249 7.041-4.003 3.21 5.812 2.311 5.483-6.658-7.358-7.706-7.458m3.028 9.375c-.339.426 2.438 1.956 2.349 2.282s-3.185.213-2.883-.323 5.171-2.645 4.696-2.888-6.855 1.811-7.551 1.428 3.428-4.21 3.372-3.724-3.099 6.588-3.707 6.641-.597-5.56.059-6.322 2.924 1.528 3.876 1.752 1.289-1.193 1.841-.411 2.333 5.022 1.469 5.104m-5.285-4.062c-.659.411-.15 4.482-.16 3.854s-.351-6.681.103-7.625 2.634.727 2.62 1.957-1.679 4.608-2.707 5.425-4.294-.352-3.461-.523 8.472-.856 8.456-.503-8.475 2.322-8.551 2.619 6.863-.399 8.091-.836-.505-.596-.72-1.791-.781-5.81-.572-5.378m-.915 9.032c-.723.091-1.025-.805-1.551-1.624s-1.362-2.976-1.604-3.289-.574 1.177.151 1.412 4.318-.618 4.197-.001-4.438 3.705-4.925 3.702 2.068-2.667 2.002-3.722-2.406-3.288-2.399-2.606 1.628 6.467 2.441 6.698 1.686-4.693 2.433-5.309 1.702 1.547 2.046 1.613m-3.748 1.849c1.55-.224 5.11-4.83 5.829-5.938s.083-2.334-1.51-.71-8.226 10.217-8.048 10.454 8.959-7.434 9.112-9.035-6.733-1.911-8.192-.572-1.52 7.93-.565 8.604 5.93-4.396 6.296-4.558-4.047 3.07-4.101 3.589 3.036-.919 3.773-.478.31 4.483.649 3.123m-5.698.927c.352-.358 5.451-5.969 6.105-5.939s-1.701 5.446-2.182 6.12-.925-1.468-.705-2.074 1.607-.926 2.026-1.565.885-2.011.485-2.267-2.357.878-2.885.728-.387-2.303-.286-1.627-.041 5.006.892 5.684 4.357-1.049 4.709-1.616-1.895-1.751-2.594-1.786m-5.262.161c-.225-.164-1.291-1.314.327-1.708s7.988-1.63 9.382-.654.478 5.675-1.017 6.51-6.544-.188-7.955-1.505-.729-5.354-.514-6.395 1.082-.093 1.807.15a8.87 8.87 0 0 1 2.546 1.307c.938.696 4.126 3.171 3.081 2.871s-9.009-4.17-9.353-4.675 7.175 1.4 7.287 1.647m-1.427 10.566c-.138 1.064-2.529 1.079-2.905.845s.285-2.083.651-2.251 1.401.974 1.544 1.24-.98.239-.684.36 2.541.901 2.464.367-2.662-2.825-2.927-3.568.611-1.08 1.338-.891 3.135 1.868 3.027 2.025-3.721-1.696-3.672-1.088 3.998 4.655 3.966 4.736m-8.26-4.464c.842 1.67 3.401 5.571 3.985 4.879s-1.567-7.67-.482-9.03 7.534.09 6.992.872-8.31 2.23-10.246 3.824-2.51 5.879-1.374 5.742 7.919-5.747 8.187-6.563-6.997 2.473-6.575 1.666 7.658-5.792 9.109-6.506-.05 1.118-.4 2.22-.092 2.937-1.703 4.393m-6.186-.27c.465.046 4.261 4.351 5.446 4.201s1.659-4.842 1.667-5.102-1.134 2.573-1.622 3.539-.579 1.67-1.305 2.26-2.896 2.058-3.05 1.279 1.584-5.926 2.129-5.95 1.559 4.909 1.144 5.809-3.2.421-3.637-.413.09-4.171 1.014-4.592 4.72 1.602 4.531 2.067m-2.104 4.014c1.7-.114 3.422-7.044 3.561-8.271s-2.295.627-2.727.906.076-.26.138.768.013 5.447.238 5.399 2.327-4.303 1.112-5.687-8.679-3.227-8.406-2.614 9.939 4.945 10.045 6.29-8.522 1.767-9.41 1.778 3.366-2.11 4.081-1.71.578 4.549.211 4.11m-2.844-1.223c1.04-.957 5.092-3.775 5.933-3.543s-.612 4.005-.887 4.93.024.707-.761.622-4.028-.322-3.949-1.129 4.06-3.567 4.424-3.713-2.474 2.556-2.241 2.837 3.124-1.539 3.643-1.148.566 3.436-.531 3.491-5.153-3.26-6.051-3.161.726 3.607.66 3.757m2.143-2.622c.797-.346 3.309-2.055 2.837-2.858s-4.772-2.227-5.673-1.961-1.079 2.141.267 3.559 8.078 4.763 7.811 4.945-7.55-2.364-9.414-3.853-1.792-5.073-1.768-5.08 1.838 4.666 1.91 5.039-3.053-3.134-1.477-2.798 10.252 4.12 10.93 4.814-5.326-.856-6.862-.651m5.022 1.728c-.427-.033-4.951-.914-5.319-.596s2.29 2.448 3.108 2.506 1.327-1.625 1.798-2.154 2.114-1.245 1.032-1.018-7.495 1.671-7.524 2.38 6.838 2.326 7.353 1.878-3.255-4.1-4.261-4.565-1.867 1.815-1.772 1.776 1.293-2.687 2.342-2.009 3.904 5.241 3.949 6.074m-2.437-1.606c-.669-1.767-7.19-6.968-6.354-7.076s11.087 5.443 11.368 6.428-8.199-.847-9.683-.514 1.194 2.713.778 2.511-4.333-3.818-3.272-3.723 8.096 3.817 9.637 4.293.725-1.71-.392-1.441-5.344 3.044-6.309 3.053.565-1.202.521-3-.752-7.346-.785-7.79m8.2-42.229c-.069.162 1.821.859 2.149.491s.727-2.925-.184-2.702-4.564 3.022-5.284 4.04.297 1.67.966 2.071 2.301.237 3.044.333 1.004.606 1.414.247 1.381-1.229 1.048-2.396-2.978-3.937-3.048-4.604 2.783.07 2.629.602-3.599 2.125-3.553 2.588m-1.687.892c1.028.969 2.993-.488 3.145.15s-2.673 3.637-2.235 3.679 3.674-3.001 4.866-3.428 3.046.581 2.285.862-5.035 1.515-6.851.822-3.529-4.151-4.045-4.982.505-.004.949-.005.676.604 1.717.003 4.566-3.684 4.53-3.609-4.824 4.14-4.743 4.064m.078 7.788c.508-.3 2.787-4.563 3.585-5.289s.838.544 1.204.931 1.229.607.991 1.388-2.05 3.545-2.418 3.3-.169-4.588.211-4.771 1.756 3.252 2.07 3.672.065-.644-.186-1.153-.518-1.202-1.324-1.902-2.732-2.135-3.509-2.299-.95 1.08-1.155 1.315m2.46-3.122c-.292 1.359 1.888 9.166 1.218 10.774s-5.362-.895-5.241-1.126 4.582-.205 5.971-.258 2.499.097 2.363-.06-1.747-.309-3.178-.885-5.383-1.313-5.407-2.573 4.218-5.428 5.26-4.985 1.733 7.067.992 7.643-4.891-4.552-5.437-4.188 2.079 6.719 2.165 6.371m5.782-3.02c-.166.371-4.947 4.211-5.983 3.96s-.335-4.73-.236-5.47.498.986.833 1.029.388-1.591 1.179-.773 3.935 5.167 3.564 5.68-5.776-2.561-5.789-2.599 5.838 1.941 5.714 2.367-6.338.074-6.457.187 5.48.709 5.741.488-3.655-1.286-4.173-1.815m6.158-6.955c-.032.951.802 6.494 1.101 7.991s1.053.622.691.994-2.162 2.488-2.863 1.238-.08-8.388-1.346-8.736-5.009 5.973-6.246 6.648-1.451-2.792-1.175-2.594 2.718 3.43 2.83 3.781-2.571-1.306-2.16-1.675 4.113-.938 4.628-.542-2.593 2.258-1.539 2.918m-1.802-3.055c1.172-.719 5.283-1.589 6.408-1.209s.498 3.513.345 3.487-.843-3.483-1.264-3.647-1.084 2.22-1.26 2.661.438-.069.203-.013-1.196.774-1.616.352-.965-2.253-.902-2.88.867-.884 1.283-.886.926.65 1.217.87 1.236-.601.53.452m2.656 4.956c.526-.156-.935-.83-2.101-.47s-3.774 2.163-4.896 2.631-1.099.316-1.838.177-3.879-.639-2.596-1.013 8.809.301 10.298-1.23-.101-7.964-1.365-7.955-6.713 7.773-6.215 8.012 9.209-5.274 9.2-6.576-8.854-2.562-9.253-1.232 5.311 7.776 6.858 9.215m-5.171-1.552c.569-.897 5.424-.359 6.44.386s.503 3.997-.345 4.085-3.518-3.462-4.74-3.556-3.185 2.803-2.593 2.993 4.889-2.154 6.141-1.858 1.747 4.039 1.37 3.636-3.754-5.81-3.632-6.054 3.729 4.452 4.364 4.59-.248-2.975-.552-3.759-.153-1.684-1.272-.948m-1.391-2.608c1.303.197 2.489 3.733 3.318 4.521s1.741.631 1.659.206-1.68-3.77-2.15-2.755-.679 7.436-.675 8.848.873 1.114.7-.375-1.386-7.396-1.739-8.558-.669.441-.384 1.587 2.721 5.653 2.096 5.289-4.49-6.506-5.85-7.477-1.71.715-2.31 1.651m6.476 1.439c1.274.075 2.265 3.504 1.933 4.532s-3.466 1.796-3.925 1.637 1.818-1.861 1.166-2.591-5.1-2.444-5.075-1.784 5.273 5.904 5.22 5.741-4.966-5.76-5.539-6.724 2.08.212 2.103.944-1.807 2.75-1.961 3.449-.134 1.168 1.037.746 5.865-3.281 5.992-3.283m-4.156-1.036c-.111.068-.292 4.962.269 4.68s3.392-4.931 3.097-6.371-4.442-3.707-4.868-2.269 2.704 10.157 2.312 10.898-5.284-5.274-4.665-6.45 8.368-.011 8.377-.607-7.557-3.811-8.324-2.971 2.74 6.88 3.722 8.013 2.679-1.193 2.167-1.216-4.901 1.794-5.238 1.077m.949 3.399c.12-.712-.455-4.531-.465-5.193s-.532.109.406 1.223 5.313 4.943 5.221 5.465-4.955-2.44-5.772-2.334-.164 2.749.872 2.967 5.479-.642 5.344-1.656-6.021-3.932-6.151-4.43 4.905.987 5.37 1.446-2.626 1.204-2.578 1.309 2.679-.376 2.862-.683m2.584 4.938c.833-.916-4.551-4.485-5.58-5.681s-.776-1.172-.596-1.491 1.862-.51 1.678-.421-2.071 1.255-2.787.955-1.096-2.667-1.509-2.752-1.794 1.714-.971 2.24 4.558.181 5.908.916 3.265 4.063 2.192 3.49-7.551-6.863-8.629-6.928.594 6.582 2.163 6.534m1.933 4.199c-.423-.452 1.066.01 1.701-.313s1.858-1.277 2.11-1.625.092-.565-.598-.463-3.497.322-3.542 1.078 3.489 4.038 3.276 3.454-4.645-6.701-4.553-6.957 4.931 4.294 5.104 5.418-3.199 1.047-4.063 1.325-1.794 1.217-1.121.345 4.641-4.796 5.161-5.582m-4.574.341c.092-.292-3.495-3.24-2.291-3.542s7.935.166 9.516 1.728.426 6.176-.033 7.645-2.677 1.577-2.72 1.167 3.581-2.887 2.46-3.631-7.895-1.291-9.182-.837 1.554 4.336 1.462 3.561-2.918-7.215-2.016-8.209 7.488 1.805 7.429 2.242-7.432-.645-7.788.378m5.564 1.599c.533-.486 1.693-.075 1.115.871s-4.458 4.622-4.581 4.809 3.19-3.57 3.844-3.688-.11 2.599.079 2.981.768-1.055 1.054-.686 1.573 3.172.658 2.902-5.667-3.952-6.149-4.525 2.115 1.262 3.257 1.09 2.934-2.492 3.595-2.123 1.271 4.57.372 4.341M70.718 59.7c1.316.932 7.112 2.281 9.038 2.558s2.381.476 2.517-.896.028-6.223-1.699-7.333-7.717.501-8.662.674 1.148-1.432 2.989.362 8.396 9.838 8.055 10.399-9.69-5.775-10.102-7.032 6.245-.157 7.631-.511.47-1.532.683-1.617.612-.422.594 1.112m-1.166 4.026c-.179.078-2.041-2.024-2.907-1.534s-1.839 4.156-2.289 4.474-.864-2.419-.411-2.564 3.344 2.003 3.126 1.698-4.334-3.145-4.434-3.526 3.773.026 3.837 1.241-3.2 5.787-3.452 6.051 1.07-4.086 1.936-4.467 2.935 2.127 3.263 2.185-.527-1.521-1.291-1.839m-.141-3.022c-1.234 1.066-4.115 7.006-4.404 6.531s2.608-9.573 2.672-9.38-2.05 10.177-2.289 10.54-.567-7.464.855-8.365 7.82 1.646 7.675 2.957-8.042 5.369-8.545 4.906 4.437-6.129 5.529-7.687 2.039-1.586 1.024-1.664-6.247-.423-7.111 1.199 1.531 8.352 1.926 8.533m4.328.207c-.407.375-.327-.301-1.151-.336s-4.02.281-3.794.13 4.495-.786 5.152-1.037-1.541-.179-1.207-.47 3.891-2.161 3.211-1.274-7.091 5.897-7.293 6.595 6.019-1.193 6.083-2.41-5.368-4.358-5.699-4.889 3.264 1.436 3.712 1.705-1.219.106-1.027-.092m2.25.483c.389-.409.976-2.988.077-3.577s-5.787-1.446-5.474.046 7.503 7.472 7.354 8.907-7.09-.07-8.247-.296.678-.71 1.304-1.062 1.063-.941 2.451-1.052 5.049.707 5.876.388.16-2.594-.915-2.303-5.25 3.615-5.537 4.047 3.963-1.544 3.817-1.451m-2.527 4.054c-.137.548 1.441 1.113 1.553.95s-.272-.733-.878-1.93l-2.757-5.252c.096.331 2.926 6.885 3.332 7.24s-.675-4.419-.898-5.112-.106.595-.438.956-.714 1.516-1.556 1.208-3.065-3.188-3.496-3.054.91 3.655.912 3.858-1.963-2.964-.898-2.642m8.192 2.803c1.763 1.02 1.374 2.325.411 2.018s-5.751-2.986-6.192-3.856 2.601-.779 3.55-1.366 2.407-1.698 2.142-2.156-3.781-1.842-3.73-.592 3.488 6.262 4.038 8.09-.6 4.101-.742 2.88 1.234-9.896-.108-10.206-6.415 7.959-7.941 8.343-2.625-5.345-1.216-6.036m8.665 1.842c.823.67.002 4.779.226 5.858s1.087.456 1.118.613-.231 1.043-.929.328-2.766-4.02-3.261-4.617.268.511.292 1.036-.722 2.649-.147 2.112 3.177-4.532 3.595-5.335-1.124.473-1.086.519.972-1.191 1.309-.238 1.436 4.895.713 5.953m-6.438-7.97c.903-.979 3.49 3.108 3.23 4.426s-4.897 3.495-4.789 3.48 5.134-4.133 5.438-3.569-3.899 6.14-3.612 6.954 5.113-1.614 5.339-2.071-4.381-1.022-3.988-.673 6.612 3.954 6.35 2.771-6.164-9.33-7.921-9.866-3.305 5.543-2.622 6.655 6.545 1.067 6.717.016m4.44-34.066c-.088.593-5.47.767-5.965 1.292s2.788 1.954 2.991 1.854-1.425-1.648-1.775-2.454-1.059-2.511-.326-2.384 4.318 2.807 4.726 3.147-1.617-.156-2.283-1.106-1.976-4.583-1.712-4.592 2.354 3.879 3.298 4.537 2.576.122 2.363-.591-2.691-3.145-3.64-3.689m2.37 3.808c-1.6-.21-7.96 2.855-8.245 2.812s5.078-3.322 6.535-3.071 1.423 4.103 2.206 4.576 3.205-.063 2.493-1.735-5.62-8.345-6.769-8.302.485 8.024-.124 8.558-2.782-5.019-3.531-5.357-.823 2.198-.961 3.33-1.68 4.641.137 3.459 9.086-9.854 10.767-10.551m-1.525 12.912c.699.919-.133 1.529.023.675s.843-5.701.912-5.796.212 5.589-.494 5.227-3.323-7.295-3.742-7.401 1.551 6.691 1.232 6.765-2.746-5.839-3.144-6.321.033 3.39.755 3.431 2.865-3.178 3.575-3.184.631 1.981.686 3.149-.167 4.473-.361 3.855m.805-8.208c-1.201.632-7.267 8.405-7.214 9.547s7.526-2.062 7.534-2.695-6.741-.297-7.485-1.101 2.924-4.125 3.025-3.725-2.185 5.909-2.417 6.124-.003-4.234 1.022-4.832 5.568.826 5.13 1.242-6.363.802-7.756 1.255-2.204 2.158-.605 1.462 9.098-5.568 10.197-5.639m-4.311 9.347c.832.421 1.718-.254 1.611-1.108s-2.471-3.838-2.253-4.016 3.87 2.474 3.559 2.951-4.579-.399-5.427-.089-.051 1.843.341 1.948 2.262-1.161 2.006-1.321-3.796.515-3.538.361 4.324-.585 5.088-1.287-.736-2.936-.507-2.923 2.109 3.127 1.883 3m-7.47 1.948c.088.416 6.783-3.16 7.831-3.675s-1.737.408-1.544.582 2.352.192 2.698.463-.037 1.907-.622 1.165-1.767-5.583-2.886-5.616-4.602 4.721-3.829 5.414 7.643-.948 8.468-1.256-1.673.029-3.519-.591-8.15-3.373-7.558-3.132 10.505 4.809 11.111 4.575m-5.749 7.591c-.763-.285-2.477-3.659-2.457-4.849s2.025-1.975 2.577-2.292 1.238-.431.734.39-3.182 3.901-3.759 4.539.512-.781.301-.714-1.991.746-1.566 1.117 3.285.769 4.117 1.111 1.283 1.572.872.945-3.007-4.367-3.338-4.704.807 2.176 1.351 2.682m1.136 3.084c.112.914-4.754.728-4.98.112s2.334-3.466 3.622-3.807 3.087 2.456 4.109 1.759 3.192-5.448 2.026-5.941-8.862 1.475-9.021 2.978 6.784 5.285 8.067 6.041 1.395-.121-.37-1.505-10.281-6.256-10.219-6.803 10.05 3.262 10.594 3.524-6.885-2.133-7.331-1.955m1.331 3.262c.58.673 1.635 4.741 2.036 5.508s-.109-.184.371-.91 2.733-3.583 2.51-3.446-2.8 4.58-3.85 4.272-2.482-4.858-2.452-6.121 2.208-2.163 2.634-1.459-.763 4.863-.075 5.684 4.311-.429 4.207-.756-3.968-.943-4.827-1.205-.006-.516-.328-.368m6.553 6.626c-.341.362-10.944-2.504-11.238-3.257s9.529-.445 9.476-1.263-9.775-2.724-9.793-3.644 9.41-2.29 9.688-1.881-7.857 2.703-8.021 4.339 5.649 4.582 7.037 5.476 1.175.07 1.289-.109.453-.28-.608-.967-5.211-1.954-5.759-3.158 2.992-3.409 2.469-4.064m3.942 7.679c.466-.188-2.758-1.458-3.235-2.32s.23-2.752.373-2.85.665 1.334.483 2.259-1.419 2.773-1.577 3.291.973.57.631-.183-1.996-4.511-2.682-4.331-2.355 5.804-1.436 5.41 5.869-7.642 6.948-7.775.616 6.724-.474 6.975-5.052-5.443-6.068-5.472m9.187 2.306c.358.288-2.102-3.565-3.439-3.377s-4.344 3.916-4.58 4.5 2.537-1.739 3.162-.994 1.072 5.913.585 5.464-3.618-7.368-3.509-8.155 4.373 3.147 4.159 3.435-6.155-2.056-5.442-1.705 8.086 3.332 9.72 3.809.194-.439.084-.944 1.155-.848-.746-2.088m-8.065 2.517c-.104.606 1.65 5.126 2.011 4.975s.221-5.095.154-5.883.096.697-.557 1.15-2.99 1.322-3.36 1.57.541-.796 1.142-.079 2.309 4.122 2.464 4.381-1.586-1.667-1.535-2.826 1.715-4.235 1.844-4.133-.515 4.129-1.068 4.745-2.82-.806-2.253-1.051m-1.142-6.615c-1.136-.1-1.053 8.244-.865 10.208s1.862 1.476 1.989 1.576-.919.627-1.226-.978-.781-8.387-.615-8.653.496 6.36 1.61 7.057 3.798-2.947 5.072-2.874 1.883 3.251 2.569 3.315 1.607-1.677 1.549-2.931-1.142-4.666-1.895-4.591-2.146 4.113-2.622 5.04m-.222 1.876c-.74-.412-3.401.964-3.419.388s2.809-3.224 3.31-3.846-.771-1.133-.3.11 3.653 6.806 3.126 7.35-5.794-3.343-6.29-4.088 3.169-.357 3.316-.382-2.874-.125-2.432.229 4.75 1.41 5.087 1.895-2.222 1.341-3.063 1.015-2.395-2.364-1.984-2.972m4.499-4.287c.955.075 3.159-.364 2.869-.188s-3.166.814-4.61 1.244-3.594.987-4.056 1.338.084-.077 1.285.765 6.367 4.322 5.919 4.29-7.262-3.665-8.606-4.483.434-.379.544-.42-1.417-1.038.111.177 8.229 6.017 9.055 7.111-3.702 1.145-4.099-.545m-4.806 4.565c.089.83.406.083.676-.084s.46-.439.944-.919 1.253-.966 1.959-1.964 1.96-4.632 2.272-4.024.32 6.751-.397 7.673-3.488-.992-3.903-2.14.75-4.557 1.413-4.747 2.545 3.369 2.565 3.604-1.962-1.446-2.445-2.189-.682-1.891-.451-2.274m6.178 4.787c-1.115.473-7.44 2.01-8.138 2.225s3.454.575 3.951-.938-.929-6.903-.972-8.139 1.369-.288.715.722-4.594 4.833-4.635 5.337 4.338-3.049 4.389-2.318-3.531 6.313-4.082 6.706.038-3.839.775-4.351 3.656.837 3.644 1.279-4.526.853-3.714 1.372m7.257-30.421c.109.127 2.664 3.929 2.415 4.184s-3.685-2.924-3.909-2.653 1.916 4.596 2.564 4.274 1.991-5.481 1.323-6.206-5.404 1.414-5.33 1.854 5.04.482 5.771.787-.94 1.619-1.381 1.043-.75-4.98-1.265-4.497-2.023 6.728-1.828 7.397 2.248-3.353 2.997-3.383m.928-1.105c-.557-.078-5.801 3.287-6.304 3.155s2.325-2.958 3.287-3.948 2.576-2.417 2.487-1.992-3.416 3.939-3.019 4.546 5.584-.447 5.405-.904-5.829-1.979-6.479-1.839 1.083 1.551 2.578 2.679 6.997 3.868 6.388 4.087-9.373-1.51-10.041-2.774 5.6-3.682 6.036-4.807m1.833 7.274c-.158.456-2.295.462-2.513.588s1.633-.242 1.205.171-2.94 2.71-3.775 2.308-.783-3.914-1.236-4.716-1.168-.194-1.483-.097-.89.311-.41.678 2.029 1.795 3.288 1.528 4.328-3.554 4.268-3.13-4.656 5.609-4.63 5.674 4.135-4.766 4.785-5.281m-8.93 4.602c-.534-.453 2.117-5.95 3.708-5.453s4.715 8.648 5.838 8.436 1.528-8.884.897-9.712-4.595 3.955-4.681 4.744 3.386-.416 4.167-.013 1.085 1.925.52 2.435-3.271 2.206-3.906.62-.666-8.644.095-10.137 5.041-.701 4.474 1.181-7.272 9.591-7.873 10.109m-1.134.58c-.385.864 3.094.513 2.874.17s-3.636-2.12-4.198-2.229.903 1.376.829 1.577-1.265-.03-1.274-.369.782-.922 1.222-1.668 1.179-2.428 1.417-2.807-.265-.691.012.533 1.916 6.615 1.649 6.812-2.862-4.637-3.25-5.63.656-1.345.923-.328m.423 6.378c-.027.822-2.093-.051-1.596-1.563s4.651-6.168 4.574-7.507-5.121-1.456-5.035-.53 4.902 5.649 5.556 6.088-2.276-3.268-1.631-3.454 6.51 2.348 5.504 2.334-10.774-2.086-11.537-2.416 6.551.813 6.956.436-5.101-4.115-4.524-2.7 6.82 10.44 7.986 11.188m-5.617-4.878c-1.039-.533-1.398.763-1.195 1.458s1.818 2.863 2.413 2.714.454-3.093 1.158-3.608 3.588-.06 3.066.513-5.784 2.275-6.198 2.925 2.97 1.15 3.717.978 1.269-1.934.766-2.011-3.736 1.684-3.787 1.552 3.698-2.691 3.483-2.347-4.163 4.618-4.77 4.411m2.964-.852c-.266-1.216.428-6.388 1.235-7.327s4.459 1.11 3.606 1.692-8.687 2.021-8.724 1.8 8.634-2.815 8.504-3.127-8.779-.136-9.285 1.257 5.202 6.969 6.248 7.103-.144-6.072.028-6.297 2.132 5.169 1.003 4.945-6.406-5.291-7.779-6.291-1.706.316-.455.293m8.249 9.415c.784.058 2.345-3.695 1.397-3.488s-6.601 4.329-7.082 4.731 3.776-1.335 4.195-2.322-1.211-2.984-1.684-3.601-1.237-.78-1.153-.103.901 3.642 1.655 4.161 3.446-.27 2.87-1.047-5.251-4.033-6.327-3.614-.572 5.389-.128 6.131 2.442-.484 2.79-1.68m-5.02.548c-.577-1.059 1.04-4.769 2.961-4.25s7.516 6.657 8.563 7.363-.742-2.014-2.284-3.13-5.468-3.134-6.966-3.568-1.788 1.013-2.022.96-1.034-1.634.615-1.277 8.055 2.221 9.278 3.421-1.754 3.983-1.942 3.78 1.267-4.787.815-4.996-2.996 3.348-3.527 3.74m.572 1.632c.145-.268-2.728-.183-2.639.022s3.297 1.964 3.173 1.208-3.316-5.59-3.917-5.747-.575 4.267.309 4.804 4.85-1.737 4.992-1.586-3.693 2.448-4.139 2.493 1.896-1.989 1.466-2.218-4.065.568-4.046.84 3.956.505 4.159.792-2.591 1.982-2.945.932m7.867-8.105c.085-1.302-.09-1.514-.023-1.197s1.267 2.682.427 3.097-4.103-.339-5.47-.609-1.671-2.146-2.734-1.009-4.007 7.254-3.646 7.831 5.023-2.75 5.813-4.37-.68-4.957-1.075-5.354-1.331 1.492-1.295 2.973 1.37 5.993 1.512 5.915-1.788-6.559-.658-6.382m3.124 7.336c-.254-.126.098.55.434-.024s1.305-2.972 1.586-3.42.253.331.103.728-.583 1.274-.999 1.656-.887.057-1.492.637-2.653 2.841-2.14 2.844 4.491-2.995 5.219-2.826.2 4.237-.855 3.84-4.583-5.121-5.476-6.219-.309-.343.119-.374m4.688 5.818c.521-.695.969-6.086.7-7.45s-2.901-1.633-2.31-.735 5.785 6.047 5.855 6.12-5.079-6.442-5.439-5.683 3.993 10.214 3.278 10.242-6.226-8.832-7.567-10.071-.918 2.812-.479 2.634 2.79-4.627 3.114-3.705-.83 7.821-1.17 9.233-.227-.48-.868-.762m5.328-10.965c-.685-.669.375-4.768.462-5.545s-.891.397.057.881 5.231 2.162 5.627 2.027-2.083-3.144-3.247-2.839-3.976 3.697-3.735 4.67 5.163 1.206 5.18 1.17-4.227-1.275-5.08-1.384-.346.431-.037.733 1.858.896 1.89 1.082-1.487.308-1.699.032m1.942-2.978c1.467.359 4.823 6.294 4.581 5.35s-6.107-9.524-6.032-11.017 5.305 1.68 6.484 2.063 1.789-.173.591.239-7.616 1.587-7.779 2.234 5.791 1.122 6.797 1.65.071 2.626-.761 1.516-4.334-7.223-4.228-8.175 3.761 1.39 4.863 2.464 1.585 4.406 1.747 3.981m-3.133 4.871c-.043-.174-.599-6.556-1.439-6.347s-3.608 7.027-3.601 7.599 3.017-4.089 3.643-4.169.811 3.91.112 3.694-4.176-3.997-4.307-4.991 3.181-1.932 3.52-.973-1.529 6.69-1.486 6.728 1.679-5.53 1.748-6.5-.571-.146-1.333.679-3.079 3.929-3.244 4.266m.977 2.923c-1.16-.411-4.477-8.657-3.727-9.591s7.666 3.154 8.225 3.991-5.15.32-4.869 1.031 7.051 4.013 6.556 3.233-8.463-7.568-9.524-7.916 1.642 4.171 3.159 5.827 4.639 4.234 5.943 4.108 2.016-3.13 1.881-4.865-2.234-5.59-2.689-5.546-.449 4.101-.042 5.811m-3.829.185c.633-.108 1.08-1.451 1.413-.742s.78 4.581.588 4.994-1.193-1.928-1.738-2.52-2.164-1.785-1.529-1.034 4.829 4.847 5.338 5.542-1.618-.727-2.282-1.376-1.235-2.003-1.701-2.521-1.793-.752-1.098-.584 4.75.906 5.268 1.594-1.999 3.228-2.158 2.533m-3.779-7.613c1.042.643 6.79 8.532 6.563 8.286s-7.64-10.147-7.924-9.761 4.909 10.126 6.218 12.073 2.727 1.344 1.638-.387-7.753-8.351-8.172-9.998 5.797-1.022 5.656.117-6.156 5.95-6.498 6.718 3.954-1.457 4.447-2.109-1.746-1.376-1.491-1.802 3.286-1.69 3.022-.755m2.491 7.411c-.461-1.057-5.12-4.966-5.801-4.902s.572 5.302 1.717 5.282 4.371-4.707 5.156-5.402-.186.468-.446 1.232-.133 3.379-1.111 3.353-5-2.844-4.757-3.506 5.172-.746 6.216-.463.793 1.185.046 2.159-3.652 2.925-4.527 3.684-1.141 1.613-.726.872m7.259 1.384c-1.14.421-7.664 2.507-8.011.916s5.256-9.364 5.93-10.466-1.988 2.321-1.887 3.854 2.669 5.65 2.49 5.345-3.181-5.641-3.564-7.178 1.301-1.983 1.269-2.044-1.276.253-1.456 1.676.427 6.393.374 6.861-1.461-3.466-.691-4.051 5.847.366 5.311.54m-.313 1.953c-.003.881-.337-.147-.713.175s-1.392 1.549-1.542 1.755.276-.271.642-.522 1.199-.188 1.553-.984.851-4.14.573-3.795-1.786 5.279-2.241 5.868-1.078-2.026-.491-2.338 3.567.528 4.008.465-.431-1.054-1.359-.847-4.589 1.858-4.211 2.091m.095.156c.983-1.169 4.963-4.933 5.087-5.244s-3.164 2.296-4.342 3.381-3.967 3.928-2.731 3.132 8.393-6.741 10.144-7.909 1.375-.086.363.902-6.197 5.058-6.435 5.028 5.539-4.991 5.008-5.211-7.713 4.217-8.193 3.891 3.857-4.714 5.315-5.847 3.263-1.157 3.433-.949" stroke="#add8e6" stroke-width=".8" fill="none"/><path d="M59.691 51.87c.604-.045 1.839.4 2.341.831s.617 1.179.667 1.754a2.84 2.84 0 0 1-.368 1.699c-.318.557-1.03 1.334-1.539 1.645s-.942.479-1.514.223-1.539-1.165-1.917-1.761-.442-1.281-.353-1.816.377-1.021.887-1.394 1.775-.71 2.175-.843.24.013.23.045m-.243-.639c.53-.122 1.074.079 1.6.551s1.376 1.575 1.553 2.276-.102 1.448-.488 1.935-1.279.691-1.83.984-.875.882-1.478.776-1.774-.769-2.138-1.41-.13-1.867-.048-2.438.047-.638.54-.984 2.03-.829 2.415-1.095-.024-.474-.102-.498" fill="#fff"/><path d="M59.986 52.275c.588.028 1.349.191 1.816.53a2.69 2.69 0 0 1 .988 1.507c.133.586.141 1.404-.19 2.008s-1.207 1.362-1.796 1.617-1.209.162-1.742-.087-1.158-.818-1.457-1.407-.391-1.48-.341-2.124.171-1.368.642-1.738 1.828-.365 2.182-.483-.079-.25-.061-.225m-.185-.24c.551-.058 1.296.473 1.743.967s.721 1.432.938 1.996.562.844.362 1.387-.949 1.549-1.565 1.872-1.463.235-2.13.068-1.454-.603-1.868-1.069-.711-1.031-.619-1.725.693-1.958 1.174-2.438 1.42-.298 1.714-.442-.003-.38.049-.42" stroke="#000" stroke-width=".4" fill="none"/><path d="M51.975 34.359c1.57-.094 3.67.727 4.882 1.787s2.081 2.956 2.388 4.572.212 3.778-.544 5.122-2.473 2.367-3.99 2.94-3.615.941-5.11.499-3.029-1.753-3.862-3.149-1.384-3.561-1.132-5.225 1.436-3.754 2.646-4.76 3.838-1.067 4.613-1.278.034-.07.037.011m.41-.694c1.533-.073 3.09 1.082 4.197 2.223s2.198 3.1 2.445 4.626-.291 3.212-.962 4.529-1.699 2.771-3.064 3.376-3.604.812-5.125.255-3.208-2.175-3.999-3.599-.923-3.387-.743-4.943.711-3.381 1.824-4.393 3.962-1.468 4.855-1.678.468.343.508.418" fill="#fff"/><path d="M52.697 34.693c1.517.097 3.219 1.147 4.318 2.295s2.122 3.02 2.274 4.595-.432 3.556-1.363 4.856-2.673 2.577-4.223 2.946-3.661-.056-5.073-.733-2.75-1.939-3.399-3.325-.927-3.41-.495-4.991 1.755-3.544 3.085-4.495 4.002-1.06 4.894-1.211.502.159.461.304m-1.579-.538c1.591-.281 3.561.338 4.843 1.26s2.495 2.658 2.852 4.274.04 3.917-.712 5.424-2.362 2.956-3.803 3.62-3.323.785-4.843.364-3.387-1.593-4.281-2.887-1.296-3.314-1.085-4.874 1.256-3.373 2.348-4.482 3.388-1.849 4.208-2.167.647.222.708.254" stroke="#000" stroke-width=".5" fill="none"/><path d="M51.901 40.974c.242-.14.72-.42.951-.39s.408.216.435.571-.156 1.238-.27 1.558-.164.306-.417.357-.809-.017-1.098-.051-.522.059-.638-.153-.1-.757-.054-1.123.148-.903.333-1.074.607-.007.779.048.259.299.249.284m-.271-.132c.283.017 1.204-.239 1.548-.11s.53.587.52.882-.257.682-.584.886-.906.288-1.38.338-1.115-.056-1.465-.038-.742.376-.634.147.97-1.129 1.28-1.525.424-.642.579-.847.235-.275.348-.385.294-.239.33-.275"/><path d="M52.281 40.186c.301-.005.166.958.346 1.194s.596.023.737.221.332.612.106.967-1.081 1.047-1.463 1.167-.664-.228-.825-.445-.031-.593-.145-.856-.591-.392-.537-.721.508-1.115.862-1.257 1.162.347 1.262.4-.573-.052-.666-.082m.736-.293c.261-.141.244.105.468.251s.938.312.879.621-.914.833-1.237 1.234-.501.985-.701 1.168-.314.128-.499-.068-.422-.738-.611-1.11-.588-.759-.519-1.119.536-.824.935-1.041 1.241-.206 1.46-.262-.082-.263-.148-.072" stroke="#000" stroke-width=".5" fill="none"/><path d="M67.228 34.684c1.409-.364 3.15.048 4.485.853s2.999 2.397 3.521 3.979.298 3.99-.39 5.514-2.294 2.93-3.738 3.63-3.39.976-4.926.568-3.394-1.8-4.293-3.019-1.218-2.741-1.106-4.297.673-3.84 1.776-5.038 4.078-1.748 4.843-2.153-.24-.36-.254-.273m1.058.221c1.382-.157 3.27.356 4.432 1.42s2.206 3.289 2.539 4.961.248 3.771-.541 5.073-2.658 2.213-4.192 2.741-3.494.925-5.012.428-3.39-1.975-4.094-3.411-.558-3.639-.13-5.208 1.567-3.124 2.699-4.208 3.29-2.027 4.092-2.296.611.438.722.68" fill="#fff"/><path d="M67.389 34.756c1.53-.135 3.766.559 5.033 1.436s2.235 2.308 2.57 3.822.095 3.798-.558 5.261-1.93 2.883-3.362 3.514-3.697.692-5.228.268-3.065-1.518-3.96-2.815-1.561-3.388-1.41-4.967 1.098-3.428 2.316-4.512 4.197-1.652 4.995-1.991-.21-.11-.204-.046m-.378.253c1.437-.177 3.587.588 4.909 1.434s2.589 2.15 3.023 3.638.342 3.817-.416 5.292-2.628 2.935-4.129 3.559-3.464.716-4.874.183-2.809-2.032-3.586-3.38-1.161-3.131-1.078-4.708.54-3.667 1.581-4.757 3.88-1.542 4.665-1.781-.056.195.045.349" stroke="#000" stroke-width=".5" fill="none"/><path d="M67.825 40.379c.241-.138.137.046.446.192s1.267.409 1.406.684-.481.585-.573.968.186 1.055.02 1.33a.86.86 0 0 1-1.019.32c-.404-.168-1.107-.999-1.405-1.33s-.363-.397-.38-.656.078-.671.276-.897.809-.448.913-.459-.383.391-.288.394m1.139-.335c.309-.198.986-.52 1.191-.367s.138.929.037 1.282-.366.612-.638.834-.635.276-.999.498-1.045.76-1.182.838.469-.014.357-.375-1.115-1.36-1.031-1.792 1.126-.537 1.533-.801.931-.651.907-.782-.97-.116-1.048-.003"/><path d="M67.447 40.251c.386-.158 1.534.02 1.839.209s-.037.593-.008.923.259.755.179 1.057-.346.567-.66.75-.85.361-1.223.35-.881-.186-1.013-.417.191-.615.225-.967-.287-.84-.019-1.147 1.423-.587 1.627-.696-.388.039-.403.046m-.735.515c.207-.072 1.074-.231 1.337-.174s.063.281.244.517.918.575.837.897-.891.775-1.32 1.035-.907.472-1.255.522-.649-.031-.834-.224-.443-.453-.274-.936.921-1.525 1.286-1.963.765-.692.907-.668.012.666-.05.81" stroke="#000" stroke-width=".5" fill="none"/></svg>
