<svg xmlns:xlink="http://www.w3.org/1999/xlink" xmlns="http://www.w3.org/2000/svg" id="sea" viewBox="0 0 700 200" width="100%"  height="100%" >
		<g><path d="M2.0135577459606733 9.700437004483616 C2.0135577459606733 9.700437004483616, 2.0135577459606733 9.700437004483616, 2.0135577459606733 9.700437004483616 M2.0135577459606733 9.700437004483616 C2.0135577459606733 9.700437004483616, 2.0135577459606733 9.700437004483616, 2.0135577459606733 9.700437004483616 M0.5358118244353195 18.05860049428728 C3.824741040273785 13.536883292456402, 8.650105311144753 9.374750911965442, 8.781557122600118 7.831319351058826 M0.7334286651137273 16.29184263002962 C4.232670201868647 13.522477187905151, 6.461140177060289 11.039020403752486, 9.348728457331806 7.418128776311053 M3.944391266238079 20.428044575864252 C8.143364535807617 14.874202485921142, 16.49156130448043 5.616287571757725, 17.497774661496877 2.6282815792072727 M2.249892069294103 20.08333549857142 C6.5653853785721825 16.58692691531897, 12.311052808519092 11.294908402923909, 18.70597641640071 2.7140139670130945 M5.016398172930809 25.75946330919532 C10.548680467461898 18.780696226758472, 13.325429956096372 15.843928734814241, 23.708825184254465 4.159994705748026 M3.1399374667547324 25.527839526879497 C11.368980130821003 17.219214900580532, 18.594555042994635 9.220221543675233, 24.442823192649875 2.0356865008348066 M5.670014514502901 29.823777171627718 C12.179614796852595 21.234389397873883, 21.178330819154706 12.448261812118051, 28.934008926339843 0.1616049193008262 M6.567704824305802 28.484573119161723 C13.680366212352915 20.625886618043054, 22.484979917587367 10.832009580374782, 29.293693920559736 1.1981028842651624 M10.90498118790957 33.81068638566053 C15.509103850484403 27.04044284230472, 20.722001084778345 17.975874536557676, 31.957976151036195 4.06408506851648 M9.650092926166367 31.46079556756897 C18.121734632050835 20.39604326864363, 27.720124104377643 10.018693418385158, 32.8823717392681 3.5495776002984716 M10.471929725710417 32.97991314642901 C20.276627531661134 26.41238604282342, 31.111256117028606 16.214845683447304, 37.42034761540128 4.855711710661157 M12.624507707820037 35.15226293295844 C19.90271814472385 26.03062655100522, 27.123367070449827 17.071580396507855, 38.24979018236456 4.778686837655275 M16.79211791325594 37.20601781287959 C24.567584301991076 26.507739856281212, 32.35346833361223 20.342985219346843, 44.08795065374136 2.339254359305796 M16.42542207490672 35.75389433174321 C25.6447412448746 24.732344201421014, 37.469319027083955 12.752417080821514, 44.84025306135722 4.23953815370985 M20.052702551039125 38.33363439436997 C31.171364836754925 28.317345307191626, 41.04759223025289 17.054686595379213, 50.57111400800156 4.934131126104883 M21.195115657661162 37.66273278154046 C27.04862604316268 29.215706328505874, 33.686942495564246 22.137301112434933, 49.313300194201524 4.7208848884282 M24.282881081103184 39.968555522472215 C34.62854728016632 26.976271209693174, 47.13427861429365 11.268134478348372, 53.255205272994104 4.191251889946272 M23.612362770073783 38.55784300591131 C33.99516449756055 27.249092916074787, 44.42148880213141 15.36108698344467, 53.29174998539213 4.695191994224702 M27.28181288667752 39.82269766956552 C38.07392436903955 28.336826599427713, 49.70552365838792 13.010736723604884, 58.53873082177181 2.9072535063165397 M28.714701059200287 39.48301589492363 C36.39941149491127 31.516452806192618, 43.64692021546852 22.06797197295693, 59.219972789620414 4.316850900998964 M29.966388124690063 41.927343426211365 C42.40457846394608 27.537897317197785, 56.71238167510076 12.956714538663391, 65.89532001819909 1.3207246702444495 M31.05079028544244 42.55885200925187 C41.7937682729089 30.29690607694611, 52.97814562064754 17.705267598301187, 66.01053789377605 3.422695739519069 M35.86756807828052 45.87110731315842 C46.15697629793485 28.550775773454017, 61.24519654606965 15.847736965633189, 69.22163153386174 4.748565605133425 M35.941644782778134 43.61657995970557 C45.437943503411354 34.23872615094624, 53.47269210410242 22.501525111188762, 71.51216714873256 3.062078738266647 M39.19613902411428 46.844661194291525 C52.48979282582476 29.9767380219134, 63.516705804492844 18.525282344964648, 75.44613612342958 4.5224052703184 M39.097818711701244 46.544444487481286 C51.362559707842735 30.490911346058233, 64.977837758939 16.747930870434992, 76.65783283175102 2.886203875562627 M44.55319177531749 48.24600035743349 C56.234035975199404 34.938030061834276, 67.59270210873828 21.254707865049184, 81.07228096446588 1.8290585539069735 M43.151449712658795 47.97675644119754 C52.98752804429829 37.40930840076218, 63.93221428236961 25.581420933685386, 83.1166332721736 1.8127836087415061 M45.88275698160076 49.66587677497461 C53.483492310023266 41.76967914334955, 62.772705632035425 31.478308835881542, 89.45945429317277 0.2991851178612759 M45.57342312211218 50.370543076629964 C59.750063561547115 35.07991219155359, 72.52800120014211 20.098412794716502, 87.5942366471942 1.5463171671681457 M47.97165781675812 53.996849559613445 C67.84921792923893 34.1199342978173, 84.06952567392439 11.28543697644768, 93.46045226427057 2.183709280926017 M49.11717432842367 52.84293861355616 C62.00847987368337 38.41279162306265, 74.37049975566367 24.4074283750402, 92.52751899446773 3.310519310190195 M52.692727835658474 54.56443017117415 C64.5735925333045 42.00517592299845, 71.98708328302878 30.33716552727518, 98.95734755702655 1.8771906078598732 M53.50945686325172 54.187719845624656 C67.65696455205828 38.549223106029935, 81.65217776629035 21.068368535130357, 97.72789554312513 2.2472609638058993 M57.13858114751642 55.72612970237313 C66.85563240222838 43.28154093145019, 77.79969820767734 30.201519899072856, 104.57122525407075 -0.13731689712548611 M58.48041937199145 55.5818067816102 C72.61427465371725 38.92796997184423, 86.55361475411951 23.071731519509314, 104.76071031705885 2.798900461272757 M61.14355719819996 56.3261444324151 C72.0230892055901 44.6152954422529, 82.2892743270432 36.04493939317693, 109.76792451875863 2.0871123199986235 M63.09769922845944 56.51440118188657 C80.65104735035887 33.65883347554755, 100.32532471714268 13.326128842337585, 108.2547095788018 2.0578207371048123 M67.18627668637376 56.21311457878625 C78.77555725412945 44.092047944393116, 89.59723125638943 28.39831707975091, 116.58216552770472 0.006756117384081328 M67.7277726699314 55.288537311590396 C85.91873218731365 34.51264702752628, 105.13668129224718 15.042060054100233, 115.38067670194542 1.9746213618092967 M74.3080748305482 56.1186128647849 C91.16651339251068 38.27813350572156, 106.04974089609192 21.09309013583307, 119.17009797261697 2.1106160058734558 M73.24262910971164 55.06813610941074 C85.10908905292561 41.722703376057396, 96.11683286383568 29.20581919857365, 120.32714917382911 1.5513897112630484 M80.86178391720857 50.70113187712474 C93.13554259687956 36.73291372606896, 105.32359839305593 23.841446684627847, 126.51419506895483 2.077510720174555 M82.17801143163948 51.752918975492804 C90.99997537656854 41.03390930861379, 101.37298536190366 31.221534311168007, 123.87780007015327 3.458343317252829 M89.21891772713332 47.09505362853716 C105.55912989953679 33.66427957505762, 115.94586909812392 18.373827268134807, 128.6670434750458 2.826042215765419 M90.49438075184584 48.51026110282274 C99.27349373698247 37.50990286225365, 110.52201621324198 25.82738247136353, 129.5729291157055 3.8537790950279653 M98.9217383043027 45.13742609077998 C105.42487324744634 36.43781596638227, 115.54310687772505 23.664470577897532, 132.41625420825986 4.612144954151307 M97.66834562958104 46.140015020216 C107.86686306325862 32.9873634603897, 118.51554291362523 20.524155738661168, 134.39440404322983 3.8504734378264556 M101.39325935051006 46.76074319153571 C113.77434628161365 34.638403981858815, 123.91399392496793 22.387243122913123, 138.45570885197156 4.669545054753652 M102.24908124538968 47.789658113522705 C114.98705890638456 32.90070487156792, 127.33968719759393 17.753885379699838, 137.92985541258247 6.0998155096024345 M109.50471306144381 45.22564393441146 C119.40310134916771 31.236982233102612, 132.46741499905164 16.017842049726223, 143.7988200488176 4.798981733995055 M108.59696019738166 46.950082336852006 C118.1120639739502 35.78313236533573, 127.99097094696127 24.601158479485026, 144.25641625694232 6.220217189985632 M116.04659912453053 45.76121005205318 C124.60956586441065 35.98589102727171, 130.07484770469452 24.179560514028147, 147.16911737426332 7.057040876492847 M114.6837637261892 43.852242691215494 C126.67987296753445 31.122715546814586, 136.49631384475714 19.816551850110375, 147.56514678081854 5.57372370671083 M118.10987468758675 45.55005698887042 C128.49912334978708 35.444957653744375, 132.95538631681436 29.407505486743506, 150.96568988477551 6.316074808462049 M119.33982345980813 45.10137819394489 C128.60263336134486 34.01361564274856, 139.54149393267934 22.86701837840918, 153.32513953440338 6.619358206199253 M124.73715126225706 47.1662856630699 C132.48152243310554 35.390323717427044, 143.27725952053103 26.969625277277114, 156.89018390581688 9.925022151529957 M124.7666842327136 46.27710706572949 C135.75745941761883 33.43533024869072, 148.1315093203711 19.332927239006136, 157.01364265314103 7.5645064029949705 M127.69672774323824 46.1593739723996 C141.08055051424648 31.730211756076024, 153.34867649526794 18.801208195554562, 162.01023763197125 9.546731725047287 M129.8108653591814 45.23496071158447 C137.29260431064665 36.54294121909025, 147.77679483692017 25.3266878899793, 161.88872223188827 7.093914346164065 M135.74142017442153 48.4753158973474 C141.1351433876499 35.32842618152811, 151.73200193208467 26.758364424792987, 167.78034077052382 8.44001151421164 M134.40452140725031 47.45289779705126 C141.1917571686308 38.745016458357185, 149.16284342151098 28.96857412330951, 169.66848390784483 5.675456807193649 M136.39599701493964 47.75288034947932 C151.62699683910353 33.89179617605437, 166.50288889832527 16.194619635585116, 174.79323812935132 7.635919069411537 M138.93972301000042 48.71609265998002 C148.71130138371484 37.25312868199107, 159.455437243324 23.879508798850217, 174.68048922350224 5.206663026821579 M144.1094599598717 51.034163295039534 C156.28797725728163 32.73884585406117, 170.94727099484112 16.404353491840354, 183.81799539874618 1.410462610635535 M142.83267907477494 48.67917337459756 C155.6948748481874 34.49718203281662, 169.50073630488288 17.56903919233404, 182.32646641514089 1.80004599957604 M147.13584455589955 50.184837933597436 C158.1503943938694 39.99220967243487, 168.47430438108705 26.741108649488336, 186.99973620934497 2.0128968409238146 M145.3369988644979 51.908764703028865 C157.08352336354852 39.81133228601816, 166.90597144672319 27.717905035251768, 187.45633177315744 2.797703469176724 M151.78396438135925 51.435692783352415 C158.7276570163205 41.368735336974254, 168.79240660890625 28.99339766990473, 193.45062162540276 2.0278734062580073 M150.58991600235362 51.868245276544634 C160.11190701760992 41.51486556307956, 168.60733989215043 30.57040968216449, 192.45887300097937 3.4579540839908844 M152.1435041122963 55.82836417537893 C170.30182080287003 35.930927788770035, 184.0901672062499 20.474461679941204, 198.53457213964938 5.5605626851911705 M154.25775056893764 54.89269547165743 C169.31931517387451 35.34397451158243, 185.4099180116992 18.87913988578002, 196.40900641772674 5.3021206535558 M158.83492451821806 56.6029804974449 C176.96140081650339 36.79349672751084, 191.45751240015235 15.876249886587814, 204.0575435231039 4.979508516573033 M158.3538604826862 54.53117122523723 C165.9543867522238 44.76929960255873, 175.01238831322914 34.14789523603134, 202.8044470191249 5.196604727328971 M163.48130230866772 58.4307831543648 C171.79468979316826 45.20822176616819, 180.94201046785003 35.52870872802665, 207.96073445695413 5.778774451204418 M162.77698562719388 56.54595739074351 C175.98888083233606 42.08074922726244, 190.24056497810707 26.077626450370424, 207.36005261006028 6.7545455604541935 M166.23524791430106 59.637060787134835 C184.40157940257745 38.167711905391265, 199.22826711628568 19.093403731282553, 211.36776786859244 6.429551144630592 M165.45875131708837 58.83197122275262 C179.6433787662473 43.77210419551925, 190.88080050090952 29.235341263744637, 213.1500295693514 5.937679168742042 M170.54585414634894 60.86103631163118 C179.76919226599543 47.126113307622326, 191.95734945352166 35.33882324697467, 217.26625370338672 4.0849443855758585 M171.48683020536447 59.40924700030711 C181.22188963015643 46.248141690526566, 193.06881568991554 35.43288171399355, 217.6373037975342 4.830634979489619 M176.35265894334657 62.67636422153978 C187.9600252411633 46.85836149143452, 198.61452086842928 35.72898915779929, 224.09272976320776 4.747196681082428 M174.97778065535405 60.55477713948392 C194.87118680128165 38.52722150325145, 213.14682435836787 17.384203879572, 222.88249795866744 4.329231707274461 M180.94922758797946 61.01518739709102 C195.72809364583708 41.25232632258298, 214.62119090127277 24.854302275261695, 230.9433490643226 4.334686301005892 M179.49157099436093 60.61223377542032 C195.5538348507442 42.60528943705136, 212.87984245050328 24.69549702175234, 228.86658666953238 3.477034395544671 M183.72962208565843 63.02900767512187 C198.0935898778493 49.83110907615639, 206.53491523244926 36.56748908770769, 234.2139401002492 3.840178391949717 M185.35961752692873 60.47414613717767 C204.06259879944432 41.64201127875811, 221.1275116598775 19.452661832679233, 234.9233521203402 4.136794051637808 M191.18603203854505 61.76124948607399 C206.69649505106048 43.43210398056751, 220.3658352709638 27.223708864050952, 241.50327144191562 3.899772612577012 M190.5519658081731 59.50403984996787 C204.22960498703387 44.93807977640247, 219.35940105105203 28.11668976018972, 240.70215806033679 3.597562642439849 M197.23574835694055 56.47623443933682 C213.38879680568078 40.90153526319639, 225.5342402233717 26.794313089785526, 246.42112065443126 6.640606327434924 M199.38709022746613 56.77412722907975 C212.888079460744 41.771304589678955, 225.50481020495883 26.506324963793364, 245.74625623217418 4.434242007715106 M207.66082721299964 54.367094521644525 C217.87361121163445 45.658180809969075, 227.04091618216586 30.127863163642488, 249.070210544127 6.667705230156033 M205.19994661114146 56.21237988353277 C218.9768805559714 41.62300233753977, 231.47282131297248 27.34300088293482, 249.09251044798904 5.3392628047641075 M212.32791713805585 51.62536824295046 C230.35146146540333 36.365582965204815, 243.0171690123615 17.620091507608016, 256.3691559544909 5.404819636372547 M213.12652635251408 52.842589384438334 C229.05683804118928 37.24566112372665, 242.6448727690116 21.20390272570626, 254.38914712987867 6.137549749601406 M220.09782703107436 52.462695799586214 C228.31004647430888 42.38679645912257, 238.8443322162514 31.756600111161383, 258.6569706466652 7.800528809064414 M217.8818350837075 53.266667291345144 C231.53224247490488 38.47402426825326, 244.72048287290784 23.1238155939827, 260.71326177271555 6.749013066191413 M223.78821611635618 53.68945320279427 C239.3319432628705 34.58324535553645, 257.5287402849348 16.679527726066542, 263.7965885634071 7.452222758441174 M223.84260015134845 51.25175603756935 C240.23048697078946 34.821680485044716, 255.7584472695547 17.01392777942322, 264.5981250661466 6.874349840058321 M229.6255553436035 51.40685301411831 C245.91713211498495 35.261731277241026, 261.7641451951429 16.173278791234203, 271.0833210105353 3.9043086764359547 M230.33384652742077 52.05690155010116 C244.14796527887069 34.981856998869645, 257.15513101469566 19.9440890644754, 269.5138355814443 4.918642623378057 M233.47893312777055 52.57116726552617 C249.82509287776458 37.15814558181948, 261.58786937439817 19.974445573179832, 275.7430119793436 5.5270994320512585 M236.00666068099122 51.223832685750416 C244.94972162510857 41.856480775084805, 253.9758869976002 31.114745236007614, 276.0827760442052 6.114440303194062 M239.67360940849096 54.15658493087208 C252.45473017900557 39.66070374161281, 264.14973453756545 21.55050835664939, 281.307353353389 4.097662504901839 M239.09507296718715 53.28257044760253 C251.2695745207 39.97243421810569, 260.8026413903989 27.828499371996617, 281.10631272678233 5.1646674542904965 M244.52470869837484 54.12738055005737 C258.9409430918592 38.20121481126797, 276.1215396014589 19.22246807461163, 285.65603679194055 5.329763545293679 M244.74526432459075 54.78870579107901 C257.88283975582567 39.11339840546841, 270.8394568279065 23.20837615782272, 286.53062376985224 4.478225086382865 M245.76282495159353 57.361744972258464 C262.4207802466927 40.02565948994713, 274.59157102128876 23.257352879115512, 294.9923946374879 3.9024446351303093 M248.07429457549335 55.62114449392873 C265.83721369677465 36.941298098981285, 282.2667292506784 17.477169759261155, 292.9979448215493 3.5778422277522983 M252.4109978422208 58.41173078840581 C269.9824702530713 37.82354942664748, 287.34116355274733 16.467213335713904, 299.3195375563319 4.086260682370897 M250.70241069835885 59.159300944417 C263.7581540169501 44.440665558302044, 275.5000222850959 30.299605386146418, 298.7289647190106 3.519246982755577 M253.51056230539936 60.81185091840458 C269.25582410787433 43.7566974465557, 284.3235668054209 27.544982390475962, 302.7751171524994 5.739726185740806 M254.54629455171198 59.75344779031652 C270.2955456565183 42.406719131810455, 284.2630611035418 26.466977250345167, 303.32030439673633 3.6204296794833786 M258.3855828933545 60.074619666198295 C270.86362672628695 44.97951195567098, 285.16620035392384 30.48586509532801, 310.48787562640234 4.508966873664811 M259.3634819914394 61.87843509945666 C270.8856583099526 49.27799872455366, 281.83672409286015 35.3702074747124, 308.83888987211895 4.473436612083432 M262.7123782739627 62.45321379625919 C274.3890439315273 47.777641945247716, 287.2125570756357 36.1007983508503, 313.7228540895184 5.806980978762464 M262.05391185572205 64.39444657767892 C280.06315302185914 43.862775312016495, 295.1842202783162 25.587522803384765, 313.5197311628893 4.331990065548572 M266.3806477768215 64.27615740892168 C286.6389819154437 44.019920097793175, 306.4685626311969 21.56944859938528, 316.91211240641223 6.655236228147288 M266.08467006167456 66.16083564259485 C284.9898088717986 44.89696564997629, 303.1681591931333 21.54418011543425, 318.67032889189977 6.090133452249949 M268.4038661112559 68.77016155607005 C286.39073498632337 48.08499171604048, 304.45827126268733 27.934477868580487, 324.1905591776907 5.345729245912351 M270.11692662595647 68.03188026605642 C284.8702911480087 47.50078353830623, 301.69869928198165 29.973394528745416, 323.76681711714957 7.356115135248597 M275.1942621861045 69.00481619532408 C292.01749526204077 48.42337159870421, 311.01567540503817 25.343027690763066, 327.3405470733765 7.214495534045372 M273.39124220687825 69.33968222461219 C287.4131238317813 53.76933272808551, 301.6749381744808 38.027387935191975, 326.54919375578675 8.997280553819618 M277.3117043740373 70.97511433601491 C296.700564756828 48.44805345419627, 316.1636936620747 25.044896938901857, 333.71164281503326 7.861885428623191 M277.52176078871867 71.36735253707941 C293.3267930285033 53.18438457228918, 308.0884064790646 35.88092884559452, 331.56000094792086 8.1433972688255 M280.6258184858512 73.23205251050054 C293.4049362751456 59.690156263362255, 305.28813301827904 43.536205507593955, 337.0432942086319 8.548300120958446 M281.64574958184676 72.6186306371664 C303.4016304843286 47.29194251061309, 325.4943032415985 21.525947270443663, 337.9299799115164 7.51927885298742 M288.5954651194291 73.17969422375204 C304.98249529806196 51.97131545101062, 321.0518039701441 31.4535809601594, 343.35430745500906 6.65719986708479 M286.92360616921985 72.83229715363481 C307.0498705369759 49.18022975739979, 329.2825975493972 23.647889725036123, 344.5213255289426 6.648968198309962 M294.06255184249954 72.07174913850041 C316.1097975212828 44.92137709461277, 335.93599574362895 22.10023206597383, 349.48406720466664 5.284183295945535 M293.63537726293276 70.41766570676297 C304.77666957013065 57.640043510903844, 315.97058015314747 42.59076428335146, 350.7922017295945 4.824450319988113 M299.00312830948974 71.28629956739137 C315.60352864119807 52.935624962314414, 329.79709328009636 34.122889396169086, 357.82901959813154 4.585529252553693 M299.5788902141713 69.53969163249995 C320.7198572987004 45.32547021316107, 341.48526332260155 20.790390439430134, 355.2267906901689 4.29765000923143 M303.21721825187205 72.7069175594686 C325.0621674344513 48.803940299628685, 344.05917752233637 25.583801918653094, 361.0448460156514 5.959315040016214 M304.87426314383816 70.57488456710965 C322.55089953009065 50.27660061600824, 339.64488126243623 29.549346658829208, 361.1862540789896 4.872189626992965 M313.52862751319816 68.2011320299982 C330.98264773113624 50.21311230849855, 347.66427554028127 30.509229542226045, 365.3024520901728 4.458801269578649 M312.0555636665289 66.64897719387609 C325.5733750860983 52.33742955250719, 339.8497119239727 35.99361513372847, 365.38795699332 5.070783349824961 M319.8057453600838 64.71534219959061 C334.546630779693 49.396565938012635, 349.30842999920367 34.234166953197175, 372.9946078766638 4.688240315620534 M320.60681236640056 65.25456252066634 C337.42947975567506 45.6524759506676, 353.1833442169645 27.241449798347013, 372.0007414677371 5.333995126597287 M326.1689694089424 60.38773222337473 C340.31798678772014 47.30427080023879, 352.974455286157 32.8075450251809, 375.3942937516849 8.128924299306629 M328.20931857105165 62.11363413761121 C346.107595715673 41.09711930053385, 362.9831584866658 20.491711211544416, 376.9358627580268 5.879891953339782 M337.96486108121604 55.27666000344889 C354.08528706935056 38.26170503934286, 366.52320173190753 24.451306316144006, 379.64338241960655 5.444404049140157 M339.0405882815362 54.963016225282104 C355.49302033574645 37.32010274142764, 372.198822394226 18.118695050110134, 380.3518307485228 6.713444138981905 M342.95915961731646 56.88666694650359 C355.9064116476854 40.088692314382605, 371.69722171789414 26.706304719075657, 387.0427162046931 9.382393691530345 M344.6973872881642 54.69749418390706 C353.58020734130776 44.458164167720184, 361.8753335277986 34.132179646251565, 385.39271150271054 7.861272867198403 M347.4609718379191 54.837109973038636 C363.15248999742994 37.46177303344139, 378.8750110505266 23.51674475685686, 390.7712935706774 5.892959359310754 M348.31191284166897 56.60408370337126 C358.62839574789416 45.48897461151222, 368.55891271735965 33.56793146344103, 391.64213601857216 7.310357500279473 M351.40141464752617 58.5310958897449 C368.87068434386646 39.40387222953626, 381.9847857693765 24.18299737222094, 395.45658661294436 4.882707595393861 M354.06793001804135 56.473886725090985 C367.8657535927869 40.831718928130755, 383.39757770292204 23.671736418612095, 396.38753760498673 5.942049620314858 M360.29739939081935 57.672103419923 C373.7149008673339 42.531146616891185, 388.915379864857 24.81765313274413, 402.13498338221024 6.424700682506843 M358.2142093882291 58.056572772031004 C374.21162369527366 40.090570049033815, 389.55044679359037 22.34412798079466, 402.32566877227 5.9123196811911 M361.2953127603569 59.55540604967007 C380.12072665077307 40.34604137731334, 394.8604519608355 22.67358509137312, 409.64269353000657 3.957340264852606 M362.2494069678687 57.36756436985101 C379.3004185516287 40.85411206586869, 394.8731066793025 21.957426634833126, 407.99427930120135 5.9575145901171025 M368.33289482843503 59.556956050146304 C377.55713572468244 45.43243524594632, 390.77292941956256 32.39745130241018, 416.20380464166504 4.5933351004134595 M366.88568707705485 59.50813141979123 C383.4185689684296 40.302318359254365, 400.70993005619056 22.238097720222452, 414.29257278967833 4.137836315443613 M372.4730758179933 60.88540658486079 C388.1543483510513 42.03392278613616, 408.14764846382315 20.78000128435877, 421.9469882585096 2.514139625134697 M372.31856075446166 60.033123268762026 C391.5405923092347 39.07579860095733, 408.9822439344413 17.27605163771481, 420.9392584432573 3.4158039744618383 M376.3452860852811 58.388931424775144 C386.6384246942708 48.82189118012093, 397.836923712348 34.777084651985604, 424.33357327170813 3.9915272767492125 M378.2736794043077 59.91164727737387 C387.3573852529391 48.76831513926479, 397.51479678781465 37.39545026615718, 426.539591593968 3.1567817788909065 M384.02888228884416 58.93245979891128 C392.84801658289996 44.909167594126345, 404.1715913294637 36.50747088766231, 432.61127446857597 2.118790582772365 M385.19927620138833 57.365920358155066 C401.3305378805303 37.628963549596214, 418.3210529133796 18.176325953174054, 432.33229966382436 2.4234482717795482 M393.6942877381816 54.63031574165598 C400.8506776798252 41.0350024907143, 412.91917978535184 29.54908024033844, 438.26833951143357 1.616148115522554 M392.2906945800763 54.581734307343446 C410.22072303705795 34.25330246363249, 428.25207784938715 14.071665393936534, 436.5879040522852 2.7396593684876884 M397.9480257102402 50.687550264295744 C408.37066136069734 39.48538665518671, 418.17595366876424 27.651187387986674, 444.663425680057 1.9484721182835285 M399.9058141387851 52.92330046009952 C409.12534787276303 40.11618035931808, 419.9131387455093 30.012963472214917, 443.27703640048765 2.6520715813780944 M405.223625289218 52.86845968848408 C415.5938483441758 42.09004023388214, 423.78706375364845 30.513677646314875, 449.7751637664884 3.333458622068579 M405.012129828218 51.009326581589654 C416.3204312408798 40.86026729899746, 427.10864394052874 28.371734111984384, 448.8778944578401 3.350171534253836 M410.900066499278 52.67610401477477 C426.04888533169014 33.88485192946011, 442.4905385919462 16.557487113071797, 453.9958976927909 4.645598034178084 M411.2574413291808 51.89415662642809 C422.3028596011042 37.70338253015402, 435.6726549713095 23.861502293741648, 452.6954883723125 3.2141310249270103 M416.27616625666 50.691380129400535 C427.1557848764618 36.92210912385464, 442.1682951275605 22.294092745550145, 459.4612235314944 2.050385623286198 M415.6944115737998 51.305107306400274 C428.24638671476436 37.001127755287904, 441.6049626388151 22.476468658465482, 457.88267321441936 3.1812251102957116 M423.12625790823625 50.4628687470116 C438.2373777893185 33.99091964936884, 451.87593487789786 17.85723436968763, 462.5592800950074 3.811646435606268 M421.06727959070713 51.52817128967046 C436.41564128997334 34.83033286438743, 449.215655481288 20.06859110757176, 462.6876462051983 3.700582851950796 M426.9901156220868 51.9615269910865 C436.19278212778244 41.79068902171029, 445.690413236131 29.526984106733202, 465.72909746067273 5.591750792328543 M426.73421224197887 53.3132234711489 C439.3997079425744 36.58985158724098, 451.6076955769057 21.628938006189607, 467.04040790979866 6.0313662921450115 M437.06523149079845 44.087668113375614 C442.72632391790796 38.173621558622926, 450.5294779928012 28.956446987680504, 469.98495666593834 4.894975668699501 M436.54794771582243 46.141562276284546 C445.8827278994438 35.79720238355178, 453.0698534000684 27.890040364010844, 471.51264410124827 5.168362841342159 M447.8536872394993 41.67092313161741 C454.957163644978 30.248366264300657, 464.2407666168522 17.47208362083347, 475.50638981708124 8.165130148612967 M447.10844089612624 41.00953618733854 C455.376059790706 32.71896435201517, 461.57387151781177 23.586246273474153, 475.0437119869473 9.443388565299474 M464.03954232439804 29.741483192455306 C466.50781794831806 24.678048791100583, 468.89359486432755 19.434413607387928, 474.96562048210194 14.478327787515937 M462.0937713191154 29.370047403665527 C465.7039583247097 23.713884201881783, 470.5888409438104 20.606651050415948, 476.4742234386752 13.377404237900308" stroke="#3E9A9D" stroke-width="3px" fill="none"></path></g></svg>