<?xml version="1.0" encoding="utf-8"?>
<svg id="sun" viewBox="0 0 500 500" version="1.1" xmlns="http://www.w3.org/2000/svg" x="0px" y="0px" style="enable-background:new 0 0 1400 980;" width="100%" height="100%"><rect id="ee-background" x="0" y="0" width="500" height="500" style="fill: white; fill-opacity: 0; pointer-events: none;"/><g transform="matrix(8.418728829275391, 0.33362055672209046, -0.33362055672209046, 8.418728829275391, -196.22212322174778, -156.82000618103248)"><g><path d="M59.48684341858349 32.877843583380546 C61.69822654887456 33.3263153347292, 63.50413048663763 35.48889954191203, 64.72266565209628 37.78487177737237 C65.94120081755493 40.08084401283271, 67.01437843217218 44.147259520606326, 66.7980544113354 46.65367699614261 C66.58173039049862 49.16009447167889, 65.14582694688774 51.1253393693591, 63.424721527075576 52.82337663059008 C61.703616107263414 54.52141389182107, 58.6624763647888 56.603643182087616, 56.47142189246245 56.841900563528526 C54.2803674201361 57.080157944969436, 52.11305179884317 55.57740517949314, 50.27839469311746 54.25292091923555 C48.44373758739175 52.92843665897796, 46.18515792305536 51.274564108835165, 45.46347925810821 48.89499500198298 C44.74180059316106 46.51542589513079, 45.12143020274834 42.45857616361052, 45.94832270343459 39.975506278122445 C46.77521520412084 37.49243639263437, 48.07382585234701 35.1246294547453, 50.424834262225694 33.996575689054524 C52.77584267210438 32.868521923363744, 58.37551045296029 33.16292094824936, 60.0543731627067 33.207183683977746 C61.733235872453115 33.251446419706134, 60.574371566030116 33.85349146151426, 60.49801052070415 34.26215210342484 M54.08454848108639 32.698306880676135 C56.16779102556608 32.24159440919554, 59.179047221429066 33.84355489877171, 61.03376265852696 35.10187186926062 C62.888478095624855 36.36018883974953, 64.31546938412784 38.20515798392564, 65.21284110367375 40.248208703609606 C66.11021282321967 42.291259423293575, 66.97919477899545 45.0294820106743, 66.41799297580249 47.36017618736442 C65.85679117260953 49.69087036405453, 63.819600446275906 52.60141186746608, 61.845630284516005 54.2323737637503 C59.871660122756104 55.86333566003452, 56.71560326723507 57.41733250946507, 54.57417200524309 57.14594756506975 C52.43274074325112 56.874562620674425, 50.666574571299265 54.719948224068744, 48.99704271256417 52.60406409737839 C47.32751085382908 50.48817997068804, 44.94748322725288 46.75036460855064, 44.55698085283257 44.45064280492765 C44.16647847841225 42.15092100130465, 45.07769133849947 40.49540968619791, 46.65402846604227 38.80573327564043 C48.23036559358507 37.116056865082946, 52.67606893028149 35.24121979063593, 54.01500361808936 34.312584341582756 C55.35393830589723 33.38394889252958, 54.7099324147942 33.05483411826863, 54.68763659288951 33.23392058132138" stroke="none" stroke-width="0px" fill="#F47421"/></g><g><path d="M48.19416836130366 23.993108813246877 L48.02788897608212 25.43803391645571 L51.39943841281286 30.9295266138149 L51.71618704082768 31.071751201799145 L54.97666060968295 30.066776248243446 L55.65493486145898 26.95851514543084 L54.07475950507355 22.262889853746373 L50.787790949694276 20.957772247934685 L47.58482877588631 24.11506132348285" stroke="none" stroke-width="0px" fill="#FFC120"/></g><g><path d="M66.30732920077594 18.4477989175923 L64.87307682684764 20.22080346548347 L61.54306324284762 28.386464168339657 L61.527930690018586 29.858227677019485 L64.09245831367383 32.28041677298652 L66.84870400753834 30.37368531855368 L69.4134801623752 24.556805088156818 L69.78605831824505 18.931650563007643 L67.27299675366123 17.67625367613252 L65.76938253843615 18.54830359683759" stroke="none" stroke-width="0px" fill="#FFC120"/></g><g><path d="M74.25109952586254 31.602740678059213 L72.84094240825154 32.33909471114274 L68.82720622822967 36.13485307460603 L68.65710913816261 36.84334609992711 L70.29942916469813 38.420291894239995 L73.77310196297755 38.56842435659306 L77.65253220933259 36.821337410810095 L78.30135554176019 33.31826265294783 L74.27938828128693 31.678215204185094" stroke="none" stroke-width="0px" fill="#FFC120"/></g><g><path d="M82.37924385540487 43.157170298739175 L80.34701448457454 43.061530720755165 L72.12538621046751 43.548296619950705 L71.34833226495448 45.485435254202706 L72.93423306117064 48.13636381003605 L76.13279627361426 49.15683618587815 L82.3502622266994 50.01077791142935 L84.98604648423269 46.97841551292434 L83.91526602071632 44.29572177204699 L82.24419522905994 43.74310606491116" stroke="none" stroke-width="0px" fill="#FFC120"/></g><g><path d="M67.03331154993491 57.24813796633146 L68.23897990099393 59.398762248173675 L73.37453357718547 62.12660283614758 L74.67550091308344 62.41589119654802 L76.04229561119666 59.661435765616346 L75.19109569284501 56.10379904034561 L71.62719459834912 52.81912330758056 L68.24850374923673 53.638438347086264 L67.47340024228144 57.64568782711839" stroke="none" stroke-width="0px" fill="#FFC120"/></g><g><path d="M65.6095259336555 66.08845877639042 L65.31013165912613 64.3017625850421 L61.75094087846658 59.52630449838984 L61.07984501786561 59.40461768533571 L58.26946852846275 60.754118515308164 L57.91576037323845 63.79921280535149 L59.67673010696354 68.4500146153756 L63.30019173705802 69.27746305725587 L65.63375773105886 65.94022688771716" stroke="none" stroke-width="0px" fill="#FFC120"/></g><g><path d="M48.821270795914884 73.82984901646454 L49.99784120265014 71.95445003563421 L51.6047267357439 62.660695816664784 L51.10262605977023 61.65299738317519 L48.94618292503923 59.829249605459644 L46.03897115376115 61.664693804132064 L44.54204964677188 67.73139971747956 L44.96131638545012 73.05407361850672 L47.623271559117896 74.4557081640767 L48.568413902104794 73.25211146546081" stroke="none" stroke-width="0px" fill="#FFC120"/></g><g><path d="M38.58298860848108 61.589421751210146 L40.17648448650951 60.90635584885931 L43.9564257755376 56.44656221497481 L43.757663374288825 55.673078335193246 L41.644557282878715 53.915466898956296 L38.04288955374886 54.291726014473426 L34.37712152451043 57.16774914645415 L34.69717401648503 60.12211492480427 L38.884994276643326 61.24982760422047" stroke="none" stroke-width="0px" fill="#FFC120"/></g><g><path d="M29.54706455454655 50.7485093597473 L31.87434980055346 50.88862251039098 L38.87285181338398 49.214313239923996 L39.98409952343026 47.44763852016919 L37.983813009444454 44.594039515249136 L35.2161344656567 43.88421713814034 L28.59201434189755 44.5032108738475 L25.862878529474628 47.48011789532497 L27.337186492827474 49.492251427088014 L29.040312745624636 50.61700498499254" stroke="none" stroke-width="0px" fill="#FFC120"/></g><g><path d="M43.246856844520494 34.684470279986684 L42.036203064352605 33.27061522271579 L36.186552617976474 31.228121675052716 L35.38115488174155 31.10520117144473 L33.71655530428564 33.699251263463275 L34.60095827201166 36.696492886142494 L39.03909456659355 39.79821058293103 L42.41500061246042 39.07467777590646 L42.53796645623298 34.94803077403391" stroke="none" stroke-width="0px" fill="#FFC120"/></g></g></svg>