<svg xmlns:xlink="http://www.w3.org/1999/xlink" xmlns="http://www.w3.org/2000/svg" id="tree2" viewBox="0 0 900 1000" width="100%"  height="100%" >
		<g><path d="M111.55712624753897 181.77596193020003 C111.55712624753897 181.77596193020003, 111.55712624753897 181.77596193020003, 111.55712624753897 181.77596193020003 M111.55712624753897 181.77596193020003 C111.55712624753897 181.77596193020003, 111.55712624753897 181.77596193020003, 111.55712624753897 181.77596193020003 M120.17318409650532 191.95119858921618 C121.70964993168137 188.40653309257786, 122.71731301621669 185.97476676021287, 127.40270447163613 182.99600123848614 M119.01513104445495 190.59070975689488 C120.71190960113566 189.09539990696416, 122.68576605061655 186.5709221737086, 126.78031989947273 181.78569167372515 M128.39684281673433 199.45202824896276 C138.2578631387833 187.757441924831, 147.4313447215255 179.42786434404547, 158.44994822446756 166.55464916163854 M127.66290690785078 200.1720979736622 C133.29869917712165 192.03452396604806, 140.38940988030035 186.36831592250977, 158.08184705172008 165.13400979499778 M138.51224372961772 209.59336681803177 C144.3729662089493 203.04586775352556, 147.7952911330844 193.37339688563245, 159.48133181704662 185.47780650330446 M136.65605795767567 206.87040412101408 C142.7505503878203 201.44457042010077, 148.2935244911817 195.3781817313675, 156.8532510794237 184.3926093749407 M137.84403359716094 226.17029746288623 C147.34973408958467 217.08894692151947, 156.6511157305268 202.57648161238467, 159.83092567020864 197.90129814446163 M136.4431719162641 225.91757352614425 C145.6028359666169 214.99704652547135, 155.53562077202915 203.24825691557274, 161.55877610906558 197.34557999186708 M139.13418718930672 244.264211184382 C156.20992955329098 222.6579743515309, 173.40854576024904 205.2490823737844, 183.7468837755073 191.04271252256873 M137.79886137922026 243.58116977817346 C149.2482341586683 229.97768774225082, 162.08406140382468 214.31423814247876, 181.8910003846407 191.59683631367113 M138.1736459209813 262.1205629902528 C149.96401151029988 244.91818124722823, 162.96241508523613 231.19164826336865, 173.42719632222605 221.26651951239256 M138.07478048813323 261.64362988528603 C146.01153899076104 251.64291143292138, 153.6328959388315 243.8819199881161, 174.70884064458204 220.91532441616448 M138.23675158063315 280.79468542333376 C148.46436174840142 268.2772891985409, 160.255595450389 254.77338477914796, 171.63667859107662 240.69484151471934 M138.04607726590564 280.1492698181371 C150.44335812677025 266.9603366531031, 161.49916951041362 253.0110071631949, 173.98092785346927 239.9659123983695 M140.56046753778432 297.4384965928698 C148.13489792294467 286.46693722471684, 160.93069583073634 272.7354739791189, 171.1490472398115 258.1946381338532 M139.30820410861077 296.0441499184998 C150.53511384890166 282.5717055656219, 164.7184740544854 268.0470069021539, 173.4922100918405 258.40008400923716 M155.6483726778875 296.4723913218884 C159.2206341000901 287.6269132427362, 168.1243700865017 283.60328648929953, 172.86351917759941 275.3927806428936 M154.67593688745018 296.8430635174866 C159.15308048931144 292.60361091223837, 162.19563952370817 288.00051012950587, 173.23497419153523 275.5292213840068" stroke="#D4BF8C" stroke-width="5px" fill="none"></path><path d="M145.48564178102126 161.17618501083814 M144.30748255233178 162.57599043443165 C145.9561765382305 168.0821851105351, 144.7792972939212 172.1278106193407, 145.75264759920464 175.08360340431724 M144.7181635314418 162.90199146352649 C144.64783666738353 167.32159917635798, 145.0421998957452 171.15782215016927, 145.35385330304334 175.17458599463393 M144.865 174.584 C144.06745101237004 177.11584876436254, 143.75427061822413 184.3879976579385, 138.72790469524173 185.18134133245675 M146.41815533747052 172.59855214811594 C147.02864924294835 179.21202409786116, 142.81323280973348 180.72026269446116, 140.99768398454506 183.3808788998682 M139.048 184.481 C135.34261940229757 187.8454668099492, 130.0993499086489 187.5791708084998, 125.15908898205788 181.86104603939532 M138.96579852225258 184.8275867113406 C136.28235368453443 188.7920484232396, 131.3498874643127 186.7845580812576, 125.05603699355831 182.44874563521608 M126.2745201961234 182.71564030487636 C123.68228289293324 179.38340686463818, 122.46840225651698 178.96380178002215, 119.4210929469629 173.90869157282233 M126.9424029556142 182.44554021816953 C124.27710892512505 180.4625166955028, 123.09976517234549 179.1244283451923, 119.06827733077992 174.7761593273074 M118.48387129980689 174.10226307298757 C117.93517500745519 175.9877710090947, 116.16204046242548 177.61734523939535, 112.2217221951887 181.29099774259112 M118.61714859227189 175.02732958636085 C115.70073464412262 177.5419115332671, 113.10011286987192 180.6041922248844, 110.79957813252605 182.14719410159557 M110.95171371427541 181.43847846823192 C118.15949091802457 190.29757647554047, 125.99979131971293 198.3546683102845, 127.75593959060308 198.902275607683 M111.10291164652466 183.0021878628742 C117.14462215922191 187.58452879064805, 125.18157417169009 195.91265688605517, 129.0404573744123 200.36184855514009 M129.56400000000002 200.324 C133.40147928121274 201.6557323954141, 133.46672932807542 205.12904415172613, 133.01936791249454 207.16363026371147 M131.5323522396521 201.04646496364973 C132.19978578713543 201.54243464818754, 132.59446163744536 204.49995754479463, 132.190369109888 206.0137251398325 M131.28572671422504 206.04449936223938 C133.88681872951122 228.4126567344725, 131.26204423678044 250.8261655908266, 132.32224387925822 289.41418564567994 M131.85719865647633 208.0754864398877 C132.77947370261074 224.94307129483028, 131.68526231966024 241.6940674430706, 133.67006954339 288.3378119716672 M132.71900000000002 287.535 C133.5124460519451 293.1551092366756, 135.70964690231125 296.3113501951774, 142.58706101878892 298.28978699387255 M132.8427296534032 287.0705475873276 C133.01470462083768 293.56616701542583, 137.61088855188223 297.8774223203171, 141.5505892262671 295.6798478760883 M141.45864793250544 296.8203190917724 C144.9241762992979 297.9200848877497, 151.2255664264954 296.598003062939, 157.33415046935096 297.358402922231 M141.43884999349572 297.15809492536965 C146.5331229688756 296.5665822058392, 151.5424163012389 296.6980278423327, 158.00384160033374 297.73828793774277 M157.94500000000002 296.99800000000005 C165.0133013506025 297.4756052110591, 165.90538333499603 292.66765625643177, 168.6879928791293 288.82052245270535 M157.6382397066685 295.44682156491695 C163.99026980647722 297.28057242256136, 167.26958137615216 290.8177126392967, 167.349906478177 285.92806758339304 M168.69181890033147 289.1377734104268 C165.9195594979077 269.7217698518515, 165.72932972237905 252.21994639064016, 167.40587573501594 221.82272437957053 M168.3978439320229 287.6253343183467 C167.77499594438882 268.6378842415323, 167.28755416838968 251.1078094687214, 167.84383808613487 219.6481168509071 M167.40800000000002 219.91 C166.03101340907196 217.26184231456432, 169.5698593506859 215.83032196835475, 170.40382203430735 213.6195370585967 M168.95644320101346 218.14547651663696 C166.20701661207872 218.50336837950093, 166.54568297591285 212.0796125308598, 169.45754552346742 211.5413737329084 M169.93606038140354 214.17536496405904 C177.3035931016034 206.08100820733895, 181.27736656835003 201.11270838337438, 186.21852552005538 198.38295514846615 M170.43466294049858 213.09103814870673 C176.9484242563656 206.17821457102616, 181.64741902801003 200.74484894963174, 185.83584075436394 196.68050528767068 M186.46443516794616 198.1165680683923 C184.92835132627766 196.0892093896901, 181.75176859233127 192.7930981558913, 178.67394872248275 189.1859816283913 M185.9551366463869 196.81012336802004 C183.44856797615626 195.17974247522343, 181.41671041228508 193.28814540290279, 178.7365998280992 190.21497385283394 M178.39065967763983 189.62426168369902 C176.7173066335303 191.3266922661646, 175.34370152589926 192.6231586522977, 174.06888165069773 194.98835366734303 M178.51413684239284 189.86916938071556 C176.29605524023995 191.45774104145116, 174.93706784526114 193.13201512073542, 173.95804779020267 194.74181476171898 M173.65300000000002 194.499 C170.62730583866485 197.33911030127888, 165.08403598429172 200.51571574578267, 161.22944259888172 194.47021438519613 M172.29774517346044 194.7479444612172 C171.201180821515 199.67004488107779, 165.0855154723107 200.09265382460273, 160.7963454870147 196.07742303783834 M161.08800000000002 196.452 C158.8242871578689 192.86849558962032, 153.33410102582818 190.85668750359827, 154.21571848280564 184.9261162565585 M161.66726996481734 195.74546489181253 C159.23481835286765 193.65888306414348, 154.8518919886715 190.24632186376238, 153.7728721178532 185.15695206027047 M154.62733243450762 185.03221928805763 C153.7023509316347 177.58840950728055, 155.35849001453676 172.26808729176665, 153.33615737315557 163.15685098517494 M154.82917836879133 186.24278133297778 C154.58694849353844 179.99731846616402, 154.51229188269187 174.03375192745375, 154.4700444459335 163.48479850263018 M155.61646616198612 161.9538966006458 C152.4723627181697 161.90337536494727, 150.69794958643914 162.26615432658943, 145.55974002663515 162.59029672400982 M155.43676740107438 162.62048036013078 C152.70532461939385 162.1909891420001, 149.5573936746843 162.1612413988896, 144.46504298275855 162.32168641282396 M144.865 162.63799999999998 C144.865 162.63799999999998, 144.865 162.638, 144.865 162.638 M144.865 162.63799999999998 C144.865 162.63799999999998, 144.865 162.63799999999998, 144.865 162.638" stroke="#000000" stroke-width="3px" fill="none"></path></g><g><path d="M29.3899756947339 73.24878385673063 C29.3899756947339 73.24878385673063, 29.3899756947339 73.24878385673063, 29.3899756947339 73.24878385673063 M29.3899756947339 73.24878385673063 C29.3899756947339 73.24878385673063, 29.3899756947339 73.24878385673063, 29.3899756947339 73.24878385673063 M12.298702816574103 110.77711142082399 C21.41803053849887 102.02363928961633, 30.078748042155077 87.19290658762883, 52.326581697286734 64.62341834791258 M11.53932181291659 112.3398618355972 C25.202465875767658 96.98572875283492, 39.20814137576968 80.42153218722628, 53.46079863227527 63.36223613782876 M14.2276827955198 128.75349770968006 C47.65450244643915 88.22515876933, 81.60828554509251 49.84386760583611, 105.04597384773068 22.075487846671102 M14.75114361866158 128.25227091984416 C49.24296784844774 87.26630322696856, 84.1056795078071 45.57959674617947, 105.6331095530803 20.938603047405604 M19.157433686018287 142.30454716913843 C63.43864021582262 87.4023453181786, 111.10105211690521 32.64364792972696, 139.5038516508947 4.578696772492367 M18.071990415047782 143.03499299805367 C45.69872417496722 113.42896399300679, 70.33607078662247 83.31132693451251, 137.40257035928872 3.9561189608415153 M22.581976659076954 154.69291514292738 C64.65733644229663 108.15051774315502, 106.9594175757565 59.18929315736119, 151.68230229350806 2.59416776458096 M21.585545359348906 154.44601133511364 C47.58870052976061 123.95395415638791, 76.03441329407774 92.55247253172115, 152.9932775402309 4.746351654225727 M28.556676270255004 166.60016016264234 C56.61868671610078 130.50447379779607, 86.54205833031605 96.83249796250283, 168.45097722303956 7.554536735518399 M27.010766254572726 166.40239591946133 C56.52348700221833 134.4660875053283, 85.08282396893041 101.93307937211272, 167.0383403913696 6.388993068498486 M27.234887255466546 183.92245979458494 C60.760748912213586 146.48004161371776, 97.03907958576468 105.62084820429456, 179.45853967844846 9.86087288944369 M27.22988321922303 185.4306119892467 C57.735425077417496 150.74929430830878, 86.81249732813292 115.03796869708874, 180.7231941666741 8.820533064974596 M31.730472181589434 198.57456673239008 C67.47778269487061 159.5026668289681, 99.72420578432906 121.38528765929759, 192.76420016123268 15.048046187891245 M31.83643322719715 199.0272497348162 C81.97901161903658 139.43790107602078, 133.54052697503138 79.45639365302264, 191.35700857354757 13.790658182686364 M39.23342704184561 206.96568795367438 C102.81460771628365 135.16112391180562, 163.7284106431957 63.365656532010505, 202.17924520887004 21.530898683731483 M39.914777588394024 207.27788181307957 C76.09058708888253 166.89571188448483, 111.69548556629117 124.55959719473223, 202.82631802814464 19.707809979717744 M45.089793728143285 221.2284985276033 C88.8870781490448 167.50480736388303, 136.91946209091424 113.59683347685339, 210.0193094695122 27.973237962476283 M44.699463420211856 219.75474288506962 C96.28204743398389 159.53013483245678, 148.70040073259474 99.77855555133446, 211.54198766614516 28.86027468033658 M53.67174121935054 229.54819625004322 C67.72613555635942 211.52250507704457, 84.3603396495097 193.5655984495051, 96.72833263611696 178.11460362208058 M52.911254169180744 227.99928051451644 C65.37045120716297 214.83462516517463, 77.34199952195242 201.68706869887848, 96.14140013960424 178.15755653287238 M96.24554024784459 176.66662570377014 C125.55144495629986 146.16535746245484, 152.1765675448615 113.49106587752331, 221.5015482834267 36.874125734999275 M96.45257285135354 177.6086959053835 C137.34505163190903 132.37291673412116, 180.08393925349577 85.06313654194027, 219.9540889726271 37.90759652515488 M63.833236805852934 236.6264313696576 C73.24022998045558 225.12926685905444, 84.6980167705658 212.64110849313323, 101.89625173287399 192.9905020760999 M63.293043153011965 234.41098482521096 C74.01042202972093 223.4236550377917, 83.85343910737292 212.65233154642198, 101.1736525994808 191.71984284564917 M126.29188664315106 163.21209275873463 C129.4378212528862 159.75696732372396, 130.78243813530574 157.47359512469117, 131.43299787035858 156.76883916598325 M126.31384080400116 162.4882729571559 C127.57832317311707 161.33648275853326, 128.46662720980453 160.09727249349365, 132.60127443478606 156.10525458266466 M135.86755690024572 154.76859062845307 C170.25375213759943 110.79831412823718, 204.3837162092204 73.1810425513599, 225.61994351637478 48.3959942923343 M134.1556040895967 152.61053689874848 C157.4229889005184 128.27574101755437, 179.04027827060608 103.25119633961698, 225.98996495833424 46.74275791155985 M77.22199831324484 237.01370380282995 C93.02389287190239 223.2420719429778, 102.87127963013413 205.77300370891413, 109.79292938580849 202.02603209485946 M78.86174493528624 235.92751468058475 C88.18246408650117 224.90699725989214, 99.25898649538283 213.5091449448898, 109.43370023439458 200.98449929834308 M148.36203386177922 154.0306572168446 C180.0792370662152 118.21921655355254, 212.87397330182213 83.83794622982636, 231.73634156409727 61.7789670984978 M149.8995885196698 154.43149786640694 C167.6059513367894 133.50366147265385, 187.75710778449346 113.09712812225993, 232.4575287559819 59.5996318004935 M92.94868084257095 234.1641625690041 C102.3781893227574 224.9965165072221, 112.2629134935902 216.32075903120165, 119.01338279172221 207.75499457617943 M95.55836237249393 236.03660463065867 C100.78619676886619 229.70036714838682, 105.45324144563813 223.36562930737253, 118.98556988934365 209.63256333252315 M166.64635164154592 151.2853456688795 C193.23450324771187 125.27638301559293, 215.1867569258005 99.0211088755888, 246.97475454417656 59.6571666745364 M167.7187741526576 153.64110101643723 C191.30654487708085 123.7703887891818, 215.66802537882498 95.06612334171585, 247.55620548068336 60.908644315563315 M111.04880148743577 236.30587047867863 C113.77091215912738 231.50972396747986, 121.66645178502428 223.4664200123207, 129.16909110018128 217.48531471003588 M109.895019523916 236.04589275676778 C117.57051330631887 229.42268394650625, 122.41228361702822 222.77124473915973, 127.30612944892867 217.57963520723465 M176.49140562849158 159.64770127229522 C207.18038318502784 124.00005977042119, 237.29614928468763 87.85992012338122, 259.4300720613032 66.68105003650261 M176.18427519297538 162.17874798590537 C197.25041164531524 135.11750380076396, 219.65356583584918 110.32807346585572, 257.86312597380567 66.4694579730109 M178.36897950865543 177.38171275336342 C210.07103908627175 140.75664268541956, 246.23190920688043 101.69740240845272, 267.4594393261139 72.6655187284388 M177.63949183173239 178.57960384200683 C206.1296404498329 142.03563942575917, 236.85858237500312 107.677033825549, 267.8418374868501 72.70994633649306 M190.49068903674694 182.01786169151222 C218.2543481219185 146.5458119324102, 250.60452421562061 110.96537866421231, 276.2265445733553 83.47323738389426 M190.29414475746518 182.4575090620649 C206.6970270177076 162.4881125692852, 224.1332659981733 141.42218199980388, 276.9801879546285 81.69399735339557 M199.1465736768677 188.5541920091578 C221.9463149208757 164.86680053163042, 245.14037472934314 138.86188095561872, 286.1259912882516 90.8822987697801 M198.70009227589375 191.06919505957399 C230.42191061560942 150.56463749825502, 265.8145148559113 112.17036071165235, 285.1038243385768 91.85180457595541 M183.51011845397187 223.0772505997411 C223.01423926714224 175.58800939817945, 262.10776270313846 132.94772798597143, 291.37812280539475 104.04250877658768 M184.52890679106068 224.12489331419718 C225.3044502856799 176.3269120640577, 266.22765348327937 128.99938184480717, 290.38063042580484 102.2449838591441 M186.03475031791655 239.3978105170862 C207.97929607550012 215.95391707782053, 232.0461648414753 188.12823304019562, 292.65400009889436 116.49559815263291 M186.46225550972036 239.94510800746585 C219.2891068525507 204.67501586533118, 249.14377563370806 168.87701673012035, 294.0608185123449 115.87338877320185 M201.33485533988184 239.39224612477625 C223.57905180992213 214.50748700805227, 242.96341699501173 190.93733793974312, 290.0630497834478 138.45837533130634 M201.58183179423278 241.15308131812074 C227.58072953013996 213.05562873935273, 251.5926640704517 184.7768217049595, 292.1245911968889 137.55074383241754 M215.93897545741817 239.51315280099075 C232.56580879247528 219.8904863646202, 249.5820691811998 203.3067933535225, 275.34586072034847 173.47451056748835 M217.66829632799622 240.07937036978456 C228.59492724866888 228.164925538921, 241.5848778629492 214.48956895488283, 276.37724756343744 173.86956049241485 M242.53081824661422 229.19449325277975 C252.47235064522417 220.96947743147481, 259.5360488752851 210.32619676943318, 267.2458315004307 201.3494295307407 M241.67116784702753 231.52844325308646 C248.10383725999307 222.82979810807413, 254.50228643814972 217.62791284329865, 267.2248281839097 201.39163612683424" stroke="#8CD49C" stroke-width="3px" fill="none"></path><path d="M290.7988139467474 123.45094536475351 M289.432 122.216 C287.7424234662712 88.25856366464278, 263.1991452068218 59.345983644474146, 228.2573940632807 55.67276375213054 M291.4316942467436 123.82910506508617 C289.357239371597 87.07085347120932, 263.48228626816984 58.06891049036571, 227.71920833080327 56.86252995195486 M228.395 56.334999999999994 C218.2354545716849 23.46523305126617, 185.58779664957464 1.2464117355780653, 149.25517003019036 -1.8269591736491613 M229.94277009019504 55.12761892679707 C214.27250248661602 23.60776746158794, 184.81660612719182 1.093901175127649, 147.31748260305093 1.0246792152169086 M148.5 0 C111.73406298754969 -0.3368610092807893, 78.71283891106151 24.623341414579734, 69.60320019954104 56.112610111248244 M147.70513329715462 0.8540292075274696 C111.3079542271424 1.2966361093493353, 79.3108320520397 23.571875644279906, 70.54516495889037 57.15341413064385 M68.605 56.336 C32.60471923391005 57.114655490762, 9.11802351543178 87.75051545988629, 8.60582574408174 120.61109181700593 M68.67756124557346 55.95393396372835 C34.39201802451843 57.69587970738658, 8.428010936160241 86.30345696578654, 9.48747302571326 121.54659741115488 M7.568000000000005 122.217 C8.801604060117059 141.8370080940908, 16.082680319759522 156.75023221164213, 28.071321940256652 167.86824710055566 M7.083301816322871 121.05700293644155 C8.05102445656339 141.55561088583437, 16.017155679441952 158.34917762144792, 25.017027655287976 170.87026975783405 M27.037000000000006 169.055 C26.085753513385256 173.77888976664647, 26.477596374438487 174.90228912897385, 25.33668922500243 178.58729319137734 M26.742601951657637 169.65479802611014 C25.66817766614195 174.08672450570137, 25.886169852792836 173.11916228503088, 27.063883328457273 179.624254125091 M26.284000000000006 178.362 C27.740160030954137 208.4296389179792, 51.59838197744748 236.72211188291712, 83.6030899485174 236.032030127409 M26.826963206944516 179.08633310604785 C24.098742589628028 210.6903845546678, 54.30495164211698 236.62801815027115, 83.62902691092133 236.8087258377153 M84.20687708273344 237.18951450160736 C93.1099861031957 234.55287865518332, 104.92829568445507 235.0487373254264, 120.0954349574032 234.780728131278 M84.22049116704267 237.26718911715645 C91.94137367029857 236.3660623082969, 99.11795296824135 236.48795663521076, 118.05640782304926 236.2586095762645 M120.09197565976137 234.74520155936 C118.17560714826185 225.95638824075712, 116.61180143520022 216.55422462578142, 120.40213675386832 208.27946842836656 M118.32650000407946 236.26399102097147 C118.11638893109281 230.62118487587716, 118.09943435623117 223.6071055545531, 117.9225267509668 209.19407745809664 M120.65691764352358 208.47432288720074 C114.28765995587175 202.8685296280136, 110.76831471612203 199.9347433807068, 98.39889635563566 189.2589613812913 M118.32103662553341 209.8027200479416 C115.71497095574068 205.7673443576504, 110.03115868745162 201.26781031144145, 98.58304386468494 190.45309198586236 M99.27199999999999 189.685 C95.76944481269227 188.38558415269347, 95.34672326593926 184.80728453753258, 95.53216421776831 183.90913366562748 M101.1735692480039 189.8260179280952 C97.42287411569428 189.6688582654897, 96.70269211052451 184.49184171445754, 95.73273947207241 183.1665497345984 M96.11599999999999 182.067 C97.15437103910106 181.06387195457134, 97.06379095597163 178.29640900449107, 99.30158945498016 175.03302591038104 M97.02890055699812 180.62292843500026 C94.16003154402087 178.37823326399356, 98.73729168559474 175.30382279228385, 98.11767554060735 175.31005566292407 M98.96833627383407 173.16677193828573 C102.59115227958397 169.29944179604365, 107.0238929018945 163.88658935456544, 112.51286859329592 163.3730737819163 M98.80738636627504 173.8730204304905 C102.60761973015386 170.9079146379844, 107.12612824137058 166.55766407216674, 110.8956306373183 163.0414909651806 M111.03899999999999 162.68200000000002 C114.53022377932886 160.44793345394513, 123.57143196467003 159.72287289761562, 126.33206041510563 163.4340964235005 M111.61285001370862 163.70015112455144 C116.36875517188888 156.49785460815772, 123.12836668334442 157.7033203194895, 126.31392383144492 162.84879263532008 M126.35805407254496 162.2661703460436 C127.73012011588311 164.340476870527, 129.0268048567769 164.84674274745825, 131.0116276854834 167.46762063891597 M126.44854004342855 162.924694807916 C127.66548330412154 164.0270626256923, 129.4793340894267 165.88784756264442, 131.128281686971 167.0986768888205 M131.67460752391463 166.8824274382622 C130.97184495133277 165.00343936059596, 131.3456634231793 162.67025591396668, 130.41578949605437 159.58467017080702 M130.7390202774424 167.16710342151217 C130.62933416140768 165.1026474445282, 130.7584866730123 162.20599662703145, 130.7857148988074 159.5319298370691 M130.97 159.51700000000002 C130.2170505113536 155.26303203292622, 136.80358244164324 148.7617239755116, 143.268217128434 150.10372390000828 M129.2345093533679 160.90895408085896 C131.8818986493904 152.54039888732046, 134.93108336852092 149.27521684444676, 143.01648035243488 149.0333751602352 M142.7973994718562 150.21435106321866 C147.05016799197318 149.1822471054648, 152.77798769030287 148.581180890786, 158.3121996651424 147.6425833922954 M141.7755173849455 148.1016594404285 C145.50201096571564 149.53085553156433, 147.94384803880232 149.66060011762335, 158.4221448132351 148.10676421954776 M158.384 148.74400000000003 C164.4350630789451 148.18874628247747, 167.73644011403715 155.54411605354434, 171.06748354355057 158.84739746171692 M156.993330173809 148.4472888942057 C165.80919387125968 148.11715574942565, 169.67205851060805 155.46400036076912, 167.41525208735317 160.7953512659353 M169.43782166991187 159.18319631573397 C170.08291338312804 165.76297823435505, 169.1907768749725 171.11129664852058, 170.81042757926278 179.43546379527228 M169.27381337425908 159.27120442726516 C169.5063976593245 163.76727104919186, 169.1109213085561 167.14705241014806, 169.77987909222148 180.09101446912518 M169.13637718882953 179.4248035503186 C169.47668500612446 178.89237798058386, 170.18415203732272 178.50165904712145, 170.73911981786162 177.65195854138545 M169.2399741136411 179.40871116207305 C169.8594091545768 178.77133849773077, 170.46478888043393 178.22817432224934, 170.76508964937358 177.77007768896354 M170.72599999999997 177.77500000000003 C171.42784529841015 175.62188295060187, 176.29264103475774 175.78556407161403, 176.63992209564103 173.17978931953556 M170.82440534664767 175.87199310899203 C174.97520489406804 175.76226077308243, 177.17709935885816 176.7402618705004, 176.57734253155996 172.97505670903018 M178.34299999999996 174.62000000000003 C183.07945901916904 175.34245032233426, 182.31838138609777 175.38451259094168, 187.59595107226096 176.07059853584923 M177.50188511034972 174.34880187200093 C180.89840479882747 173.34176115987373, 184.80270945491895 176.0978045485685, 187.45205780545243 178.826249757044 M186.40387802050424 176.65279630336784 C189.86908162488115 179.3117136446305, 192.0250336348377 181.34147627075689, 198.14147310038922 189.135967611396 M185.4531621161264 178.4263657725082 C188.13822796155543 179.844687237483, 191.6527826438267 182.795000564429, 196.94378278408414 189.21754366949165 M197.72799999999995 189.54100000000003 C196.01056192340326 187.86481404934378, 198.15694583544672 188.26106446471852, 196.20993239894668 188.5615908150704 M199.55885453564628 189.56662921234283 C197.09557059457882 189.70478688425294, 197.53403512418532 188.00838858894852, 199.2147047301741 190.35746110687748 M197.72899999999996 189.54100000000003 C201.35558528084346 195.23558862308178, 201.42872956464652 201.31071037579073, 198.43854654163135 206.19701789293202 M197.19835781655334 191.43318427593817 C202.05332673664162 194.60267888391533, 202.88649101732977 198.5090254803056, 199.3327265622237 206.34800711371798 M198.58377213931166 203.69267623826516 C193.6699642849644 210.43102329903508, 188.9177256474817 212.8012541077523, 181.1087800599882 221.74847249821107 M197.88652203898863 203.96612464073087 C193.6187861602489 208.527433580066, 189.4745193206729 212.6352054465056, 182.08363615692923 220.72933537348854 M181.10361294633313 222.19480728606646 C180.1016069260373 225.37478973247323, 180.77894031093285 233.74009732005305, 182.02055100862376 236.77686294626037 M181.73044254277394 220.5860605276304 C181.97210815709616 225.45500912554374, 180.75191943704087 230.509606079381, 181.83259718560103 236.4515124536662 M181.08255968635456 234.46952798733057 C191.44669874977424 234.39436083237834, 198.98662047916554 235.49750534974297, 214.24888326839675 236.6325625197521 M181.85133586717123 237.00012443300798 C188.95113771033937 235.60885437965987, 195.89262028847557 236.65070621259005, 212.95715958548027 236.50013083881294 M212.66799999999998 236.412 C246.4307082562581 235.12340085817834, 271.7803502486686 210.94095883200015, 270.6518155661783 177.96050387064403 M212.80972740541029 238.18293689934674 C246.31143446951438 238.63857949066164, 272.62176580216675 212.37785953725188, 269.2991200272469 179.354460029953 M270.717 178.36200000000002 C269.8055551708433 176.5498641530468, 269.1184274798608 173.54621665200744, 268.54016526157176 170.1507203159372 M269.74419864643596 180.25971479877433 C272.0456805231394 174.77985642458884, 268.75191787429213 171.4377216383705, 269.86793070362853 167.21838597519033 M269.964 169.05500000000004 C281.39746900466133 155.69956119928852, 288.44705911345426 141.3713478506011, 289.6711419236776 122.2938013821302 M270.18886690635645 168.71146421895696 C283.6204375552444 156.90233423825836, 287.2627424576948 140.25648520682466, 290.6180757696611 124.48133488588805 M289.432 122.216 C289.432 122.216, 289.432 122.216, 289.432 122.216 M289.432 122.216 C289.432 122.216, 289.432 122.216, 289.432 122.216" stroke="#000000" stroke-width="3px" fill="none"></path></g></svg>