<svg>
    <symbol id="icon-bathroom" xmlns="http://www.w3.org/2000/svg" viewBox="0 0 300 300">
        <g>
            <polygon points="59.41 73.11 68.93 77.47 69.76 75.66 59.41 70.84 57.41 70.84 57.41 90.33 42.08 90.33 66.3 111.13 88.81 111.13 88.81 191.84 71.81 191.84 71.81 197.84 111.81 197.84 111.81 191.84 94.81 191.84 94.81 111.13 116.04 111.13 141.55 90.33 59.41 90.33 59.41 73.11"/>
            <polygon points="184.89 155.67 184.82 108.03 173.24 108.21 164.79 155.7 164.79 155.7 164.79 155.7 164.79 155.7 164.79 155.7 178.2 172 171.31 197.84 227.15 197.84 218.17 172 229.51 155.61 184.89 155.67"/>
        </g>
    </symbol>

    <symbol id="icon-kitchen" xmlns="http://www.w3.org/2000/svg" viewBox="0 0 300 300">
        <g>
            <path class="cls-2" d="M323.5,238.55v-4.74H324l6.38-12.87H306.17l6.32,12.87h.72v4.74H291v-4.38h1.3l7.81-7.3H268.45l8,7.3h1.29v4.38h-98.5V218.8l10.15,5.42,1.36-2.37-11.51-6.65h-3v23.36H157.5v67.51h6V244.55H207v61.51h6V288.8h74v17.26h6V244.55h43.5v61.51h6V238.55h-19ZM287,282.8H213V266.68h74Zm0-22.12H213V244.55h74Zm1-22.13h-7.24v-4.38H288Zm32.5,0h-4.29v-4.74h4.29Z" transform="translate(-100 -100)"/>
            <polygon class="cls-2" points="76.69 66.2 72.09 70.8 77.66 76.38 83.3 70.74 78.69 66.13 78.69 49.03 96.58 49.03 96.58 70.55 92.36 75.08 97.54 87.44 102.79 75.01 98.58 70.48 98.58 49.03 115.8 49.03 115.8 71.02 113.66 74.27 119.95 74.27 117.8 71.02 117.8 49.03 135.02 49.03 135.02 74.14 132.17 79.08 133.04 79.58 135.52 75.28 135.52 80.24 136.52 80.24 136.52 75.28 139.01 79.58 139.88 79.08 137.02 74.14 137.02 49.03 150 49.03 150 44.53 137.02 44.53 135.02 44.53 117.8 44.53 115.8 44.53 98.58 44.53 96.58 44.53 78.69 44.53 76.69 44.53 64 44.53 64 49.03 76.69 49.03 76.69 66.2"/>
        </g>
    </symbol>
    
    <symbol id="icon-study" xmlns="http://www.w3.org/2000/svg" viewBox="0 0 300 300">
        <g>
            <polygon class="cls-2" points="211.2 117.28 208.02 117.28 208.02 113.28 213.04 113.28 213.04 109.28 193.04 109.28 193.04 113.28 188.02 113.28 188.02 117.28 191.2 117.28 191.2 121.28 75.65 121.28 76.65 121.23 76.6 73.82 88.66 64.14 104.32 70.54 95.05 82.13 119.23 82.13 106.28 68.1 88.16 60.69 73.65 72.38 73.7 121.28 61.53 121.28 61.53 129.66 61.53 200.34 67.53 200.34 67.53 129.66 229.53 129.66 229.53 200.34 235.53 200.34 235.53 129.66 235.53 121.28 211.2 121.28 211.2 117.28"/>
        </g>
    </symbol>

    <symbol id="icon-livingroom" xmlns="http://www.w3.org/2000/svg" viewBox="0 0 333.83 300">
        <g>
            <path class="cls-2" d="M273.83,240.65V207.58H129.17v33.07h-7.35v29.89h20v13h6v-13H255.16v13h6v-13h20V240.65h-7.33Zm-92.29-27.07h39.39v27.07H181.54Zm-7.88,51H127.82V246.65h45.84Zm1.88-23.89H135.17V213.58h40.37Zm47.56,23.89H180V246.65H223.1Zm3.83-23.89V213.58h40.9v27.07h-40.9Zm48.23,23.89H229.1V246.65h46.06Z" transform="translate(-66.17 -100)"/>
            <rect class="cls-2" y="207.88" width="0.86" height="0.86"/>
            <polygon class="cls-2" points="247.49 139.8 240.24 139.8 241.82 147.5 231.87 147.5 231.87 152.5 243.72 152.5 233.88 169.53 238.22 172.03 249.49 152.5 265.49 152.5 276.77 172.03 281.1 169.53 271.27 152.5 281.1 152.5 281.1 147.5 246.09 147.5 247.49 139.8"/>
        </g>
    </symbol>
    
    <symbol id="icon-bedroom" xmlns="http://www.w3.org/2000/svg" viewBox="0 0 300 300">
        <g>
            <path class="cls-2" d="M134.14,225.6V203.68h-7v71h7v-24.2h45.45l.43.16.06-.16H240.5v24.2h7v-31.2H178.29Zm0,17.88v-11.4l28.16,11.4Z" transform="translate(-99.5 -99.5)"/>
            <polygon class="cls-2" points="255.34 83.42 249.34 83.42 190.81 83.42 186.77 83.42 168.28 83.42 162.28 83.42 150.63 83.42 150.63 89.42 162.28 89.42 162.28 168.22 168.28 168.22 168.28 89.42 186.77 89.42 186.77 92.42 176.16 100.63 201.83 100.67 190.81 92.38 190.81 89.42 218.06 89.42 218.06 92.34 207.24 100.71 232.91 100.76 222.1 92.62 222.1 89.42 249.34 89.42 249.34 168.22 255.34 168.22 255.34 89.42 267.63 89.42 267.63 83.42 255.34 83.42"/>
        </g>
    </symbol>
</svg>