<svg id="icon-bathroom" xmlns="http://www.w3.org/2000/svg" viewBox="0 0 300 300">
  <g>
    <polygon class="cls-2" points="59.41 73.11 68.93 77.47 69.76 75.66 59.41 70.84 57.41 70.84 57.41 90.33 42.08 90.33 66.3 111.13 88.81 111.13 88.81 191.84 71.81 191.84 71.81 197.84 111.81 197.84 111.81 191.84 94.81 191.84 94.81 111.13 116.04 111.13 141.55 90.33 59.41 90.33 59.41 73.11"/>
    <polygon class="cls-2" points="184.89 155.67 184.82 108.03 173.24 108.21 164.79 155.7 164.79 155.7 164.79 155.7 164.79 155.7 164.79 155.7 178.2 172 171.31 197.84 227.15 197.84 218.17 172 229.51 155.61 184.89 155.67"/>
  </g>
</svg>
