<svg id="icon-bedroom" xmlns="http://www.w3.org/2000/svg" viewBox="0 0 300 300">
  <g>
    <path class="cls-2" d="M134.14,225.6V203.68h-7v71h7v-24.2h45.45l.43.16.06-.16H240.5v24.2h7v-31.2H178.29Zm0,17.88v-11.4l28.16,11.4Z" transform="translate(-99.5 -99.5)"/>
    <polygon class="cls-2" points="255.34 83.42 249.34 83.42 190.81 83.42 186.77 83.42 168.28 83.42 162.28 83.42 150.63 83.42 150.63 89.42 162.28 89.42 162.28 168.22 168.28 168.22 168.28 89.42 186.77 89.42 186.77 92.42 176.16 100.63 201.83 100.67 190.81 92.38 190.81 89.42 218.06 89.42 218.06 92.34 207.24 100.71 232.91 100.76 222.1 92.62 222.1 89.42 249.34 89.42 249.34 168.22 255.34 168.22 255.34 89.42 267.63 89.42 267.63 83.42 255.34 83.42"/>
  </g>
</svg>
