<svg id="icon-kitchen" xmlns="http://www.w3.org/2000/svg" viewBox="0 0 300 300">
  <g>
    <path class="cls-2" d="M323.5,238.55v-4.74H324l6.38-12.87H306.17l6.32,12.87h.72v4.74H291v-4.38h1.3l7.81-7.3H268.45l8,7.3h1.29v4.38h-98.5V218.8l10.15,5.42,1.36-2.37-11.51-6.65h-3v23.36H157.5v67.51h6V244.55H207v61.51h6V288.8h74v17.26h6V244.55h43.5v61.51h6V238.55h-19ZM287,282.8H213V266.68h74Zm0-22.12H213V244.55h74Zm1-22.13h-7.24v-4.38H288Zm32.5,0h-4.29v-4.74h4.29Z" transform="translate(-100 -100)"/>
    <polygon class="cls-2" points="76.69 66.2 72.09 70.8 77.66 76.38 83.3 70.74 78.69 66.13 78.69 49.03 96.58 49.03 96.58 70.55 92.36 75.08 97.54 87.44 102.79 75.01 98.58 70.48 98.58 49.03 115.8 49.03 115.8 71.02 113.66 74.27 119.95 74.27 117.8 71.02 117.8 49.03 135.02 49.03 135.02 74.14 132.17 79.08 133.04 79.58 135.52 75.28 135.52 80.24 136.52 80.24 136.52 75.28 139.01 79.58 139.88 79.08 137.02 74.14 137.02 49.03 150 49.03 150 44.53 137.02 44.53 135.02 44.53 117.8 44.53 115.8 44.53 98.58 44.53 96.58 44.53 78.69 44.53 76.69 44.53 64 44.53 64 49.03 76.69 49.03 76.69 66.2"/>
  </g>
</svg>
