<svg id="icon-livingroom" xmlns="http://www.w3.org/2000/svg" viewBox="0 0 333.83 300">
  <g>
    <path class="cls-2" d="M273.83,240.65V207.58H129.17v33.07h-7.35v29.89h20v13h6v-13H255.16v13h6v-13h20V240.65h-7.33Zm-92.29-27.07h39.39v27.07H181.54Zm-7.88,51H127.82V246.65h45.84Zm1.88-23.89H135.17V213.58h40.37Zm47.56,23.89H180V246.65H223.1Zm3.83-23.89V213.58h40.9v27.07h-40.9Zm48.23,23.89H229.1V246.65h46.06Z" transform="translate(-66.17 -100)"/>
    <rect class="cls-2" y="207.88" width="0.86" height="0.86"/>
    <polygon class="cls-2" points="247.49 139.8 240.24 139.8 241.82 147.5 231.87 147.5 231.87 152.5 243.72 152.5 233.88 169.53 238.22 172.03 249.49 152.5 265.49 152.5 276.77 172.03 281.1 169.53 271.27 152.5 281.1 152.5 281.1 147.5 246.09 147.5 247.49 139.8"/>
  </g>
</svg>
