<svg id="icon-study" xmlns="http://www.w3.org/2000/svg" viewBox="0 0 300 300">
  <g>
    <polygon class="cls-2" points="211.2 117.28 208.02 117.28 208.02 113.28 213.04 113.28 213.04 109.28 193.04 109.28 193.04 113.28 188.02 113.28 188.02 117.28 191.2 117.28 191.2 121.28 75.65 121.28 76.65 121.23 76.6 73.82 88.66 64.14 104.32 70.54 95.05 82.13 119.23 82.13 106.28 68.1 88.16 60.69 73.65 72.38 73.7 121.28 61.53 121.28 61.53 129.66 61.53 200.34 67.53 200.34 67.53 129.66 229.53 129.66 229.53 200.34 235.53 200.34 235.53 129.66 235.53 121.28 211.2 121.28 211.2 117.28"/>
  </g>
</svg>
